<svg xmlns="http://www.w3.org/2000/svg" width="64" height="64" viewBox="0 0 64 64">
  <g fill="none" fill-rule="evenodd" transform="translate(2 2)">
    <path fill="#099" fill-opacity=".1" d="M45,30 C45,38.28375 38.28375,45 30,45 C21.71625,45 15,38.28375 15,30 C15,21.71625 21.71625,15 30,15 C38.28375,15 45,21.71625 45,30"/>
    <path stroke="#099" stroke-linecap="round" stroke-linejoin="round" stroke-width="1.17" d="M45,30 C45,38.28375 38.28375,45 30,45 C21.71625,45 15,38.28375 15,30 C15,21.71625 21.71625,15 30,15 C38.28375,15 45,21.71625 45,30 Z"/>
    <path stroke="#099" stroke-linecap="round" stroke-linejoin="round" stroke-width="1.17" d="M48.75,30 C48.75,40.355625 40.355625,48.75 30,48.75 C19.644375,48.75 11.25,40.355625 11.25,30 C11.25,19.644375 19.644375,11.25 30,11.25 C40.355625,11.25 48.75,19.644375 48.75,30 Z"/>
    <path stroke="#099" stroke-linecap="round" stroke-linejoin="round" stroke-width="1.17" d="M52.5,30 C52.5,42.4265625 42.4265625,52.5 30,52.5 C17.5734375,52.5 7.5,42.4265625 7.5,30 C7.5,17.5734375 17.5734375,7.5 30,7.5 C42.4265625,7.5 52.5,17.5734375 52.5,30 Z"/>
    <path stroke="#099" stroke-linecap="round" stroke-linejoin="round" stroke-width="1.17" d="M52.5 30C52.5 42.4265625 42.4265625 52.5 30 52.5 17.5734375 52.5 7.5 42.4265625 7.5 30 7.5 17.5734375 17.5734375 7.5 30 7.5 42.4265625 7.5 52.5 17.5734375 52.5 30zM30 48.75L30 60M48.75 30L60 30M30 11.25L30 0M11.25 30L0 30"/>
    <path stroke="#099" stroke-dasharray="0 3.742" stroke-linecap="round" stroke-linejoin="round" stroke-width="1.17" d="M4.013625,33.7385625 C5.738625,45.8679375 15.739875,55.31325 28.126125,56.1841875"/>
    <path stroke="#099" stroke-linecap="round" stroke-linejoin="round" stroke-width="1.17"/>
    <path stroke="#099" stroke-dasharray="0 3.742" stroke-linecap="round" stroke-linejoin="round" stroke-width="1.17" d="M55.986375,26.2614375 C54.261375,14.1320625 44.260125,4.68675 31.873875,3.8158125"/>
    <path stroke="#099" stroke-linecap="round" stroke-linejoin="round" stroke-width="1.17"/>
    <path fill="#099" d="M33.9270588,34.7552941 C33.4611741,35.362356 32.9317677,35.8423512 32.3388235,36.1952941 C31.7458794,36.5482371 31.0611804,36.7247059 30.2847059,36.7247059 C29.0141113,36.7247059 27.9376515,36.2658869 27.0552941,35.3482353 C26.1729368,34.4305836 25.6117659,33.1458906 25.3717647,31.4941176 L24.0164706,31.4941176 L24.0164706,30.5835294 L25.2658824,30.4988235 C25.2517646,30.2447046 25.2447059,29.9905895 25.2447059,29.7364706 C25.2447059,29.5105871 25.2517646,29.284707 25.2658824,29.0588235 L24.0164706,29.0588235 L24.0164706,28.1270588 L25.3717647,28.0211765 C25.6117659,26.3552858 26.194113,25.0529459 27.1188235,24.1141176 C28.043534,23.1752894 29.1976401,22.7058824 30.5811765,22.7058824 C31.2164738,22.7058824 31.809409,22.8647043 32.36,23.1823529 C32.910591,23.5000016 33.3694099,23.8917624 33.7364706,24.3576471 L32.6988235,25.3529412 C32.4023515,24.9858805 32.0776488,24.6858835 31.7247059,24.4529412 C31.3717629,24.2199988 30.969414,24.1035294 30.5176471,24.1035294 C29.5858777,24.1035294 28.8341205,24.4529377 28.2623529,25.1517647 C27.6905854,25.8505917 27.3200008,26.8070528 27.1505882,28.0211765 L32.5294118,28.0211765 L32.5294118,29.0588235 L27.0658824,29.0588235 C27.0517646,29.2564716 27.0447059,29.4611754 27.0447059,29.6729412 C27.0447059,29.9552955 27.0517646,30.2235281 27.0658824,30.4776471 L31.6823529,30.4776471 L31.6823529,31.4941176 L27.1717647,31.4941176 C27.355295,32.6941236 27.7223502,33.6329378 28.2729412,34.3105882 C28.8235322,34.9882387 29.5294075,35.3270588 30.3905882,35.3270588 C30.9129438,35.3270588 31.3682334,35.2000013 31.7564706,34.9458824 C32.1447078,34.6917634 32.5223511,34.3176495 32.8894118,33.8235294 L33.9270588,34.7552941 Z"/>
  </g>
</svg>
