<svg xmlns="http://www.w3.org/2000/svg" width="64" height="64" viewBox="0 0 64 64">
  <g fill="none" fill-rule="evenodd">
    <g stroke="#60BFBF" stroke-width="2" transform="translate(10 10)">
      <path d="M3.60668241,31.5182682 C2.12897993,28.6685194 1.29411765,25.431756 1.29411765,22 C1.29411765,10.5644569 10.5644569,1.29411765 22,1.29411765 C25.0246292,1.29411765 27.8977874,1.94264206 30.4880072,3.10822337 L28.4705882,6.47058824 L32.3529412,12.9411765 L40.1176471,12.9411765 L40.3933159,12.4817284 C41.8710201,15.3314806 42.7058824,18.568244 42.7058824,22 C42.7058824,33.4355431 33.4355431,42.7058824 22,42.7058824 C18.9753708,42.7058824 16.1022126,42.0573579 13.5119928,40.8917766 L15.5294118,37.5294118 L11.6470588,31.0588235 L3.88235294,31.0588235 L3.60668412,31.5182716 Z"/>
      <polygon stroke-linejoin="round" points="36.235 -1.294 42.706 2.588 42.706 10.353 36.235 14.235 29.765 10.353 29.765 2.588" transform="rotate(90 36.235 6.47)"/>
      <polygon stroke-linejoin="round" points="22 6.471 28.471 10.353 28.471 18.118 22 22 15.529 18.118 15.529 10.353" transform="rotate(90 22 14.235)"/>
      <polygon stroke-linejoin="round" points="21.996 10.393 25.358 12.334 25.358 16.217 21.996 18.158 18.633 16.217 18.633 12.334" transform="rotate(90 21.996 14.276)"/>
      <polygon stroke-linejoin="round" points="22 22 28.471 25.882 28.471 33.647 22 37.529 15.529 33.647 15.529 25.882" transform="rotate(90 22 29.765)"/>
      <polygon stroke-linejoin="round" points="7.765 29.765 14.235 33.647 14.235 41.412 7.765 45.294 1.294 41.412 1.294 33.647" transform="rotate(90 7.765 37.53)"/>
    </g>
  </g>
</svg>
