<svg xmlns="http://www.w3.org/2000/svg" width="64" height="64" viewBox="0 0 64 64">
  <g fill="#60BFBF" fill-rule="evenodd" transform="translate(4 11)">
    <path d="M28 15.8605664C25.3158957 15.8605664 23.1304348 13.6703442 23.1304348 10.9803922 23.1304348 8.29044009 25.3158957 6.10021786 28 6.10021786 30.6841043 6.10021786 32.8695652 8.29044009 32.8695652 10.9803922 32.8695652 13.6703442 30.6841043 15.8605664 28 15.8605664zM28 8.05228758C26.3891478 8.05228758 25.0782609 9.3660305 25.0782609 10.9803922 25.0782609 12.5947538 26.3891478 13.9084967 28 13.9084967 29.6108522 13.9084967 30.9217391 12.5947538 30.9217391 10.9803922 30.9217391 9.3660305 29.6108522 8.05228758 28 8.05228758zM36.6570048 27.4916485L19.3429952 27.4916485C18.7456618 27.4916485 18.2608696 27.025234 18.2608696 26.4505447 18.2608696 21.2845874 22.6304928 17.08061 28 17.08061 33.3695072 17.08061 37.7391304 21.2845874 37.7391304 26.4505447 37.7391304 27.025234 37.2543382 27.4916485 36.6570048 27.4916485zM20.5030338 25.4094408L35.4969662 25.4094408C34.9710531 21.882181 31.8090821 19.1628177 28 19.1628177 24.1909179 19.1628177 21.0289469 21.882181 20.5030338 25.4094408zM12.173913 1.95206972C10.5630609 1.95206972 9.25217391 3.26581264 9.25217391 4.88017429 9.25217391 6.49453595 10.5630609 7.80827887 12.173913 7.80827887 13.7847652 7.80827887 15.0956522 6.49453595 15.0956522 4.88017429 15.0956522 3.26581264 13.7847652 1.95206972 12.173913 1.95206972L12.173913 1.95206972zM16.2008494 7.62055898L17.9938711 9.41771167C18.3498691 9.77635965 18.3498691 10.354588 17.9938711 10.713236 17.8149593 10.8907302 17.5812786 10.9803922 17.3475979 10.9803922 17.1139172 10.9803922 16.8802365 10.8907302 16.7013247 10.713236L14.9081998 8.91597991C14.1281144 9.44863808 13.186497 9.76034858 12.173913 9.76034858 9.4898087 9.76034858 7.30434783 7.57012636 7.30434783 4.88017429 7.30434783 2.19022222 9.4898087 0 12.173913 0 14.8580174 0 17.0434783 2.19022222 17.0434783 4.88017429 17.0434783 5.89502525 16.732408 6.83874655 16.2008494 7.62055898z"/>
    <path d="M42.6086957,1.95206972 C40.9978435,1.95206972 39.6869565,3.26581264 39.6869565,4.88017429 C39.6869565,6.49453595 40.9978435,7.80827887 42.6086957,7.80827887 C44.2195478,7.80827887 45.5304348,6.49453595 45.5304348,4.88017429 C45.5304348,3.26581264 44.2195478,1.95206972 42.6086957,1.95206972 L42.6086957,1.95206972 Z M46.635632,7.62055898 L48.4286537,9.41771167 C48.7846517,9.77635965 48.7846517,10.354588 48.4286537,10.713236 C48.2497419,10.8907302 48.0160612,10.9803922 47.7823805,10.9803922 C47.5486998,10.9803922 47.3150191,10.8907302 47.1361073,10.713236 L45.3429824,8.91597991 C44.562897,9.44863808 43.6212796,9.76034858 42.6086957,9.76034858 C39.9245913,9.76034858 37.7391304,7.57012636 37.7391304,4.88017429 C37.7391304,2.19022222 39.9245913,0 42.6086957,0 C45.2928,0 47.4782609,2.19022222 47.4782609,4.88017429 C47.4782609,5.89502525 47.1671906,6.83874655 46.635632,7.62055898 Z" transform="matrix(-1 0 0 1 86.435 0)"/>
    <path d="M7.13873517,17.6466627 C5.52788299,17.6466627 4.21699604,18.9604056 4.21699604,20.5747673 C4.21699604,22.1891289 5.52788299,23.5028718 7.13873517,23.5028718 C8.74958734,23.5028718 10.0604743,22.1891289 10.0604743,20.5747673 C10.0604743,18.9604056 8.74958734,17.6466627 7.13873517,17.6466627 L7.13873517,17.6466627 Z M11.1656715,23.315152 L12.9586932,25.1123047 C13.3146912,25.4709526 13.3146912,26.049181 12.9586932,26.407829 C12.7797814,26.5853231 12.5461007,26.6749851 12.31242,26.6749851 C12.0787393,26.6749851 11.8450586,26.5853231 11.6661468,26.407829 L9.87302188,24.6105729 C9.0929365,25.1432311 8.15131909,25.4549416 7.13873517,25.4549416 C4.45463082,25.4549416 2.26916995,23.2647193 2.26916995,20.5747673 C2.26916995,17.8848152 4.45463082,15.694593 7.13873517,15.694593 C9.82283952,15.694593 12.0083004,17.8848152 12.0083004,20.5747673 C12.0083004,21.5896182 11.6972301,22.5333395 11.1656715,23.315152 Z" transform="rotate(-45 7.747 21.185)"/>
    <path d="M47.3126482,17.6466627 C45.701796,17.6466627 44.3909091,18.9604056 44.3909091,20.5747673 C44.3909091,22.1891289 45.701796,23.5028718 47.3126482,23.5028718 C48.9235004,23.5028718 50.2343873,22.1891289 50.2343873,20.5747673 C50.2343873,18.9604056 48.9235004,17.6466627 47.3126482,17.6466627 L47.3126482,17.6466627 Z M51.3395845,23.315152 L53.1326063,25.1123047 C53.4886042,25.4709526 53.4886042,26.049181 53.1326063,26.407829 C52.9536945,26.5853231 52.7200138,26.6749851 52.4863331,26.6749851 C52.2526523,26.6749851 52.0189716,26.5853231 51.8400598,26.407829 L50.0469349,24.6105729 C49.2668495,25.1432311 48.3252321,25.4549416 47.3126482,25.4549416 C44.6285439,25.4549416 42.443083,23.2647193 42.443083,20.5747673 C42.443083,17.8848152 44.6285439,15.694593 47.3126482,15.694593 C49.9967526,15.694593 52.1822134,17.8848152 52.1822134,20.5747673 C52.1822134,21.5896182 51.8711432,22.5333395 51.3395845,23.315152 Z" transform="scale(-1 1) rotate(-45 0 136.877)"/>
    <path d="M12.173913,32.453159 C10.5630609,32.453159 9.25217391,33.766902 9.25217391,35.3812636 C9.25217391,36.9956253 10.5630609,38.3093682 12.173913,38.3093682 C13.7847652,38.3093682 15.0956522,36.9956253 15.0956522,35.3812636 C15.0956522,33.766902 13.7847652,32.453159 12.173913,32.453159 L12.173913,32.453159 Z M16.2008494,38.1216483 L17.9938711,39.918801 C18.3498691,40.277449 18.3498691,40.8556774 17.9938711,41.2143253 C17.8149593,41.3918195 17.5812786,41.4814815 17.3475979,41.4814815 C17.1139172,41.4814815 16.8802365,41.3918195 16.7013247,41.2143253 L14.9081998,39.4170692 C14.1281144,39.9497274 13.186497,40.2614379 12.173913,40.2614379 C9.4898087,40.2614379 7.30434783,38.0712157 7.30434783,35.3812636 C7.30434783,32.6913115 9.4898087,30.5010893 12.173913,30.5010893 C14.8580174,30.5010893 17.0434783,32.6913115 17.0434783,35.3812636 C17.0434783,36.3961146 16.732408,37.3398359 16.2008494,38.1216483 Z" transform="rotate(-90 12.783 35.991)"/>
    <path d="M42.6086957,32.453159 C40.9978435,32.453159 39.6869565,33.766902 39.6869565,35.3812636 C39.6869565,36.9956253 40.9978435,38.3093682 42.6086957,38.3093682 C44.2195478,38.3093682 45.5304348,36.9956253 45.5304348,35.3812636 C45.5304348,33.766902 44.2195478,32.453159 42.6086957,32.453159 L42.6086957,32.453159 Z M46.635632,38.1216483 L48.4286537,39.918801 C48.7846517,40.277449 48.7846517,40.8556774 48.4286537,41.2143253 C48.2497419,41.3918195 48.0160612,41.4814815 47.7823805,41.4814815 C47.5486998,41.4814815 47.3150191,41.3918195 47.1361073,41.2143253 L45.3429824,39.4170692 C44.562897,39.9497274 43.6212796,40.2614379 42.6086957,40.2614379 C39.9245913,40.2614379 37.7391304,38.0712157 37.7391304,35.3812636 C37.7391304,32.6913115 39.9245913,30.5010893 42.6086957,30.5010893 C45.2928,30.5010893 47.4782609,32.6913115 47.4782609,35.3812636 C47.4782609,36.3961146 47.1671906,37.3398359 46.635632,38.1216483 Z" transform="matrix(0 -1 -1 0 79.209 79.209)"/>
  </g>
</svg>
