<svg xmlns="http://www.w3.org/2000/svg" width="64" height="64" viewBox="0 0 64 64">
  <g fill="#60BFBF" fill-rule="evenodd" transform="translate(19.5 11.6)">
    <path d="M9.39590939,39.8341831 C9.24528439,39.8341831 9.09247189,39.7919956 8.95684689,39.7029331 C8.58747189,39.4591831 8.48528439,38.9638706 8.72809689,38.5948081 L22.6962219,17.3641831 L15.6865344,17.3594956 C15.1855969,17.3594956 14.7184094,17.1326206 14.3712219,16.7216831 C13.9368469,16.2076206 13.7299719,15.4385581 13.8449719,14.7619956 L17.2624719,0.782620587 C17.3668469,0.354495587 17.7984094,0.0916830869 18.2299719,0.196683087 C18.6590344,0.301058087 18.9218469,0.734183087 18.8165344,1.16387059 L15.4109094,15.0869956 C15.3868469,15.2432456 15.4615344,15.5323081 15.5937219,15.6885581 L23.4093469,15.7591831 C23.9943469,15.7591831 24.3930969,15.9513706 24.5952844,16.3279331 C24.9124719,16.9216831 24.5277844,17.4985581 24.2180969,17.9626206 L10.0652844,39.4732456 C9.91153439,39.7076206 9.65622189,39.8341831 9.39590939,39.8341831"/>
    <path d="M9.39809689,39.9985581 C9.36528439,39.9985581 9.33247189,39.9966831 9.29903439,39.9919956 C8.86090939,39.9388706 8.54840939,39.5388706 8.60247189,39.1013706 L10.4055969,24.4138706 C10.4909094,24.3701206 10.4055969,24.3248081 10.1452844,24.3248081 L1.33215939,24.3248081 C0.599971885,24.3248081 0.271221885,23.9951206 0.124346885,23.7185581 C-0.228465615,23.0526206 0.260284385,22.3307456 0.469034385,22.0229331 L17.4087219,0.307308087 C17.6812219,-0.0380044131 18.1840344,-0.103629413 18.5318469,0.168245587 C18.8805969,0.440433087 18.9421594,0.943558087 18.6705969,1.29199559 L1.95215939,22.7198081 L10.1452844,22.7244956 C10.8346594,22.7244956 11.3490344,22.9182456 11.6749719,23.3013706 C11.8787219,23.5416831 12.0990344,23.9685581 11.9896594,24.6388706 L10.1912219,39.2951206 C10.1409094,39.7013706 9.79590939,39.9985581 9.39809689,39.9985581"/>
  </g>
</svg>
