<svg xmlns="http://www.w3.org/2000/svg" width="64" height="64" viewBox="0 0 64 64">
  <g fill="#60BFBF" fill-rule="evenodd" transform="translate(8 7)">
    <path d="M23.6676,46.6447674 C23.3873538,46.6447674 23.1211385,46.5227132 22.9416923,46.3095736 L5.31276923,25.488938 C5.04581538,25.1734186 5.01996923,24.7216357 5.24889231,24.379155 L11.6594769,14.7587287 C11.8344923,14.4964031 12.1313538,14.3375504 12.4492615,14.3375504 L34.8855692,14.3375504 C35.2034769,14.3375504 35.5003385,14.4964031 35.6753538,14.7587287 L42.0859385,24.379155 C42.3152308,24.7216357 42.2890154,25.1734186 42.0220615,25.488938 L24.3931385,46.3095736 C24.2136923,46.5227132 23.9474769,46.6447674 23.6676,46.6447674 L23.6676,46.6447674 Z M7.21430769,24.8254729 L23.6676,44.2561473 L40.1205231,24.8254729 L34.3760308,16.2037054 L12.9588,16.2037054 L7.21430769,24.8254729 L7.21430769,24.8254729 Z"/>
    <path d="M41.2961538,25.8241318 L6.03867692,25.8241318 C5.51658462,25.8241318 5.09307692,25.4069612 5.09307692,24.8910543 C5.09307692,24.3755116 5.51658462,23.9583411 6.03867692,23.9583411 L41.2961538,23.9583411 C41.8182462,23.9583411 42.2417538,24.3755116 42.2417538,24.8910543 C42.2417538,25.4069612 41.8182462,25.8241318 41.2961538,25.8241318"/>
    <path d="M23.6676,46.6447674 C23.2699385,46.6447674 22.9151077,46.3988372 22.7788615,46.0308527 L11.5605231,15.5894264 C11.3825538,15.1048527 11.6354769,14.568907 12.1261846,14.3940233 C12.6183692,14.2173178 13.1592923,14.4668915 13.338,14.9518295 L23.6676,42.9824109 L33.9968308,14.9518295 C34.1759077,14.4668915 34.7197846,14.2191395 35.2086462,14.3940233 C35.6993538,14.568907 35.9522769,15.1048527 35.7743077,15.5894264 L24.5559692,46.0308527 C24.4197231,46.3988372 24.0648923,46.6447674 23.6676,46.6447674"/>
    <path d="M16.0200923,25.8241318 C15.8155385,25.8241318 15.6102462,25.7585504 15.4370769,25.6255659 C15.0261231,25.3067674 14.9541231,24.7216357 15.2768308,24.3153953 L22.9236,14.694969 C23.2459385,14.2883643 23.8400308,14.2191395 24.2509846,14.5361163 C24.6619385,14.8552791 24.7339385,15.4400465 24.4112308,15.8462868 L16.7640923,25.4670775 C16.5776308,25.7020775 16.3003385,25.8241318 16.0200923,25.8241318"/>
    <path d="M30.5733231 25.4670775L22.9236 15.8462868C22.6016308 15.4418682 22.6732615 14.8552791 23.0838462 14.5361163 23.4944308 14.2209612 24.0885231 14.2883643 24.4112308 14.694969L32.0609538 24.3153953C32.3829231 24.719814 32.3116615 25.3067674 31.9007077 25.6255659 31.7275385 25.7585504 31.5222462 25.8241318 31.3176923 25.8241318 31.0374462 25.8241318 30.7597846 25.7020775 30.5733231 25.4670775zM42.6017538 13.3137519C42.3599077 13.3137519 42.1180615 13.2226667 41.9334462 13.0404961 41.5638462 12.6757907 41.5638462 12.0855581 41.9334462 11.7212171L46.3405846 7.37353488C46.7098154 7.0091938 47.3079692 7.0091938 47.6775692 7.37353488 48.0468 7.73824031 48.0468 8.32847287 47.6775692 8.69281395L43.2700615 13.0404961C43.0854462 13.2226667 42.8436 13.3137519 42.6017538 13.3137519M5.35264615 13.3137519C5.1108 13.3137519 4.86895385 13.2226667 4.68433846 13.0404961L.2772 8.69281395C-.0924 8.32847287-.0924 7.73824031.2772 7.37353488.646430769 7.0091938 1.24458462 7.0091938 1.61381538 7.37353488L6.02095385 11.7212171C6.39018462 12.0855581 6.39018462 12.6757907 6.02095385 13.0404961 5.83633846 13.2226667 5.59449231 13.3137519 5.35264615 13.3137519M24.1815692 7.66355039C23.6594769 7.66355039 23.2363385 7.2460155 23.2363385 6.73047287L23.2363385.932713178C23.2363385.417170543 23.6594769 0 24.1815692 0 24.7036615 0 25.1271692.417170543 25.1271692.932713178L25.1271692 6.73047287C25.1271692 7.2460155 24.7036615 7.66355039 24.1815692 7.66355039"/>
  </g>
</svg>
