<svg xmlns="http://www.w3.org/2000/svg" xmlns:xlink="http://www.w3.org/1999/xlink" width="64" height="64" viewBox="0 0 64 64">
  <defs>
    <path id="network-a" d="M37.0232558,20.5384615 C37.0232558,24.149 34.1073488,27.0769231 30.5116279,27.0769231 C26.915907,27.0769231 24,24.149 24,20.5384615 C24,16.9279231 26.915907,14 30.5116279,14 C34.1073488,14 37.0232558,16.9279231 37.0232558,20.5384615"/>
    <path id="network-b" d="M16.0232558,39.4615385 C16.0232558,43.0720769 13.1073488,46 9.51162791,46 C5.91590698,46 3,43.0720769 3,39.4615385 C3,35.851 5.91590698,32.9230769 9.51162791,32.9230769 C13.1073488,32.9230769 16.0232558,35.851 16.0232558,39.4615385"/>
    <path id="network-c" d="M57,39.4615385 C57,43.0720769 54.084093,46 50.4883721,46 C46.8926512,46 43.9767442,43.0720769 43.9767442,39.4615385 C43.9767442,35.851 46.8926512,32.9230769 50.4883721,32.9230769 C54.084093,32.9230769 57,35.851 57,39.4615385"/>
  </defs>
  <g fill="none" fill-rule="evenodd" transform="translate(2 2)">
    <rect width="60" height="60"/>
    <path fill="#099" d="M30,40.4615385 C29.8551089,40.4615385 29.7102178,40.4066148 29.5935682,40.2980752 L8.71942815,20.682483 C8.46525479,20.4431728 8.44069698,20.0299376 8.66540096,19.7592425 C8.89256072,19.4885473 9.27934626,19.4637009 9.53229172,19.7017034 L30,38.9354454 L50.4677083,19.7017034 C50.7206537,19.4637009 51.1098951,19.4885473 51.334599,19.7592425 C51.559303,20.0299376 51.5347452,20.4431728 51.2805719,20.682483 L30.4064318,40.2980752 C30.2897822,40.4066148 30.1448911,40.4615385 30,40.4615385"/>
    <path fill="#099" d="M50.8741401,40.4607855 C50.729249,40.4607855 50.5843579,40.4071729 50.4677083,40.2973324 L30,21.0647866 L9.53229172,40.2973324 C9.27934626,40.5366278 8.89256072,40.5117829 8.66540096,40.2397969 C8.44069698,39.9691186 8.46525479,39.5559092 8.71942815,39.3166138 L29.5935682,19.7022415 C29.8256395,19.4838682 30.1743605,19.4838682 30.4064318,19.7022415 L51.2805719,39.3166138 C51.5347452,39.5559092 51.559303,39.9691186 51.334599,40.2397969 C51.2130379,40.3862509 51.043589,40.4607855 50.8741401,40.4607855"/>
    <path fill="#FFF" d="M15.0232558,20.8461538 C15.0232558,24.4566923 12.1073488,27.3846154 8.51162791,27.3846154 C4.91590698,27.3846154 2,24.4566923 2,20.8461538 C2,17.2356154 4.91590698,14.3076923 8.51162791,14.3076923 C12.1073488,14.3076923 15.0232558,17.2356154 15.0232558,20.8461538"/>
    <path fill="#099" d="M9.1627907,14.3076923 C5.93172093,14.3076923 3.30232558,16.9479231 3.30232558,20.1923077 C3.30232558,23.4366923 5.93172093,26.0769231 9.1627907,26.0769231 C12.3938605,26.0769231 15.0232558,23.4366923 15.0232558,20.1923077 C15.0232558,16.9479231 12.3938605,14.3076923 9.1627907,14.3076923 M9.1627907,27.3846154 C5.21283721,27.3846154 2,24.1585385 2,20.1923077 C2,16.2260769 5.21283721,13 9.1627907,13 C13.1127442,13 16.3255814,16.2260769 16.3255814,20.1923077 C16.3255814,24.1585385 13.1127442,27.3846154 9.1627907,27.3846154"/>
    <use fill="#FFF" xlink:href="#network-a"/>
    <use fill="#099" fill-opacity=".1" xlink:href="#network-a"/>
    <path fill="#099" d="M30,14.3076923 C26.7689302,14.3076923 24.1395349,16.9479231 24.1395349,20.1923077 C24.1395349,23.4366923 26.7689302,26.0769231 30,26.0769231 C33.2310698,26.0769231 35.8604651,23.4366923 35.8604651,20.1923077 C35.8604651,16.9479231 33.2310698,14.3076923 30,14.3076923 M30,27.3846154 C26.0500465,27.3846154 22.8372093,24.1585385 22.8372093,20.1923077 C22.8372093,16.2260769 26.0500465,13 30,13 C33.9499535,13 37.1627907,16.2260769 37.1627907,20.1923077 C37.1627907,24.1585385 33.9499535,27.3846154 30,27.3846154"/>
    <path fill="#FFF" d="M58,20.8461538 C58,24.4566923 55.084093,27.3846154 51.4883721,27.3846154 C47.8926512,27.3846154 44.9767442,24.4566923 44.9767442,20.8461538 C44.9767442,17.2356154 47.8926512,14.3076923 51.4883721,14.3076923 C55.084093,14.3076923 58,17.2356154 58,20.8461538"/>
    <path fill="#099" d="M50.8372093,14.3076923 C47.6061395,14.3076923 44.9767442,16.9479231 44.9767442,20.1923077 C44.9767442,23.4366923 47.6061395,26.0769231 50.8372093,26.0769231 C54.0682791,26.0769231 56.6976744,23.4366923 56.6976744,20.1923077 C56.6976744,16.9479231 54.0682791,14.3076923 50.8372093,14.3076923 M50.8372093,27.3846154 C46.8872558,27.3846154 43.6744186,24.1585385 43.6744186,20.1923077 C43.6744186,16.2260769 46.8872558,13 50.8372093,13 C54.7871628,13 58,16.2260769 58,20.1923077 C58,24.1585385 54.7871628,27.3846154 50.8372093,27.3846154"/>
    <use fill="#FFF" xlink:href="#network-b"/>
    <use fill="#099" fill-opacity=".1" xlink:href="#network-b"/>
    <path fill="#099" d="M9.1627907,33.9230769 C5.93172093,33.9230769 3.30232558,36.5633077 3.30232558,39.8076923 C3.30232558,43.0520769 5.93172093,45.6923077 9.1627907,45.6923077 C12.3938605,45.6923077 15.0232558,43.0520769 15.0232558,39.8076923 C15.0232558,36.5633077 12.3938605,33.9230769 9.1627907,33.9230769 M9.1627907,47 C5.21283721,47 2,43.7739231 2,39.8076923 C2,35.8414615 5.21283721,32.6153846 9.1627907,32.6153846 C13.1127442,32.6153846 16.3255814,35.8414615 16.3255814,39.8076923 C16.3255814,43.7739231 13.1127442,47 9.1627907,47"/>
    <path fill="#FFF" d="M36.1627907,39.4615385 C36.1627907,43.0720769 33.2468837,46 29.6511628,46 C26.0554419,46 23.1395349,43.0720769 23.1395349,39.4615385 C23.1395349,35.851 26.0554419,32.9230769 29.6511628,32.9230769 C33.2468837,32.9230769 36.1627907,35.851 36.1627907,39.4615385"/>
    <path fill="#099" d="M30,33.9230769 C26.7689302,33.9230769 24.1395349,36.5633077 24.1395349,39.8076923 C24.1395349,43.0520769 26.7689302,45.6923077 30,45.6923077 C33.2310698,45.6923077 35.8604651,43.0520769 35.8604651,39.8076923 C35.8604651,36.5633077 33.2310698,33.9230769 30,33.9230769 M30,47 C26.0500465,47 22.8372093,43.7739231 22.8372093,39.8076923 C22.8372093,35.8414615 26.0500465,32.6153846 30,32.6153846 C33.9499535,32.6153846 37.1627907,35.8414615 37.1627907,39.8076923 C37.1627907,43.7739231 33.9499535,47 30,47"/>
    <use fill="#FFF" xlink:href="#network-c"/>
    <use fill="#099" fill-opacity=".1" xlink:href="#network-c"/>
    <path fill="#099" d="M50.8372093,33.9230769 C47.6061395,33.9230769 44.9767442,36.5633077 44.9767442,39.8076923 C44.9767442,43.0520769 47.6061395,45.6923077 50.8372093,45.6923077 C54.0682791,45.6923077 56.6976744,43.0520769 56.6976744,39.8076923 C56.6976744,36.5633077 54.0682791,33.9230769 50.8372093,33.9230769 M50.8372093,47 C46.8872558,47 43.6744186,43.7739231 43.6744186,39.8076923 C43.6744186,35.8414615 46.8872558,32.6153846 50.8372093,32.6153846 C54.7871628,32.6153846 58,35.8414615 58,39.8076923 C58,43.7739231 54.7871628,47 50.8372093,47"/>
  </g>
</svg>
