<svg xmlns="http://www.w3.org/2000/svg" width="64" height="64" viewBox="0 0 64 64">
  <g fill="none" fill-rule="evenodd" transform="translate(2 2)">
    <rect width="60" height="60" x="1"/>
    <path fill="#099" fill-opacity=".1" d="M40.9090909 29.5C40.9090909 35.4021719 36.0245455 40.1875 30 40.1875 23.9754545 40.1875 19.0909091 35.4021719 19.0909091 29.5M50 15.25L39.0909091 15.25C37.0809091 15.25 35.4545455 16.8433281 35.4545455 18.8125L35.4545455 25.9375 39.0909091 25.9375 50 25.9375 53.6363636 25.9375 53.6363636 18.8125C53.6363636 16.8433281 52.01 15.25 50 15.25M44.5454545 11.6875C46.5536364 11.6875 48.1818182 10.0923906 48.1818182 8.125 48.1818182 6.15760937 46.5536364 4.5625 44.5454545 4.5625 42.5372727 4.5625 40.9090909 6.15760937 40.9090909 8.125 40.9090909 10.0923906 42.5372727 11.6875 44.5454545 11.6875"/>
    <path stroke="#099" stroke-linecap="round" stroke-linejoin="round" stroke-width="1.14" d="M48.1818182 8.125C48.1818182 10.0923906 46.5536364 11.6875 44.5454545 11.6875 42.5372727 11.6875 40.9090909 10.0923906 40.9090909 8.125 40.9090909 6.15760937 42.5372727 4.5625 44.5454545 4.5625 46.5536364 4.5625 48.1818182 6.15760937 48.1818182 8.125zM35.4545455 18.8125C35.4545455 16.8433281 37.0809091 15.25 39.0909091 15.25M53.6363636 18.8125C53.6363636 16.8433281 52.01 15.25 50 15.25M53.6363636 18.8125L53.6363636 25.9375M50 15.25L39.0909091 15.25M39.0909091 20.59375L39.0909091 25.9375M50 20.59375L50 25.9375M35.4545455 18.8125L35.4545455 25.9375"/>
    <path fill="#099" fill-opacity=".1" d="M20.9090909 15.25L10 15.25C7.99 15.25 6.36363636 16.8433281 6.36363636 18.8125L6.36363636 25.9375 10 25.9375 20.9090909 25.9375 24.5454545 25.9375 24.5454545 18.8125C24.5454545 16.8433281 22.9190909 15.25 20.9090909 15.25M15.4545455 11.6875C17.4627273 11.6875 19.0909091 10.0923906 19.0909091 8.125 19.0909091 6.15760937 17.4627273 4.5625 15.4545455 4.5625 13.4463636 4.5625 11.8181818 6.15760937 11.8181818 8.125 11.8181818 10.0923906 13.4463636 11.6875 15.4545455 11.6875"/>
    <path stroke="#099" stroke-linecap="round" stroke-linejoin="round" stroke-width="1.14" d="M19.0909091 8.125C19.0909091 10.0923906 17.4627273 11.6875 15.4545455 11.6875 13.4463636 11.6875 11.8181818 10.0923906 11.8181818 8.125 11.8181818 6.15760937 13.4463636 4.5625 15.4545455 4.5625 17.4627273 4.5625 19.0909091 6.15760937 19.0909091 8.125zM6.36363636 18.8125C6.36363636 16.8433281 7.99 15.25 10 15.25M24.5454545 18.8125C24.5454545 16.8433281 22.9190909 15.25 20.9090909 15.25M6.36363636 18.8125L6.36363636 25.9375M24.5454545 18.8125L24.5454545 25.9375M20.9090909 15.25L10 15.25M10 20.59375L10 25.9375M20.9090909 20.59375L20.9090909 25.9375"/>
    <path fill="#FFF" d="M35.4545455 11.6875L24.5454545 11.6875C22.5354545 11.6875 20.9090909 13.2808281 20.9090909 15.25L20.9090909 25.9375 24.5454545 25.9375 35.4545455 25.9375 39.0909091 25.9375 39.0909091 15.25C39.0909091 13.2808281 37.4645455 11.6875 35.4545455 11.6875M30 8.125C32.0081818 8.125 33.6363636 6.52989063 33.6363636 4.5625 33.6363636 2.59510937 32.0081818 1 30 1 27.9918182 1 26.3636364 2.59510937 26.3636364 4.5625 26.3636364 6.52989063 27.9918182 8.125 30 8.125"/>
    <path stroke="#099" stroke-linecap="round" stroke-linejoin="round" stroke-width="1.14" d="M33.6363636 4.5625C33.6363636 6.52989063 32.0081818 8.125 30 8.125 27.9918182 8.125 26.3636364 6.52989063 26.3636364 4.5625 26.3636364 2.59510937 27.9918182 1 30 1 32.0081818 1 33.6363636 2.59510937 33.6363636 4.5625zM20.9090909 15.25C20.9090909 13.2808281 22.5354545 11.6875 24.5454545 11.6875M39.0909091 15.25C39.0909091 13.2808281 37.4645455 11.6875 35.4545455 11.6875M20.9090909 15.25L20.9090909 25.9375M39.0909091 15.25L39.0909091 25.9375M35.4545455 11.6875L24.5454545 11.6875M24.5454545 17.03125L24.5454545 25.9375M35.4545455 17.03125L35.4545455 25.9375"/>
    <path stroke="#099" stroke-dasharray="0 3.648" stroke-linecap="round" stroke-linejoin="round" stroke-width="1.14" d="M4.54545455,29.5 L57.2727273,29.5"/>
    <path stroke="#099" stroke-linecap="round" stroke-linejoin="round" stroke-width="1.14"/>
    <path fill="#FFF" d="M23.4117273 53.5877547C22.4417273 53.3330359 21.4444545 53.8976922 21.1853636 54.8470984 20.9253636 55.7973953 21.5008182 56.7744109 22.4708182 57.0282391 23.4408182 57.2829578 24.4371818 56.7200828 24.6980909 55.7688953 24.9571818 54.8194891 24.3817273 53.8424734 23.4117273 53.5877547M17.2727273 51.0967656C16.4027273 50.60425 15.2909091 50.896375 14.7890909 51.7478125 14.2863636 52.6001406 14.5845455 53.689375 15.4545455 54.1818906 16.3245455 54.6744062 17.4363636 54.3813906 17.9381818 53.5290625 18.44 52.677625 18.1427273 51.5883906 17.2727273 51.0967656M12.0010909 47.1333062C11.2910909 46.4377281 10.1401818 46.4377281 9.42927273 47.1333062 8.72018182 47.8288844 8.72018182 48.9573062 9.42927273 49.6519937 10.1401818 50.3475719 11.2910909 50.3475719 12.0010909 49.6519937 12.7110909 48.9573062 12.7110909 47.8288844 12.0010909 47.1333062M7.95590909 41.96875C7.45318182 41.1164219 6.34136364 40.8251875 5.47227273 41.3168125 4.60227273 41.8084375 4.30409091 42.8976719 4.80681818 43.75 5.30863636 44.6023281 6.42045455 44.8935625 7.29045455 44.4019375 8.15954545 43.9103125 8.45772727 42.8210781 7.95590909 41.96875M5.41281818 35.9544484C5.15281818 35.0041516 4.15554545 34.4403859 3.18554545 34.6951047 2.21554545 34.9498234 1.641 35.9259484 1.90009091 36.8762453 2.16009091 37.8274328 3.15736364 38.3903078 4.12736364 38.1355891 5.09736364 37.8808703 5.67281818 36.9038547 5.41281818 35.9544484M54.5871818 35.9544484C54.3271818 36.9038547 54.9026364 37.8808703 55.8726364 38.1355891 56.8426364 38.3903078 57.8399091 37.8274328 58.0999091 36.8762453 58.359 35.9259484 57.7844545 34.9498234 56.8144545 34.6951047 55.8444545 34.4403859 54.8471818 35.0041516 54.5871818 35.9544484M52.0441818 41.96875C51.5423636 42.8210781 51.8396364 43.9103125 52.7096364 44.4019375 53.5796364 44.8935625 54.6914545 44.6023281 55.1932727 43.75 55.696 42.8976719 55.3978182 41.8084375 54.5278182 41.3168125 53.6578182 40.8251875 52.546 41.1164219 52.0441818 41.96875M47.999 47.1333062C47.289 47.8288844 47.289 48.9573062 47.999 49.6519937 48.709 50.3475719 49.8599091 50.3475719 50.5708182 49.6519937 51.2808182 48.9573062 51.2808182 47.8288844 50.5708182 47.1333062 49.8599091 46.4377281 48.709 46.4377281 47.999 47.1333062M42.7272727 51.0967656C41.8572727 51.5883906 41.5590909 52.677625 42.0618182 53.5290625 42.5636364 54.3813906 43.6754545 54.6744062 44.5454545 54.1818906 45.4154545 53.689375 45.7127273 52.6001406 45.2109091 51.7478125 44.7090909 50.896375 43.5972727 50.60425 42.7272727 51.0967656M36.5882727 53.5877547C35.6182727 53.8424734 35.0428182 54.8194891 35.3019091 55.7688953 35.5628182 56.7200828 36.5591818 57.2829578 37.5291818 57.0282391 38.4991818 56.7744109 39.0746364 55.7973953 38.8146364 54.8470984 38.5555455 53.8976922 37.5582727 53.3330359 36.5882727 53.5877547M30 54.4375C28.9954545 54.4375 28.1818182 55.2355 28.1818182 56.21875 28.1818182 57.202 28.9954545 58 30 58 31.0036364 58 31.8181818 57.202 31.8181818 56.21875 31.8181818 55.2355 31.0036364 54.4375 30 54.4375"/>
    <path stroke="#099" stroke-linecap="round" stroke-linejoin="round" stroke-width="1.14" d="M23.4117273 53.5877547L27.179 39.8133484M23.4117273 53.5877547C22.4417273 53.3330359 21.4444545 53.8976922 21.1853636 54.8470984 20.9253636 55.7973953 21.5008182 56.7744109 22.4708182 57.0282391 23.4408182 57.2829578 24.4371818 56.7200828 24.6980909 55.7688953 24.9571818 54.8194891 24.3817273 53.8424734 23.4117273 53.5877547M17.2727273 51.0967656L24.5490909 38.7491406M17.2727273 51.0967656C16.4027273 50.60425 15.2909091 50.896375 14.7890909 51.7478125 14.2863636 52.6001406 14.5845455 53.689375 15.4545455 54.1818906 16.3245455 54.6744062 17.4363636 54.3813906 17.9381818 53.5290625 18.44 52.677625 18.1427273 51.5883906 17.2727273 51.0967656M12.0010909 47.1333062L22.2856364 37.0576656M12.0010909 47.1333062C11.2910909 46.4377281 10.1401818 46.4377281 9.42927273 47.1333062 8.72018182 47.8288844 8.72018182 48.9573062 9.42927273 49.6519937 10.1401818 50.3475719 11.2910909 50.3475719 12.0010909 49.6519937 12.7110909 48.9573062 12.7110909 47.8288844 12.0010909 47.1333062M7.95590909 41.96875L20.5595455 34.8392969M7.95590909 41.96875C7.45318182 41.1164219 6.34136364 40.8251875 5.47227273 41.3168125 4.60227273 41.8084375 4.30409091 42.8976719 4.80681818 43.75 5.30863636 44.6023281 6.42045455 44.8935625 7.29045455 44.4019375 8.15954545 43.9103125 8.45772727 42.8210781 7.95590909 41.96875M5.41281818 35.9544484L19.4728182 32.2628078M5.41281818 35.9544484C5.15281818 35.0041516 4.15554545 34.4403859 3.18554545 34.6951047 2.21554545 34.9498234 1.641 35.9259484 1.90009091 36.8762453 2.16009091 37.8274328 3.15736364 38.3903078 4.12736364 38.1355891 5.09736364 37.8808703 5.67281818 36.9038547 5.41281818 35.9544484M54.5871818 35.9544484L40.5271818 32.2628078M54.5871818 35.9544484C54.3271818 36.9038547 54.9026364 37.8808703 55.8726364 38.1355891 56.8426364 38.3903078 57.8399091 37.8274328 58.0999091 36.8762453 58.359 35.9259484 57.7844545 34.9498234 56.8144545 34.6951047 55.8444545 34.4403859 54.8471818 35.0041516 54.5871818 35.9544484M39.4402727 34.8393859L52.0439091 41.9688391M52.0441818 41.96875C51.5423636 42.8210781 51.8396364 43.9103125 52.7096364 44.4019375 53.5796364 44.8935625 54.6914545 44.6023281 55.1932727 43.75 55.696 42.8976719 55.3978182 41.8084375 54.5278182 41.3168125 53.6578182 40.8251875 52.546 41.1164219 52.0441818 41.96875M37.714 37.0573094L47.9985455 47.13295M47.999 47.1333062C47.289 47.8288844 47.289 48.9573062 47.999 49.6519937 48.709 50.3475719 49.8599091 50.3475719 50.5708182 49.6519937 51.2808182 48.9573062 51.2808182 47.8288844 50.5708182 47.1333062 49.8599091 46.4377281 48.709 46.4377281 47.999 47.1333062M35.4505455 38.7489625L42.7269091 51.0965875M42.7272727 51.0967656C41.8572727 51.5883906 41.5590909 52.677625 42.0618182 53.5290625 42.5636364 54.3813906 43.6754545 54.6744062 44.5454545 54.1818906 45.4154545 53.689375 45.7127273 52.6001406 45.2109091 51.7478125 44.7090909 50.896375 43.5972727 50.60425 42.7272727 51.0967656M32.821 39.8135266L36.5882727 53.5879328M36.5882727 53.5877547C35.6182727 53.8424734 35.0428182 54.8194891 35.3019091 55.7688953 35.5628182 56.7200828 36.5591818 57.2829578 37.5291818 57.0282391 38.4991818 56.7744109 39.0746364 55.7973953 38.8146364 54.8470984 38.5555455 53.8976922 37.5582727 53.3330359 36.5882727 53.5877547M30 40.1875L30 54.4375M30 54.4375C28.9954545 54.4375 28.1818182 55.2355 28.1818182 56.21875 28.1818182 57.202 28.9954545 58 30 58 31.0036364 58 31.8181818 57.202 31.8181818 56.21875 31.8181818 55.2355 31.0036364 54.4375 30 54.4375M40.9090909 29.5C40.9090909 35.4021719 36.0245455 40.1875 30 40.1875 23.9754545 40.1875 19.0909091 35.4021719 19.0909091 29.5"/>
  </g>
</svg>
