<?xml version="1.0" encoding="UTF-8"?>
<svg width="183px" height="60px" viewBox="0 0 183 60" version="1.1" xmlns="http://www.w3.org/2000/svg" xmlns:xlink="http://www.w3.org/1999/xlink">
    <!-- Generator: Sketch 46.2 (44496) - http://www.bohemiancoding.com/sketch -->
    <title>applyr</title>
    <desc>Created with Sketch.</desc>
    <defs></defs>
    <g id="v2" stroke="none" stroke-width="1" fill="none" fill-rule="evenodd">
        <g id="applyr" fill-rule="nonzero">
            <g id="applyr_full" transform="translate(0.000000, 10.000000)">
                <path d="M173.127362,7.90588796 C169.026574,7.90588796 166.292716,10.5134502 165.352952,13.8477101 L165.352952,8.2478633 L159.84252,8.2478633 L159.84252,30.4762628 L165.352952,30.4762628 L165.352952,20.6017238 C165.780118,16.113297 169.154724,13.1637594 173.298228,13.1637594 C173.682677,13.1637594 174.195276,13.1637594 174.665157,13.2492533 L174.665157,7.9913818 C174.152559,7.90588796 173.682677,7.90588796 173.127362,7.90588796 Z" id="r" fill="#403E3E"></path>
                <polygon id="y" fill="#403E3E" points="152.686811 8.27359783 145.937599 23.8334774 139.231102 8.27359783 133.635236 8.27359783 143.20374 29.8180465 139.188386 38.6666593 144.698819 38.6666593 158.23996 8.27359783"></polygon>
                <polygon id="l" fill="#403E3E" points="131.863189 0.321756637 126.352756 0.321756637 126.352756 30.5438305 131.863189 30.5438305"></polygon>
                <path d="M113.982415,7.90588796 C118.72395,7.90588796 124.618832,11.7531109 124.618832,19.40481 C124.618832,27.2274967 118.72395,30.9464789 113.982415,30.9464789 C110.351509,30.9464789 107.489501,28.8091328 107.01962,26.9710152 L107.01962,38.6409249 L101.509186,38.6409249 L101.509186,8.29061027 L106.976903,8.29061027 L106.976903,11.7103641 C107.233202,10.3424626 110.223359,7.90588796 113.982415,7.90588796 Z M113.085367,26.0733298 C116.289108,26.0733298 119.279265,23.8504899 119.279265,19.40481 C119.279265,15.001877 116.289108,12.779037 113.085367,12.779037 C109.881627,12.779037 106.720604,15.001877 106.720604,19.40481 C106.720604,23.8504899 109.881627,26.0733298 113.085367,26.0733298 Z" id="p" fill="#403E3E"></path>
                <path d="M89.179265,7.90588796 C93.9208005,7.90588796 99.8156828,11.7531109 99.8156828,19.40481 C99.8156828,27.2274967 93.9208005,30.9464789 89.179265,30.9464789 C85.5483593,30.9464789 82.6863515,28.8091328 82.21647,26.9710152 L82.21647,38.6409249 L76.7060367,38.6409249 L76.7060367,8.29061027 L82.1737529,8.29061027 L82.1737529,11.7103641 C82.4300522,10.3424626 85.4202097,7.90588796 89.179265,7.90588796 Z M88.2822174,26.0733298 C91.4859579,26.0733298 94.4761153,23.8504899 94.4761153,19.40481 C94.4761153,15.001877 91.4859579,12.779037 88.2822174,12.779037 C85.0784778,12.779037 81.9174544,15.001877 81.9174544,19.40481 C81.9174544,23.8504899 85.0784778,26.0733298 88.2822174,26.0733298 Z" id="p" fill="#403E3E"></path>
                <path d="M63.0297509,7.90588796 C69.4813336,7.90588796 72.9759409,11.5374847 72.9759409,18.3971676 L72.9759409,24.8533397 C72.9759409,27.6106632 73.4463688,28.5521883 74.8576526,30.5024903 L68.9437017,30.5024903 C68.7420897,30.3679867 68.2716619,29.7627205 67.801234,27.8796704 C66.2555423,29.6954688 64.2394227,30.7042457 61.6184671,30.7042457 C56.1077403,30.7042457 52.545929,28.1486776 52.545929,23.5755557 C52.545929,18.935182 57.0485961,16.9176282 61.8872831,16.5813692 L66.8603782,16.1778585 C66.8603782,14.0258011 64.9786665,12.8152688 63.0297509,12.8152688 C60.4087954,12.8152688 58.3254718,13.6895421 56.2421482,15.3035852 L53.4867848,11.8737437 C55.2340884,9.99069351 58.6614917,7.90588796 63.0297509,7.90588796 Z M66.8603782,20.6837286 L61.8200791,21.2217429 C59.1991236,21.4907501 58.4598798,22.499527 58.4598798,23.5755557 C58.4598798,24.7188361 59.2663276,25.8621166 61.6184671,25.8621166 C64.5082386,25.8621166 66.1211343,23.8445628 66.8603782,22.2305198 L66.8603782,20.6837286 Z" id="a" fill="#403E3E"></path>
                <path d="M0,9.19680731 C0,8.68693277 0.409142473,8.27359783 0.921374821,8.27359783 L40.4172079,8.27359783 C40.9260691,8.27359783 41.3385827,8.68817421 41.3385827,9.19680731 L41.3385827,12.8661202 C41.3385827,13.3759947 40.9294402,13.7893297 40.4172079,13.7893297 L0.921374821,13.7893297 C0.412513559,13.7893297 0,13.3747533 0,12.8661202 L0,9.19680731 Z M11.0236221,16.5511165 C11.0236221,16.0412419 11.4277036,15.627907 11.9439418,15.627907 L40.3034335,15.627907 C40.8117121,15.627907 41.2237533,16.0424834 41.2237533,16.5511165 L41.2237533,20.2204294 C41.2237533,20.7303038 40.8196717,21.1436389 40.3034335,21.1436389 L11.9439418,21.1436389 C11.4356632,21.1436389 11.0236221,20.7290625 11.0236221,20.2204294 L11.0236221,16.5511165 Z M5.51181102,23.9054256 C5.51181102,23.3955512 5.92655223,22.9822161 6.43342455,22.9822161 L40.4169691,22.9822161 C40.9259622,22.9822161 41.3385827,23.3967925 41.3385827,23.9054256 L41.3385827,28.497948 L6.43342455,28.497948 C5.92443145,28.497948 5.51181102,28.0833716 5.51181102,27.5747385 L5.51181102,23.9054256 Z M41.3385827,28.497948 L28.387806,38.392583 C27.5832993,39.0072411 26.9265963,38.683836 26.9265963,37.6659761 L26.9265963,28.497948 L41.3385827,28.497948 Z" id="mark" fill="#15E6AA"></path>
                <polygon id="shadow" fill="#0E9972" points="26.9265963 30.7993353 26.9265963 28.497948 38.807937 28.497948"></polygon>
            </g>
        </g>
    </g>
</svg>