<?xml version="1.0" encoding="UTF-8"?>
<svg width="163px" height="60px" viewBox="0 0 163 60" version="1.1" xmlns="http://www.w3.org/2000/svg" xmlns:xlink="http://www.w3.org/1999/xlink">
    <!-- Generator: Sketch 46.2 (44496) - http://www.bohemiancoding.com/sketch -->
    <title>venture-logos/case24</title>
    <desc>Created with Sketch.</desc>
    <defs></defs>
    <g id="Asset-Templates" stroke="none" stroke-width="1" fill="none" fill-rule="evenodd">
        <g id="venture-logos/case24" fill-rule="nonzero">
            <g id="case24-logo" transform="translate(2.000000, 5.000000)">
                <path d="M57.8333333,16.8333333 C60.3333333,16.8333333 62.8333333,17.3333333 62.8333333,21 C62.8333333,21.3333333 63,21.8333333 63.3333333,22 C63.6666667,22.3333333 64,22.3333333 64.5,22.3333333 L65.3333333,22.1666667 C66,22 66.3333333,21.5 66.3333333,20.8333333 C66.3333333,14.5 61.1666667,13.5 58,13.5 C54.8333333,13.5 52.6666667,14.5 51.1666667,16.3333333 C49.6666667,18.1666667 49,20.8333333 49,24.6666667 C49,28.3333333 49.6666667,31 51,32.8333333 C52.5,34.6666667 54.8333333,35.6666667 57.8333333,35.6666667 C61,35.6666667 66.1666667,34.6666667 66.1666667,28.3333333 C66.1666667,27.6666667 65.6666667,27.1666667 65.1666667,27 L64.3333333,26.8333333 C64,26.8333333 63.5,26.8333333 63.1666667,27.1666667 C62.8333333,27.5 62.6666667,27.8333333 62.6666667,28.1666667 C62.6666667,29.5 62.3333333,30.5 61.6666667,31.1666667 C61,31.8333333 59.6666667,32.1666667 57.8333333,32.1666667 C55.8333333,32.1666667 54.3333333,31.6666667 53.5,30.5 C52.6666667,29.3333333 52.1666667,27.3333333 52.1666667,24.3333333 C52.1666667,21.5 52.6666667,19.3333333 53.5,18.1666667 C54.5,17.3333333 55.8333333,16.8333333 57.8333333,16.8333333" id="Shape" fill="#262832"></path>
                <path d="M76.5,32.3333333 C74.5,32.3333333 73.1666667,31.8333333 72.5,30.6666667 C71.6666667,29.3333333 71.1666667,27.5 71.1666667,25 C71.1666667,23.8333333 71.1666667,22.8333333 71.1666667,22.1666667 C71.1666667,21.5 71.3333333,20.6666667 71.5,19.8333333 C71.6666667,19.1666667 72,18.5 72.1666667,18.1666667 C72.5,17.8333333 73,17.5 73.6666667,17.1666667 C74.3333333,16.8333333 75.3333333,16.6666667 76.3333333,16.6666667 C77.3333333,16.6666667 78.1666667,16.8333333 78.6666667,17.1666667 C79.5,17.6666667 80,18 80.3333333,18.3333333 C80.6666667,18.8333333 81,19.3333333 81.1666667,20.1666667 C81.3333333,21 81.5,21.8333333 81.5,22.5 C81.5,23.1666667 81.5,24 81.5,25 C81.5,31.6666667 78.6666667,32.3333333 76.5,32.3333333 M86.1666667,32.5 C85.8333333,32.1666667 85.5,32.1666667 85,32.1666667 L84.6666667,32.1666667 L84.6666667,15 C84.6666667,14.3333333 84,13.6666667 83.3333333,13.6666667 L82.5,13.6666667 C81.8333333,13.6666667 81.3333333,14.1666667 81.1666667,14.8333333 C80,14 78.5,13.5 76.1666667,13.5 C74.6666667,13.5 73.3333333,13.6666667 72.1666667,14.1666667 C71,14.6666667 70.1666667,15.1666667 69.5,16 C68.8333333,16.6666667 68.3333333,17.6666667 68,18.8333333 C67.6666667,19.8333333 67.5,20.8333333 67.5,21.8333333 C67.5,22.6666667 67.3333333,23.8333333 67.3333333,25.1666667 C67.3333333,34 72.1666667,35.8333333 76.1666667,35.8333333 C78.5,35.8333333 80.1666667,35.1666667 81.3333333,34.3333333 C81.8333333,35.3333333 82.6666667,35.8333333 84,35.8333333 C84.6666667,35.8333333 85.1666667,35.6666667 85.6666667,35.5 C86.1666667,35.3333333 86.3333333,34.8333333 86.3333333,34.3333333 L86.3333333,33.6666667 C86.6666667,33.1666667 86.5,32.6666667 86.1666667,32.5" id="Shape" fill="#262832"></path>
                <path d="M98.1666667,23.3333333 L94.6666667,22.1666667 C93.6666667,21.8333333 92.8333333,21.3333333 92,20.8333333 C91.5,20.5 91.1666667,20 91.1666667,19.3333333 C91.1666667,18.6666667 91.5,18.1666667 92,17.6666667 C92.6666667,17.1666667 93.8333333,16.8333333 95.3333333,16.8333333 C97,16.8333333 98.1666667,17.1666667 98.8333333,17.6666667 C99.6666667,18.3333333 100,19 100,20 C100,20.3333333 100.166667,20.8333333 100.5,21 C100.833333,21.1666667 101.166667,21.3333333 101.5,21.3333333 L102.333333,21.1666667 C102.833333,21.1666667 103.333333,20.5 103.333333,19.8333333 C103.333333,17.8333333 102.666667,16.3333333 101.166667,15.1666667 C99.8333333,14 97.8333333,13.5 95.5,13.5 C93.1666667,13.5 91.3333333,14 90,15.1666667 C88.6666667,16.3333333 88,17.6666667 88,19.3333333 C88,20.8333333 88.5,22.1666667 89.6666667,23.1666667 C90.6666667,24 91.8333333,24.6666667 93.1666667,25.1666667 L96.6666667,26.3333333 C97.6666667,26.6666667 98.5,27.1666667 99.1666667,27.6666667 C99.8333333,28.1666667 100,28.6666667 100,29.5 C100,30.3333333 99.6666667,30.8333333 99.1666667,31.5 C98.6666667,31.8333333 97.8333333,32.3333333 95.5,32.3333333 C93.6666667,32.3333333 92.5,32 91.6666667,31.5 C91,31 90.6666667,30.3333333 90.6666667,29.6666667 C90.6666667,29.3333333 90.5,28.8333333 90.1666667,28.6666667 C90,28.3333333 89.5,28.3333333 89.1666667,28.3333333 L88.3333333,28.5 C87.6666667,28.6666667 87.1666667,29.1666667 87.1666667,29.8333333 C87.1666667,31.5 87.8333333,33 89.3333333,34.1666667 C90.6666667,35.3333333 92.6666667,35.8333333 95.1666667,35.8333333 C95.1666667,35.8333333 95.3333333,35.8333333 95.3333333,35.8333333 C98,35.8333333 100,35.1666667 101.166667,34.1666667 C102.5,33 103.166667,31.5 103.166667,29.6666667 C103.166667,28 102.666667,26.6666667 101.5,25.5 C100.833333,24.5 99.6666667,23.6666667 98.1666667,23.3333333" id="Shape" fill="#262832"></path>
                <path d="M109.833333,18.5 C110.833333,17.3333333 112.166667,16.8333333 114,16.8333333 C115,16.8333333 116,17 116.666667,17.3333333 C117.333333,17.6666667 117.833333,18 118,18.3333333 C118.333333,18.8333333 118.5,19.3333333 118.666667,19.8333333 C118.833333,20.3333333 118.833333,20.8333333 118.833333,21.3333333 C118.833333,22.5 118.333333,23 117.833333,23.1666667 C117,23.6666667 115.833333,23.8333333 114.5,23.8333333 L108.166667,23.8333333 C108.5,21.1666667 109,19.3333333 109.833333,18.5 M121.333333,28.5 L120.666667,28.3333333 C120.333333,28.1666667 119.833333,28.3333333 119.5,28.6666667 C119.166667,29 119,29.3333333 119,29.6666667 C119,30.1666667 118.666667,30.8333333 118,31.5 C117.5,32 116.5,32.5 114,32.5 C112.166667,32.5 110.833333,32 109.833333,31 C109.166667,30.1666667 108.666667,28.8333333 108.333333,27.1666667 L114.666667,27.1666667 C116.666667,27.1666667 118.333333,26.8333333 119.666667,26 C120.833333,25.3333333 122.166667,24 122.166667,21.3333333 C122.166667,20.6666667 122.166667,20 122,19.3333333 C121.833333,18.6666667 121.5,18 121.166667,17.3333333 C120.833333,16.6666667 120.166667,16 119.666667,15.5 C119,15 118.166667,14.5 117.166667,14.1666667 C116.166667,13.8333333 115.166667,13.6666667 113.833333,13.6666667 C110.666667,13.6666667 108.5,14.6666667 107,16.5 C105.5,18.3333333 104.833333,21 104.833333,24.8333333 C104.833333,28.5 105.5,31.1666667 107,33 C108.5,34.8333333 110.833333,35.8333333 114,35.8333333 C115.5,35.8333333 116.833333,35.6666667 118,35.3333333 C119.166667,35 120.166667,34.3333333 120.666667,33.6666667 C121.166667,33 121.666667,32.5 121.833333,31.8333333 C122.166667,31.1666667 122.166667,30.6666667 122.166667,30 C122.333333,29.1666667 122,28.6666667 121.333333,28.5" id="Shape" fill="#262832"></path>
                <path d="M142.666667,32.8333333 L133.666667,32.8333333 C133.666667,32.6666667 133.833333,32.6666667 133.833333,32.5 C134.166667,32 134.5,31.6666667 135,31.1666667 L139.166667,27.8333333 C140,27.3333333 140.833333,26.6666667 141.5,26 C142.166667,25.1666667 142.833333,24.3333333 143.166667,23.3333333 C143.666667,22.3333333 143.833333,21.1666667 143.833333,20 C143.833333,18.3333333 143.166667,17 142.166667,15.6666667 C141,14.5 139.166667,13.8333333 137,13.8333333 C134.833333,13.8333333 133,14.5 131.833333,15.6666667 C130.5,17 130,18.5 130,20.5 C130,21 130.5,21.5 131,21.6666667 L131.5,21.8333333 C131.833333,21.8333333 132.333333,21.8333333 132.666667,21.6666667 C133,21.5 133.166667,21.1666667 133.166667,20.6666667 C133.166667,19.5 133.5,18.5 134.166667,17.8333333 C134.833333,17.1666667 135.666667,16.8333333 137,16.8333333 C138.333333,16.8333333 139.333333,17.1666667 139.833333,17.6666667 C140.5,18.3333333 140.666667,19.1666667 140.666667,20 C140.666667,21 140.5,21.8333333 140,22.6666667 C139.5,23.5 139,24.3333333 138.333333,24.8333333 C137.666667,25.5 136.833333,26.1666667 135.833333,26.8333333 L133.333333,28.6666667 C132.5,29.3333333 131.666667,30 131.166667,30.8333333 C130.5,31.6666667 130.166667,32.6666667 130.166667,33.6666667 L130.166667,34.3333333 C130.166667,35 130.833333,35.5 131.5,35.5 L142.666667,35.5 C143.333333,35.5 144,35 144,34.3333333 L144,33.8333333 C144,33.3333333 143.5,32.8333333 142.666667,32.8333333" id="Shape" fill="#9FA9BB"></path>
                <g id="Group-13" transform="translate(142.731143, 12.980820)" fill="#9FA9BB">
                    <path d="M10.1666667,6.83333333 L10.1666667,13.8333333 L4.66666667,13.8333333 L10.1666667,6.83333333 Z M14,13.8333333 L13.3333333,13.8333333 L13.3333333,2.33333333 C13.3333333,1.66666667 12.6666667,1.16666667 12,1.16666667 L11.5,1.16666667 C11,1.16666667 10.6666667,1.33333333 10.5,1.66666667 L0.5,14.3333333 C0.333333333,14.5 0.333333333,14.8333333 0.333333333,15 L0.333333333,15.5 C0.333333333,16.1666667 1,16.6666667 1.66666667,16.6666667 L10.3333333,16.6666667 L10.3333333,21.5 C10.3333333,22.1666667 11,22.6666667 11.6666667,22.6666667 L12.1666667,22.6666667 C12.6666667,22.6666667 13.3333333,22.1666667 13.3333333,21.5 L13.3333333,16.6666667 L14,16.6666667 C14.6666667,16.6666667 15.3333333,16.1666667 15.3333333,15.5 L15.3333333,15 C15.3333333,14.3333333 14.8333333,13.8333333 14,13.8333333 L14,13.8333333 Z" id="Shape"></path>
                </g>
                <path d="M20.6666667,30.1666667 C20.6666667,31 21.3333333,31.8333333 22.3333333,31.8333333 C23.1666667,31.8333333 24,31.1666667 24,30.1666667 C24,29.3333333 23.3333333,28.5 22.3333333,28.5 C21.5,28.6666667 20.6666667,29.3333333 20.6666667,30.1666667" id="Shape" fill="#EA5A47"></path>
                <g id="Group-18" transform="translate(0.000000, 0.276718)" fill="#EA5A47">
                    <path d="M23,47.3333333 C10.3333333,47.3333333 0,37 0,24.3333333 C0,11.6666667 10.3333333,1.33333333 23,1.33333333 C29.5,1.33333333 35.6666667,4 40,8.83333333 C40.6666667,9.66666667 40.6666667,10.8333333 39.8333333,11.5 C39,12.1666667 37.8333333,12.1666667 37.1666667,11.3333333 C33.5,7.33333333 28.3333333,5.16666667 23,5.16666667 C12.3333333,5.16666667 3.66666667,13.6666667 3.66666667,24.3333333 C3.66666667,35 12.3333333,43.6666667 23,43.6666667 C28.1666667,43.6666667 33.1666667,41.6666667 36.8333333,37.8333333 C37.5,37.1666667 38.6666667,37.1666667 39.5,37.8333333 C40.1666667,38.5 40.1666667,39.6666667 39.5,40.5 C35,44.8333333 29.1666667,47.3333333 23,47.3333333" id="Shape"></path>
                </g>
                <path d="M28.1666667,23 C29.1666667,23 30,22.1666667 30,21.1666667 L30,15.8333333 C30,15.1666667 29.6666667,14.5 29.1666667,14.1666667 C26.5,12.5 23.3333333,11.8333333 20,12.3333333 C19.3333333,12.6666667 15,13.8333333 14.3333333,15 C14.1666667,15.3333333 14.1666667,15.5 14.1666667,15.8333333 L14.1666667,34.5 C14.1666667,35 14.3333333,35.5 14.8333333,35.8333333 C16.6666667,37.1666667 18.6666667,37.6666667 20.1666667,37.8333333 C20.1666667,37.8333333 20.1666667,37.8333333 20.1666667,37.8333333 C20.3333333,37.8333333 20.3333333,37.8333333 20.5,37.8333333 C21.1666667,37.8333333 21.6666667,38 22,38 C22.1666667,38 22.1666667,38 22.3333333,38 C24.8333333,38 27.3333333,37.3333333 29.3333333,35.8333333 C29.8333333,35.5 30.1666667,34.8333333 30.1666667,34.1666667 L30.1666667,30 C30.1666667,29 29.3333333,28.1666667 28.3333333,28.1666667 C27.3333333,28.1666667 26.5,29 26.5,30 L26.5,33.3333333 C23.8333333,34.6666667 20.6666667,34.6666667 18.1666667,33.3333333 L18.1666667,17 C20.6666667,15.6666667 23.8333333,15.6666667 26.5,17 L26.5,21 C26.3333333,22.1666667 27.1666667,23 28.1666667,23" id="Shape" fill="#EA5A47"></path>
            </g>
        </g>
    </g>
</svg>