<?xml version="1.0" encoding="UTF-8"?>
<svg width="208px" height="60px" viewBox="0 0 208 60" version="1.1" xmlns="http://www.w3.org/2000/svg" xmlns:xlink="http://www.w3.org/1999/xlink">
    <!-- Generator: Sketch 46.2 (44496) - http://www.bohemiancoding.com/sketch -->
    <title>contexta</title>
    <desc>Created with Sketch.</desc>
    <defs></defs>
    <g id="v2" stroke="none" stroke-width="1" fill="none" fill-rule="evenodd">
        <g id="contexta" fill-rule="nonzero">
            <g id="logo" transform="translate(0.000000, 6.000000)">
                <path d="M74.6713741,9.7886523 C78.3623617,9.7886523 81.3071264,11.6177634 82.7601813,14.6004149 L80.8362733,15.2364654 C79.618829,12.970023 77.2236999,11.5778704 74.5535689,11.5778704 C70.0773353,11.5778704 66.5825672,15.3956644 66.5825672,20.4061463 C66.5825672,25.3767349 70.2341636,29.4327682 74.59296,29.4327682 C77.4199193,29.4327682 80.404075,27.6431773 81.0324927,25.6153471 L82.9564007,26.1719845 C81.935544,29.0748501 78.4801672,31.2223592 74.7103971,31.2223592 C68.9776963,31.2223592 64.5798769,26.2912905 64.5798769,20.4061463 C64.5798769,14.520629 68.820868,9.7886523 74.6713741,9.7886523 Z M84.7489926,20.525415 C84.7489926,14.7196837 89.107789,9.78861501 94.7226846,9.78861501 C100.376603,9.78861501 104.7354,14.7196837 104.7354,20.525415 C104.7354,26.2912533 100.415994,31.222322 94.7226846,31.222322 C88.9899837,31.222322 84.7489926,26.2912533 84.7489926,20.525415 Z M94.7226846,29.432731 C99.0811128,29.432731 102.732709,25.4165906 102.732709,20.4855219 C102.732709,15.6342392 99.0811128,11.5778331 94.7226846,11.5778331 C90.4032793,11.5778331 86.7516829,15.6737594 86.7516829,20.604828 C86.7516829,25.4960038 90.3248651,29.432731 94.7226846,29.432731 Z M124.106421,30.8246599 L122.143122,30.8246599 L122.143122,19.2926105 C122.143122,13.9637307 120.690435,11.6178752 117.431278,11.6178752 C113.975533,11.6178752 110.44211,14.3615418 109.381862,18.0201368 L109.381862,30.8246599 L107.418563,30.8246599 L107.418563,10.1463095 L109.224665,10.1463095 L109.224665,15.0773782 C110.87394,11.9359004 114.368708,9.78876415 118.020304,9.78876415 C122.457515,9.78876415 124.106421,13.0890681 124.106421,18.9346924 L124.106421,30.8246599 Z M137.761456,29.8306914 C137.369017,30.0693034 135.64096,31.0632721 133.481441,31.0632721 C131.321923,31.0632721 129.437406,29.7509054 129.437406,27.3651569 L129.437406,11.7767014 L126.571056,11.7767014 L126.571056,10.1463095 L129.437406,10.1463095 L129.437406,3.06810452 L131.400705,3.06810452 L131.400705,10.1463095 L136.190595,10.1463095 L136.190595,11.7767014 L131.400705,11.7767014 L131.400705,26.8875598 C131.400705,28.4389114 132.657172,29.194268 133.992054,29.194268 C135.601937,29.194268 136.936818,28.3990186 137.172429,28.2398196 L137.761456,29.8306914 Z M137.616187,20.4058106 C137.616187,14.5605592 141.935224,9.78868959 147.628902,9.78868959 C153.400994,9.78868959 157.602594,14.6399723 157.641985,20.4058106 C157.641985,20.6843158 157.602594,21.16154 157.602594,21.2808461 L139.658268,21.2808461 C140.011684,26.0527157 143.545475,29.6315248 147.786098,29.6315248 C150.652449,29.6315248 153.440017,28.0011328 154.461242,25.6552774 L156.18893,26.1321289 C154.971854,29.0748873 151.516477,31.2223965 147.707316,31.2223965 C141.974615,31.2223965 137.616187,26.2913278 137.616187,20.4058106 Z M155.717709,19.6903471 C155.364293,14.8386915 151.948307,11.4187087 147.628902,11.4187087 C143.348888,11.4187087 139.893879,14.8785845 139.618877,19.6903471 L155.717709,19.6903471 Z M159.878703,10.1463468 L166.436041,18.6961175 L166.750066,19.2527548 L167.103482,18.6961175 L173.66082,10.1463468 L175.820339,10.1463468 L167.888728,20.5252286 L175.820339,30.8246971 L173.621429,30.8246971 L167.103482,22.3148195 L166.750066,21.7977023 L166.436041,22.3148195 L159.917726,30.8246971 L157.718816,30.8246971 L165.650795,20.5252286 L157.679425,10.1463468 L159.878703,10.1463468 Z M188.835727,29.8306914 C188.443287,30.0693034 186.715231,31.0632721 184.555713,31.0632721 C182.396194,31.0632721 180.511677,29.7509054 180.511677,27.3651569 L180.511677,11.7767014 L177.645327,11.7767014 L177.645327,10.1463095 L180.511677,10.1463095 L180.511677,3.06810452 L182.474976,3.06810452 L182.474976,10.1463095 L187.264867,10.1463095 L187.264867,11.7767014 L182.474976,11.7767014 L182.474976,26.8875598 C182.474976,28.4389114 183.731443,29.194268 185.066324,29.194268 C186.676209,29.194268 188.01109,28.3990186 188.2467,28.2398196 L188.835727,29.8306914 Z M189.973321,24.8200603 C189.973321,21.2412514 193.507113,18.6963039 198.493959,18.6963039 C200.692869,18.6963039 203.087997,19.1336352 204.854709,19.8095786 L204.854709,17.7813755 C204.854709,13.8845413 202.459947,11.379114 198.729569,11.379114 C196.687856,11.379114 194.410163,12.2541494 192.172232,13.8446483 L191.386984,12.4923886 C194.017724,10.7031706 196.491636,9.78861501 198.847374,9.78861501 C203.755439,9.78861501 206.818376,12.8901998 206.818376,17.9405746 L206.818376,28.041324 C206.818376,28.7168946 207.093377,29.0352928 207.643013,29.0352928 L207.643013,30.8245108 C207.368011,30.8644038 207.1324,30.8644038 206.936181,30.8644038 C205.993739,30.8644038 205.051296,30.1485674 205.051296,29.0748128 L205.051296,27.3650078 C203.16678,29.8305422 200.103841,31.222322 196.726879,31.222322 C192.918454,31.222322 189.973321,28.4387625 189.973321,24.8200603 Z M204.187636,26.4504522 C204.619466,25.9333352 204.854709,25.3371776 204.854709,24.8595805 L204.854709,21.2013583 C202.931169,20.4855219 200.850064,20.0880836 198.729569,20.0880836 C194.645774,20.0880836 191.897228,21.9567149 191.897228,24.7007544 C191.897228,27.4843139 194.174921,29.6314502 197.119686,29.6314502 C200.143233,29.6314502 202.931169,28.3992423 204.187636,26.4504522 Z" id="contexta" fill="#58585B"></path>
                <path d="M42.404868,47.2361782 L33.5657883,38.3042552 L42.404868,38.3042552 L42.404868,47.2361782 Z M48.4662824,0.37264503 C51.2980276,0.37264503 53.5933904,2.69762193 53.5933904,5.56544139 L53.5933904,33.1117199 C53.5933904,35.9795393 51.2980276,38.3041434 48.4662824,38.3041434 L44.7543109,38.3041434 L44.7543109,0.37264503 L48.4662824,0.37264503 Z M-7.36283186e-05,32.633489 L8.83900601,32.633489 L8.83900601,38.3042552 L5.12740247,38.3042552 C2.29565734,38.3042552 -7.36283186e-05,35.9796511 -7.36283186e-05,33.111459 L-7.36283186e-05,32.633489 Z M11.1885593,38.3043298 L11.1885593,30.0774311 L20.027639,30.0774311 L20.027639,38.3043298 L11.1885593,38.3043298 Z M22.3771186,38.3043298 L22.3771186,24.3969712 L31.2161983,24.3969712 L31.2161983,38.3043298 L22.3771186,38.3043298 Z M33.5656779,38.3043298 L33.5656779,15.662649 L42.4047576,15.662649 L42.4047576,38.3043298 L33.5656779,38.3043298 Z" id="bottom-logo" fill="#00ADEE"></path>
                <path d="M8.83911646,0.37264503 L8.83911646,32.633377 L3.68141593e-05,32.633377 L3.68141593e-05,5.56544139 C3.68141593e-05,2.69762193 2.29576779,0.37264503 5.12714479,0.37264503 L8.83911646,0.37264503 Z M11.1885593,30.0770584 L11.1885593,0.372458614 L20.027639,0.372458614 L20.027639,30.0770584 L11.1885593,30.0770584 Z M22.3771186,24.3969712 L22.3771186,0.372458614 L31.2161983,0.372458614 L31.2161983,24.3969712 L22.3771186,24.3969712 Z M33.5656779,15.6622762 L33.5656779,0.372458614 L42.4047576,0.372458614 L42.4047576,15.6622762 L33.5656779,15.6622762 Z" id="top-logo" fill="#A9DDF0"></path>
            </g>
        </g>
    </g>
</svg>