<?xml version="1.0" encoding="UTF-8"?>
<svg width="231px" height="60px" viewBox="0 0 231 60" version="1.1" xmlns="http://www.w3.org/2000/svg" xmlns:xlink="http://www.w3.org/1999/xlink">
    <!-- Generator: Sketch 46.2 (44496) - http://www.bohemiancoding.com/sketch -->
    <title>homedeco</title>
    <desc>Created with Sketch.</desc>
    <defs>
        <polygon id="path-1" points="0.000188571429 0.066 30.9650314 0.066 30.9650314 37.8030557 0.000188571429 37.8030557"></polygon>
    </defs>
    <g id="v2" stroke="none" stroke-width="1" fill="none" fill-rule="evenodd">
        <g id="homedeco">
            <g id="homedeco-logo" transform="translate(0.000000, 10.000000)">
                <g id="Group-3" transform="translate(0.000000, 0.405523)">
                    <g id="Fill-1-Clipped">
                        <mask id="mask-2" fill="white">
                            <use xlink:href="#path-1"></use>
                        </mask>
                        <g id="path-1"></g>
                        <path d="M19.36836,13.8610843 C21.80046,13.8610843 23.7092743,14.5234414 25.0919743,15.8486271 C26.4742029,17.17287 27.16626,19.0529271 27.16626,21.4836129 L27.16626,30.2554843 C27.16626,32.33967 27.1837029,33.8798271 27.2162314,34.8792557 C27.2327314,35.3289986 27.4486457,35.6137414 27.86586,35.7292414 L30.8896029,36.6042129 L30.9650314,37.8030557 C28.5824314,37.7535557 26.1838029,37.72857 23.76726,37.72857 C21.2682171,37.72857 19.01856,37.7535557 17.0197029,37.8030557 L16.91976,36.6042129 L19.4183314,35.8536986 C19.8011314,35.7381986 20.0104457,35.4883414 20.0434457,35.1041271 C20.0608886,34.8547414 20.06796,34.32957 20.06796,33.5295557 L20.06796,23.0581843 C20.06796,21.0084129 19.66866,19.5399129 18.8686457,18.6470271 C18.0686314,17.75697 16.87686,17.3105271 15.2952171,17.3105271 C13.9125171,17.3105271 12.4883314,17.6292129 11.0212457,18.2599843 L11.0212457,29.2565271 C11.0212457,31.33977 11.0382171,33.2485843 11.0716886,34.9791986 C11.0881886,35.4289414 11.2791171,35.7042557 11.6458886,35.8037271 L14.2453457,36.6042129 L14.2948457,37.8030557 C12.2290457,37.7535557 9.97938857,37.72857 7.54728857,37.72857 C5.06568857,37.72857 2.62368857,37.7535557 0.225531429,37.8030557 L0.100131429,36.6042129 L3.32376,35.7292414 C3.69147429,35.6292986 3.88146,35.3794414 3.89843143,34.9791986 C3.91587429,33.9142414 3.92341714,32.8893557 3.92341714,31.9050129 L3.92341714,10.0368557 C3.92341714,7.85697 3.89088857,5.84727 3.82347429,4.01435571 L0.149631429,3.01445571 L0.000188571429,1.99004143 C4.16526,1.37435571 7.79761714,0.733684286 10.8963171,0.06567 L11.17116,0.265555714 C11.0716886,2.56471286 11.0212457,5.01378429 11.0212457,7.61324143 L11.0212457,16.3851129 C13.83756,14.7049414 16.61946,13.8610843 19.36836,13.8610843" id="Fill-1" fill="#D4CDCD" fill-rule="nonzero" mask="url(#mask-2)"></path>
                    </g>
                </g>
                <path d="M101.502814,30.6611957 C101.502814,32.7453814 101.518371,34.2855386 101.552314,35.2849671 C101.568814,35.73471 101.785671,36.0194529 102.202414,36.1344814 L105.226629,37.0094529 L105.301586,38.2087671 C102.918514,38.1587957 100.518471,38.1342814 98.1038143,38.1342814 C95.6038286,38.1342814 93.4050857,38.1587957 91.5066429,38.2087671 L91.3807714,37.0094529 L93.7548857,36.25941 C94.1381571,36.14391 94.3455857,35.8940529 94.3804714,35.5098386 C94.3960286,35.2604529 94.4049857,34.7352814 94.4049857,33.9347957 L94.4049857,23.4638957 C94.4049857,21.4136529 94.0259571,19.9456243 93.2679,19.0522671 C92.5093714,18.1626814 91.3718143,17.7162386 89.8566429,17.7162386 C88.4895,17.7162386 87.0403286,18.1994529 85.5077143,19.1649386 C85.7406,19.9842814 85.8579857,20.8894243 85.8579857,21.8893243 L85.8579857,30.6611957 C85.8579857,32.7453814 85.8740143,34.3194814 85.9079571,35.38491 C85.9239857,35.8346529 86.1153857,36.1099671 86.4826286,36.2094386 L88.9816714,37.0094529 L89.0316429,38.2087671 C87.0653143,38.1587957 84.8731714,38.1342814 82.4589857,38.1342814 C79.9599429,38.1342814 77.7607286,38.1587957 75.8613429,38.2087671 L75.7614,37.0094529 L78.1105286,36.25941 C78.4928571,36.14391 78.7007571,35.8940529 78.7351714,35.5098386 C78.7507286,35.2604529 78.7601571,34.7352814 78.7601571,33.9347957 L78.7601571,23.4638957 C78.7601571,21.4136529 78.3806571,19.9456243 77.6230714,19.0522671 C76.8636,18.1626814 75.7359429,17.7162386 74.2368,17.7162386 C72.9370714,17.7162386 71.5873714,18.1155386 70.1881714,18.9150814 L70.1881714,29.6617671 C70.1881714,31.7454814 70.2032571,33.6538243 70.2376714,35.38491 C70.2537,35.8346529 70.4460429,36.1099671 70.8123429,36.2094386 L73.3123286,37.0094529 L73.3627714,38.2087671 C71.3625,38.1587957 69.1463143,38.1342814 66.7142143,38.1342814 C64.2307286,38.1342814 61.7906143,38.1587957 59.3915143,38.2087671 L59.2661143,37.0094529 L62.4906857,36.1344814 C62.8560429,36.0345386 63.0483857,35.7851529 63.0653571,35.38491 C63.0813857,34.3194814 63.0903429,33.2950671 63.0903429,32.3107243 L63.0903429,24.0885386 C63.0903429,21.9081814 63.0559286,19.8899957 62.9904,18.0410529 L59.4169714,17.11611 L59.2661143,16.0916957 C63.1153286,15.5259814 66.6298286,14.89191 69.8129143,14.1913671 L70.1881714,14.3917243 L70.1881714,17.06661 C72.9201,15.2006957 75.6195,14.2667957 78.2849571,14.2667957 C81.3167143,14.2667957 83.5088571,15.3666386 84.8580857,17.5653814 C87.9567857,15.3666386 90.9814714,14.2667957 93.9302571,14.2667957 C96.2798571,14.2667957 98.1288,14.9286814 99.4785,16.2543386 C100.827729,17.5785814 101.502814,19.4586386 101.502814,21.8893243 L101.502814,30.6611957 Z" id="Fill-4" fill="#D4CDCD" fill-rule="nonzero"></path>
                <path d="M120.543626,23.5384286 L120.543626,22.9387714 C120.543626,20.6745 120.256526,19.0499571 119.681854,18.0660857 C119.10624,17.0850429 118.22844,16.5909857 117.044211,16.5909857 C115.629926,16.5909857 114.499911,17.2717286 113.65794,18.6275571 C112.817854,19.9866857 112.330397,21.6234857 112.19604,23.5384286 L120.543626,23.5384286 Z M128.040754,36.4843286 C124.959497,38.0527714 121.710883,38.8339286 118.29444,38.8339286 C114.229311,38.8339286 110.90904,37.8312 108.33504,35.8219714 C105.76104,33.8160429 104.473569,30.8554714 104.473569,26.9374286 C104.473569,23.2074857 105.711069,20.1611143 108.185126,17.8030286 C110.659183,15.4473 113.81304,14.2668429 117.64434,14.2668429 C120.993369,14.2668429 123.579626,15.1724571 125.404997,16.9789714 C127.228954,18.7873714 128.140697,21.2835857 128.140697,24.4638429 C128.140697,24.9475286 128.116183,25.4472429 128.066211,25.9629857 L112.096097,25.9629857 C112.096097,29.3120143 112.917326,31.7210143 114.557897,33.1852714 C116.199411,34.6542429 118.893626,35.3849571 122.642426,35.3849571 C124.459783,35.3849571 126.19134,35.2279714 127.840869,34.9097571 L128.040754,36.4843286 Z" id="Fill-6" fill="#D4CDCD" fill-rule="nonzero"></path>
                <path d="M147.752079,17.3656843 C146.852121,17.05077 145.844679,16.8914271 144.727864,16.8914271 C142.44615,16.8914271 140.704221,17.6782414 139.504907,19.2528129 C138.30465,20.8269129 137.704993,23.19867 137.704993,26.3628986 C137.704993,29.11227 138.237236,31.3110129 139.30455,32.96007 C140.371393,34.6105414 141.870536,35.4355414 143.802921,35.4355414 C145.235121,35.4355414 146.552293,35.1286414 147.752079,34.5096557 L147.752079,17.3656843 Z M143.802921,2.39547 C147.868993,1.77978429 151.500879,1.13958429 154.699521,0.47157 L154.99935,0.670984286 C154.881964,4.23828429 154.82445,8.06911286 154.82445,12.1677129 L154.82445,25.7632414 C154.82445,27.9468986 154.832464,30.1960843 154.849436,32.51127 C154.849436,33.3603129 154.881964,34.0448271 154.94985,34.56057 C155.016321,35.07867 155.161993,35.4718414 155.386393,35.7471557 C155.611736,36.02247 155.956821,36.2096271 156.424479,36.3100414 C156.891664,36.4099843 157.573821,36.4684414 158.473307,36.48447 L158.623221,37.5838414 C156.19065,38.4177986 154.116836,38.83407 152.400364,38.83407 C150.16815,38.83407 148.702007,37.9275129 148.001936,36.1096843 C145.819693,37.9275129 143.40315,38.83407 140.753721,38.83407 C137.455136,38.83407 134.848136,37.7460129 132.931779,35.5722557 C131.01495,33.3980271 130.057479,30.6802414 130.057479,27.41277 C130.057479,23.24817 131.294979,20.0268986 133.769036,17.7527271 C136.243093,15.4790271 139.704793,14.34147 144.15225,14.34147 C145.252093,14.34147 146.45235,14.4357557 147.752079,14.6167843 C147.752079,11.1022843 147.719079,7.70375571 147.651664,4.41978429 L143.978293,3.41988429 L143.802921,2.39547 Z" id="Fill-8" fill="#7DBFC7" fill-rule="nonzero"></path>
                <path d="M174.258857,23.5384286 L174.258857,22.9387714 C174.258857,20.6745 173.971286,19.0499571 173.396614,18.0660857 C172.821471,17.0850429 171.942257,16.5909857 170.759914,16.5909857 C169.3428,16.5909857 168.215614,17.2717286 167.373643,18.6275571 C166.5312,19.9866857 166.043743,21.6234857 165.911743,23.5384286 L174.258857,23.5384286 Z M181.755514,36.4843286 C178.674729,38.0527714 175.426114,38.8339286 172.009671,38.8339286 C167.9436,38.8339286 164.624271,37.8312 162.050271,35.8219714 C159.476271,33.8160429 158.1888,30.8554714 158.1888,26.9374286 C158.1888,23.2074857 159.4263,20.1611143 161.899886,17.8030286 C164.373943,15.4473 167.528271,14.2668429 171.360043,14.2668429 C174.709071,14.2668429 177.294857,15.1724571 179.119757,16.9789714 C180.944186,18.7873714 181.8564,21.2835857 181.8564,24.4638429 C181.8564,24.9475286 181.830943,25.4472429 181.781443,25.9629857 L165.8118,25.9629857 C165.8118,29.3120143 166.631143,31.7210143 168.2736,33.1852714 C169.915114,34.6542429 172.608857,35.3849571 176.358129,35.3849571 C178.174543,35.3849571 179.906571,35.2279714 181.5561,34.9097571 L181.755514,36.4843286 Z" id="Fill-10" fill="#7DBFC7" fill-rule="nonzero"></path>
                <path d="M203.957019,36.4845171 C201.19209,38.05296 198.333819,38.8336457 195.384561,38.8336457 C191.735704,38.8336457 188.736476,37.7781171 186.387347,35.6595171 C184.03869,33.54516 182.86389,30.72036 182.86389,27.1874743 C182.86389,23.3387314 184.143347,20.2240029 186.699904,17.84046 C189.258347,15.4602171 192.51969,14.26656 196.483461,14.26656 C199.000419,14.26656 201.424504,14.7412886 203.757133,15.6912171 C203.157004,18.0408171 202.631833,20.5087457 202.18209,23.0884029 L200.807404,23.3137457 L198.883976,17.0663743 C198.43329,16.89996 197.82609,16.8160457 197.059076,16.8160457 C195.15969,16.8160457 193.60209,17.6467029 192.385804,19.30236 C191.170461,20.9608457 190.561376,23.1826886 190.561376,25.9627029 C190.561376,29.2117886 191.332633,31.60806 192.872319,33.1482171 C194.414833,34.6916743 196.608861,35.4601029 199.458176,35.4601029 C200.824847,35.4601029 202.257047,35.30406 203.757133,34.9844314 L203.957019,36.4845171 Z" id="Fill-12" fill="#7DBFC7" fill-rule="nonzero"></path>
                <path d="M211.666997,26.2624843 C211.666997,29.2965986 212.119569,31.7579271 213.028483,33.6483557 C213.936454,35.5416129 215.39034,36.48447 217.390611,36.48447 C219.255111,36.48447 220.626026,35.6538129 221.500997,33.9854271 C222.37644,32.3203414 222.813926,29.8458129 222.813926,26.5632557 C222.813926,23.48247 222.350983,21.0517843 221.426511,19.2777986 C220.501569,17.5033414 219.054754,16.6156414 217.090311,16.6156414 C215.256454,16.6156414 213.894497,17.4161271 213.003969,19.0156843 C212.112026,20.6152414 211.666997,23.0331986 211.666997,26.2624843 M230.56044,26.06307 C230.56044,29.86137 229.291826,32.9421557 226.762611,35.2974129 C224.228683,37.65597 220.929626,38.83407 216.864969,38.83407 C212.916283,38.83407 209.768083,37.72197 207.418483,35.4972986 C205.068883,33.2730986 203.894554,30.3615557 203.894554,26.7631414 C203.894554,23.1138129 205.126397,20.1207129 207.592911,17.7777129 C210.058011,15.4380129 213.391011,14.2665129 217.589554,14.2665129 C221.569826,14.2665129 224.728397,15.34797 227.061497,17.5033414 C229.392711,19.6615414 230.56044,22.5146271 230.56044,26.06307" id="Fill-14" fill="#7DBFC7" fill-rule="nonzero"></path>
                <path d="M52.3455429,21.2337557 C52.3964571,23.0473414 51.7972714,26.3397986 50.6352,29.4667843 C49.5905143,32.2783843 46.7430857,36.7918414 45.4372286,36.9247843 C44.1309,37.0577271 40.4306571,33.2127557 38.8391143,30.6712843 C37.0689,27.8436557 35.8163143,24.7383557 35.4990429,22.9525843 C35.1855429,21.16917 35.8007571,19.2542271 36.7143857,18.6408986 C37.6954286,17.9823129 39.3652286,18.1308129 40.7380286,19.3763271 C42.1905,20.6944414 43.0093714,21.4138414 44.0248286,23.0779843 C44.682,21.2441271 45.3363429,20.37387 46.4937,18.7884557 C47.5855286,17.2921414 49.1916857,16.80987 50.2849286,17.2563129 C51.3032143,17.6716414 52.2936857,19.4225271 52.3455429,21.2337557 M53.0621143,14.1684557 C50.2538143,13.3278986 47.6128714,13.7578414 45.1397571,15.45687 C44.5839429,15.83967 43.8810429,16.2927129 43.3803857,16.7721557 C42.7939286,16.4034986 42.0132429,16.1027271 41.3909571,15.83967 C38.6260286,14.67477 35.9525571,14.78697 33.3719571,16.1781557 C30.6504,17.6466557 28.6284429,20.4511843 28.8434143,23.4574843 C29.0796,26.7438129 30.1082571,29.5403271 32.9948143,32.6965414 C36.0063,35.9875843 42.9278143,39.8033271 45.7021714,39.5190557 C48.4760571,39.23667 54.4976143,34.2630986 56.7840429,30.4317986 C58.9719429,26.75607 59.4009429,23.6479414 58.9667571,20.3832986 C58.5693429,17.3953843 56.0236286,15.0570986 53.0621143,14.1684557" id="Fill-16" fill="#7DBFC7" fill-rule="nonzero"></path>
            </g>
        </g>
    </g>
</svg>