<?xml version="1.0" encoding="UTF-8"?>
<svg width="217px" height="60px" viewBox="0 0 217 60" version="1.1" xmlns="http://www.w3.org/2000/svg" xmlns:xlink="http://www.w3.org/1999/xlink">
    <!-- Generator: Sketch 46.2 (44496) - http://www.bohemiancoding.com/sketch -->
    <title>sleepdeal</title>
    <desc>Created with Sketch.</desc>
    <defs></defs>
    <g id="v2" stroke="none" stroke-width="1" fill="none" fill-rule="evenodd">
        <g id="sleepdeal" fill-rule="nonzero">
            <g id="sleepdeal_logo" transform="translate(0.000000, 5.000000)">
                <path d="M64.4617647,15.4506127 C62.3077206,15.4506127 61.217402,16.1686275 61.217402,17.6046569 C61.217402,18.2428922 61.4833333,18.7215686 62.0151961,19.0672794 C62.5470588,19.4129902 63.7969363,19.8916667 65.7648284,20.529902 C67.7327206,21.1681373 69.1155637,21.886152 69.9133578,22.6839461 C70.711152,23.4817402 71.110049,24.7316176 71.110049,26.4069853 C71.110049,28.5344363 70.4718137,30.1566176 69.16875,31.2469363 C67.8922794,32.3372549 66.1903186,32.8957108 64.1160539,32.8957108 C62.573652,32.8957108 60.6855392,32.6563725 58.4517157,32.1776961 L57.3879902,31.964951 L57.8134804,28.7737745 C60.4727941,29.1194853 62.4938725,29.3056373 63.9033088,29.3056373 C66.0041667,29.3056373 67.041299,28.4280637 67.041299,26.6729167 C67.041299,26.0346814 66.8019608,25.5294118 66.3232843,25.183701 C65.8446078,24.8379902 64.8872549,24.4390931 63.4246324,24.0136029 C61.1376225,23.3487745 59.5154412,22.5775735 58.5846814,21.6734069 C57.6539216,20.7692402 57.1752451,19.5193627 57.1752451,17.8971814 C57.1752451,15.8761029 57.7868873,14.3602941 59.0101716,13.3497549 C60.2334559,12.3658088 61.9088235,11.8605392 64.0628676,11.8605392 C65.5254902,11.8605392 67.3870098,12.0466912 69.6474265,12.4455882 L70.711152,12.6583333 L70.3920343,15.9026961 C67.5731618,15.6101716 65.6052696,15.4506127 64.4617647,15.4506127 Z M85.8692402,32.5234069 L74.407598,32.5234069 L74.407598,12.20625 L78.5029412,12.20625 L78.5029412,28.8801471 L85.8692402,28.8801471 L85.8692402,32.5234069 Z M88.3955882,32.5234069 L88.3955882,12.20625 L101.452819,12.20625 L101.452819,15.7963235 L92.4909314,15.7963235 L92.4909314,20.5564951 L99.6710784,20.5564951 L99.6710784,24.0667892 L92.4909314,24.0667892 L92.4909314,28.9333333 L101.452819,28.9333333 L101.452819,32.5234069 L88.3955882,32.5234069 Z M104.830147,32.5234069 L104.830147,12.20625 L117.887377,12.20625 L117.887377,15.7963235 L108.92549,15.7963235 L108.92549,20.5564951 L116.105637,20.5564951 L116.105637,24.0667892 L108.92549,24.0667892 L108.92549,28.9333333 L117.887377,28.9333333 L117.887377,32.5234069 L104.830147,32.5234069 Z M128.684191,26.6197304 L125.360049,26.6197304 L125.360049,32.5234069 L121.264706,32.5234069 L121.264706,12.20625 L128.684191,12.20625 C133.470956,12.20625 135.864338,14.5464461 135.864338,19.2534314 C135.864338,21.6202206 135.252696,23.4285539 134.029412,24.7050245 C132.806127,25.9814951 131.024387,26.6197304 128.684191,26.6197304 Z M125.360049,23.0828431 L128.657598,23.0828431 C130.70527,23.0828431 131.715809,21.8063725 131.715809,19.2534314 C131.715809,18.0035539 131.476471,17.0993873 130.971201,16.5409314 C130.465931,15.9824755 129.69473,15.7165441 128.657598,15.7165441 L125.360049,15.7165441 L125.360049,23.0828431 Z" id="sleep" fill="#C4C5C5" opacity="0.8"></path>
                <path d="M145.517647,32.5234069 L138.736397,32.5234069 L138.736397,12.20625 L145.517647,12.20625 C147.246201,12.20625 148.68223,12.392402 149.825735,12.7647059 C150.942647,13.1370098 151.820221,13.748652 152.458456,14.5996324 C153.070098,15.4506127 153.522181,16.4345588 153.76152,17.5780637 C154.000858,18.7215686 154.10723,20.2107843 154.10723,22.0457108 C154.10723,23.8806373 154.000858,25.3964461 153.788113,26.5931373 C153.575368,27.7898284 153.149877,28.8801471 152.564828,29.8109069 C151.953186,30.7682598 151.075613,31.4330882 149.932108,31.8585784 C148.76201,32.3106618 147.299387,32.5234069 145.517647,32.5234069 Z M149.825735,24.4656863 C149.852328,23.827451 149.878922,22.9498775 149.878922,21.8329657 C149.878922,20.7160539 149.852328,19.8118873 149.772549,19.1204657 C149.69277,18.4556373 149.506618,17.817402 149.214093,17.2589461 C148.921569,16.7004902 148.469485,16.3281863 147.884436,16.1154412 C147.299387,15.9026961 146.528186,15.7963235 145.517647,15.7963235 L142.805147,15.7963235 L142.805147,28.9333333 L145.517647,28.9333333 C147.006863,28.9333333 148.070588,28.5610294 148.76201,27.7898284 C149.320466,27.1781863 149.69277,26.0612745 149.825735,24.4656863 Z M157.670711,32.5234069 L157.670711,12.20625 L170.701348,12.20625 L170.701348,15.7963235 L161.739461,15.7963235 L161.739461,20.5564951 L168.919608,20.5564951 L168.919608,24.0667892 L161.739461,24.0667892 L161.739461,28.9333333 L170.701348,28.9333333 L170.701348,32.5234069 L157.670711,32.5234069 Z M172.403309,32.5234069 L176.950735,12.20625 L184.715931,12.20625 L189.263358,32.5234069 L185.168015,32.5234069 L184.370221,28.8535539 L177.323039,28.8535539 L176.525245,32.5234069 L172.403309,32.5234069 Z M180.115319,15.6101716 L178.067647,25.2634804 L183.572426,25.2634804 L181.524755,15.6101716 L180.115319,15.6101716 Z M203.4375,32.4436275 L192.002451,32.4436275 L192.002451,12.2328431 L196.078834,12.2328431 L196.078834,28.8194424 L203.4375,28.8194424 L203.4375,32.4436275 Z" id="deal" fill="#00C5CD"></path>
                <path d="M2.34019608,29.3854167 C1.86151961,29.5981618 1.30306373,29.3588235 1.11691176,28.8801471 L0.186151961,26.6197304 C-0.0265931373,26.1410539 0.212745098,25.582598 0.691421569,25.3698529 L28.3482843,13.6422794 C28.8269608,13.4295343 29.3854167,13.6688725 29.5715686,14.147549 L30.5023284,16.4079657 C30.7150735,16.8866422 30.4757353,17.445098 29.9970588,17.6578431 L2.34019608,29.3854167 Z M5.55796569,37.5229167 C5.07928922,37.7356618 4.52083333,37.4963235 4.33468137,37.0176471 L3.40392157,34.7572304 C3.19117647,34.2785539 3.43051471,33.720098 3.90919118,33.5073529 L31.5660539,21.7797794 C32.0447304,21.5670343 32.6031863,21.8063725 32.7893382,22.285049 L33.720098,24.5454657 C33.9328431,25.0241422 33.6935049,25.582598 33.2148284,25.7953431 L5.55796569,37.5229167 Z" id="stripes" fill="#D8D9D9"></path>
                <path d="M37.5229167,36.0071078 C28.7471814,39.5971814 18.7481618,35.3422794 15.1846814,26.5133578 C11.621201,17.6844363 15.8495098,7.60563725 24.598652,4.01556373 C29.4120098,2.04767157 34.5710784,2.44656863 38.8791667,4.65379902 C32.8957108,0.0797794118 24.7316176,-1.27647059 17.2855392,1.7817402 C6.03664216,6.38235294 0.638235294,19.2800245 5.2122549,30.608701 C9.78627451,41.9373775 22.6041667,47.3889706 33.8530637,42.7617647 C41.2991422,39.7035539 46.1922794,33.0020833 47.3091912,25.5294118 C45.7667892,30.1300245 42.3362745,34.0392157 37.5229167,36.0071078 Z" id="moon" fill="#00C5CD"></path>
                <path d="M55.8182457,37.2832383 C55.871441,37.3367017 55.8980384,37.4444345 55.871441,37.5518987 L54.8607332,39.6474506 L56.0044288,41.6890018 C56.0576241,41.7696 56.0576241,41.8504668 56.0044288,41.931065 C55.9778314,41.9576624 55.9512337,41.984797 55.8980384,42.011663 L55.7916483,42.011663 L53.5042569,41.6890018 L51.9350001,43.4086978 C51.8818048,43.4624298 51.8020121,43.4892958 51.7222194,43.4624298 C51.6424267,43.4352952 51.5892316,43.3549656 51.562634,43.2743674 L51.1636704,40.9636184 L49.0624621,39.9967092 C48.9826694,39.9698432 48.9294741,39.8889764 48.9294741,39.8083782 C48.9294741,39.7011829 48.9560717,39.6203161 49.0358644,39.5937187 L51.0572801,38.4922105 L51.3232558,36.1548641 C51.3232558,36.0742662 51.3764509,35.9933993 51.4562436,35.966802 C51.5360363,35.9399357 51.6424267,35.966802 51.695622,36.0205339 L53.3446715,37.6590943 L55.6054652,37.2023715 C55.6852579,37.1757741 55.7650507,37.2023715 55.8182457,37.2832383 Z M50.5252221,14.7963007 C50.4986247,14.9037649 50.4454294,14.957497 50.3124417,15.0112291 L47.7058794,15.6022822 L46.7217693,18.1276909 C46.6951716,18.2082891 46.6153789,18.2888872 46.5089885,18.2888872 C46.4557935,18.3157533 46.4025982,18.2888872 46.3494031,18.2620212 C46.3228054,18.2620212 46.2962081,18.2082891 46.2696104,18.181423 L44.9131341,15.8440767 L42.2533768,15.6828804 C42.1735841,15.6828804 42.0671937,15.6022822 42.0405961,15.5216841 C42.0139987,15.4410859 42.0405961,15.3336217 42.0937914,15.2530236 L43.8492312,13.2112038 L43.1842919,10.5783309 C43.1576942,10.4708667 43.1842919,10.3634025 43.2640846,10.3096704 C43.3438773,10.2290722 43.4502677,10.2290722 43.5300604,10.2559383 L45.9770372,11.3305803 L48.237831,9.87981358 C48.3176237,9.82608148 48.4240138,9.82608148 48.5038065,9.87981358 C48.6101969,9.93354568 48.6367945,10.0141438 48.6367945,10.121608 L48.3974164,12.808213 L50.4454294,14.5276402 C50.5252221,14.6082384 50.5518198,14.6888365 50.5252221,14.7963007 Z M47.7324771,46.2563378 C47.7324771,46.336936 47.7058794,46.3906679 47.7058794,46.363802 L46.2696104,47.2503815 L46.16322,48.9429427 C46.16322,48.9966749 46.110025,49.0504069 46.0568299,49.0772731 L45.9504396,49.0772731 C45.9238419,49.0772731 45.8972442,49.0772731 45.8706469,49.0504069 L44.5939633,47.9488989 L42.9715112,48.3787557 C42.9183161,48.4056217 42.8651211,48.3787557 42.8119257,48.3250238 C42.7853284,48.2984264 42.7587307,48.2175596 42.7853284,48.1640959 L43.42367,46.6055963 L42.5193526,45.1816958 C42.4927549,45.1279638 42.4927549,45.0745002 42.5193526,45.0204994 C42.5725476,44.9667674 42.6257427,44.94017 42.678938,44.94017 L44.3545851,45.0745002 L45.418488,43.7577952 C45.4450857,43.704063 45.5248784,43.677197 45.5780734,43.704063 C45.6312687,43.7311978 45.6578661,43.7846612 45.6844638,43.8383932 L46.0568299,45.5040884 L47.6260867,46.1220076 C47.6792818,46.1491422 47.7324771,46.2026058 47.7324771,46.2563378 Z M216.970926,29.7061358 C216.945146,29.8108484 216.893584,29.8632047 216.764679,29.915561 L214.238156,30.4914803 L213.284265,32.9522268 C213.258484,33.0307614 213.181141,33.1092957 213.078018,33.1092957 C213.026456,33.135474 212.974895,33.1092957 212.923333,33.0831177 C212.897552,33.0831177 212.871771,33.0307614 212.845991,33.0045831 L211.531167,30.7270838 L208.953082,30.5700149 C208.87574,30.5700149 208.772616,30.4914803 208.746836,30.412946 C208.721055,30.3344114 208.746836,30.2296988 208.798397,30.1511645 L210.499933,28.1616247 L209.855412,25.5961657 C209.829631,25.4914531 209.855412,25.3867405 209.932755,25.3343842 C210.010097,25.2558497 210.11322,25.2558497 210.190563,25.2820279 L212.562401,26.329154 L214.753773,24.9155337 C214.831116,24.8631774 214.934239,24.8631774 215.011582,24.9155337 C215.114705,24.96789 215.140486,25.0464245 215.140486,25.1511371 L214.908458,27.7689526 L216.893584,29.4443542 C216.970926,29.5228888 216.996707,29.6014231 216.970926,29.7061358 Z" id="stars" fill="#FFAC1E"></path>
            </g>
        </g>
    </g>
</svg>