<svg xmlns="http://www.w3.org/2000/svg" xmlns:xlink="http://www.w3.org/1999/xlink" width="481" height="410" viewBox="0 0 481 410">
  <defs>
    <circle id="about-image-a" cx="239.5" cy="176.5" r="176.5"/>
    <mask id="about-image-b" width="353" height="353" x="0" y="0" fill="#fff">
      <use xlink:href="#about-image-a"/>
    </mask>
  </defs>
  <g fill="none" fill-rule="evenodd">
    <use fill-rule="nonzero" stroke="#E6E6E6" stroke-dasharray="12" stroke-width="4" mask="url(#about-image-b)" xlink:href="#about-image-a"/>
    <path fill="#303233" d="M184.946,182.24 L181.898,173.168 L178.874,182.24 L177.962,182.24 L173.21,169.04 L171.722,169.04 L171.722,168.032 L177.242,168.032 L177.242,169.04 L175.49,169.04 L178.922,179.024 L181.394,171.608 L180.53,169.04 L179.066,169.04 L179.066,168.032 L184.466,168.032 L184.466,169.04 L182.714,169.04 L185.906,178.928 L189.146,169.04 L186.914,169.04 L186.914,168.032 L191.954,168.032 L191.954,169.04 L190.442,169.04 L185.858,182.24 L184.946,182.24 Z M196.23,172.424 C195.174,172.424 193.926,173.384 193.662,175.4 L198.414,175.4 C198.342,173.696 197.574,172.424 196.23,172.424 Z M200.598,180.344 C199.614,181.688 198.174,182.24 196.662,182.24 C193.95,182.24 191.646,180.224 191.646,177.152 C191.646,174.008 193.854,171.536 196.494,171.536 C199.326,171.536 200.502,173.744 200.502,176.264 L193.614,176.264 C193.638,179.216 195.558,180.92 197.55,180.92 C198.39,180.92 199.35,180.704 200.166,179.84 L200.598,180.344 Z M212.606,182.24 C211.382,182.24 210.278,182.096 208.958,181.688 L208.958,167.024 L207.302,167.024 L207.302,166.16 L211.07,166.16 L211.07,173.048 C211.766,172.304 212.846,171.536 214.142,171.536 C216.47,171.536 218.318,173.552 218.318,176.504 C218.318,180.08 215.558,182.24 212.606,182.24 Z M212.606,181.28 C214.31,181.28 216.158,179.912 216.158,176.984 C216.158,174.8 215.246,172.784 213.254,172.784 C212.414,172.784 211.646,172.952 211.07,173.648 L211.07,181.04 C211.55,181.208 212.03,181.28 212.606,181.28 Z M224.802,172.424 C223.746,172.424 222.498,173.384 222.234,175.4 L226.986,175.4 C226.914,173.696 226.146,172.424 224.802,172.424 Z M229.17,180.344 C228.186,181.688 226.746,182.24 225.234,182.24 C222.522,182.24 220.218,180.224 220.218,177.152 C220.218,174.008 222.426,171.536 225.066,171.536 C227.898,171.536 229.074,173.744 229.074,176.264 L222.186,176.264 C222.21,179.216 224.13,180.92 226.122,180.92 C226.962,180.92 227.922,180.704 228.738,179.84 L229.17,180.344 Z M234.238,166.16 L234.238,181.136 L235.654,181.136 L235.654,182 L230.71,182 L230.71,181.136 L232.126,181.136 L232.126,167.024 L230.47,167.024 L230.47,166.16 L234.238,166.16 Z M238.178,168.248 C238.178,167.456 238.778,166.856 239.546,166.856 C240.362,166.856 240.962,167.456 240.962,168.248 C240.962,169.016 240.362,169.616 239.546,169.616 C238.778,169.616 238.178,169.016 238.178,168.248 Z M240.77,171.776 L240.77,181.136 L242.186,181.136 L242.186,182 L237.242,182 L237.242,181.136 L238.658,181.136 L238.658,172.64 L237.242,172.64 L237.242,171.776 L240.77,171.776 Z M248.382,172.424 C247.326,172.424 246.078,173.384 245.814,175.4 L250.566,175.4 C250.494,173.696 249.726,172.424 248.382,172.424 Z M252.75,180.344 C251.766,181.688 250.326,182.24 248.814,182.24 C246.102,182.24 243.798,180.224 243.798,177.152 C243.798,174.008 246.006,171.536 248.646,171.536 C251.478,171.536 252.654,173.744 252.654,176.264 L245.766,176.264 C245.79,179.216 247.71,180.92 249.702,180.92 C250.542,180.92 251.502,180.704 252.318,179.84 L252.75,180.344 Z M264.922,172.64 L263.698,172.64 L259.93,182.12 L258.874,182.12 L254.794,172.64 L253.57,172.64 L253.57,171.776 L258.682,171.776 L258.682,172.64 L256.93,172.64 L259.81,179.84 L262.522,172.64 L261.058,172.64 L261.058,171.776 L264.922,171.776 L264.922,172.64 Z M270.326,172.424 C269.27,172.424 268.022,173.384 267.758,175.4 L272.51,175.4 C272.438,173.696 271.67,172.424 270.326,172.424 Z M274.694,180.344 C273.71,181.688 272.27,182.24 270.758,182.24 C268.046,182.24 265.742,180.224 265.742,177.152 C265.742,174.008 267.95,171.536 270.59,171.536 C273.422,171.536 274.598,173.744 274.598,176.264 L267.71,176.264 C267.734,179.216 269.654,180.92 271.646,180.92 C272.486,180.92 273.446,180.704 274.262,179.84 L274.694,180.344 Z M282.838,168.248 C282.838,167.456 283.438,166.856 284.206,166.856 C285.022,166.856 285.622,167.456 285.622,168.248 C285.622,169.016 285.022,169.616 284.206,169.616 C283.438,169.616 282.838,169.016 282.838,168.248 Z M285.43,171.776 L285.43,181.136 L286.846,181.136 L286.846,182 L281.902,182 L281.902,181.136 L283.318,181.136 L283.318,172.64 L281.902,172.64 L281.902,171.776 L285.43,171.776 Z M293.33,181.136 L293.33,182 L288.386,182 L288.386,181.136 L289.802,181.136 L289.802,172.64 L288.386,172.64 L288.386,171.776 L291.914,171.776 L291.914,173.24 C292.778,172.448 293.906,171.536 295.418,171.536 C297.554,171.536 298.322,173.144 298.322,175.064 L298.322,181.136 L299.738,181.136 L299.738,182 L294.794,182 L294.794,181.136 L296.21,181.136 L296.21,175.616 C296.21,174.224 295.946,172.88 294.41,172.88 C293.498,172.88 292.706,173.168 291.914,173.84 L291.914,181.136 L293.33,181.136 Z M301.83,180.68 C301.83,179.816 302.526,179.12 303.39,179.12 C304.254,179.12 304.95,179.816 304.95,180.68 C304.95,181.544 304.254,182.24 303.39,182.24 C302.526,182.24 301.83,181.544 301.83,180.68 Z M307.93,180.68 C307.93,179.816 308.626,179.12 309.49,179.12 C310.354,179.12 311.05,179.816 311.05,180.68 C311.05,181.544 310.354,182.24 309.49,182.24 C308.626,182.24 307.93,181.544 307.93,180.68 Z M314.03,180.68 C314.03,179.816 314.726,179.12 315.59,179.12 C316.454,179.12 317.15,179.816 317.15,180.68 C317.15,181.544 316.454,182.24 315.59,182.24 C314.726,182.24 314.03,181.544 314.03,180.68 Z"/>
    <g transform="translate(0 33)">
      <circle cx="65" cy="65" r="65" fill="#FFF" fill-rule="nonzero"/>
      <path fill="#303233" d="M39.2291428,32 L35.1331428,32 L35.1331428,31.328 L36.2851428,31.328 L36.2851428,23.36 L35.1331428,23.36 L35.1331428,22.688 L42.3491428,22.688 L42.3491428,25.344 L41.6451428,25.344 L41.4051428,23.36 L37.7571428,23.36 L37.7571428,26.912 L40.0291428,26.912 L40.0291428,25.824 L40.7331428,25.824 L40.7331428,28.688 L40.0291428,28.688 L40.0291428,27.584 L37.7571428,27.584 L37.7571428,31.328 L39.2291428,31.328 L39.2291428,32 Z M46.4588571,32.16 C44.8108571,32.16 43.1948571,30.784 43.1948571,28.592 C43.1948571,26.4 44.8108571,25.024 46.4588571,25.024 C48.1068571,25.024 49.7228571,26.4 49.7228571,28.592 C49.7228571,30.784 48.1068571,32.16 46.4588571,32.16 Z M46.4588571,25.632 C45.4188571,25.632 44.6668571,26.672 44.6668571,28.592 C44.6668571,30.512 45.4188571,31.552 46.4588571,31.552 C47.4988571,31.552 48.2508571,30.512 48.2508571,28.592 C48.2508571,26.672 47.4988571,25.632 46.4588571,25.632 Z M56.1205714,32 L56.1205714,31.024 C55.5445714,31.552 54.8245714,32.16 53.8165714,32.16 C52.3925714,32.16 51.8805714,31.088 51.8805714,29.808 L51.8805714,25.76 L50.9365714,25.76 L50.9365714,25.184 L53.2885714,25.184 L53.2885714,29.44 C53.2885714,30.368 53.4645714,31.264 54.4885714,31.264 C55.0965714,31.264 55.5925714,31.088 56.1205714,30.592 L56.1205714,25.76 L55.1765714,25.76 L55.1765714,25.184 L57.5285714,25.184 L57.5285714,31.424 L58.4725714,31.424 L58.4725714,32 L56.1205714,32 Z M63.0142857,31.424 L63.0142857,32 L59.7182857,32 L59.7182857,31.424 L60.6622857,31.424 L60.6622857,25.76 L59.7182857,25.76 L59.7182857,25.184 L62.0702857,25.184 L62.0702857,26.16 C62.6462857,25.632 63.3982857,25.024 64.4062857,25.024 C65.8302857,25.024 66.3422857,26.096 66.3422857,27.376 L66.3422857,31.424 L67.2862857,31.424 L67.2862857,32 L63.9902857,32 L63.9902857,31.424 L64.9342857,31.424 L64.9342857,27.744 C64.9342857,26.816 64.7582857,25.92 63.7342857,25.92 C63.1262857,25.92 62.5982857,26.112 62.0702857,26.56 L62.0702857,31.424 L63.0142857,31.424 Z M71.924,31.328 C72.484,31.328 72.948,31.216 73.332,30.752 L73.332,25.936 C72.996,25.728 72.564,25.648 72.132,25.648 C70.996,25.648 69.94,26.592 69.94,28.528 C69.94,29.984 70.596,31.328 71.924,31.328 Z M73.332,32 L73.332,31.152 C72.868,31.648 72.196,32.16 71.332,32.16 C69.78,32.16 68.5,30.848 68.5,28.88 C68.5,26.496 70.244,25.024 71.972,25.024 C72.484,25.024 72.948,25.136 73.332,25.344 L73.332,22.016 L71.908,22.016 L71.908,21.44 L74.74,21.44 L74.74,31.424 L75.684,31.424 L75.684,32 L73.332,32 Z M80.0657143,25.616 C79.3617143,25.616 78.5297143,26.256 78.3537143,27.6 L81.5217143,27.6 C81.4737143,26.464 80.9617143,25.616 80.0657143,25.616 Z M82.9777143,30.896 C82.3217143,31.792 81.3617143,32.16 80.3537143,32.16 C78.5457143,32.16 77.0097143,30.816 77.0097143,28.768 C77.0097143,26.672 78.4817143,25.024 80.2417143,25.024 C82.1297143,25.024 82.9137143,26.496 82.9137143,28.176 L78.3217143,28.176 C78.3377143,30.144 79.6177143,31.28 80.9457143,31.28 C81.5057143,31.28 82.1457143,31.136 82.6897143,30.56 L82.9777143,30.896 Z M87.8714286,31.424 L87.8714286,32 L84.2554286,32 L84.2554286,31.424 L85.1994286,31.424 L85.1994286,25.76 L84.2554286,25.76 L84.2554286,25.184 L86.6074286,25.184 L86.6074286,26.368 C87.2314286,25.76 87.9514286,25.024 88.5114286,25.024 C89.0394286,25.024 89.5034286,25.36 89.7594286,25.664 L89.0074286,26.832 C88.5274286,26.496 88.1434286,26.192 87.7114286,26.192 C87.5034286,26.192 87.0874286,26.288 86.6074286,26.72 L86.6074286,31.424 L87.8714286,31.424 Z M93.0691429,25.024 C93.8531429,25.024 94.3331429,25.36 94.6051429,25.632 L94.7651429,25.088 L95.2291429,25.088 L95.2291429,27.296 L94.7011429,27.296 C94.4771429,26.128 93.9011429,25.6 93.1011429,25.6 C92.4611429,25.6 92.0131429,25.984 92.0131429,26.576 C92.0131429,27.088 92.3971429,27.328 93.0211429,27.648 L94.1571429,28.224 C94.9891429,28.64 95.5651429,29.12 95.5651429,30.048 C95.5651429,31.328 94.4291429,32.16 93.1331429,32.16 C92.3171429,32.16 91.6931429,31.76 91.3891429,31.392 L91.2451429,32 L90.7651429,32 L90.7651429,29.52 L91.3091429,29.52 C91.4851429,30.992 92.2851429,31.552 93.1011429,31.552 C93.8851429,31.552 94.3971429,31.136 94.3971429,30.512 C94.3971429,30.016 94.1411429,29.744 93.5811429,29.472 L92.2851429,28.832 C91.5171429,28.448 90.9251429,27.952 90.9251429,26.96 C90.9251429,25.84 91.8531429,25.024 93.0691429,25.024 Z"/>
      <g stroke="#099" stroke-width="2" transform="translate(34 50)">
        <polyline points="19 5 62 5 62 43 21 43"/>
        <path d="M21,39 L59,39"/>
        <polyline points="26 36 26 31 22 31 22 36"/>
        <polyline points="42 36 42 24 38 24 38 36"/>
        <polyline points="50 36 50 18 46 18 46 36"/>
        <polyline points="58 36 58 13 54 13 54 36"/>
        <polyline points="34 36 34 28 30 28 30 36"/>
        <path d="M11 59L11 38M16 5C16 7.762 13.762 10 11 10 8.238 10 6 7.762 6 5 6 2.238 8.238 0 11 0 13.762 0 16 2.238 16 5zM4 59L4 35 0 35 0 21C0 17.134 3.134 14 7 14L34 14 34 20 18 20 18 59M11 17L11 19M11 21L11 23"/>
      </g>
    </g>
    <g transform="translate(351 33)">
      <circle cx="65" cy="65" r="65" fill="#FFF" fill-rule="nonzero"/>
      <path fill="#303233" d="M42.1839999,31.488 C43.1759999,31.488 43.9279999,30.992 43.9279999,29.904 C43.9279999,29.136 43.3519999,28.672 42.5839999,28.256 L41.0319999,27.424 C40.0719999,26.896 39.2719999,26.192 39.2719999,25.104 C39.2719999,23.568 40.3919999,22.528 42.0239999,22.528 C42.9999999,22.528 43.5919999,22.928 44.0079999,23.36 L44.1999999,22.688 L44.7759999,22.688 L44.7759999,25.68 L44.2319999,25.68 L44.0719999,25.056 C43.7839999,23.936 43.0799999,23.184 41.9919999,23.184 C41.2399999,23.184 40.5199999,23.696 40.5199999,24.624 C40.5199999,25.536 41.2719999,25.856 42.0239999,26.272 L43.3999999,27.04 C44.4239999,27.616 45.2079999,28.24 45.2079999,29.44 C45.2079999,31.04 43.8799999,32.16 42.2319999,32.16 C41.1599999,32.16 40.3599999,31.648 39.9439999,31.216 L39.7519999,32 L39.1759999,32 L39.1759999,28.704 L39.7359999,28.704 L39.8639999,29.424 C40.1039999,30.768 41.1759999,31.488 42.1839999,31.488 Z M51.6857142,32 L51.6857142,31.024 C51.1097142,31.552 50.3897142,32.16 49.3817142,32.16 C47.9577142,32.16 47.4457142,31.088 47.4457142,29.808 L47.4457142,25.76 L46.5017142,25.76 L46.5017142,25.184 L48.8537142,25.184 L48.8537142,29.44 C48.8537142,30.368 49.0297142,31.264 50.0537142,31.264 C50.6617142,31.264 51.1577142,31.088 51.6857142,30.592 L51.6857142,25.76 L50.7417142,25.76 L50.7417142,25.184 L53.0937142,25.184 L53.0937142,31.424 L54.0377142,31.424 L54.0377142,32 L51.6857142,32 Z M58.8994285,31.52 C59.8754285,31.52 60.9474285,30.672 60.9474285,28.656 C60.9474285,27.2 60.3394285,25.856 59.0114285,25.856 C58.4514285,25.856 57.9394285,25.968 57.5554285,26.432 L57.5554285,31.136 C57.8754285,31.44 58.3554285,31.52 58.8994285,31.52 Z M58.9794285,34.624 L58.9794285,35.2 L55.2034285,35.2 L55.2034285,34.624 L56.1474285,34.624 L56.1474285,25.76 L55.2034285,25.76 L55.2034285,25.184 L57.5554285,25.184 L57.5554285,26.032 C58.0194285,25.536 58.7394285,25.024 59.6034285,25.024 C61.1554285,25.024 62.3874285,26.368 62.3874285,28.336 C62.3874285,30.72 60.7394285,32.16 59.1074285,32.16 C58.4994285,32.16 57.9554285,31.952 57.5554285,31.648 L57.5554285,34.624 L58.9794285,34.624 Z M67.3611428,31.52 C68.3371428,31.52 69.4091428,30.672 69.4091428,28.656 C69.4091428,27.2 68.8011428,25.856 67.4731428,25.856 C66.9131428,25.856 66.4011428,25.968 66.0171428,26.432 L66.0171428,31.136 C66.3371428,31.44 66.8171428,31.52 67.3611428,31.52 Z M67.4411428,34.624 L67.4411428,35.2 L63.6651428,35.2 L63.6651428,34.624 L64.6091428,34.624 L64.6091428,25.76 L63.6651428,25.76 L63.6651428,25.184 L66.0171428,25.184 L66.0171428,26.032 C66.4811428,25.536 67.2011428,25.024 68.0651429,25.024 C69.6171428,25.024 70.8491428,26.368 70.8491428,28.336 C70.8491428,30.72 69.2011428,32.16 67.5691428,32.16 C66.9611428,32.16 66.4171428,31.952 66.0171428,31.648 L66.0171428,34.624 L67.4411428,34.624 Z M75.5988571,32.16 C73.9508571,32.16 72.3348572,30.784 72.3348572,28.592 C72.3348572,26.4 73.9508571,25.024 75.5988571,25.024 C77.2468571,25.024 78.8628571,26.4 78.8628571,28.592 C78.8628571,30.784 77.2468571,32.16 75.5988571,32.16 Z M75.5988571,25.632 C74.5588571,25.632 73.8068571,26.672 73.8068571,28.592 C73.8068571,30.512 74.5588571,31.552 75.5988571,31.552 C76.6388571,31.552 77.3908571,30.512 77.3908571,28.592 C77.3908571,26.672 76.6388571,25.632 75.5988571,25.632 Z M83.8365714,31.424 L83.8365714,32 L80.2205714,32 L80.2205714,31.424 L81.1645714,31.424 L81.1645714,25.76 L80.2205714,25.76 L80.2205714,25.184 L82.5725714,25.184 L82.5725714,26.368 C83.1965714,25.76 83.9165714,25.024 84.4765714,25.024 C85.0045714,25.024 85.4685714,25.36 85.7245714,25.664 L84.9725715,26.832 C84.4925714,26.496 84.1085714,26.192 83.6765714,26.192 C83.4685714,26.192 83.0525714,26.288 82.5725714,26.72 L82.5725714,31.424 L83.8365714,31.424 Z M86.2662857,25.184 L87.3062858,25.184 L87.3062858,23.712 L88.6982857,23.104 L88.6982857,25.184 L90.7302858,25.184 L90.7302858,25.76 L88.6982857,25.76 L88.6982857,30.288 C88.6982857,30.896 89.0342857,31.312 89.7062858,31.312 C90.1862857,31.312 90.5542857,31.024 90.9862858,30.544 L91.3382857,30.896 C90.7622857,31.712 89.9302857,32.16 89.1142857,32.16 C88.0582857,32.16 87.3062858,31.552 87.3062858,30.464 L87.3062858,25.76 L86.2662857,25.76 L86.2662857,25.184 Z"/>
      <g stroke="#099" stroke-width="2" transform="translate(34 46)">
        <path d="M34 5C34 7.762 31.762 10 29 10 26.238 10 24 7.762 24 5 24 2.238 26.238 0 29 0 31.762 0 34 2.238 34 5zM48 63L48 45M52 12C52 14.21 50.209 16 48 16 45.791 16 44 14.21 44 12 44 9.791 45.791 8 48 8 50.209 8 52 9.791 52 12z"/>
        <polyline points="39 42 42 42 42 63"/>
        <path d="M54 63L54 42 58 42 58 25C58 22.238 55.762 20 53 20L43 20M48 21L48 26M10 21L10 23M10 24L10 26M10 63L10 45"/>
        <polyline points="19 42 16 42 16 63"/>
        <path d="M4 63L4 42 0 42 0 25C0 22.238 2.238 20 5 20L15 20M14 12C14 14.21 12.209 16 10 16 7.791 16 6 14.21 6 12 6 9.791 7.791 8 10 8 12.209 8 14 9.791 14 12zM22 63L22 38 18 38 18 20C18 16.687 20.687 14 24 14L34 14C37.313 14 40 16.687 40 20L40 38 36 38 36 63M29 41L29 63"/>
        <path stroke-linejoin="round" d="M29,15 L29,17"/>
      </g>
    </g>
    <g transform="translate(167 280)">
      <circle cx="65" cy="65" r="65" fill="#FFF" fill-rule="nonzero"/>
      <path fill="#303233" d="M37.2342856,27.016 L35.9702857,30.648 L38.5302856,30.648 L37.2342856,27.016 Z M36.0182857,34.328 L36.0182857,35 L32.7862856,35 L32.7862856,34.328 L33.8102856,34.328 L36.9622856,25.688 L38.1942856,25.688 L41.4422857,34.328 L42.4342856,34.328 L42.4342856,35 L38.6902856,35 L38.6902856,34.328 L39.8582856,34.328 L38.7702856,31.304 L35.7302856,31.304 L34.6742857,34.328 L36.0182857,34.328 Z M47.312,35 L43.5199999,35 L43.5199999,34.328 L44.672,34.328 L44.672,26.36 L43.5199999,26.36 L43.5199999,25.688 L47.312,25.688 L47.312,26.36 L46.144,26.36 L46.144,34.328 L47.312,34.328 L47.312,35 Z M62.2514285,34.616 C61.1634285,35.448 59.7394285,35.304 58.9874285,34.44 L58.4754285,33.864 C57.7234285,34.632 56.7794285,35.16 55.6754285,35.16 C54.0274285,35.16 52.7314285,34.12 52.7314285,32.488 C52.7314285,31.192 53.7554285,30.344 54.9554285,29.784 L54.8434285,29.656 C54.3474285,29.096 53.9634286,28.392 53.9634286,27.688 C53.9634286,26.456 54.9714285,25.528 56.1394285,25.528 C57.4354285,25.528 58.2354285,26.376 58.2354285,27.432 C58.2354285,28.472 57.4034286,29.208 56.4434286,29.624 L58.8594285,32.344 C59.4034286,31.48 59.7714285,30.488 59.9794285,29.72 L58.7634286,29.72 L58.7634286,29.048 L61.7874286,29.048 L61.7874286,29.72 L60.7154285,29.72 C60.4914285,30.6 60.0274285,31.8 59.3074285,32.84 L60.2514285,33.896 C60.7474285,34.456 61.2914285,34.568 62.0594285,34.168 L62.2514285,34.616 Z M55.8834285,29 L56.0914285,29.24 C56.8434285,28.872 57.4674285,28.424 57.4674285,27.496 C57.4674285,26.808 56.9874285,26.216 56.2514285,26.216 C55.5314286,26.216 55.1474286,26.792 55.1474286,27.464 C55.1474286,27.976 55.4194285,28.488 55.8834285,29 Z M56.0434286,34.344 C56.8114286,34.344 57.4994285,33.96 58.0594285,33.368 L55.2754286,30.152 C54.5874285,30.584 54.0914285,31.24 54.0914285,32.28 C54.0914285,33.528 55.0034285,34.344 56.0434286,34.344 Z M70.9188572,35 L67.1588572,35 L67.1588572,34.328 L68.3108572,34.328 L68.3108572,26.36 L67.1588572,26.36 L67.1588572,25.688 L70.9188572,25.688 C73.6388572,25.688 76.1028572,27.336 76.1028572,30.296 C76.1028572,33.256 73.6388572,35 70.9188572,35 Z M70.7908571,26.36 L69.7828572,26.36 L69.7828572,34.328 L70.7908571,34.328 C72.9028572,34.328 74.4868572,32.968 74.4868572,30.296 C74.4868572,27.624 72.9028572,26.36 70.7908571,26.36 Z M81.3485715,30.456 C81.3485715,29.624 80.9325715,28.952 79.9245715,28.952 C79.1885715,28.952 78.5965714,29.496 78.2445714,30.312 L77.6525715,30.072 C78.1005715,28.888 79.0765715,28.024 80.4045715,28.024 C81.8125715,28.024 82.7565714,28.904 82.7565714,30.392 L82.7565714,33.784 C82.7565714,34.184 82.9485715,34.344 83.2205715,34.344 C83.4765715,34.344 83.7005715,34.216 83.8765715,34.056 L84.1805715,34.456 C83.8605715,34.808 83.3965715,35.16 82.8685715,35.16 C82.1645715,35.16 81.5885715,34.808 81.3645714,34.008 C80.9005715,34.584 80.1165715,35.144 79.2685714,35.144 C78.3565715,35.144 77.5405715,34.552 77.5405715,33.512 C77.5405715,32.52 78.3725715,32.024 79.3805715,31.656 L81.3485715,30.952 L81.3485715,30.456 Z M81.3485715,31.512 L80.0045715,32.024 C79.3485715,32.28 78.9325715,32.616 78.9325715,33.24 C78.9325715,33.944 79.3165714,34.312 79.8605715,34.312 C80.4365715,34.312 80.9645715,33.976 81.3485715,33.56 L81.3485715,31.512 Z M84.6102858,28.184 L85.6502858,28.184 L85.6502858,26.712 L87.0422858,26.104 L87.0422858,28.184 L89.0742858,28.184 L89.0742858,28.76 L87.0422858,28.76 L87.0422858,33.288 C87.0422858,33.896 87.3782858,34.312 88.0502858,34.312 C88.5302858,34.312 88.8982858,34.024 89.3302858,33.544 L89.6822858,33.896 C89.1062858,34.712 88.2742858,35.16 87.4582858,35.16 C86.4022858,35.16 85.6502858,34.552 85.6502858,33.464 L85.6502858,28.76 L84.6102858,28.76 L84.6102858,28.184 Z M94.3360001,30.456 C94.3360001,29.624 93.92,28.952 92.9120001,28.952 C92.176,28.952 91.5840001,29.496 91.2320001,30.312 L90.64,30.072 C91.0880001,28.888 92.0640001,28.024 93.3920001,28.024 C94.8000001,28.024 95.7440001,28.904 95.7440001,30.392 L95.7440001,33.784 C95.7440001,34.184 95.9360001,34.344 96.2080001,34.344 C96.4640001,34.344 96.688,34.216 96.8640001,34.056 L97.1680001,34.456 C96.8480001,34.808 96.384,35.16 95.8560001,35.16 C95.152,35.16 94.5760001,34.808 94.3520001,34.008 C93.8880001,34.584 93.104,35.144 92.2560001,35.144 C91.3440001,35.144 90.5280001,34.552 90.5280001,33.512 C90.5280001,32.52 91.36,32.024 92.3680001,31.656 L94.3360001,30.952 L94.3360001,30.456 Z M94.3360001,31.512 L92.9920001,32.024 C92.336,32.28 91.92,32.616 91.92,33.24 C91.92,33.944 92.3040001,34.312 92.848,34.312 C93.4240001,34.312 93.9520001,33.976 94.3360001,33.56 L94.3360001,31.512 Z"/>
      <g stroke="#099" stroke-linejoin="round" stroke-width="2" transform="translate(34 47)">
        <path d="M16 54C16 58.418 12.418 62 8 62 3.582 62 0 58.418 0 54 0 49.582 3.582 46 8 46 12.418 46 16 49.582 16 54zM16 31C16 35.418 12.418 39 8 39 3.582 39 0 35.418 0 31 0 26.582 3.582 23 8 23 12.418 23 16 26.582 16 31zM39 19C39 23.418 35.418 27 31 27 26.582 27 23 23.418 23 19 23 14.582 26.582 11 31 11 35.418 11 39 14.582 39 19zM62 31C62 35.418 58.418 39 54 39 49.582 39 46 35.418 46 31 46 26.582 49.582 23 54 23 58.418 23 62 26.582 62 31zM39 43C39 47.418 35.418 51 31 51 26.582 51 23 47.418 23 43 23 38.582 26.582 35 31 35 35.418 35 39 38.582 39 43zM16 8C16 12.418 12.418 16 8 16 3.582 16 0 12.418 0 8 0 3.582 3.582 0 8 0 12.418 0 16 3.582 16 8z"/>
        <polyline points="31 43 8 31 31 19"/>
        <polyline points="31 43 8 8 31 19 54 31 31 43 8 54 31 19"/>
      </g>
    </g>
  </g>
</svg>
