<svg xmlns="http://www.w3.org/2000/svg" width="1220" height="800" viewBox="0 0 1220 800">
  <g fill="none" fill-rule="evenodd" transform="translate(141 151)">
    <path fill="#F4F5F5" fill-rule="nonzero" d="M865.516545,394.783784 C864.472322,397.036036 863.4311,399.258258 862.392879,401.45045 C860.772534,404.855856 859.173193,408.195195 857.594856,411.468468 C856.892706,412.918919 856.190557,414.342342 855.506411,415.765766 C847.76476,431.594595 840.536219,445.594595 834.39691,457.108108 C823.050027,478.357214 801.028546,491.723497 776.955662,491.972973 L640.441555,493.459459 L639.001248,493.459459 L627.298752,493.585586 L617.288618,493.693694 L586.592073,494.027027 L585.349808,494.027027 L569.722476,494.198198 L569.245374,494.198198 L472.924837,495.243243 L386.947505,496.144144 L376.946372,496.252252 L314.833129,496.927928 L314.761113,496.927928 L274.477524,497.36036 L274.045432,497.36036 L146.668273,498.738739 L108.563148,499.153153 C105.318557,499.190229 102.074756,499.027761 98.8500768,498.666667 C97.7518426,498.540541 96.6536084,498.396396 95.5643762,498.225225 C77.7927753,495.479766 61.4976263,486.723248 49.3935317,473.414414 C33.0010365,455.369369 21.0734933,434.315315 13.061785,411.468468 C11.9035381,408.171171 10.8233077,404.831832 9.82109405,401.45045 C-17.9138196,307.621622 15.8973896,186.567568 76.7503647,105.558559 C79.3009085,102.171171 81.8934613,98.8678679 84.528023,95.6486486 L84.5910365,95.5765766 C103.306027,72.5855856 124.289501,53.3783784 146.641267,39.7207207 C186.249712,15.4774775 230.134069,8.64864865 273.298273,29 C309.81906,46.2252252 343.91833,54.3243243 376.973378,56.5225225 C380.31309,56.7387387 383.652802,56.9009009 386.974511,57 C462.797678,59.3873874 533.858829,32.045045 617.306622,14.3963964 C620.62833,13.6936937 623.95904,13 627.316756,12.3423423 C686.846449,0.486486486 752.88453,-5.76576577 831.417274,7.37837838 C839.576238,8.7123085 847.627259,10.6393306 855.506411,13.1441441 C858.969149,14.2612613 862.305861,15.4624625 865.516545,16.7477477 C903.000537,32.009009 923.443896,60.2072072 932.130749,95.5405405 C932.952924,98.8198198 933.664075,102.156156 934.264203,105.54955 C949.666488,190.540541 904.557869,311.099099 865.516545,394.783784 Z"/>
    <path fill="#C8CBCC" d="M447.413397,401.45045 C447.050514,404.820138 446.488409,408.165341 445.730038,411.468468 L530.078023,411.468468 L530.078023,401.45045 L447.413397,401.45045 Z M376.973378,458.036036 L386.974511,457.954955 L386.974511,433.207207 C383.544779,433.054054 380.205067,432.900901 376.973378,432.738739 L376.973378,458.036036 Z M167.300672,401.45045 L167.300672,411.468468 L345.988772,411.468468 L345.988772,401.45045 L167.300672,401.45045 Z M932.175758,95.5765766 L865.561555,95.5765766 L865.561555,16.7567568 C862.35087,15.4534535 859.014159,14.2522523 855.55142,13.1531532 L855.55142,95.5765766 L627.316756,95.5765766 L627.316756,12.3153153 C623.95904,12.972973 620.62833,13.6666667 617.306622,14.3693694 L617.306622,95.5765766 L386.974511,95.5765766 L386.974511,56.972973 C383.652802,56.8738739 380.31309,56.7117117 376.973378,56.4954955 L376.973378,95.5765766 L146.641267,95.5765766 L146.641267,39.7207207 C124.289501,53.3783784 103.306027,72.5855856 84.5910365,95.5765766 L84.528023,95.5765766 L84.528023,95.6486486 C81.88746,98.8918919 79.2949072,102.195195 76.7503647,105.558559 L84.528023,105.558559 L84.528023,401.45045 L9.81209213,401.45045 C10.8083045,404.831832 11.8885349,408.171171 13.0527831,411.468468 L84.5190211,411.468468 L84.5190211,495.810811 C88.1147627,496.911413 91.7850368,497.751424 95.5013628,498.324324 C96.590595,498.495495 97.6888292,498.63964 98.7870633,498.765766 C102.011742,499.12686 105.255544,499.289328 108.500134,499.252252 L146.605259,498.837838 L146.605259,411.45045 L376.973378,411.45045 L376.973378,496.324324 L386.974511,496.216216 L386.974511,411.468468 L617.306622,411.468468 L617.306622,493.774775 L627.316756,493.666667 L627.316756,411.468468 L855.506411,411.468468 L855.506411,415.765766 C856.190557,414.342342 856.892706,412.918919 857.594856,411.468468 C859.173193,408.195195 860.772534,404.855856 862.392879,401.45045 C863.4311,399.264264 864.472322,397.042042 865.516545,394.783784 L865.516545,105.594595 L934.309213,105.594595 C933.703084,102.177177 932.991932,98.8378378 932.175758,95.5765766 Z M146.641267,401.45045 L146.641267,105.558559 L376.973378,105.558559 L376.973378,401.45045 L146.641267,401.45045 Z M386.992514,401.45045 L386.992514,105.558559 L617.306622,105.558559 L617.306622,401.45045 L386.992514,401.45045 Z M855.524415,401.45045 L627.316756,401.45045 L627.316756,105.558559 L855.506411,105.558559 L855.524415,401.45045 Z"/>
    <polygon fill="#65617D" points="776.947 480.766 776.947 492.477 640.19 493.739 638.731 493.766 586.754 494.243 585.512 494.261 569.713 494.396 569.245 494.396 472.943 495.288 314.86 496.757 314.725 496.757 274.532 497.135 274.099 497.144 95.501 498.784 95.501 485.27 137.495 460.045 221.753 459.342 223.554 459.333 224.148 459.324 225.948 459.297 266.403 458.964 268.212 458.955 268.788 458.946 270.589 458.937 283.56 458.829 283.903 458.82 315.904 458.55 316.165 458.55 565.879 456.441 571.991 456.396 572.603 456.396 577.266 456.351 611.158 456.072 612.959 456.045 614.624 456.027 615.488 456.027 626.029 455.946 628.118 455.919 630.918 455.901 639.694 455.82 653.62 455.703 655.421 455.685 658.553 455.667 659.139 455.667 726.392 455.09"/>
    <polygon fill="#000" points="776.947 480.766 776.947 492.477 640.19 493.739 638.731 493.766 586.754 494.243 585.512 494.261 569.713 494.396 569.245 494.396 472.943 495.288 314.86 496.757 314.725 496.757 274.532 497.135 274.099 497.144 95.501 498.784 95.501 485.27 137.495 460.045 221.753 459.342 223.554 459.333 224.148 459.324 225.948 459.297 266.403 458.964 268.212 458.955 268.788 458.946 270.589 458.937 283.56 458.829 283.903 458.82 315.904 458.55 316.165 458.55 565.879 456.441 571.991 456.396 572.603 456.396 577.266 456.351 611.158 456.072 612.959 456.045 614.624 456.027 615.488 456.027 626.029 455.946 628.118 455.919 630.918 455.901 639.694 455.82 653.62 455.703 655.421 455.685 658.553 455.667 659.139 455.667 726.392 455.09" opacity=".2"/>
    <path fill="#3F3D56" d="M266.546834,435.72973 L266.546833,457.792793 C266.547825,459.925784 265.321347,461.868651 263.396161,462.783784 C262.69384,463.124585 261.926056,463.308998 261.145681,463.324324 L229.728983,463.990991 C228.889948,464.01113 228.057768,463.83531 227.298464,463.477477 C225.338309,462.578336 224.08247,460.617402 224.084779,458.459459 L224.084776,435.72973 L266.546834,435.72973 Z"/>
    <path fill="#000" d="M266.546834,435.72973 L266.546833,457.792793 C266.547825,459.925784 265.321347,461.868651 263.396161,462.783784 C262.69384,463.124585 261.926056,463.308998 261.145681,463.324324 L229.728983,463.990991 C228.889948,464.01113 228.057768,463.83531 227.298464,463.477477 C225.338309,462.578336 224.08247,460.617402 224.084779,458.459459 L224.084776,435.72973 L266.546834,435.72973 Z" opacity=".1"/>
    <path fill="#3F3D56" d="M268.347217,435.72973 L268.347217,457.792793 C268.348209,459.925784 267.121731,461.868651 265.196545,462.783784 C264.494223,463.124585 263.726439,463.308998 262.946065,463.324324 L231.529367,463.990991 C230.690332,464.01113 229.858152,463.83531 229.098848,463.477477 C227.138693,462.578336 225.882854,460.617402 225.885163,458.459459 L225.88516,435.72973 L268.347217,435.72973 Z"/>
    <rect width="42.462" height="28.378" x="612.959" y="435.721" fill="#3F3D56"/>
    <rect width="42.462" height="28.378" x="612.959" y="435.721" fill="#000" opacity=".1"/>
    <rect width="42.462" height="28.378" x="611.158" y="435.721" fill="#3F3D56"/>
    <polygon fill="#000" points="268.338 435.721 268.338 440.198 225.876 441.333 225.876 435.721" opacity=".1"/>
    <path fill="#7D7F80" d="M343.288196,281.405405 L343.288196,432.936937 C343.265544,434.858073 341.74087,436.423582 339.822457,436.495495 L167.300672,441.09009 L167.255662,441.09009 C165.302013,441.065799 163.724176,439.486719 163.699904,437.531532 L163.699904,281.405405 C163.724176,279.450218 165.302013,277.871138 167.255662,277.846847 L339.732438,277.846847 C341.686087,277.871138 343.263924,279.450218 343.288196,281.405405 Z"/>
    <path fill="#000" d="M167.300672,277.846847 L167.300672,441.09009 L167.255662,441.09009 C165.302013,441.065799 163.724176,439.486719 163.699904,437.531532 L163.699904,281.405405 C163.724176,279.450218 165.302013,277.871138 167.255662,277.846847 L167.300672,277.846847 Z" opacity=".1"/>
    <polygon fill="#099" points="175.168 287.523 334.952 287.523 334.952 421.081 175.168 424.685"/>
    <polygon fill="#000" points="653.62 435.721 653.62 441.495 611.158 440.36 611.158 435.721" opacity=".1"/>
    <path fill="#7D7F80" d="M709.666315,281.405405 L709.666315,437.531532 C709.641675,439.504133 708.036751,441.090244 706.065547,441.09009 L533.507754,436.495495 C531.589341,436.423582 530.064667,434.858073 530.042015,432.936937 L530.042015,281.405405 C530.066287,279.450218 531.644125,277.871138 533.597774,277.846847 L706.074549,277.846847 C708.042245,277.851616 709.641724,279.436307 709.666315,281.405405 Z"/>
    <path fill="#000" d="M709.666315,281.405405 L709.666315,437.531532 C709.641675,439.504133 708.036751,441.090244 706.065547,441.09009 L706.065547,277.846847 C708.036751,277.846693 709.641675,279.432804 709.666315,281.405405 Z" opacity=".1"/>
    <polygon fill="#099" points="698.18 287.523 538.396 287.523 538.396 421.081 698.18 424.685"/>
    <path fill="#7D7F80" d="M525.577063,281.405405 L525.577063,432.936937 C525.554412,434.858073 524.029737,436.423582 522.111324,436.495495 L349.589539,441.09009 C347.618336,441.090244 346.013412,439.504133 345.988772,437.531532 L345.988772,281.405405 C346.013043,279.450218 347.590881,277.871138 349.54453,277.846847 L522.021305,277.846847 C523.974954,277.871138 525.552792,279.450218 525.577063,281.405405 Z"/>
    <polygon fill="#099" points="357.457 287.523 517.241 287.523 517.241 421.081 357.457 424.685"/>
    <polygon fill="#000" points="776.947 480.766 776.947 492.477 640.19 493.739 638.731 493.766 586.754 494.243 585.512 494.261 569.713 494.396 569.245 494.396 472.943 495.288 314.86 496.757 314.725 496.757 274.532 497.135 274.099 497.144 95.501 498.784 95.501 485.27 277.799 484.072 278.231 484.072 315.13 483.82 315.301 483.82 570.128 482.135 570.389 482.135 570.542 482.126 570.965 482.126 575.277 482.099 576.591 482.099 643.646 481.649 647.607 481.631 648.489 481.622" opacity=".1"/>
    <ellipse cx="438.628" cy="268.604" fill="#FBBEBE" rx="46.207" ry="46.243"/>
    <path fill="#FBBEBE" d="M484.843378,339.783784 C484.843378,339.783784 395.27428,350.594595 403.826104,339.783784 C406.922764,335.873874 407.777946,324.288288 407.60691,311.09009 C407.552898,307.081081 407.408868,302.927928 407.201823,298.792793 C406.211612,278.972973 403.826104,259.603604 403.826104,259.603604 C403.826104,259.603604 482.142802,222.666667 473.140883,251.945946 C469.540115,263.774775 470.719367,280.387387 473.45595,295.981982 C474.257121,300.531532 475.184319,304.990991 476.156526,309.225225 C478.5292,319.553089 481.428611,329.752622 484.843378,339.783784 Z"/>
    <path fill="#FF6584" d="M455.614146,336.117117 C465.975355,334.198198 476.948695,330.711712 486.697774,334.72973 C489.263321,335.783784 491.621823,337.324324 494.250384,338.207207 C496.878944,339.09009 499.759559,339.306306 502.496142,339.927928 C512.110192,342.108108 519.905854,349.432432 524.910921,357.945946 C529.915988,366.459459 532.508541,376.09009 535.047083,385.621622 L541.258407,408.891892 C546.659559,429.117117 552.06071,449.513514 553.311977,470.423423 C478.115903,474.730928 402.74809,475.160927 327.507831,471.711712 C332.404875,462.396396 337.409942,452.513514 336.995854,441.981982 C336.581766,431.45045 330.523474,421.063063 332.71094,410.684685 C334.106238,404.072072 338.625202,398.621622 341.388791,392.468468 C349.26547,374.882883 343.135163,351.216216 356.980115,337.828829 C363.209443,331.810811 372.283378,329.531532 380.952226,329.81982 C392.006583,330.189189 403.321996,333.63964 414.259328,335.324324 C428.266315,337.45045 441.499136,338.711712 455.614146,336.117117 Z"/>
    <path fill="#000" d="M573.449271,436.27027 L573.359251,437.558559 L573.359251,437.648649 L573.206219,439.720721 L572.008964,456.396396 L570.559655,476.486486 L570.145566,482.144144 L569.245374,494.252252 L569.245374,494.405405 L472.924837,495.306306 L314.860134,497.018018 L314.860134,497.774775 L314.734107,497.774775 L314.734107,497.018018 L314.734107,496.765766 L315.139194,483.828829 L315.913359,458.54955 L316.579501,437.117117 L316.642514,434.981982 C316.722108,432.3775 317.868655,429.920447 319.813048,428.187517 C321.757442,426.454587 324.328477,425.598367 326.922706,425.81982 C331.171612,426.18018 336.689789,426.621622 343.288196,427.09009 L345.988772,427.288288 C384.093896,429.936937 454.515912,433.36036 525.577063,429.09009 C527.071382,429.009009 528.574702,428.918919 530.078023,428.810811 C541.096372,428.117117 552.10572,427.225225 563.007044,426.108108 C565.796761,425.815587 568.572677,426.774611 570.587983,428.727171 C572.603288,430.679732 573.651008,433.425299 573.449271,436.225225 L573.449271,436.27027 Z" opacity=".1"/>
    <path fill="#3F3D56" d="M314.833129,497.774775 L314.833129,497.018018 L472.924837,495.297297 L569.245374,494.396396 L569.515432,494.396396 L569.515432,494.243243 L570.415624,482.135135 L570.802706,476.72973 L572.279021,456.36036 L573.440269,440.234234 L573.440269,439.837838 C573.493943,439.094768 573.460711,438.347966 573.341248,437.612613 C573.346284,437.582794 573.346284,437.552341 573.341248,437.522523 C573.093958,436.002095 572.475545,434.566247 571.540864,433.342342 C569.525726,430.756228 566.319809,429.393832 563.061056,429.738739 C552.159731,430.855856 541.150384,431.747748 530.132035,432.441441 C528.628714,432.54955 527.125393,432.63964 525.631075,432.720721 C454.569923,436.945946 384.147908,433.522523 346.042783,430.918919 L343.342207,430.720721 C336.7438,430.252252 331.225624,429.81982 326.976718,429.45045 C322.13548,429.04161 317.76787,432.358785 316.85856,437.135135 C316.767669,437.622874 316.713505,438.116755 316.696526,438.612613 L316.084395,458.576577 L315.247217,483.864865 L314.851132,496.801802 L314.851132,497.054054 L314.851132,497.810811 L314.833129,497.774775 Z"/>
    <path fill="#000" d="M573.719328 442.585586L572.612092 456.396396 570.964741 476.981982 570.550653 482.135135 569.650461 493.675676 569.596449 494.252252 569.596449 494.405405 569.46142 495.738739 569.560441 494.405405 569.299386 494.405405 472.978848 495.306306 314.860134 497.018018 314.860134 496.765766 315.301228 483.828829 316.20142 458.54955 316.777543 441.747748C316.835102 439.805752 317.872066 438.025247 319.532131 437.018018 320.551482 436.392789 321.743344 436.108789 322.934856 436.207207 324.825259 436.36036 327.147754 436.540541 329.857332 436.738739 334.259271 437.063063 339.687428 437.441441 346.006775 437.837838 357.709271 438.576577 372.391401 439.369369 389.215988 440.018018 436.025969 441.81982 499.219443 442.423423 559.244242 437.162162 561.944818 436.927928 564.735413 436.666667 567.462994 436.405405 568.542638 436.297652 569.630411 436.504116 570.595662 437 570.869072 437.136293 571.128383 437.299245 571.369827 437.486486 572.153469 438.054751 572.774294 438.818967 573.170211 439.702703 573.26205 439.878525 573.337389 440.062497 573.395259 440.252252 573.665678 440.998658 573.776094 441.793667 573.719328 442.585586zM268.347217 454.918919L268.347217 457.792793C268.348209 459.925784 267.121731 461.868651 265.196545 462.783784L229.098848 463.477477C227.138693 462.578336 225.882854 460.617402 225.885163 458.459459L225.885163 455.756757 268.347217 454.918919z" opacity=".1"/>
    <polygon fill="#3F3D56" points="268.788 464.477 221.753 465.378 221.753 457.568 268.788 456.667"/>
    <polygon fill="#000" points="268.788 464.477 221.753 465.378 221.753 457.568 268.788 456.667" opacity=".1"/>
    <polygon fill="#3F3D56" points="270.589 464.477 223.554 465.378 223.554 457.568 270.589 456.667"/>
    <path fill="#000" d="M611.428368,456.720721 L611.428369,459.594595 C611.427377,461.727585 612.653854,463.670453 614.57904,464.585586 L650.676737,465.279279 C652.636892,464.380137 653.892732,462.419203 653.890422,460.261261 L653.890422,457.558559 L611.428368,456.720721 Z" opacity=".1"/>
    <polygon fill="#000" points="610.978 466.279 658.013 467.18 658.013 459.369 610.978 458.468" opacity=".1"/>
    <polygon fill="#3F3D56" points="609.178 466.279 656.213 467.18 656.213 459.369 609.178 458.468"/>
    <path fill="#3F3D56" d="M409.398292,282.774775 C409.470307,289.081081 406.553685,295.027027 404.078157,300.855856 C395.064934,322.088505 391.161283,345.143122 392.681727,368.162162 C393.338868,378.072072 395.004223,387.981982 393.338868,397.801802 C391.673512,407.621622 385.75025,417.414414 376.235221,420.234234 C392.015585,429.648649 413.37714,428.657658 428.230307,417.837838 C436.142994,412.072072 442.039251,404.027027 447.809482,396.117117 C447.124142,410.326161 443.013308,424.15822 435.827927,436.432432 C462.093832,434.105 486.141867,420.740642 502.001036,399.657658 C505.880864,394.423423 509.256583,388.675676 510.750902,382.333333 C513.532495,370.621622 509.652668,358.45045 506.691036,346.747748 C504.216133,336.964733 502.361046,327.035061 501.136852,317.018018 C500.74977,313.810811 500.434702,310.513514 501.226871,307.378378 C502.127063,303.711712 504.530576,300.612613 506.303954,297.27027 C511.345029,287.774775 511.462054,276.279279 508.878503,265.846847 C506.294952,255.414414 501.235873,245.792793 496.221804,236.288288 C492.206948,228.666667 487.850019,220.693694 480.504453,216.216216 C475.913474,213.423423 470.602342,212.261261 465.309213,211.135135 L442.471344,206.243243 C437.475278,205.171171 432.335182,204.099099 427.285106,204.882883 C418.760288,206.216216 412.756008,212.378378 407.480883,218.702703 C403.349002,223.621622 393.248848,232.855856 392.537697,239.297297 C391.889559,245.234234 397.128676,255.18018 398.019866,261.441441 C399.190115,269.54955 400.018292,266.846847 404.591267,271.81982 C407.480883,274.900901 409.34428,278.459459 409.398292,282.774775 Z"/>
    <path fill="#F2F2F2" d="M270.291631 300.531532L180.632514 300.531532C180.383933 300.531532 180.182418 300.329858 180.182418 300.081081 180.182418 299.832304 180.383933 299.630631 180.632514 299.630631L270.291631 299.630631C270.540213 299.630631 270.741727 299.832304 270.741727 300.081081 270.741727 300.329858 270.540213 300.531532 270.291631 300.531532zM270.291631 308.63964L180.632514 308.63964C180.383933 308.63964 180.182418 308.437966 180.182418 308.189189 180.182418 307.940412 180.383933 307.738739 180.632514 307.738739L270.291631 307.738739C270.540213 307.738739 270.741727 307.940412 270.741727 308.189189 270.741727 308.437966 270.540213 308.63964 270.291631 308.63964zM270.291631 316.747748L180.632514 316.747748C180.383933 316.747748 180.182418 316.546074 180.182418 316.297297 180.182418 316.04852 180.383933 315.846847 180.632514 315.846847L270.291631 315.846847C270.540213 315.846847 270.741727 316.04852 270.741727 316.297297 270.741727 316.546074 270.540213 316.747748 270.291631 316.747748z"/>
  </g>
</svg>
