<svg xmlns="http://www.w3.org/2000/svg" width="1220" height="800" viewBox="0 0 1220 800">
  <g fill="none" fill-rule="evenodd" transform="translate(145 179)">
    <path fill="#F2F2F2" d="M902.67,32 L902.67,381.62 C902.67,390.20771 899.258546,398.44369 893.186118,404.516118 C887.11369,410.588546 878.87771,414 870.29,414 L132.05,414 C114.16702,414 99.67,399.50298 99.67,381.62 L99.67,32 C99.8889009,14.2701667 114.318818,0.00959389997 132.05,0 L870.29,0 C888.021182,0.00959389997 902.451099,14.2701667 902.67,32 Z"/>
    <path fill="#099" d="M287.25,76 L161.09,76 C153.406102,76.00552 147.179998,82.2360998 147.18,89.92 L147.18,261.09 C147.18552,268.773898 153.4161,275.000002 161.1,275 L287.25,275 C290.941814,275.002653 294.483474,273.53863 297.095856,270.929999 C299.708238,268.321367 301.177349,264.781814 301.18,261.09 L301.18,89.92 C301.180001,86.2264532 299.712061,82.6843304 297.099391,80.0735364 C294.486722,77.4627423 290.943546,75.9973466 287.25,76 Z" opacity=".4"/>
    <path fill="#E6E6E6" d="M902.67,32 L99.67,32 C99.8889009,14.2701667 114.318818,0.00959389997 132.05,0 L870.29,0 C888.021182,0.00959389997 902.451099,14.2701667 902.67,32 Z"/>
    <circle cx="130.67" cy="16" r="7" fill="#F2F2F2"/>
    <circle cx="151.67" cy="16" r="7" fill="#F2F2F2"/>
    <circle cx="172.67" cy="16" r="7" fill="#F2F2F2"/>
    <rect width="165" height="33" x="357.67" y="65" fill="#E6E6E6" rx="5.24"/>
    <rect width="165" height="33" x="687.67" y="65" fill="#E6E6E6" rx="5.24"/>
    <rect width="495" height="214" x="357.67" y="131" fill="#E6E6E6" rx="7.01"/>
    <rect width="414" height="10" x="398.17" y="156" fill="#F2F2F2" rx="1.52"/>
    <rect width="414" height="10" x="398.17" y="184" fill="#F2F2F2" rx="1.52"/>
    <rect width="414" height="10" x="398.17" y="212" fill="#F2F2F2" rx="1.52"/>
    <rect width="414" height="10" x="398.17" y="240" fill="#F2F2F2" rx="1.52"/>
    <rect width="414" height="10" x="398.17" y="268" fill="#F2F2F2" rx="1.52"/>
    <rect width="414" height="10" x="398.17" y="296" fill="#F2F2F2" rx="1.52"/>
    <path fill="#FEC2BE" d="M156.98,204.4 C151.87,206.34 139.98,206.56 134.67,206.55 C133.07,206.55 132.07,206.55 132.07,206.55 L128.68,199.65 L132.07,193.89 C132.07,193.89 135.18,193.04 139.31,192.29 C145.41,191.19 153.75,190.29 157.73,192.8 C164.4,196.92 163.65,201.87 156.98,204.4 Z"/>
    <path fill="#000" d="M134.67,206.55 C133.07,206.55 132.07,206.55 132.07,206.55 L128.68,199.65 L132.07,193.89 C132.07,193.89 135.18,193.04 139.31,192.29 C135.96,194.75 127.9,200.09 134.67,206.55 Z" opacity=".1"/>
    <path fill="#4C4981" d="M78.52,121.8 L80.02,120.07 C80.02,120.07 87.72,132.27 88.53,136.87 C89.34,141.47 90.37,146.76 90.37,146.76 C90.37,146.76 92.37,152.76 93.59,155.39 C94.81,158.02 96.01,160.57 96.12,161.72 C96.23,162.87 95.66,165.4 98.12,167.01 C100.58,168.62 101.12,173.01 101.12,173.01 C101.12,173.01 109.86,181.53 114.46,181.76 C119.06,181.99 132.3,184.29 131.84,186.59 C131.38,188.89 137.36,190.27 139.77,190.84 C142.18,191.41 124.24,198.32 134.71,207.18 C134.71,207.18 128.04,208.56 127.35,210.18 C126.66,211.8 119.64,209.26 119.64,209.26 C119.64,209.26 118.15,205.7 112.97,205.47 C107.79,205.24 105.15,202.93 105.15,202.59 C105.15,202.25 99.97,199.37 97.09,198.59 C94.21,197.81 90.42,197.44 90.3,196.64 C90.18,195.84 73.05,121.86 73.05,121.86 L78.52,121.8 Z"/>
    <path fill="#17191A" fill-rule="nonzero" d="M78.52,121.8 L80.02,120.07 C80.02,120.07 87.72,132.27 88.53,136.87 C89.34,141.47 90.37,146.76 90.37,146.76 C90.37,146.76 92.37,152.76 93.59,155.39 C94.81,158.02 96.01,160.57 96.12,161.72 C96.23,162.87 95.66,165.4 98.12,167.01 C100.58,168.62 101.12,173.01 101.12,173.01 C101.12,173.01 109.86,181.53 114.46,181.76 C119.06,181.99 132.3,184.29 131.84,186.59 C131.38,188.89 137.36,190.27 139.77,190.84 C142.18,191.41 124.24,198.32 134.71,207.18 C134.71,207.18 128.04,208.56 127.35,210.18 C126.66,211.8 119.64,209.26 119.64,209.26 C119.64,209.26 118.15,205.7 112.97,205.47 C107.79,205.24 105.15,202.93 105.15,202.59 C105.15,202.25 99.97,199.37 97.09,198.59 C94.21,197.81 90.42,197.44 90.3,196.64 C90.18,195.84 73.05,121.86 73.05,121.86 L78.52,121.8 Z"/>
    <path fill="#3F3D56" d="M60.6,441.05 C45.42,443.9 42.65,432.25 42.65,432.25 C42.65,432.25 40.76,421.89 40.07,421.12 C39.8903325,420.818653 39.84673,420.4553 39.95,420.12 C40.3593109,418.363576 41.1176797,416.707407 42.18,415.25 C43.13,414.13 42.35,409.47 42.35,409.47 L59.95,404.98 C60.699113,406.644206 61.2787046,408.379631 61.68,410.16 C61.85,411.8 64.44,419.22 64.18,420.25 C63.92,421.28 65.3,424.48 65.47,426.12 C65.64,427.76 67.8,430.18 67.98,431.04 C68.2669105,431.816278 68.6008628,432.57435 68.98,433.31 C69.4452794,434.448645 69.8197802,435.622304 70.1,436.82 C70.87,440.44 60.6,441.05 60.6,441.05 Z"/>
    <path fill="#000" d="M60.6,441.05 C45.42,443.9 42.65,432.25 42.65,432.25 C42.65,432.25 40.76,421.89 40.07,421.12 C39.8903325,420.818653 39.84673,420.4553 39.95,420.12 L43.6,430.6 C43.6,430.6 46.6,436.9 57.84,435.95 C64.22,435.41 67.37,434.23 68.89,433.3 C69.3552794,434.438645 69.7297802,435.612304 70.01,436.81 C70.87,440.44 60.6,441.05 60.6,441.05 Z" opacity=".1"/>
    <path fill="#000" d="M48.78,424.65 C48.78,424.65 52.58,424.74 52.84,421.65 L48.78,424.65 Z" opacity=".1"/>
    <path fill="#17191A" fill-rule="nonzero" d="M114.79,322.67 C112.89,325.51 110.73,337.94 110.73,337.94 C109.904326,339.57644 109.434038,341.368986 109.35,343.2 C109.44,345.62 107.97,350.02 107.97,350.02 L103.18,367.88 C103.18,367.88 103.7,372.63 101.89,375.99 C100.08,379.35 100.25,378.32 101.11,384.19 C101.97,390.06 100.11,395.49 96.97,397.19 C93.83,398.89 98.35,402.97 98.35,402.97 C98.35,402.97 78.5,408.32 74.35,405.04 C70.2,401.76 76.51,385.54 76.51,385.54 C76.51,385.54 75.51,371.9 76.16,369.92 C76.81,367.94 79.79,351.02 79.79,351.02 C79.79,351.02 81.6,343.34 80.91,342.02 C80.22,340.7 81.34,337.02 81.34,337.02 C81.34,337.02 84.27,332.87 84.01,331.58 C83.75,330.29 84.88,327.96 84.88,327.96 C84.88,327.96 76.08,314.5 76.88,311.96 C77.68,309.42 76.54,305.41 76.54,305.41 C76.54,305.41 75.43,303.5 74.09,301.22 C72.45,298.42 70.47,295.06 69.81,294.02 C68.96,292.68 66.92,287.02 65.81,283.76 C65.33,282.37 65.01,281.42 65.01,281.42 C65.01,281.42 63.62,306.79 62.42,309.42 C61.22,312.05 59.42,332.42 59.42,332.42 C58.7489469,334.241984 58.4530236,336.180791 58.55,338.12 C58.73,341.31 55.79,355.2 55.79,355.2 C55.79,355.2 54.5,365.04 55.36,367.63 C56.22,370.22 55.53,389.28 55.53,389.28 C55.53,389.28 60.28,392.99 61.53,395.84 C62.78,398.69 61.36,406.45 61.36,406.45 C61.36,406.45 47.55,413.36 41.42,411.55 C35.29,409.74 37.8,399.29 37.8,399.29 C37.8,399.29 33.66,392.39 33.66,389.72 C33.3541568,386.070824 32.8635272,382.439498 32.19,378.84 C26.93,369.18 29,345.71 28.14,343.84 C27.28,341.97 29.95,334.84 32.14,331.68 C34.33,328.52 33.44,319.86 32.14,317.35 C30.84,314.84 33.44,306.22 33.44,306.22 C33.44,306.22 30.94,289.48 31.02,286.89 C31.1,284.3 28.87,276.63 28.87,276.63 C28.87,276.63 26.62,272.63 27.14,271.45 C27.66,270.27 25.41,267.14 26.02,265.76 C26.63,264.38 25.5,260.15 24.38,257.64 C23.5440106,255.049914 22.9284855,252.393789 22.54,249.7 C22.01,246.7 21.62,244.1 21.62,244.1 L35.86,232.62 L71.18,223.35 L84.56,219.04 L97.56,239.57 C97.56,239.57 98.9,241.72 100.09,244.2 C101.09,246.33 102.03,248.71 101.87,250.2 C101.654581,252.06897 102.081283,253.955629 103.08,255.55 C103.08,255.55 110.85,280.14 110.67,287.21 C110.49,294.28 113.43,309.82 113.43,309.82 C113.43,309.82 116.69,319.82 114.79,322.67 Z"/>
    <path fill="#FEC2BE" d="M62.23,122.66 C61.68,122.43 24.14,106.93 29.31,103.85 C32.38,102.02 36.16,94.27 38.74,88.2 C40.55,83.97 41.74,80.55 41.74,80.55 C41.74,80.55 71.87,75.2 61.09,93.67 C59.3887156,96.4994324 58.1086124,99.5615739 57.29,102.76 C54.24,115.34 61.97,122.43 62.23,122.66 Z"/>
    <path fill="#000" d="M61.12,93.67 C59.4187156,96.4994324 58.1386124,99.5615739 57.32,102.76 C49.5266738,102.226394 42.6735805,97.4111237 39.53,90.26 C39.2296642,89.5881014 38.9659445,88.9004273 38.74,88.2 C40.55,83.97 41.74,80.55 41.74,80.55 C41.74,80.55 71.9,75.2 61.12,93.67 Z" opacity=".1"/>
    <path fill="#FEC2BE" d="M79.84,81.07 C79.8426469,91.0238084 72.872847,99.6189051 63.1332166,101.67266 C53.3935862,103.726415 43.5467058,98.6773808 39.53,89.57 C38.342053,86.8941275 37.7321002,83.9977038 37.74,81.07 C37.7340328,70.5771661 45.4565747,61.6822205 55.8463047,60.2148725 C66.2360346,58.7475244 76.1198754,65.1559098 79.02,75.24 C79.5685025,77.1345967 79.8446036,79.0976079 79.84,81.07 Z"/>
    <path fill="#000" d="M100.18,244.2 C97.98,246.2 97.13,250.02 97.13,250.02 C97.13,250.02 86.78,257.09 87.47,252.6 C88.16,248.11 82.12,230 82.12,230 L82.81,254.67 C82.81,254.67 49.67,253.12 47.26,250.67 C44.85,248.22 30.69,243.59 30.69,243.59 C30.69,243.59 26.36,247.07 22.38,249.71 C21.85,246.71 21.46,244.11 21.46,244.11 L35.7,232.63 L71.18,223.35 L84.56,219.04 L97.56,239.57 C97.56,239.57 98.96,241.75 100.18,244.2 Z" opacity=".1"/>
    <path fill="#FFF" d="M101.24,242.25 C98.48,243.98 97.44,248.63 97.44,248.63 C97.44,248.63 87.09,255.71 87.78,251.22 C88.47,246.73 82.43,228.62 82.43,228.62 L83.12,253.29 C83.12,253.29 49.99,251.74 47.57,249.29 C45.15,246.84 31.01,242.22 31.01,242.22 C31.01,242.22 18.75,252.06 16.51,251.22 C14.27,250.38 20.51,233.62 20.51,233.62 L26.89,135.62 C26.89,135.62 25.17,106.46 27.76,105.42 C28.157724,105.259656 28.5235027,105.029351 28.84,104.74 C30.55,103.21 31.06,100.1 31.21,97.48 C31.38,94.38 35.52,95.93 35.52,95.93 L33.11,99.04 L54.49,112.04 L54.68,112.15 C55.5136195,111.714177 56.371715,111.326866 57.25,110.99 C59.14,110.26 61.66,109.57 63.31,110.25 C64.2244996,110.708699 65.0034904,111.398072 65.57,112.25 C66.7900964,114.083106 67.7681957,116.066194 68.48,118.15 L76.18,131.29 C76.18,131.29 80.18,148.72 80.18,149.41 C80.18,150.1 81.39,165.97 82.77,167.7 C84.15,169.43 85.53,178.05 85.01,180.64 C84.49,183.23 85.87,192.9 85.87,192.9 C91.57,197.55 94.5,213.43 94.5,213.43 C94.5,213.43 103.5,231.21 104.16,233.28 C104.82,235.35 104,240.52 101.24,242.25 Z"/>
    <path fill="#000" d="M54.46,112.75 C52.36,115.86 46.31,120.23 46.31,120.23 L28.81,105.45 C30.52,103.92 31.03,100.81 31.18,98.2 C31.35,95.09 35.49,96.64 35.49,96.64 L34.99,97.29 C34.5040503,97.9156177 34.308081,98.7188363 34.4513021,99.4979592 C34.5945233,100.277082 35.06333,100.958099 35.74,101.37 L54.46,112.75 Z" opacity=".1"/>
    <path fill="#FFF" d="M54.46,112.02 C52.36,115.13 46.31,119.49 46.31,119.49 L28.81,104.75 C30.52,103.22 31.03,100.11 31.18,97.49 C31.35,94.39 35.49,95.94 35.49,95.94 L34.99,96.59 C34.5040503,97.2156177 34.308081,98.0188363 34.4513021,98.7979592 C34.5945233,99.577082 35.06333,100.258099 35.74,100.67 L54.46,112.02 Z"/>
    <path fill="#000" d="M62.55,114.35 C60.29,117.05 57.09,120.11 57.24,118.58 C57.39,117.05 55.33,113.65 54.01,112.13 C56.0603226,111.479972 58.2703456,111.543418 60.28,112.31 C61.2086062,112.770174 61.9936124,113.475642 62.55,114.35 Z" opacity=".1"/>
    <path fill="#FFF" d="M62.89,113.31 C60.63,116.01 57.43,119.08 57.58,117.54 C57.73,116 55.88,113.54 54.58,112 C56.47,111.27 58.99,110.59 60.64,111.27 C61.5576093,111.738477 62.3341415,112.442533 62.89,113.31 Z"/>
    <circle cx="57.23" cy="126.28" r="1.38" fill="#17191A" fill-rule="nonzero"/>
    <circle cx="67.7" cy="163.56" r="1.38" fill="#17191A" fill-rule="nonzero"/>
    <circle cx="79.55" cy="201.29" r="1.38" fill="#17191A" fill-rule="nonzero"/>
    <circle cx="79.9" cy="242.36" r="1.38" fill="#17191A" fill-rule="nonzero"/>
    <circle cx="63.33" cy="143.88" r="1.38" fill="#17191A" fill-rule="nonzero"/>
    <circle cx="72.65" cy="182.19" r="1.38" fill="#17191A" fill-rule="nonzero"/>
    <circle cx="81.74" cy="219.81" r="1.38" fill="#17191A" fill-rule="nonzero"/>
    <circle cx="79.67" cy="246.96" r="1.38" fill="#17191A" fill-rule="nonzero"/>
    <path fill="#000" d="M28.82,105.58 C28.82,105.58 29.05,103.5 26.06,107.07 C23.07,110.64 17.43,113.74 17.43,113.74 C17.43,113.74 4.66,122.74 3.97,126.86 C3.28,130.98 -0.86,148.95 1.32,154.93 C3.5,160.91 20.18,189.56 20.18,189.56 C20.18,189.56 15.81,194.74 16.85,200.83 C17.89,206.92 19.15,215.33 18.57,217.17 C17.99,219.01 19.26,223.61 17.31,225.22 C15.36,226.83 13.31,229.59 19.38,233.28 C19.38,233.28 20.53,236.38 19.49,237.07 C18.45,237.76 34.79,244.9 41.23,241.07 C47.67,237.24 59.3,206.9 59.53,200.07 C59.76,193.24 55.96,170.85 53.89,165.56 C51.82,160.27 45.61,139.67 42.96,135.07 C40.31,130.47 28.82,105.58 28.82,105.58 Z" opacity=".1"/>
    <path fill="#17191A" fill-rule="nonzero" d="M28.18,105.58 C28.18,105.58 28.41,103.5 25.42,107.07 C22.43,110.64 16.79,113.74 16.79,113.74 C16.79,113.74 4.02,122.74 3.33,126.86 C2.64,130.98 -1.5,148.95 0.68,154.93 C2.86,160.91 19.55,189.56 19.55,189.56 C19.55,189.56 15.18,194.75 16.18,200.83 C17.18,206.91 18.49,215.33 17.91,217.17 C17.33,219.01 18.6,223.61 16.65,225.22 C14.7,226.83 12.65,229.59 18.72,233.28 C18.72,233.28 19.87,236.38 18.83,237.07 C17.79,237.76 34.13,244.9 40.57,241.07 C47.01,237.24 58.64,206.9 58.87,200.07 C59.1,193.24 55.3,170.85 53.23,165.56 C51.16,160.27 44.93,139.75 42.28,135.14 C39.63,130.53 28.18,105.58 28.18,105.58 Z"/>
    <path fill="#000" d="M23.53 125.13C23.53 125.13 33.42 136.06 33.08 143.31 33.08 143.31 33.18 131.58 23.53 125.13zM37.18 143.08C37.18 143.43 43.85 168.28 43.51 171.38 43.17 174.48 45.46 183.69 45.46 183.69L48.57 182.89C48.57 182.89 46.15 170.12 45.69 165.4 45.23 160.68 37.18 143.08 37.18 143.08zM39.86 213.95C39.63 214.29 24.1 231.9 28.47 233.16 32.84 234.42 39.86 213.95 39.86 213.95zM27.09 209.46C26.75 209.69 20.88 222.12 20.19 218.78 19.5 215.44 25.25 227.87 26.19 218.67L27.09 209.46zM56.92 109.49C56.92 109.49 63.33 105.58 71.39 115.58 71.39 115.58 77.25 118.92 78.98 119.73 80.71 120.54 82.66 141.93 82.66 141.93 82.66 141.93 86.46 151.13 85.42 156.43 84.38 161.73 88.42 179.89 88.42 179.89 88.42 179.89 95.1 212.57 94.87 213.49 94.64 214.41 88.07 203.25 88.18 197.75 88.29 192.25 82.66 174.97 81.86 173.93 81.06 172.89 75.53 143.33 75.53 143.33 75.53 143.33 71.04 130.75 68.18 126.63 65.32 122.51 61.73 114.63 60.24 113.28 59.1634908 112.350054 57.9617647 111.575832 56.67 110.98L56.92 109.49z" opacity=".1"/>
    <path fill="#17191A" fill-rule="nonzero" d="M56.83,109.49 C56.83,109.49 64.02,105.58 72.08,115.58 C72.08,115.58 77.94,118.92 79.67,119.73 C81.4,120.54 83.35,141.93 83.35,141.93 C83.35,141.93 87.15,151.13 86.11,156.43 C85.07,161.73 89.11,179.89 89.11,179.89 C89.11,179.89 95.79,212.57 95.56,213.49 C95.33,214.41 88.77,203.25 88.88,197.73 C88.99,192.21 83.36,174.95 82.56,173.91 C81.76,172.87 76.23,143.31 76.23,143.31 C76.23,143.31 71.74,130.77 68.87,126.63 C66,122.49 62.42,114.63 60.93,113.28 C59.6517963,112.275636 58.2109488,111.497714 56.67,110.98 L56.83,109.49 Z"/>
    <path fill="#000" d="M78.89 267.96C76.89 272.34 75.18 294.33 74.03 301.31 72.39 298.51 70.41 295.15 69.75 294.11 68.9 292.77 66.86 287.11 65.75 283.85 67.05 280.69 70.64 271.63 70.64 268.31 70.64 264.25 77.2 259.16 77.2 259.16 79.6136926 261.41557 80.2964559 264.970787 78.89 267.96zM34.89 335.52C34.89 335.52 50.07 329.05 54.56 333.62 59.05 338.19 34.89 335.52 34.89 335.52zM43.43 338.11C43.43 338.11 28.07 346.74 33.34 348.21 38.61 349.68 43.43 338.11 43.43 338.11zM89.33 330.6C89.33 330.6 82.78 331.04 85.28 332.33 87.78 333.62 89.33 330.6 89.33 330.6zM97.53 332.59C97.44 333.02 78.46 339.15 82.17 341.91 85.88 344.67 97.53 332.59 97.53 332.59zM37.18 385.4C40.03 384.96 55.91 377.63 49.69 382.89 46.3065166 385.978662 41.4930648 386.944431 37.18 385.4zM44.98 391.18C44.98 391.18 46.36 396.53 51.63 395.84 56.9 395.15 44.98 391.18 44.98 391.18zM40.58 402.05C41.53 401.79 52.84 396.61 53.09 399.05 53.34 401.49 42.31 405.69 41.45 404.4 40.9490424 403.711775 40.6479666 402.898524 40.58 402.05zM77.18 395.84C78.56 395.75 91.5 391.61 94.09 395.32L77.18 395.84zM88.9 398.25C88.9 398.25 91.15 396.25 93.39 397.25 95.63 398.25 88.9 398.25 88.9 398.25zM60.26 419.65C60.560963 421.139584 61.7079359 422.313959 63.19 422.65L60.26 419.65z" opacity=".1"/>
    <path fill="#3F3D56" d="M126.09,427.75 C125.23,431.29 113.15,431.63 107.37,430.68 C101.59,429.73 89.59,426.28 89.59,426.28 C89.59,426.28 77,425.08 73.29,423.52 C69.58,421.96 72.51,418 72.51,418 L72.51,417.63 C72.42,416.19 72.17,410.95 73.06,409.54 C74.06,407.91 73.49,402.54 73.49,402.54 C73.49,402.54 91.35,405.99 91.69,404.35 C92.03,402.71 94.8,400.35 96.09,399.86 C97.38,399.37 98.34,404.18 98.34,404.18 C98.34,404.18 106.45,411.08 106.97,413.58 C107.49,416.08 113.18,417.38 113.18,417.38 C113.18,417.38 121.81,419.79 124.05,421 C125.37405,421.624258 126.276318,422.894256 126.43,424.35 C126.527165,425.494602 126.411895,426.647304 126.09,427.75 Z"/>
    <path fill="#000" d="M126.09,427.75 C125.23,431.29 113.15,431.63 107.37,430.68 C101.59,429.73 89.59,426.28 89.59,426.28 C89.59,426.28 77,425.08 73.29,423.52 C69.58,421.96 72.51,418 72.51,418 L72.51,417.63 L90.57,421.63 C90.57,421.63 99.46,425.43 105.15,425.43 C110.15,425.43 121.26,427.43 126.43,424.43 C126.517345,425.548109 126.402165,426.672804 126.09,427.75 Z" opacity=".1"/>
    <path fill="#000" d="M101.67 414.13C101.67 414.13 100.81 419.82 97.36 421.72L101.67 414.13zM79.02 75.24C78.7001238 75.4127996 78.3654627 75.5567039 78.02 75.67 76.4 76.1 74.82 75.01 73.38 74.14 71.94 73.27 69.96 72.62 68.71 73.75 67.09 75.22 68.27 78.38 66.6 79.8 65.54 80.7 63.86 80.39 62.68 81.13 61.5 81.87 61.15 83.49 60.85 84.89 60.55 86.29 59.96 87.89 58.59 88.3 57.22 88.71 55.94 87.81 54.59 87.86 54.31 87.86 53.99 87.91 53.8 87.7 53.6729151 87.5200966 53.6225511 87.2970562 53.66 87.08 53.8362366 85.4011564 53.69029 83.7041023 53.23 82.08 52.7336768 80.4338446 51.3947943 79.1788807 49.72 78.79 47.3 78.42 45.26 80.54 43.83 82.54 42.3335775 84.6422788 40.9708865 86.8366121 39.75 89.11 39.6744847 89.2559089 39.6077005 89.4061734 39.55 89.56 38.362053 86.8841275 37.7521002 83.9877038 37.76 81.06 37.7540328 70.5671661 45.4765747 61.6722205 55.8663047 60.2048725 66.2560346 58.7375244 76.1398754 65.1459098 79.04 75.23L79.02 75.24z" opacity=".1"/>
    <path fill="#17191A" fill-rule="nonzero" d="M43.81,82.2 C45.24,80.2 47.27,78.09 49.7,78.46 C51.3694452,78.8469528 52.7000241,80.1048851 53.18,81.75 C53.6480735,83.3726336 53.7974908,85.0705568 53.62,86.75 C53.58203,86.9702388 53.632326,87.1965709 53.76,87.38 C53.95,87.58 54.27,87.55 54.55,87.54 C55.9,87.54 57.25,88.37 58.55,87.98 C59.85,87.59 60.55,85.98 60.82,84.57 C61.09,83.16 61.43,81.57 62.65,80.81 C63.87,80.05 65.5,80.38 66.57,79.47 C68.23,78.05 67.06,74.9 68.68,73.42 C69.93,72.3 71.92,72.94 73.35,73.81 C74.78,74.68 76.35,75.81 77.99,75.34 C78.5253028,75.1458266 79.049439,74.9221506 79.56,74.67 C82.12,73.67 85.44,75.35 87.56,73.6 C88.3262391,72.837941 88.8751382,71.8851351 89.15,70.84 C89.73158,69.4310936 90.1249662,67.9516925 90.32,66.44 C90.500675,64.9155237 90.0810716,63.3805643 89.15,62.16 C87.78,60.54 85.47,60.16 83.72,58.95 C82.2979672,57.836062 81.1173688,56.4445209 80.25,54.86 C79.383176,53.2751076 78.2421796,51.85648 76.88,50.67 C75.4700206,49.480785 73.5149542,49.1761494 71.81,49.88 C71.3045109,50.2315759 70.7432899,50.4952822 70.15,50.66 C69.5048464,50.6708889 68.8699846,50.4974294 68.32,50.16 C62.32,47.34 55.37,47.84 48.81,48.68 C46.1656136,48.896793 43.5711577,49.5243207 41.12,50.54 C38.6495288,51.590007 36.7585626,53.6634989 35.94,56.22 C35.4,58.22 35.81,60.45 35.17,62.44 C34.73,63.8 33.83,64.96 33.32,66.29 C31.93,69.93 33.6,73.93 34.32,77.76 C35.09,81.95 34.7,86.48 36.48,90.44 C36.83,91.22 37.22,92.58 38.1,92.07 C38.75,91.69 39.38,89.48 39.75,88.79 C40.9659918,86.5116251 42.3219205,84.3107457 43.81,82.2 Z"/>
    <path fill="#000" d="M5.93,149.64 L2.82,158.5 C2.82,158.5 10.18,185.88 13.63,191.63 C17.08,197.38 22.18,204.75 22.18,204.75 C27.943782,207.344638 34.3537158,208.149363 40.58,207.06 C50.48,205.06 79.35,199.92 79.35,199.92 C80.7400279,200.171808 82.1563252,199.642136 83.04,198.54 C84.3,196.7 90.86,195.78 90.86,195.78 C90.86,195.78 98.45,184.78 89.13,180.14 C89.13,180.14 87.98,182.67 83.04,180.94 C78.1,179.21 76.59,182.32 76.59,182.32 C76.59,182.32 68.59,183.93 64.05,183.32 C59.51,182.71 48.41,182.51 47.26,181.59 C46.9635308,181.334081 46.5771938,181.20705 46.1866991,181.237088 C45.7962043,181.267126 45.4338408,181.45175 45.18,181.75 C43.8420746,181.26847 42.5946733,180.565328 41.49,179.67 C40.57,178.67 39.31,180.83 39.31,180.83 C39.31,180.83 37.7,179.9 38.16,178.75 C38.62,177.6 36.66,173.23 36.66,173.23 C36.1411688,171.557477 36.0246736,169.786065 36.32,168.06 C36.89,165.75 33.44,157.47 33.44,157.47 C33.3961784,156.075166 33.5510643,154.681194 33.9,153.33 C34.48,151.26 29.53,147.12 29.53,147.12 C29.53,147.12 24.7,123.65 14.46,131.36 C4.22,139.07 5.93,149.64 5.93,149.64 Z" opacity=".1"/>
    <path fill="#000" d="M80.02,186.68 C79.9,187.49 77.37,190.68 78.29,191.28 C79.21,191.88 80.71,191.51 79.29,193.36 C77.87,195.21 78.03,197.96 78.95,197.61 C79.87,197.26 81.37,193.13 81.37,191.51 C81.1464364,189.845129 80.6920711,188.219511 80.02,186.68 Z" opacity=".1"/>
    <path fill="#000" d="M21.18 15.75C20.6860566 14.1080596 19.350508 12.8564598 17.68 12.47 15.25 12.1 13.22 14.22 11.79 16.22 10.2935775 18.3222788 8.93088651 20.5166121 7.71 22.79 7.34 23.48 6.71 25.68 6.06 26.06 5.18 26.58 4.79 25.21 4.44 24.43 2.66 20.48 3.05 15.94 2.28 11.75 1.65721728 9.31436982 1.16319915 6.84761715.8 4.36.53 7.36 1.71 10.53 2.28 13.59 3.05 17.78 2.66 22.32 4.44 26.28 4.79 27.05 5.18 28.42 6.06 27.9 6.71 27.52 7.34 25.32 7.71 24.63 8.93088651 22.3566121 10.2935775 20.1622788 11.79 18.06 13.22 16.06 15.25 13.94 17.68 14.31 19.350508 14.6964598 20.6860566 15.9480596 21.18 17.59 21.4604085 18.4262377 21.6187057 19.2985562 21.65 20.18 21.7712069 18.6869415 21.6117938 17.184388 21.18 15.75zM57.18 4.86C56.9051382 5.90513506 56.3562391 6.857941 55.59 7.62 53.49 9.38 50.17 7.72 47.59 8.7 47.0792924 8.94890356 46.5551514 9.16924305 46.02 9.36 44.4 9.8 42.82 8.71 41.38 7.84 39.94 6.97 37.96 6.32 36.71 7.45 35.09 8.92 36.27 12.07 34.6 13.5 33.53 14.4 31.86 14.09 30.68 14.83 29.5 15.57 29.15 17.19 28.85 18.59 28.55 19.99 27.96 21.59 26.58 22 25.2 22.41 23.94 21.51 22.58 21.56 22.3 21.56 21.98 21.61 21.79 21.4 21.7473642 21.3493457 21.7135586 21.2918762 21.69 21.23 21.69 21.69 21.69 22.16 21.69 22.62 21.6525511 22.8370562 21.7029151 23.0600966 21.83 23.24 22.02 23.45 22.34 23.41 22.62 23.4 23.97 23.4 25.32 24.23 26.62 23.84 27.92 23.45 28.62 21.84 28.89 20.44 29.16 19.04 29.5 17.44 30.72 16.67 31.94 15.9 33.57 16.24 34.64 15.34 36.31 13.92 35.13 10.76 36.75 9.34 38 8.21 39.99 8.86 41.42 9.73 42.85 10.6 44.42 11.73 46.06 11.26 46.61 11.11 47.06 10.79 47.63 10.59 50.19 9.59 53.51 11.27 55.63 9.51 56.3816813 8.74328244 56.9165353 7.79089718 57.18 6.75 57.7602965 5.34412701 58.1536526 3.86820112 58.35 2.36 58.4049792 1.84813877 58.4049792 1.33186123 58.35.82 58.1202106 2.20798676 57.7274972 3.5640227 57.18 4.86z" opacity=".1" transform="translate(32 64)"/>
    <rect width="154" height="199" x="106.67" y="62" fill="#099" rx="13.92"/>
    <circle cx="183.66" cy="181" r="37" fill="#F2F2F2"/>
    <path fill="#F2F2F2" d="M238.64,261 L128.7,261 C129.475486,243.662493 143.755159,230.004058 161.11,230 L206.23,230 C223.584841,230.004058 237.864514,243.662493 238.64,261 Z"/>
    <path fill="#FEC2BE" d="M88.41,181.39 C88.41,181.39 102.1,172.39 108.72,176.85 C115.34,181.31 126.15,187.55 115.51,192.09 C104.87,196.63 90.18,195.75 90.18,195.75 L88.41,181.39 Z"/>
    <path fill="#17191A" fill-rule="nonzero" d="M5.24,149.64 L2.18,158.5 C2.18,158.5 9.54,185.88 12.99,191.63 C16.44,197.38 21.46,204.75 21.46,204.75 C27.223782,207.344638 33.6337158,208.149363 39.86,207.06 C49.76,205.06 78.63,199.92 78.63,199.92 C80.0200279,200.171808 81.4363252,199.642136 82.32,198.54 C83.58,196.69 90.18,195.75 90.18,195.75 C90.18,195.75 97.77,184.75 88.45,180.11 C88.45,180.11 87.3,182.64 82.36,180.91 C77.42,179.18 75.91,182.29 75.91,182.29 C75.91,182.29 67.86,183.9 63.37,183.29 C58.88,182.68 47.73,182.48 46.58,181.56 C45.9745006,181.023676 45.0494691,181.077301 44.51,181.68 C43.1720746,181.19847 41.9246733,180.495328 40.82,179.6 C39.9,178.6 38.64,180.76 38.64,180.76 C38.64,180.76 37.03,179.83 37.49,178.68 C37.95,177.53 35.99,173.16 35.99,173.16 C35.4711688,171.487477 35.3546736,169.716065 35.65,167.99 C36.22,165.68 32.77,157.4 32.77,157.4 C32.7261784,156.005166 32.8810643,154.611194 33.23,153.26 C33.81,151.19 28.86,147.05 28.86,147.05 C28.86,147.05 24.03,123.58 13.79,131.29 C3.55,139 5.24,149.64 5.24,149.64 Z"/>
    <path stroke="#3F3D56" stroke-width="4" d="M875.95,420.64 C878.95,415.13 875.55,408.37 871.67,403.46 C867.79,398.55 863.06,393.46 863.16,387.17 C863.3,378.17 872.86,372.86 880.49,368.09 C886.149019,364.544219 891.371534,360.345397 896.05,355.58 C898.005371,353.73881 899.623147,351.569366 900.83,349.17 C902.41,345.66 902.36,341.65 902.26,337.8 C901.933333,324.96 901.3,312.13 900.36,299.31"/>
    <path fill="#57B894" d="M914.87 298.61C914.653914 293.832714 912.014297 289.496201 907.87 287.11L904.73 293.33 904.82 285.8C903.321993 285.357651 901.75999 285.171698 900.2 285.25 892.486764 285.632749 886.540226 292.189095 886.909909 299.902968 887.279592 307.616842 893.825856 313.574477 901.540345 313.217861 909.254833 312.861244 915.223548 306.325082 914.88 298.61L914.87 298.61zM889.84 393.6C886.972357 399.308474 880.604139 402.351763 874.361137 400.997149 868.118136 399.642535 863.583888 394.233617 863.34 387.85 863.240247 385.907208 863.550293 383.965159 864.25 382.15 866.310321 376.660117 871.573609 373.035855 877.437278 373.069336 883.300948 373.102818 888.522505 376.786947 890.52 382.3L881.75 389.44 891.39 387.2C891.396951 389.427107 890.865167 391.622859 889.84 393.6zM882.91 366.35C875.679304 366.867952 869.249187 361.780588 868.08989 354.624662 866.930594 347.468736 871.425616 340.611444 878.45 338.82L878.38 344.6 881.56 338.31C889.291986 337.948253 895.853253 343.923014 896.215 351.655 896.576747 359.386986 890.601986 365.948253 882.87 366.31L882.91 366.35zM916.98 343.68C911.978282 343.915795 907.230708 341.465294 904.525644 337.251577 901.820581 333.037859 901.56899 327.701089 903.865644 323.251577 906.162299 318.802064 910.658282 315.915795 915.66 315.68 918.284627 315.549498 920.892376 316.166758 923.18 317.46L920.7 324.25 925.81 319.35C928.543046 321.85309 930.172088 325.33773 930.34 329.04 930.408716 330.34064 930.287441 331.644351 929.98 332.91 928.541951 339.002727 923.233883 343.400257 916.98 343.68z"/>
    <path fill="#000" d="M912.98 302.35C909.74 302.71 906.59 303.71 903.34 303.92 900.09 304.13 896.52 303.34 894.46 300.81 893.35 299.45 892.8 297.73 891.87 296.24 890.978628 294.861018 889.763262 293.721184 888.33 292.92 886.014289 297.750735 886.658274 303.479398 889.988725 307.675422 893.319175 311.871446 898.752095 313.799055 903.982395 312.640401 909.212695 311.481748 913.32324 307.440001 914.57 302.23 914.04 302.26 913.51 302.29 912.98 302.35zM916.98 343.68C912.055996 343.92984 907.363564 341.571217 904.62634 337.470506 901.889115 333.369795 901.510664 328.131589 903.63 323.68 904.74619 324.42964 905.704316 325.391163 906.45 326.51 907.45 328.01 908.05 329.76 909.23 331.14 911.42 333.71 915.15 334.56 918.54 334.4 921.93 334.24 925.19 333.28 928.54 332.97 929.01 332.97 929.48 332.9 929.95 332.89 928.522708 338.980337 923.228377 343.384795 916.98 343.68zM882.91 366.35C878.031606 366.600573 873.375347 364.290292 870.623926 360.254057 867.872505 356.217822 867.423813 351.039326 869.44 346.59 870.608648 347.349118 871.62594 348.318937 872.44 349.45 873.53 350.98 874.21 352.76 875.44 354.18 877.8 356.81 881.78 357.74 885.37 357.66 888.96 357.58 892.19 356.73 895.65 356.46 893.919542 362.117346 888.819749 366.07629 882.91 366.35zM889.84 393.6C886.972357 399.308474 880.604139 402.351763 874.361137 400.997149 868.118136 399.642535 863.583888 394.233617 863.34 387.85 863.240247 385.907208 863.550293 383.965159 864.25 382.15 865.406405 382.910098 866.444261 383.836755 867.33 384.9 868.66 386.53 869.54 388.37 871.09 389.9 873.96 392.71 878.59 393.9 882.71 393.98 885.092095 393.994631 887.472955 393.867741 889.84 393.6z" opacity=".1"/>
    <path fill="#656380" d="M854.79,414.29 C854.79,414.29 865.87,413.95 869.2,411.58 C872.53,409.21 886.2,406.36 887.07,410.17 C887.94,413.98 903.72,429.17 891.21,429.23 C878.7,429.29 862.15,427.29 858.82,425.23 C855.49,423.17 854.79,414.29 854.79,414.29 Z"/>
    <path fill="#000" d="M891.44,427.91 C878.93,428.01 862.38,425.96 859.04,423.91 C856.51,422.36 855.5,416.82 855.16,414.26 L854.79,414.26 C854.79,414.26 855.49,423.2 858.79,425.26 C862.09,427.32 878.68,429.34 891.18,429.26 C894.79,429.26 896.04,427.95 895.97,426.05 C895.5,427.17 894.12,427.89 891.44,427.91 Z" opacity=".2"/>
  </g>
</svg>
