<svg xmlns="http://www.w3.org/2000/svg" width="144" height="56" viewBox="0 0 144 56">
  <g fill="#FFF" fill-rule="evenodd">
    <path d="M73.0020276 21.0675241L71.3809992 16.6199442 63.2173919 16.6199442 61.5965858 21.0675241 57.8539043 21.0675241 65.5457862.720257235 69.0528273.720257235 76.7153652 21.0675241 73.0020276 21.0675241zM70.2612626 13.4808759L67.9917784 7.37660812C67.6972278 6.64035112 67.4711464 5.95233014 67.3139787 5.31276442 67.1565886 5.87515251 66.9311741 6.56273499 66.636179 7.37660812L64.3375732 13.4808759 70.2612626 13.4808759zM96.6779384 21.0675241L96.6779384 12.4929664C96.6779384 10.1714078 95.8269635 9.0102974 94.1252348 9.0102974 93.2448243 9.0102974 92.5554129 9.30830103 92.0565578 9.90298382 91.5577028 10.4981081 91.3082753 11.3806403 91.3082753 12.5514635L91.3082753 21.0675241 87.8756038 21.0675241 87.8756038 12.4929664C87.8756038 10.1714078 87.0246288 9.0102974 85.3226789 9.0102974 84.442711 9.0102974 83.7532996 9.30830103 83.2544445 9.90298382 82.7555895 10.4981081 82.506162 11.3806403 82.506162 12.5514635L82.506162 21.0675241 79.0730479 21.0675241 79.0730479 6.11303993 82.506162 6.11303993 82.506162 7.48849222C83.3666537 6.33753599 84.5892248 5.76205788 86.1738752 5.76205788 88.0123795 5.76205788 89.3230359 6.46446346 90.1054017 7.86905389 91.0637168 6.46446346 92.57002 5.76205788 94.6240899 5.76205788 96.3058997 5.76205788 97.6411226 6.22561907 98.6288733 7.15207924 99.6164026 8.07898089 100.110831 9.53721196 100.110831 11.527214L100.110831 21.0675241 96.6779384 21.0675241zM110.15031 21.4423422C108.737086 21.4423422 107.627918 20.9465965 106.823249 19.955545L106.823249 21.0926369 103.378253 21.0926369 103.378253 1.58568236 106.823249.0401611183 106.823249 7.30083383C107.667008 6.32891717 108.796165 5.84284887 110.209388 5.84284887 112.074141 5.84284887 113.580869 6.54269924 114.729126 7.94218005 115.877606 9.34166086 116.451735 11.2368873 116.451735 13.6278595 116.451735 16.1164852 115.892265 18.0409638 114.773324 19.4012952 113.654384 20.7622864 112.113009 21.4423422 110.15031 21.4423422zM109.738314 18.176667C110.798176 18.176667 111.607953 17.7732963 112.167645 16.9665549 112.726894 16.1602534 113.00674 15.047135 113.00674 13.6278595 113.00674 12.1511796 112.722007 11.0235452 112.152765 10.245396 111.5833 9.46834653 110.778631 9.07927196 109.738314 9.07927196 108.442803 9.07927196 107.471115 9.56556019 106.823249 10.5372569L106.823249 16.7479341C107.451126 17.700716 108.422814 18.176667 109.738314 18.176667zM125.509903 21.4276527C123.385129 21.4276527 121.703881 20.7301377 120.466157 19.3340034 119.228213 17.9385317 118.609572 16.0204758 118.609572 13.5802777 118.609572 11.1599581 119.233065 9.25162071 120.480934 7.85570723 121.728141 6.46001462 123.404758 5.76205788 125.509903 5.76205788 127.420302 5.76205788 128.984218 6.3577507 130.202974 7.54803199 131.420849 8.73919677 132.030227 10.4865182 132.030227 12.7895546 132.030227 13.590217 131.990969 14.2930329 131.913335 14.8977815L122.001181 14.8977815C122.059847 15.9520054 122.425298 16.8014806 123.097753 17.4455445 123.770429 18.0896084 124.574332 18.4118612 125.509903 18.4118612 126.835184 18.4118612 127.888087 17.894578 128.66795 16.8597909L130.83132 19.0850802C129.525226 20.6473106 127.751126 21.4276527 125.509903 21.4276527zM122.030514 12.0575835L128.638617 12.0575835C128.560322 10.9841437 128.229057 10.1686829 127.64438 9.61274706 127.059704 9.05614864 126.34777 8.77784944 125.509903 8.77784944 124.534853 8.77784944 123.730951 9.04665113 123.097753 9.58337103 122.464115 10.1203118 122.108368 10.9448284 122.030514 12.0575835zM134.75063 21.0675241L134.75063 6.11303993 138.164478 6.11303993 138.164478 7.66420399C138.76709 6.39625374 139.788538 5.76205788 141.22816 5.76205788 142.27844 5.76205788 143.202166 6.10354796 144 6.78630738L143.503912 9.91755289C142.764623 9.39085907 141.918369 9.12751216 140.96537 9.12751216 140.187345 9.12751216 139.525748 9.40079252 138.98146 9.94669102 138.436512 10.4934725 138.164478 11.4099992 138.164478 12.6978163L138.164478 21.0675241 134.75063 21.0675241zM64.236759 45.5562701C63.0689602 45.5562701 62.076232 45.4442168 61.2592353 45.2212087 60.4415779 44.9979809 59.5847222 44.6633589 58.6899897 44.2160244L58.3979849 39.5557044 58.8941287 39.5557044 60.4122893 42.9056596C61.1127925 43.4492281 61.7844475 43.8328459 62.4268139 44.0560737 63.0689602 44.2795213 63.7210161 44.3906958 64.3827614 44.3906958 66.9125886 44.3906958 68.1781628 43.1871112 68.1781628 40.7792828 68.1781628 39.4588112 67.7300258 38.5267912 66.835073 37.9825635 65.9394596 37.4394345 64.7232134 36.7884266 63.1858942 36.0312976 61.8621833 35.3517271 60.8454517 34.6620499 60.1348187 33.962925 59.4241857 33.2640198 59.0694197 32.2641086 59.0694197 30.9629717 59.0694197 29.6811695 59.6483643 28.4920859 60.8064737 27.3948421 61.9641427 26.2980377 63.2634098 25.7491961 64.7038345 25.7491961 65.5990076 25.7491961 66.4118202 25.8559764 67.1416119 26.0693171 67.8716239 26.283317 68.6256392 26.5841033 69.4043186 26.9725549L69.6961032 31.516647 69.1997391 31.516647 67.9154466 28.3123611C66.8060047 27.3998955 65.686653 26.9433331 64.5580524 26.9433331 63.5457251 26.9433331 62.747887 27.2489531 62.1640977 27.8608521 61.5800882 28.4723118 61.2880834 29.2349336 61.2880834 30.1471795 61.2880834 31.1767519 61.6091565 31.982657 62.251523 32.5648949 62.8938894 33.1475722 63.8866176 33.7691386 65.2294872 34.428935 67.0002341 35.283836 68.2995012 36.0893017 69.1270682 36.8466504 69.9539747 37.6042188 70.3677582 38.7306843 70.3677582 40.2256076 70.3677582 41.8958613 69.6961032 43.2016122 68.3532336 44.1430799 67.0103639 45.0854264 65.6379856 45.5562701 64.236759 45.5562701zM79.4966346 45.5562701C77.528971 45.5562701 75.999407 44.9643879 74.9074973 43.7799646 73.815365 42.5959806 73.2695214 41.0531337 73.2695214 39.1503258 73.2695214 37.035143 73.9084166 35.292879 75.1879878 33.923973 76.4666686 32.5557258 78.0603448 31.8713826 79.9687937 31.8713826 80.7555029 31.8713826 81.4983577 31.9928338 82.1969128 32.2357361 82.8952453 32.4784188 83.4315165 32.7740304 83.8055039 33.1236692 84.2380382 33.5508347 84.4546392 33.8807074 84.4546392 34.1135071 84.4546392 34.3271996 84.3560223 34.5116824 84.1594563 34.6665161L83.1559234 35.4819739 82.9791698 35.4819739 82.2412125 34.4919164C81.8870375 34.0260974 81.4738704 33.643076 81.0017113 33.3419738 80.5295522 33.0413108 79.9489813 32.8906499 79.2604437 32.8906499 78.0603448 32.8906499 77.0913167 33.3518568 76.353582 34.2736118 75.6158473 35.195806 75.2467573 36.5109045 75.2467573 38.2186878 75.2467573 39.7525302 75.6550269 41.0575261 76.4715661 42.1349933 77.2876601 43.2120213 78.6012909 43.7507549 80.4115681 43.7507549 81.8672251 43.7507549 83.2051205 43.3240287 84.4252545 42.4699174L84.5138539 42.4699174 84.5138539 42.7899071C84.0608394 43.5667113 83.4021318 44.2218448 82.5363954 44.7555271 81.6704365 45.2889897 80.6573312 45.5562701 79.4966346 45.5562701zM86.3861835 45.3762058L86.3861835 44.9065132 88.2301406 44.172411 88.2301406 34.4253497 86.3274559 33.4275021 86.3274559 33.1044086 89.7522001 31.8713826 89.986448 31.8713826 90.1911113 34.4253497 90.2789819 34.4253497C91.1570252 33.270938 91.8449766 32.5567661 92.3426154 32.2821698 92.8400335 32.0084593 93.3423087 31.8713826 93.8501034 31.8713826 94.2009233 31.8713826 94.5325353 31.949554 94.8449395 32.1061182 95.3324224 32.3220306 95.5768262 32.5463581 95.5768262 32.7813151 95.5768262 32.9578096 95.5474624 33.1044086 95.4889556 33.2215549L95.0206806 34.3963399 94.8743033 34.3963399 93.99626 34.014341C93.6449985 33.8777072 93.2544381 33.8090581 92.825462 33.8090581 91.8301843 33.8090581 90.9618554 34.356922 90.2204751 35.4528713L90.2204751 44.172411 92.3571869 44.9065132 92.3571869 45.3762058 86.3861835 45.3762058zM99.5001928 28.00241C99.0723306 28.00241 98.717282 27.8614653 98.435487 27.5797958 98.1536919 27.2981263 98.0126844 26.9434558 98.0126844 26.5155645 98.0126844 25.5243342 98.5085205 25.0289389 99.5001928 25.0289389 100.491865 25.0289389 100.987701 25.5243342 100.987701 26.5155645 100.987701 27.5067948 100.491865 28.00241 99.5001928 28.00241zM96.9046424 45.3762058L96.9046424 44.909835 98.7419199 44.1809245 98.7419199 34.5027963 96.8463476 33.3660038 96.8463476 33.0742197 100.491865 31.9666715 100.725044 31.9666715 100.725044 44.1809245 102.649874 44.909835 102.649874 45.3762058 96.9046424 45.3762058zM104.885303 52.0385852L104.885303 51.5707648 106.748152 50.8401538 106.748152 34.4139709 104.826196 33.4205691 104.826196 33.0989151 108.285806 31.8713826 108.522231 31.8713826 108.699773 33.6544793 108.877092 33.6544793C110.296533 32.4659687 111.774858 31.8713826 113.312512 31.8713826 114.79106 31.8713826 116.013109 32.4269469 116.979105 33.537414 117.944879 34.6478811 118.428212 36.1677461 118.428212 38.0967887 118.428212 40.4934311 117.76756 42.3450914 116.447149 43.6502265 115.126069 44.9558025 113.529309 45.6085905 111.656646 45.6085905 110.670798 45.6085905 109.705025 45.4522829 108.758879 45.1403292L108.758879 50.8401538 110.858377 51.5707648 110.858377 52.0385852 104.885303 52.0385852zM112.011506 33.4787711C110.828712 33.4787711 109.744503 33.8491473 108.758879 34.5896791L108.758879 43.2406081C109.842642 44.0591835 111.11443 44.468361 112.573573 44.468361 113.61808 44.468361 114.529654 44.0397828 115.308518 43.1826266 116.086936 42.3252499 116.476591 40.8836488 116.476591 38.8569416 116.476591 36.9863215 116.028053 35.6227641 115.130976 34.7649464 114.2339 33.9075697 113.1943 33.4787711 112.011506 33.4787711zM124.805185 45.5562701C123.961965 45.5562701 123.250962 45.3041686 122.673064 44.8006233 122.09428 44.2970781 121.805442 43.5896594 121.805442 42.6790251L121.805442 33.4080483 119.335013 33.4080483 119.335013 33.1754573 121.952523 32.1874388 123.56997 28.9903537 123.805123 28.9903537 123.805123 32.1874388 127.687352 32.1874388 127.687352 33.4080483 123.805123 33.4080483 123.805123 42.359185C123.805123 42.9017512 124.011214 43.3037983 124.42273 43.5653261 124.83469 43.826854 125.354021 43.9575083 125.981611 43.9575083 126.70659 43.9575083 127.373446 43.8415417 127.981514 43.6089507L128.040302 43.6381067 128.040302 43.8415417C127.843972 44.2289011 127.476381 44.6116569 126.937305 44.9893706 126.398008 45.3670844 125.687671 45.5562701 124.805185 45.5562701zM39.3569114.720257235L9.42876107.720257235C4.22131037.720257235 0 4.90237906 0 10.0612154L0 25.5203693 1.35757838 23.9483115C1.71216313 23.5377224 2.2587869 23.3424234 2.796097 23.4353497 3.33362885 23.5278366 3.78179382 23.8940496 3.97582862 24.3991028L6.04412878 29.7831151 6.42532402 28.8687908C6.61071042 28.4241507 6.99634074 28.091769 7.4662376 27.9711625 7.93657797 27.8507758 8.43618988 27.956224 8.81627635 28.2558728L10.7845654 29.8090378 13.814613 10.5348538C13.9248247 9.83428194 14.5062639 9.30045014 15.219425 9.24443075 15.9328078 9.18885073 16.5918609 9.62492321 16.8118409 10.2995724 16.9752736 10.8004516 20.2259665 20.8147408 21.1730781 27.2784993 21.3939451 27.1519614 21.6467448 27.0794657 21.9112974 27.0737539 21.9228286 27.0733146 21.9345815 27.0733146 21.9461128 27.0733146 22.5033807 27.0733146 23.0185154 27.3707665 23.2926034 27.853412L23.784454 28.7194058 24.7836778 27.2121548C25.0670795 26.7848697 25.547177 26.5258624 26.0631987 26.5216884L26.0751734 26.5216884C26.5867601 26.5216884 27.0655271 26.7725674 27.3533639 27.1921635L29.244039 29.9485371 33.0189585 25.585176C33.3498155 25.2024867 33.8494274 25.0060894 34.3543614 25.0588135 34.8599607 25.1117573 35.3067951 25.4074518 35.5496158 25.8498951 36.105775 26.8626377 37.5748957 29.6387828 38.2634421 31.888785 38.7455354 31.4366756 39.2886111 30.8868069 39.7824574 30.3406728 40.0942436 29.9955494 40.5481742 29.811015 41.0143013 29.833203 41.4813153 29.8578076 41.9119617 30.0900135 42.185828 30.4654532L43.9722787 32.9149284 48.7858942 33.3118971 48.7858942 10.0612154C48.7858942 4.90237906 44.5641403.720257235 39.3569114.720257235"/>
    <path d="M41.8713409,35.3313145 L40.7549196,33.7985498 C40.6409719,33.9102795 40.5234772,34.0235488 40.4039873,34.1363782 C38.8794382,35.5750084 37.7712193,36.3124686 36.6155593,35.8255206 C36.3355672,35.7074126 35.4299713,35.2173853 35.5301743,33.8724497 C35.5694131,33.3056633 34.8538039,31.4214339 33.8555423,29.3570732 L30.2661902,33.5119674 C29.9529449,33.8744292 29.4854047,34.0723756 29.0072235,34.0446631 C28.5266037,34.0180503 28.0861094,33.7708373 27.8156499,33.3758243 L26.0895863,30.8555272 L24.9667361,32.5517076 C24.6707825,32.9990664 24.1589046,33.2634348 23.6226411,33.2421005 C23.0837173,33.2238455 22.5937866,32.9280256 22.3293127,32.4619719 L22.0134071,31.9046429 L21.2583375,33.3883609 C20.9362246,34.0215693 20.2181769,34.3532395 19.5227413,34.1887241 C18.827084,34.0250884 18.3356015,33.4090353 18.3347147,32.6997275 L18.3313894,30.4915258 C18.3313894,30.4778895 18.3316111,30.4640333 18.3318328,30.450397 C18.4029947,27.6776083 17.0460418,22.1538049 15.8096872,17.7420203 L13.42521,32.9335242 C13.3403034,33.473038 12.9727445,33.926995 12.4599799,34.1256012 C11.9472154,34.3237675 11.3668359,34.2366711 10.9363176,33.8964233 L8.49508819,31.9673259 L7.41147673,34.5703207 C7.17249695,35.1441452 6.60852241,35.5178239 5.98380533,35.5178239 L5.9620799,35.5178239 C5.32893867,35.5090263 4.76518582,35.1175324 4.5399507,34.5302915 L2.01292799,27.9424165 L0,30.2764241 L0,35.9854172 C0,41.1502778 4.22027646,45.3370634 9.42617823,45.3370634 L12.3932518,45.3370634 L12.3932518,55.915977 L23.056228,45.3370634 L39.3452049,45.3370634 C44.3981419,45.3370634 48.521984,41.3924322 48.7598553,36.4373948 L42.9950779,35.9610039 C42.5457161,35.9238339 42.1351497,35.6937763 41.8713409,35.3313145"/>
  </g>
</svg>
