<svg xmlns="http://www.w3.org/2000/svg" width="146" height="34" viewBox="0 0 146 34">
  <path fill="#FFF" d="M52.4135607 6.93362871C55.00435 6.93362871 57.0713484 8.22924906 58.0912811 10.3419606L56.7408457 10.7924963C55.8862934 9.18709964 54.205097 8.20099153 52.3308704 8.20099153 49.1888988 8.20099153 46.7358404 10.9052623 46.7358404 14.4543536 46.7358404 17.9751872 49.2989802 20.8482108 52.35852 20.8482108 54.342828 20.8482108 56.4374757 19.5805839 56.8785766 18.1442042L58.229012 18.5384891C57.5124491 20.5946855 55.0870404 22.1158377 52.4409518 22.1158377 48.4170368 22.1158377 45.3301059 18.6229974 45.3301059 14.4543536 45.3301059 10.2854455 48.3069554 6.93362871 52.4135607 6.93362871zM59.4872736 14.5388356C59.4872736 10.4264426 62.5468134 6.9336023 66.4880382 6.9336023 70.4566541 6.9336023 73.516194 10.4264426 73.516194 14.5388356 73.516194 18.6229711 70.4843037 22.1158114 66.4880382 22.1158114 62.4641232 22.1158114 59.4872736 18.6229711 59.4872736 14.5388356zM66.4880382 20.8481845C69.5473196 20.8481845 72.1104595 18.0034183 72.1104595 14.510578 72.1104595 11.0742528 69.5473196 8.20096513 66.4880382 8.20096513 63.456148 8.20096513 60.8930082 11.1022462 60.8930082 14.5950865 60.8930082 18.0596694 63.4011073 20.8481845 66.4880382 20.8481845zM87.1131611 21.8341341L85.7350761 21.8341341 85.7350761 13.6655991C85.7350761 9.8909759 84.7154018 8.22932828 82.4277239 8.22932828 80.0020566 8.22932828 77.5218655 10.1727588 76.7776531 12.7642636L76.7776531 21.8341341 75.3995682 21.8341341 75.3995682 7.18696923 76.6673132 7.18696923 76.6673132 10.6798096C77.824977 8.45459615 80.2780354 6.93370794 82.8411752 6.93370794 85.9557557 6.93370794 87.1131611 9.27142324 87.1131611 13.4120738L87.1131611 21.8341341zM96.6979448 21.130073C96.4224828 21.2990899 95.20952 22.0031511 93.6937041 22.0031511 92.1778882 22.0031511 90.8551023 21.073558 90.8551023 19.3836528L90.8551023 8.34183017 88.8431448 8.34183017 88.8431448 7.18696923 90.8551023 7.18696923 90.8551023 2.1732407 92.2331873 2.1732407 92.2331873 7.18696923 95.5953218 7.18696923 95.5953218 8.34183017 92.2331873 8.34183017 92.2331873 19.0453549C92.2331873 20.1442289 93.1151307 20.6792732 94.0521147 20.6792732 95.1821289 20.6792732 96.1191129 20.1159715 96.2844934 20.0032055L96.6979448 21.130073zM96.5959773 14.4541158C96.5959773 10.3137295 99.6276091 6.93365513 103.624133 6.93365513 107.675698 6.93365513 110.624898 10.3699804 110.652547 14.4541158 110.652547 14.6513904 110.624898 14.9894242 110.624898 15.0739327L98.0293614 15.0739327C98.2774322 18.4540069 100.757882 20.9889967 103.734473 20.9889967 105.74643 20.9889967 107.703089 19.8341358 108.41991 18.1724881L109.632615 18.510258C108.778321 20.5947119 106.352912 22.1158642 103.679174 22.1158642 99.6552588 22.1158642 96.5959773 18.6230239 96.5959773 14.4541158zM109.301853 13.9473292C109.053783 10.5107398 106.656023 8.08825197 103.624133 8.08825197 100.619892 8.08825197 98.194742 10.5389973 98.0017118 13.9473292L109.301853 13.9473292zM112.222551 7.18699564L116.825298 13.2430833 117.045719 13.637368 117.29379 13.2430833 121.896537 7.18699564 123.412353 7.18699564 117.844972 14.5387036 123.412353 21.8341605 121.868887 21.8341605 117.29379 15.8063305 117.045719 15.4400391 116.825298 15.8063305 112.249942 21.8341605 110.706477 21.8341605 116.274116 14.5387036 110.678827 7.18699564 112.222551 7.18699564zM132.548155 21.130073C132.272692 21.2990899 131.05973 22.0031511 129.543914 22.0031511 128.028098 22.0031511 126.705312 21.073558 126.705312 19.3836528L126.705312 8.34183017 124.693355 8.34183017 124.693355 7.18696923 126.705312 7.18696923 126.705312 2.1732407 128.083396 2.1732407 128.083396 7.18696923 131.445532 7.18696923 131.445532 8.34183017 128.083396 8.34183017 128.083396 19.0453549C128.083396 20.1442289 128.96534 20.6792732 129.902324 20.6792732 131.032339 20.6792732 131.969323 20.1159715 132.134703 20.0032055L132.548155 21.130073zM133.346658 17.580876C133.346658 15.0458864 135.827108 13.2432153 139.32749 13.2432153 140.870956 13.2432153 142.552152 13.5529916 143.792247 14.0317848L143.792247 12.595141C143.792247 9.8348834 142.111309 8.06020573 139.49287 8.06020573 138.059745 8.06020573 136.46098 8.68002246 134.890124 9.80662589L134.338941 8.84877529C136.185518 7.58141247 137.922013 6.9336023 139.575561 6.9336023 143.020644 6.9336023 145.170591 9.1305582 145.170591 12.707907L145.170591 19.8626045C145.170591 20.3411337 145.36362 20.5666657 145.749422 20.5666657L145.749422 21.8340285C145.556393 21.8622861 145.391011 21.8622861 145.253281 21.8622861 144.591759 21.8622861 143.930236 21.3552353 143.930236 20.594659L143.930236 19.3835472C142.607451 21.1299674 140.457504 22.1158114 138.087136 22.1158114 135.413915 22.1158114 133.346658 20.1441234 133.346658 17.580876zM143.324013 18.735737C143.627125 18.3694457 143.792247 17.9471674 143.792247 17.6088695L143.792247 15.0176288C142.44207 14.510578 140.981295 14.2290592 139.49287 14.2290592 136.626361 14.2290592 134.697093 15.552673 134.697093 17.4963677 134.697093 19.4680557 136.295858 20.9889439 138.362856 20.9889439 140.485154 20.9889439 142.44207 20.11613 143.324013 18.735737zM29.7649554 33.4589596L23.5606014 27.1321808 29.7649554 27.1321808 29.7649554 33.4589596zM34.0196021.263956896C36.0072693.263956896 37.6184375 1.91081553 37.6184375 3.94218765L37.6184375 23.4541349C37.6184375 25.485507 36.0072693 27.1321016 34.0196021 27.1321016L31.4140836 27.1321016 31.4140836.263956896 34.0196021.263956896zM-.0000516814159 23.115388L6.2043023 23.115388 6.2043023 27.1321808 3.59904212 27.1321808C1.61137487 27.1321808-.0000516814159 25.4855862-.0000516814159 23.4539501L-.0000516814159 23.115388zM7.85350796 27.1322336L7.85350796 21.304847 14.057862 21.304847 14.057862 27.1322336 7.85350796 27.1322336zM15.7070159 27.1322336L15.7070159 17.281188 21.91137 17.281188 21.91137 27.1322336 15.7070159 27.1322336zM23.5605239 27.1322336L23.5605239 11.0943764 29.7648779 11.0943764 29.7648779 27.1322336 23.5605239 27.1322336zM6.20437982.263956896L6.20437982 20.2819754.000025840708 20.2819754.000025840708 3.94218765C.000025840708 1.91081553 1.61145239.263956896 3.59886124.263956896L6.20437982.263956896zM7.85350796 18.4712497L7.85350796.263824852 14.057862.263824852 14.057862 18.4712497 7.85350796 18.4712497zM15.7070159 14.4478546L15.7070159.263824852 21.91137.263824852 21.91137 14.4478546 15.7070159 14.4478546zM23.5605239 8.26077895L23.5605239.263824852 29.7648779.263824852 29.7648779 8.26077895 23.5605239 8.26077895z"/>
</svg>
