<svg xmlns="http://www.w3.org/2000/svg" width="195" height="32" viewBox="0 0 195 32">
  <path fill="#FFF" d="M31.0956342 25.9803432C31.0956342 28.9572575 28.7245074 31.3252575 25.7436623 31.3252575L5.48746486 31.3252575C2.50661975 31.3252575.135492959 28.9572575.135492959 25.9803432L.135492959 5.75085722C.135492959 2.77394289 2.50661975.405942862 5.48746486.405942862L25.7436623.405942862C28.7245074.405942862 31.0956342 2.77394289 31.0956342 5.75085722L31.0956342 25.9803432zM24.7274646 10.8251427C23.4402815 9.60731415 21.678873 9.066057 19.3077462 9.066057L18.1560561 9.066057 18.1560561 23.6123429 18.9690138 23.6123429C21.4078871 23.6123429 23.237042 22.9357715 24.5919716 21.6502857 25.9469012 20.3648 26.624366 18.4704 26.624366 16.0347428 26.624366 13.7343999 25.9469012 11.9753142 24.7274646 10.8251427zM14.2267607 9.06605726L14.2267607 23.6123432 18.1560566 23.6123432 18.1560566 9.06605726 14.2267607 9.06605726zM9.48450716 12.9225145L9.48450716 23.6123432 13.413803 23.6123432 13.413803 12.9225145 9.48450716 12.9225145zM4.81000006 16.9142859L4.81000006 23.6123432 8.73929589 23.6123432 8.73929589 16.9142859 4.81000006 16.9142859zM19.3077462 12.245943C20.3239434 12.245943 21.1369012 12.5842287 21.678873 13.2608002 22.2208448 13.9373716 22.4918308 14.8845716 22.4918308 16.2377145 22.4918308 17.6585145 22.2208448 18.7410288 21.678873 19.4176003 21.1369012 20.0941717 20.2561969 20.4324574 19.0367603 20.4324574L18.1560561 20.4324574 18.1560561 12.245943 19.3077462 12.245943zM45.1191555 17.2525717C45.1191555 15.9670859 45.322395 14.8845716 45.6611273 13.8697145 45.9998597 12.8548573 46.5418316 11.9753144 47.1515499 11.298743 47.7612682 10.6221716 48.438733 10.0809144 49.2516908 9.67497155 50.0646485 9.26902869 50.8776063 9.1337144 51.690564 9.1337144 52.5712683 9.1337144 53.3164796 9.26902869 53.9261979 9.60731441 54.5359162 9.94560013 55.1456345 10.351543 55.7553528 10.825143L55.6198599 8.32182868 55.6198599 2.70628575 59.2781698 2.70628575 59.2781698 25.0331432 56.2973247 25.0331432 56.0263388 23.3417146 55.8908458 23.3417146C55.348874 23.8829717 54.6714092 24.4242289 53.9261979 24.7625146 53.1809866 25.1684575 52.3680288 25.3714289 51.5550711 25.3714289 49.5904232 25.3714289 48.0322541 24.6272003 46.880564 23.2064003 45.6611273 21.8532574 45.1191555 19.8235431 45.1191555 17.2525717zM48.9129584 17.2525717C48.9129584 18.9440002 49.1839443 20.229486 49.7936626 21.1090288 50.4033809 21.9885717 51.2840852 22.3945146 52.4357753 22.3945146 53.5874655 22.3945146 54.6714092 21.7856003 55.6876064 20.6354288L55.6876064 13.3961145C55.1456345 12.9225145 54.6036627 12.5842287 54.0616908 12.3812573 53.519719 12.1782859 53.0454936 12.1106287 52.5035218 12.1106287 51.4873246 12.1106287 50.6066204 12.5842287 49.9291556 13.4637716 49.2516908 14.3433145 48.9129584 15.6288002 48.9129584 17.2525717zM61.3105642 17.2525717C61.3105642 15.9670859 61.5138036 14.8845716 61.9202825 13.8697145 62.3267614 12.8548573 62.8687332 11.9753144 63.546198 11.298743 64.2236628 10.6221716 64.9688741 10.0809144 65.8495783 9.67497155 66.7302826 9.26902869 67.6109868 9.1337144 68.491691 9.1337144 69.5756347 9.1337144 70.4563389 9.33668583 71.2692967 9.67497155 72.0822545 10.0132573 72.7597192 10.5545144 73.3016911 11.1634287 73.8436629 11.8400002 74.2501418 12.5842287 74.5211277 13.5314287 74.7921136 14.4109716 74.9276066 15.4258288 74.9276066 16.5083431 74.9276066 17.2525717 74.8598601 17.7938288 74.7921136 18.1997717L64.9011276 18.1997717C65.0366206 19.6205717 65.5785924 20.703086 66.3915502 21.4473146 67.2045079 22.1915431 68.2207051 22.597486 69.5078882 22.597486 70.185353 22.597486 70.7950713 22.5298289 71.4047897 22.3268574 72.014508 22.123886 72.5564798 21.8532574 73.0984516 21.5149717L74.3178883 23.8153146C73.572677 24.2889146 72.7597192 24.6948575 71.879015 25.0331432 70.9983108 25.3714289 70.0498601 25.5067432 69.0336629 25.5067432 67.9497192 25.5067432 66.933522 25.3037718 66.0528178 24.965486 65.104367 24.6272003 64.2914093 24.0859432 63.6139445 23.3417146 62.9364797 22.6651431 62.3945078 21.7856003 61.988029 20.7707431 61.5138036 19.6882288 61.3105642 18.5380574 61.3105642 17.2525717zM71.7435221 15.8994288C71.7435221 14.6816002 71.4725361 13.666743 70.9983108 12.9901716 70.4563389 12.3136002 69.7111277 11.9753144 68.627184 11.9753144 67.6787333 11.9753144 66.8657755 12.3136002 66.1883107 12.9901716 65.5108459 13.666743 65.0366206 14.613943 64.9011276 15.9670859L71.7435221 15.9670859 71.7435221 15.8994288zM75.7405644 20.8384003C75.7405644 19.1469717 76.4857756 17.8614859 77.9084517 16.9819431 79.3311278 16.1024002 81.7022546 15.4258288 84.8863391 15.0875431 84.8863391 14.6816002 84.8185926 14.2756573 84.7508462 13.9373716 84.6153532 13.5990859 84.4798602 13.2608002 84.2766208 12.9901716 84.0733814 12.719543 83.8023954 12.5165716 83.3959166 12.3136002 83.0571842 12.1782859 82.5829588 12.0429716 82.1087335 12.0429716 81.2957757 12.0429716 80.5505644 12.1782859 79.8730996 12.5165716 79.1278883 12.7872002 78.4504235 13.193143 77.7729587 13.5990859L76.4180292 11.1634287C77.2987334 10.6221716 78.2471841 10.1485716 79.3311278 9.7426287 80.4150715 9.33668583 81.5667616 9.1337144 82.7861983 9.1337144 84.7508462 9.1337144 86.1735222 9.67497155 87.121973 10.825143 88.0704237 11.9753144 88.544649 13.5990859 88.544649 15.8317716L88.544649 25.0331432 85.5638039 25.0331432 85.292818 23.3417146 85.2250715 23.3417146C84.5476067 23.9506289 83.8023954 24.4242289 82.9894377 24.8301717 82.1764799 25.2361146 81.3635222 25.439086 80.4150715 25.439086 79.0601419 25.439086 77.9084517 25.0331432 77.095494 24.2212575 76.1470432 23.3417146 75.7405644 22.1915431 75.7405644 20.8384003zM79.2633813 20.5677717C79.2633813 21.2443431 79.4666207 21.7856003 79.8730996 22.0562289 80.2795785 22.3945146 80.8215503 22.5298289 81.4990151 22.5298289 82.1087335 22.5298289 82.7184518 22.3945146 83.2604236 22.0562289 83.8023954 21.7856003 84.3443673 21.3120003 84.8863391 20.7707431L84.8863391 17.3202288C83.8023954 17.4555431 82.9216912 17.5908574 82.2442264 17.7938288 81.4990151 17.9968002 80.9570433 18.2674288 80.5505644 18.5380574 80.1440855 18.808686 79.8053531 19.0793145 79.6021137 19.4176003 79.3988743 19.8235431 79.2633813 20.1618288 79.2633813 20.5677717zM91.3900012 2.70628575L95.0483111 2.70628575 95.0483111 21.2443431C95.0483111 21.7179431 95.1160576 21.9885717 95.319297 22.1915431 95.45479 22.3945146 95.6580294 22.4621717 95.8612688 22.4621717 95.9290153 22.4621717 95.9967618 22.4621717 96.1322548 22.4621717 96.2000012 22.4621717 96.3354942 22.4621717 96.4709872 22.3945146L96.9452125 25.1008003C96.4709872 25.3037718 95.7935224 25.439086 95.0483111 25.439086 93.761128 25.439086 92.8126773 25.0331432 92.2707054 24.2889146 91.7287336 23.4770289 91.4577477 22.4621717 91.4577477 21.1090288L91.4577477 2.70628575 91.3900012 2.70628575zM98.3678886 9.47200012L101.348734 9.47200012 101.61972 12.245943 101.755213 12.245943C102.297184 11.2310859 102.974649 10.4868573 103.71986 9.94560013 104.532818 9.40434298 105.27803 9.1337144 106.090987 9.1337144 106.836199 9.1337144 107.445917 9.26902869 107.852396 9.47200012L107.242677 12.6518859C106.971692 12.5842287 106.700706 12.5165716 106.497466 12.4489144 106.294227 12.3812573 105.955494 12.3812573 105.616762 12.3812573 105.007044 12.3812573 104.329579 12.6518859 103.71986 13.1254859 103.042396 13.5990859 102.432677 14.4109716 101.958452 15.6288002L101.958452 25.1008003 98.3001421 25.1008003 98.3001421 9.47200012 98.3678886 9.47200012zM107.242677 17.2525717C107.242677 15.9670859 107.445917 14.8169145 107.852396 13.8020573 108.258875 12.7872002 108.800846 11.9076573 109.478311 11.2310859 110.155776 10.5545144 110.968734 10.0132573 111.849438 9.60731441 112.730142 9.26902869 113.678593 9.06605726 114.627044 9.06605726 115.575494 9.06605726 116.523945 9.26902869 117.404649 9.60731441 118.285354 9.94560013 119.098311 10.4868573 119.775776 11.2310859 120.453241 11.9076573 120.995213 12.7872002 121.401692 13.8020573 121.808171 14.8169145 122.01141 15.9670859 122.01141 17.2525717 122.01141 18.5380574 121.808171 19.6882288 121.401692 20.703086 120.995213 21.7179431 120.453241 22.597486 119.775776 23.2740574 119.098311 23.9506289 118.285354 24.491886 117.404649 24.8301717 116.523945 25.1684575 115.575494 25.3714289 114.627044 25.3714289 113.678593 25.3714289 112.730142 25.1684575 111.849438 24.8301717 110.968734 24.491886 110.155776 23.9506289 109.478311 23.2740574 108.800846 22.597486 108.258875 21.7179431 107.852396 20.703086 107.445917 19.6882288 107.242677 18.5380574 107.242677 17.2525717zM110.968734 17.2525717C110.968734 18.808686 111.307466 20.0265145 111.917185 20.9737146 112.526903 21.9209146 113.475354 22.3945146 114.559297 22.3945146 115.710987 22.3945146 116.591692 21.9209146 117.269156 20.9737146 117.946621 20.0265145 118.217607 18.808686 118.217607 17.2525717 118.217607 15.6964573 117.878875 14.4109716 117.269156 13.4637716 116.591692 12.5165716 115.710987 12.0429716 114.559297 12.0429716 113.407607 12.0429716 112.526903 12.5165716 111.917185 13.4637716 111.307466 14.4109716 110.968734 15.6964573 110.968734 17.2525717zM123.027607 17.2525717C123.027607 15.9670859 123.230847 14.8169145 123.637326 13.8020573 124.043804 12.7872002 124.585776 11.9076573 125.263241 11.2310859 125.940706 10.5545144 126.753664 10.0132573 127.634368 9.60731441 128.515072 9.26902869 129.463523 9.06605726 130.411974 9.06605726 131.360424 9.06605726 132.308875 9.26902869 133.189579 9.60731441 134.070283 9.94560013 134.883241 10.4868573 135.560706 11.2310859 136.238171 11.9076573 136.780143 12.7872002 137.186621 13.8020573 137.5931 14.8169145 137.79634 15.9670859 137.79634 17.2525717 137.79634 18.5380574 137.5931 19.6882288 137.186621 20.703086 136.780143 21.7179431 136.238171 22.597486 135.560706 23.2740574 134.883241 23.9506289 134.070283 24.491886 133.189579 24.8301717 132.308875 25.1684575 131.360424 25.3714289 130.411974 25.3714289 129.463523 25.3714289 128.515072 25.1684575 127.634368 24.8301717 126.753664 24.491886 125.940706 23.9506289 125.263241 23.2740574 124.585776 22.597486 124.043804 21.7179431 123.637326 20.703086 123.230847 19.6882288 123.027607 18.5380574 123.027607 17.2525717zM126.753664 17.2525717C126.753664 18.808686 127.092396 20.0265145 127.702114 20.9737146 128.311833 21.9209146 129.260283 22.3945146 130.344227 22.3945146 131.495917 22.3945146 132.376621 21.9209146 133.054086 20.9737146 133.731551 20.0265145 134.002537 18.808686 134.002537 17.2525717 134.002537 15.6964573 133.663805 14.4109716 133.054086 13.4637716 132.376621 12.5165716 131.495917 12.0429716 130.344227 12.0429716 129.192537 12.0429716 128.311833 12.5165716 127.702114 13.4637716 127.092396 14.4109716 126.753664 15.6964573 126.753664 17.2525717zM139.828734 9.47200012L142.809579 9.47200012 143.080565 11.5693716 143.216058 11.5693716C143.893523 10.8928001 144.570988 10.2838858 145.383946 9.81028584 146.129157 9.33668583 147.009861 9.06605726 148.026058 9.06605726 149.177748 9.06605726 150.058453 9.33668583 150.735917 9.81028584 151.413382 10.2838858 151.955354 10.9604573 152.294086 11.8400002 153.039298 11.0281144 153.784509 10.351543 154.597467 9.87794298 155.410425 9.33668583 156.291129 9.06605726 157.307326 9.06605726 158.933241 9.06605726 160.152678 9.60731441 160.965636 10.6898287 161.778594 11.772343 162.117326 13.2608002 162.117326 15.2228573L162.117326 25.0331432 158.459016 25.0331432 158.459016 15.7641145C158.459016 14.4786288 158.255777 13.5990859 157.849298 13.0578287 157.442819 12.5165716 156.833101 12.245943 156.087889 12.245943 155.139439 12.245943 154.055495 12.8548573 152.836058 14.140343L152.836058 24.965486 149.177748 24.965486 149.177748 15.7641145C149.177748 14.4786288 148.974509 13.5990859 148.56803 13.0578287 148.161551 12.5165716 147.551833 12.245943 146.738875 12.245943 145.790424 12.245943 144.706481 12.8548573 143.487044 14.140343L143.487044 24.965486 139.828734 24.965486 139.828734 9.47200012zM164.691692 23.9506289C164.691692 23.4770289 164.827185 23.1387432 165.098171 22.8681146 165.369157 22.597486 165.707889 22.4621717 166.046622 22.4621717 166.385354 22.4621717 166.724087 22.597486 166.995073 22.8681146 167.266058 23.1387432 167.401551 23.4770289 167.401551 23.9506289 167.401551 24.4242289 167.266058 24.7625146 166.995073 24.965486 166.724087 25.2361146 166.453101 25.3714289 166.046622 25.3714289 165.707889 25.3714289 165.369157 25.2361146 165.098171 24.965486 164.894932 24.7625146 164.691692 24.4242289 164.691692 23.9506289zM169.230706 17.4555431C169.230706 16.1700574 169.433946 15.0875431 169.772678 14.0726859 170.179157 13.0578287 170.653382 12.245943 171.263101 11.5693716 171.872819 10.8928001 172.61803 10.351543 173.430988 10.0132573 174.243946 9.67497155 175.12465 9.47200012 176.073101 9.47200012 177.157045 9.47200012 178.037749 9.67497155 178.715214 10.0132573 179.392678 10.4192001 180.002397 10.825143 180.544369 11.298743L179.731411 12.245943C179.257185 11.772343 178.715214 11.3664001 178.105495 11.0957716 177.495777 10.7574859 176.818312 10.6221716 176.140847 10.6221716 175.32789 10.6221716 174.650425 10.7574859 173.97296 11.0957716 173.295495 11.4340573 172.753523 11.9076573 172.211552 12.5165716 171.737326 13.1254859 171.330847 13.8020573 171.059861 14.6816002 170.788875 15.4934859 170.653382 16.4406859 170.653382 17.4555431 170.653382 18.4704002 170.788875 19.3499431 171.059861 20.1618288 171.330847 20.9737146 171.66958 21.7179431 172.143805 22.2592003 172.61803 22.8681146 173.227749 23.2740574 173.905214 23.6123432 174.582678 23.9506289 175.32789 24.0859432 176.140847 24.0859432 176.953805 24.0859432 177.699016 23.9506289 178.376481 23.6123432 179.053946 23.2740574 179.663664 22.8681146 180.205636 22.3945146L180.950847 23.3417146C180.273383 23.9506289 179.595918 24.4242289 178.78296 24.7625146 177.970002 25.1684575 177.089298 25.3037718 176.140847 25.3037718 175.12465 25.3037718 174.243946 25.1008003 173.430988 24.7625146 172.61803 24.4242289 171.872819 23.8829717 171.263101 23.2064003 170.653382 22.5298289 170.179157 21.7179431 169.840425 20.703086 169.433946 19.8235431 169.230706 18.7410288 169.230706 17.4555431zM181.357326 17.4555431C181.357326 16.1700574 181.560566 15.0875431 181.899298 14.0726859 182.238031 13.0578287 182.780002 12.245943 183.389721 11.5693716 183.999439 10.8928001 184.74465 10.351543 185.557608 10.0132573 186.370566 9.67497155 187.25127 9.47200012 188.131974 9.47200012 189.012678 9.47200012 189.893383 9.67497155 190.774087 10.0132573 191.587045 10.351543 192.332256 10.8928001 192.941974 11.5693716 193.551693 12.245943 194.025918 13.0578287 194.432397 14.0726859 194.771129 15.0875431 194.974369 16.2377145 194.974369 17.4555431 194.974369 18.7410288 194.771129 19.8235431 194.432397 20.8384003 194.093664 21.7856003 193.551693 22.6651431 192.941974 23.3417146 192.332256 24.018286 191.587045 24.5595432 190.774087 24.8978289 189.961129 25.2361146 189.080425 25.439086 188.131974 25.439086 187.25127 25.439086 186.370566 25.2361146 185.557608 24.8978289 184.74465 24.5595432 183.999439 24.018286 183.389721 23.3417146 182.780002 22.6651431 182.238031 21.8532574 181.899298 20.8384003 181.492819 19.8235431 181.357326 18.7410288 181.357326 17.4555431zM182.780002 17.4555431C182.780002 18.4704002 182.915495 19.3499431 183.186481 20.1618288 183.457467 20.9737146 183.863946 21.7179431 184.338171 22.2592003 184.812397 22.8681146 185.354369 23.2740574 186.031833 23.6123432 186.709298 23.9506289 187.386763 24.0859432 188.131974 24.0859432 188.877186 24.0859432 189.622397 23.9506289 190.299862 23.6123432 190.977326 23.2740574 191.519298 22.8004574 191.993524 22.2592003 192.467749 21.650286 192.874228 20.9737146 193.145214 20.1618288 193.4162 19.3499431 193.551693 18.4027431 193.551693 17.4555431 193.551693 16.4406859 193.4162 15.5611431 193.145214 14.6816002 192.874228 13.8697145 192.467749 13.1254859 191.993524 12.5165716 191.519298 11.9076573 190.977326 11.4340573 190.299862 11.0957716 189.622397 10.7574859 188.944932 10.6221716 188.131974 10.6221716 187.386763 10.6221716 186.641552 10.7574859 186.031833 11.0957716 185.354369 11.4340573 184.812397 11.9076573 184.338171 12.5165716 183.863946 13.1254859 183.457467 13.8020573 183.186481 14.6816002 182.915495 15.5611431 182.780002 16.4406859 182.780002 17.4555431z"/>
</svg>
