<svg xmlns="http://www.w3.org/2000/svg" width="161" height="36" viewBox="0 0 161 36">
  <g fill="none" fill-rule="evenodd" transform="translate(1 1)">
    <path fill="#FFF" d="M38.3065693 17.4749094C38.3065693 13.3381499 40.4476886 10.9024877 44.0681265 10.9024877 47.5717762 10.9024877 49.8686131 13.6861016 49.4793187 19.0213615L42.7445255 19.0213615C43.0948905 20.4131685 44.0291971 20.9544267 45.5863747 20.9544267 46.7542579 20.9544267 47.6885645 20.7997815 48.7396594 20.4131685L48.7396594 23.3900889C47.7274939 23.8153632 46.5206813 24.047331 44.9245742 24.047331 40.7201946 24.047331 38.3065693 21.6116689 38.3065693 17.4749094zM45.5863747 16.4310542C45.5474453 15.0005859 45.1581509 14.2273598 44.1849148 14.2273598 43.1727494 14.2273598 42.6666667 15.0005859 42.5498783 16.4310542L45.5863747 16.4310542zM62.2481752 23.6993793L58.3941606 23.6993793 58.3941606 22.5782015C57.6545012 23.4674115 56.6423358 24.0859924 55.0462287 24.0859924 53.216545 24.0859924 51.3090024 22.771508 51.3090024 20.1812007L51.3090024 11.2891007 55.5912409 11.2891007 55.5912409 19.1373454C55.5912409 19.8332489 55.9416058 20.1425394 56.5644769 20.1425394 57.2262774 20.1425394 57.6545012 19.7559263 57.9659367 19.2533294L57.9659367 11.2504394 62.2481752 11.2504394 62.2481752 23.6993793zM64.5839416 11.2504394L68.4379562 11.2504394 68.4379562 12.9901981C69.0997567 11.5983912 70.3844282 10.8251651 72.2530414 10.9798103L72.2530414 15.3098764C70.6958637 15.1165698 69.5279805 15.5805055 68.8272506 17.0109737L68.8272506 23.660718 64.5450122 23.660718 64.5450122 11.2504394 64.5839416 11.2504394zM84.9829684 17.4749094C84.9829684 21.5343463 82.8807786 24.047331 79.1435523 24.047331 75.406326 24.047331 73.2652068 21.5343463 73.2652068 17.4749094 73.2652068 13.4154725 75.3673966 10.9024877 79.1435523 10.9024877 82.8807786 10.9024877 84.9829684 13.3768112 84.9829684 17.4749094zM77.5863747 17.4749094C77.5863747 19.4852972 78.0145985 20.4131685 79.1435523 20.4131685 80.2725061 20.4131685 80.7007299 19.4852972 80.7007299 17.4749094 80.7007299 15.4645216 80.2725061 14.5366503 79.1435523 14.5366503 77.9756691 14.497989 77.5863747 15.4645216 77.5863747 17.4749094zM86.9294404 5.56722777L91.1727494 5.56722777 91.1727494 15.6964894 92.1459854 15.6964894 94.053528 11.2504394 98.8029197 11.2504394 95.6107056 17.4362481 98.919708 23.6993793 94.1703163 23.6993793 92.107056 19.330652 91.1727494 19.330652 91.1727494 23.6993793 86.9294404 23.6993793 86.9294404 5.56722777zM100.126521 11.2504394L103.980535 11.2504394 103.980535 12.3716173C104.720195 11.5210686 105.77129 10.9024877 107.328467 10.9024877 109.19708 10.9024877 111.065693 12.1783107 111.065693 14.7686181L111.065693 23.660718 106.783455 23.660718 106.783455 15.8511346C106.783455 15.1552311 106.43309 14.8459407 105.810219 14.8459407 105.148418 14.8459407 104.720195 15.2325538 104.408759 15.7351507L104.408759 23.6993793 100.126521 23.6993793 100.126521 11.2504394zM124.613139 20.7611202L124.613139 23.6220567C123.951338 23.8153632 123.367397 23.8926858 122.588808 23.8926858 121.576642 23.8926858 120.642336 23.6220567 120.097324 23.0034758 119.201946 23.7380406 118.034063 24.047331 116.788321 24.047331 114.647202 24.047331 112.778589 22.8101693 112.778589 20.1425394 112.778589 17.552232 114.686131 16.1990863 117.450122 16.1990863 118.111922 16.1990863 118.579075 16.2377477 119.318735 16.4310542L119.318735 15.8897959C119.318735 15.0005859 118.812652 14.3820051 117.372263 14.3820051 116.009732 14.3820051 114.569343 14.7299568 113.557178 15.1165698L113.557178 11.6370525C114.841849 11.2117781 116.515815 10.9024877 117.839416 10.9024877 121.343066 10.9024877 123.523114 12.216972 123.523114 16.160425L123.523114 20.0265554C123.523114 20.606475 123.79562 20.7997815 124.223844 20.7997815 124.340633 20.7997815 124.49635 20.7997815 124.613139 20.7611202zM119.318735 20.9157654L119.318735 18.7507324C119.007299 18.6734098 118.734793 18.6347485 118.423358 18.6347485 117.450122 18.6347485 116.86618 19.0213615 116.86618 20.0652167 116.86618 21.0317493 117.411192 21.3797011 118.034063 21.3797011 118.540146 21.3797011 118.92944 21.2637172 119.318735 20.9157654zM126.092457 23.660718L130.374696 23.660718 130.374696 4.75534038 126.092457 4.75534038 126.092457 23.660718zM132.749392 23.660718L137.03163 23.660718 137.03163 4.75534038 132.749392 4.75534038 132.749392 23.660718zM138.900243 17.4749094C138.900243 13.3381499 141.041363 10.9024877 144.6618 10.9024877 148.16545 10.9024877 150.462287 13.6861016 150.072993 19.0213615L143.3382 19.0213615C143.688564 20.4131685 144.622871 20.9544267 146.180049 20.9544267 147.347932 20.9544267 148.282238 20.7997815 149.333333 20.4131685L149.333333 23.3900889C148.321168 23.8153632 147.114355 24.047331 145.518248 24.047331 141.313869 24.047331 138.900243 21.6116689 138.900243 17.4749094zM146.180049 16.4310542C146.141119 15.0005859 145.751825 14.2273598 144.778589 14.2273598 143.766423 14.2273598 143.260341 15.0005859 143.143552 16.4310542L146.180049 16.4310542zM151.941606 11.2504394L155.79562 11.2504394 155.79562 12.9901981C156.457421 11.5983912 157.742092 10.8251651 159.649635 10.9798103L159.649635 15.3098764C158.092457 15.1165698 156.924574 15.5805055 156.223844 17.0109737L156.223844 23.660718 151.941606 23.660718 151.941606 11.2504394zM12.2627737 18.1321515C12.6909976 18.5574259 12.6909976 19.2919907 12.2627737 19.717265L3.11435523 28.879994C2.68613139 29.3052684 1.94647202 29.3052684 1.51824818 28.879994 1.09002433 28.4547197 1.09002433 27.7201549 1.51824818 27.2948806L3.34793187 25.439138C1.40145985 22.8101693.272506083 19.6012811.233576642 16.1217637.155717762 7.34564775 7.31873479.115983912 16.1946472.0773226079 18.4525547.0773226079 20.5158151.463935647 22.4622871 1.27582303L22.540146 1.31448433C23.0072993 1.50779085 22.8905109 1.77841998 22.5790754 2.0103878L21.1386861 2.78361388C20.6715328 2.9382591 20.593674 3.13156562 19.8540146 2.8995978L19.6982968 2.86093649C18.5693431 2.59030736 17.4014599 2.43566215 16.1946472 2.43566215 8.60340633 2.47432345 2.49148418 8.62147078 2.53041363 16.160425 2.56934307 18.9827002 3.46472019 21.6503302 4.98296837 23.8153632L10.6666667 18.1321515C11.0948905 17.7068772 11.8345499 17.7068772 12.2627737 18.1321515z"/>
    <path stroke="#FFF" stroke-width=".7" d="M12.2627737,18.1321515 C11.8345499,17.7068772 11.0948905,17.7068772 10.6666667,18.1321515 L4.98296837,23.8153632 C3.46472019,21.6503302 2.56934307,18.9827002 2.53041363,16.160425 C2.49148418,8.62147078 8.60340633,2.47432345 16.1946472,2.43566215 C17.4014599,2.43566215 18.5693431,2.59030736 19.6982968,2.86093649 L19.8540146,2.8995978 C20.593674,3.13156562 20.6715328,2.9382591 21.1386861,2.78361388 L22.5790754,2.0103878 C22.8905109,1.77841998 23.0072993,1.50779085 22.540146,1.31448433 L22.4622871,1.27582303 C20.5158151,0.463935647 18.4525547,0.0773226079 16.1946472,0.0773226079 C7.31873479,0.115983912 0.155717762,7.34564775 0.233576642,16.1217637 C0.272506083,19.6012811 1.40145985,22.8101693 3.34793187,25.439138 L1.51824818,27.2948806 C1.09002433,27.7201549 1.09002433,28.4547197 1.51824818,28.879994 C1.94647202,29.3052684 2.68613139,29.3052684 3.11435523,28.879994 L12.2627737,19.717265 C12.6909976,19.2919907 12.6909976,18.5574259 12.2627737,18.1321515 Z"/>
    <path fill="#FFF" d="M33.1678832,11.4050847 C33.9854015,13.3381499 34.4136253,15.387199 34.3746959,17.6295546 C34.4525547,26.4056706 27.2895377,33.6353344 18.4136253,33.6739957 C14.9489051,33.712657 11.756691,32.6301405 9.10948905,30.7743979 L7.04622871,32.823447 C6.61800487,33.2487214 5.8783455,33.2487214 5.45012165,32.823447 C5.02189781,32.3981727 5.02189781,31.6636079 5.45012165,31.2383336 L14.6374696,22.1142659 C15.0656934,21.6889915 15.8053528,21.6889915 16.2335766,22.1142659 C16.6618005,22.5395402 16.6618005,23.274105 16.2335766,23.6993793 L10.8223844,29.1119619 C13.0024331,30.5424301 15.649635,31.3543175 18.4525547,31.3543175 C26.0048662,31.3156562 32.1167883,25.1298476 32.0778589,17.6295546 C32.0778589,16.4310542 31.9221411,15.2712151 31.6107056,14.1500372 L31.5717762,13.995392 C31.3381995,13.2608273 31.5328467,13.2221659 31.6885645,12.719569 L32.4282238,11.2891007 C32.6618005,10.9798103 32.9343066,10.8638264 33.1289538,11.3277621 L33.1678832,11.4050847 Z"/>
    <path stroke="#FFF" stroke-width=".7" d="M33.1678832,11.4050847 L33.1289538,11.3277621 C32.9343066,10.8638264 32.6618005,10.9798103 32.4282238,11.2891007 L31.6885645,12.719569 C31.5328467,13.2221659 31.3381995,13.2608273 31.5717762,13.995392 L31.6107056,14.1500372 C31.9221411,15.2712151 32.0778589,16.4310542 32.0778589,17.6295546 C32.1167883,25.1298476 26.0048662,31.3156562 18.4525547,31.3543175 C15.649635,31.3543175 13.0024331,30.5424301 10.8223844,29.1119619 L16.2335766,23.6993793 C16.6618005,23.274105 16.6618005,22.5395402 16.2335766,22.1142659 C15.8053528,21.6889915 15.0656934,21.6889915 14.6374696,22.1142659 L5.45012165,31.2383336 C5.02189781,31.6636079 5.02189781,32.3981727 5.45012165,32.823447 C5.8783455,33.2487214 6.61800487,33.2487214 7.04622871,32.823447 L9.10948905,30.7743979 C11.756691,32.6301405 14.9489051,33.712657 18.4136253,33.6739957 C27.2895377,33.6353344 34.4525547,26.4056706 34.3746959,17.6295546 C34.4136253,15.387199 33.9854015,13.3381499 33.1678832,11.4050847 Z"/>
    <path fill="#FFF" d="M22.1119221,0.386613039 C22.189781,1.0051939 22.2676399,1.62377477 22.2676399,2.28101693 C22.189781,4.25274343 21.6058394,6.10848602 20.7883212,7.886906 C19.2311436,11.2117781 17.0900243,14.0727146 14.3649635,16.5083768 C14.2092457,16.663022 14.0924574,16.8563285 14.053528,17.049635 C13.8199513,18.1708129 13.5863747,19.330652 13.3527981,20.4518298 C13.3138686,20.6451363 13.1970803,20.8771041 13.0413625,21.0317493 C12.4184915,21.6116689 11.7956204,22.2302498 11.1727494,22.8101693 C11.1727494,22.5782015 11.1727494,22.384895 11.13382,22.1915885 C10.8223844,19.4466359 9.57664234,17.049635 7.7080292,15.2712151 C5.80048662,13.5701177 3.34793187,12.5262625 0.622871046,12.4102786 L0,12.4102786 C0.545012165,11.7530364 1.09002433,11.0957942 1.67396594,10.4385521 C1.79075426,10.2839068 2.0243309,10.1679229 2.2189781,10.0906003 C3.34793187,9.74264859 4.47688564,9.47201946 5.60583942,9.16272903 C5.80048662,9.12406773 5.99513382,8.96942251 6.11192214,8.8147773 C8.40875912,5.95384081 11.13382,3.63416257 14.3649635,1.89440389 C16.0778589,0.966532598 17.9075426,0.309290432 19.892944,0.0773226079 C20.5158151,7.63278329e-16 21.1386861,7.63278329e-16 21.8004866,0.0386613039 C21.8783455,0.0386613039 21.9562044,0.0773226079 21.9951338,0.0773226079 L22.0340633,0.115983912 C22.0340633,0.154645216 22.0729927,0.154645216 22.0729927,0.19330652 C22.0729927,0.270629128 22.1119221,0.309290432 22.1119221,0.386613039 Z M12.8467153,12.216972 C14.2092457,12.216972 15.3381995,11.1344555 15.3381995,9.7813099 C15.3381995,8.42816426 14.2481752,7.30698644 12.8856448,7.30698644 C11.5231144,7.30698644 10.3941606,8.38950295 10.3941606,9.74264859 C10.3941606,11.0957942 11.4841849,12.216972 12.8467153,12.216972 Z" transform="translate(10.51 1.16)"/>
  </g>
</svg>
