<svg xmlns="http://www.w3.org/2000/svg" width="162" height="28" viewBox="0 0 162 28">
  <path fill="#FFF" d="M13.5830057 9.986625C15.2886343 9.986625 16.6272833 10.450275 17.596969 11.377905 18.5663241 12.304875 19.0516629 13.620915 19.0516629 15.322395L19.0516629 21.462705C19.0516629 22.921635 19.0638955 23.999745 19.0867078 24.699345 19.0982792 25.014165 19.2496996 25.213485 19.5422914 25.294335L21.6628384 25.906815 21.7157363 26.746005C20.044822 26.711355 18.3626669 26.693865 16.6679486 26.693865 14.9153731 26.693865 13.3376914 26.711355 11.9358955 26.746005L11.8658057 25.906815 13.6180506 25.381455C13.8865078 25.300605 14.0332996 25.125705 14.0564424 24.856755 14.0686751 24.682185 14.0736343 24.314565 14.0736343 23.754555L14.0736343 16.424595C14.0736343 14.989755 13.7936057 13.961805 13.2325567 13.336785 12.6715078 12.713745 11.83572 12.401235 10.7265159 12.401235 9.7568302 12.401235 8.75805061 12.624315 7.72918531 13.065855L7.72918531 20.763435C7.72918531 22.221705 7.74108735 23.557875 7.76456082 24.769305 7.77613224 25.084125 7.9100302 25.276845 8.16724653 25.346475L9.99024245 25.906815 10.0249567 26.746005C8.57621388 26.711355 6.99853224 26.693865 5.29290367 26.693865 3.55256082 26.693865 1.83998939 26.711355.158164898 26.746005L.0702220408 25.906815 2.33094857 25.294335C2.58882612 25.224375 2.72206286 25.049475 2.7339649 24.769305 2.74619755 24.023835 2.75148735 23.306415 2.75148735 22.617375L2.75148735 7.309665C2.75148735 5.783745 2.7286751 4.376955 2.68139755 3.093915L.104936327 2.393985.000132244898 1.676895C2.92109143 1.245915 5.46845878.797445 7.64157306.329835L7.83432.469755C7.76456082 2.079165 7.72918531 3.793515 7.72918531 5.613135L7.72918531 11.753445C9.70426286 10.577325 11.6552057 9.986625 13.5830057 9.986625M71.1837918 21.462837C71.1837918 22.921767 71.194702 23.999877 71.2185061 24.699477 71.2300776 25.014297 71.3821592 25.213617 71.6744204 25.294137L73.795298 25.906617 73.8478653 26.746137C72.1766204 26.711157 70.4934735 26.693997 68.8000776 26.693997 67.0468408 26.693997 65.5048653 26.711157 64.1734898 26.746137L64.0852163 25.906617 65.7501796 25.381587C66.0189673 25.300737 66.1644367 25.125837 66.188902 24.856887 66.1998122 24.682317 66.2060939 24.314697 66.2060939 23.754357L66.2060939 16.424727C66.2060939 14.989557 65.9402816 13.961937 65.4086571 13.336587 64.876702 12.713877 64.0789347 12.401367 63.0163469 12.401367 62.0575714 12.401367 61.0412694 12.739617 59.966449 13.415457 60.1297714 13.988997 60.2120939 14.622597 60.2120939 15.322527L60.2120939 21.462837C60.2120939 22.921767 60.2233347 24.023637 60.2471388 24.769437 60.2583796 25.084257 60.3926082 25.276977 60.6501551 25.346607L62.4027306 25.906617 62.4377755 26.746137C61.0587918 26.711157 59.5214449 26.693997 57.8283796 26.693997 56.0758041 26.693997 54.533498 26.711157 53.2014612 26.746137L53.1313714 25.906617 54.7788122 25.381587C55.0469388 25.300737 55.1927388 25.125837 55.2168735 24.856887 55.2277837 24.682317 55.2343959 24.314697 55.2343959 23.754357L55.2343959 16.424727C55.2343959 14.989557 54.9682531 13.961937 54.4369592 13.336587 53.9043429 12.713877 53.1135184 12.401367 52.0621714 12.401367 51.1506735 12.401367 50.2041306 12.680877 49.2228735 13.240557L49.2228735 20.763237C49.2228735 22.221837 49.2334531 23.557677 49.2575878 24.769437 49.2688286 25.084257 49.4037184 25.276977 49.6606041 25.346607L51.4138408 25.906617 51.4492163 26.746137C50.0464286 26.711157 48.4922204 26.693997 46.7865918 26.693997 45.0449265 26.693997 43.3336776 26.711157 41.6511918 26.746137L41.563249 25.906617 43.8246367 25.294137C44.0808612 25.224177 44.215751 25.049607 44.2276531 24.769437 44.2388939 24.023637 44.2451755 23.306547 44.2451755 22.617507L44.2451755 16.861977C44.2451755 15.335727 44.2210408 13.922997 44.1750857 12.628737L41.6690449 11.981277 41.563249 11.264187C44.262698 10.868187 46.7274122 10.424337 48.9597061 9.933957L49.2228735 10.074207 49.2228735 11.946627C51.1387714 10.640487 53.0318571 9.986757 54.9011388 9.986757 57.0273061 9.986757 58.5646531 10.756647 59.5108653 12.295767 61.6839796 10.756647 63.8051878 9.986757 65.8731673 9.986757 67.5209388 9.986757 68.8176 10.450077 69.7641429 11.378037 70.7103551 12.305007 71.1837918 13.621047 71.1837918 15.322527L71.1837918 21.462837zM84.5370882 16.4769L84.5370882 16.05714C84.5370882 14.47215 84.3357453 13.33497 83.932729 12.64626 83.5290514 11.95953 82.9134514 11.61369 82.0829535 11.61369 81.0911167 11.61369 80.2986392 12.09021 79.7081657 13.03929 79.1190147 13.99068 78.7771616 15.13644 78.6829371 16.4769L84.5370882 16.4769zM89.7948147 25.53903C87.6339331 26.63694 85.3556841 27.18375 82.9597371 27.18375 80.1088678 27.18375 77.7803657 26.48184 75.9752229 25.07538 74.17008 23.67123 73.267178 21.59883 73.267178 18.8562 73.267178 16.24524 74.1350351 14.11278 75.8700882 12.46212 77.6051412 10.81311 79.8169371 9.98679 82.5038229 9.98679 84.8524922 9.98679 86.666231 10.62072 87.9463616 11.88528 89.2255004 13.15116 89.8649045 14.89851 89.8649045 17.12469 89.8649045 17.46327 89.8477127 17.81307 89.8126678 18.17409L78.6128473 18.17409C78.6128473 20.51841 79.1887739 22.20471 80.3393045 23.22969 81.4904963 24.25797 83.3799453 24.76947 86.0089739 24.76947 87.2834841 24.76947 88.4978229 24.65958 89.6546351 24.43683L89.7948147 25.53903zM103.618341 12.155979C102.987202 11.935539 102.280684 11.823999 101.497463 11.823999 99.8973 11.823999 98.6756878 12.374769 97.8346102 13.476969 96.9928714 14.578839 96.5723327 16.239069 96.5723327 18.454029 96.5723327 20.378589 96.9455939 21.917709 97.6941 23.072049 98.4422755 24.227379 99.4936224 24.804879 100.848802 24.804879 101.853202 24.804879 102.776933 24.590049 103.618341 24.156759L103.618341 12.155979zM100.848802 1.676829C103.700333 1.245849 106.247369.797709 108.490573.330099L108.700843.469689C108.61852 2.966799 108.578186 5.648379 108.578186 8.517399L108.578186 18.034269C108.578186 19.562829 108.583806 21.137259 108.595708 22.757889 108.595708 23.352219 108.61852 23.831379 108.666129 24.192399 108.712745 24.555069 108.814904 24.830289 108.972276 25.023009 109.130308 25.215729 109.372316 25.346739 109.700284 25.417029 110.02792 25.486989 110.506316 25.527909 111.137124 25.539129L111.242259 26.308689C109.5363 26.892459 108.081937 27.183849 106.878178 27.183849 105.312729 27.183849 104.284524 26.549259 103.793565 25.276779 102.263161 26.549259 100.568443 27.183849 98.710402 27.183849 96.3971082 27.183849 94.5688224 26.422209 93.2248837 24.900579 91.8806143 23.378619 91.2091408 21.476169 91.2091408 19.188939 91.2091408 16.273719 92.076998 14.018829 93.812051 12.426909 95.5471041 10.835319 97.9747898 10.039029 101.093786 10.039029 101.865104 10.039029 102.706843 10.105029 103.618341 10.231749 103.618341 7.771599 103.595198 5.392629 103.54792 3.093849L100.97179 2.393919 100.848802 1.676829zM122.20751 16.4769L122.20751 16.05714C122.20751 14.47215 122.005837 13.33497 121.60282 12.64626 121.199473 11.95953 120.582882 11.61369 119.753706 11.61369 118.759886 11.61369 117.969392 12.09021 117.378918 13.03929 116.788114 13.99068 116.446261 15.13644 116.35369 16.4769L122.20751 16.4769zM127.464906 25.53903C125.304355 26.63694 123.026106 27.18375 120.630159 27.18375 117.778629 27.18375 115.450788 26.48184 113.645645 25.07538 111.840502 23.67123 110.9376 21.59883 110.9376 18.8562 110.9376 16.24524 111.805457 14.11278 113.54018 12.46212 115.275233 10.81311 117.487359 9.98679 120.174576 9.98679 122.523245 9.98679 124.336653 10.62072 125.616453 11.88528 126.895922 13.15116 127.535657 14.89851 127.535657 17.12469 127.535657 17.46327 127.517804 17.81307 127.48309 18.17409L116.2836 18.17409C116.2836 20.51841 116.858204 22.20471 118.010057 23.22969 119.161249 24.25797 121.050367 24.76947 123.679727 24.76947 124.953576 24.76947 126.168245 24.65958 127.325057 24.43683L127.464906 25.53903zM143.034792 25.539162C141.095751 26.637072 139.091249 27.183552 137.022939 27.183552 134.464 27.183552 132.360645 26.444682 130.713204 24.961662 129.066094 23.481612 128.242209 21.504252 128.242209 19.031232 128.242209 16.337112 129.13949 14.156802 130.9324 12.488322 132.726633 10.822152 135.013809 9.986592 137.793596 9.986592 139.558735 9.986592 141.258743 10.318902 142.894613 10.983852 142.473743 12.628572 142.105441 14.356122 141.790037 16.161882L140.825972 16.319622 139.477074 11.946462C139.161009 11.829972 138.73518 11.771232 138.197274 11.771232 136.865237 11.771232 135.772894 12.352692 134.919915 13.511652 134.067596 14.672592 133.640445 16.227882 133.640445 18.173892 133.640445 20.448252 134.181327 22.125642 135.261107 23.203752 136.34287 24.284172 137.881539 24.822072 139.87976 24.822072 140.838204 24.822072 141.842604 24.712842 142.894613 24.489102L143.034792 25.539162zM148.44179 18.383739C148.44179 20.507619 148.759178 22.230549 149.396598 23.553849 150.033358 24.879129 151.052966 25.539129 152.455753 25.539129 153.763325 25.539129 154.724745 24.957669 155.338362 23.789799 155.952309 22.624239 156.259117 20.892069 156.259117 18.594279 156.259117 16.437729 155.934456 14.736249 155.286125 13.494459 154.637464 12.252339 153.622815 11.630949 152.245153 11.630949 150.959072 11.630949 150.003933 12.191289 149.379407 13.310979 148.753888 14.430669 148.44179 16.123239 148.44179 18.383739M161.691737 18.244149C161.691737 20.902959 160.80206 23.059509 159.028325 24.708189 157.251284 26.359179 154.93766 27.183849 152.087121 27.183849 149.317913 27.183849 147.110084 26.405379 145.462313 24.848109 143.814541 23.291169 142.990986 21.253089 142.990986 18.734199 142.990986 16.179669 143.854876 14.084499 145.584639 12.444399 147.313411 10.806609 149.650839 9.986559 152.595272 9.986559 155.386631 9.986559 157.601733 10.743579 159.237933 12.252339 160.872811 13.763079 161.691737 15.760239 161.691737 18.244149M36.7098612 14.863629C36.7455673 16.133139 36.3253592 18.437859 35.5104 20.626749 34.7777633 22.594869 32.7808653 25.754289 31.8650694 25.847349 30.9489429 25.940409 28.3539673 23.248929 27.2378204 21.469899 25.9963714 19.490559 25.1179347 17.316849 24.8954327 16.066809 24.6755755 14.818419 25.1070245 13.477959 25.747751 13.048629 26.4357551 12.587619 27.6067837 12.691569 28.5695265 13.563429 29.5881429 14.486109 30.1624163 14.989689 30.8745551 16.154589 31.3354286 14.870889 31.7943184 14.261709 32.6059714 13.151919 33.3716694 12.104499 34.4980653 11.766909 35.2647551 12.079419 35.9788776 12.370149 36.6734939 13.595769 36.7098612 14.863629M37.2123918 9.917919C35.2429347 9.329529 33.3908449 9.630489 31.6564531 10.819809 31.2666612 11.087769 30.7737184 11.404899 30.4226082 11.740509 30.0113265 11.482449 29.4638327 11.271909 29.0274245 11.087769 27.0883837 10.272339 25.2134816 10.350879 23.4037102 11.324709 21.4950857 12.352659 20.0770898 14.315829 20.227849 16.420239 20.3934857 18.720669 21.1148816 20.678229 23.1392204 22.887579 25.2511714 25.191309 30.1052204 27.862329 32.0508735 27.663339 33.9961959 27.465669 38.2191061 23.984169 39.8225755 21.302259 41.3569469 18.729249 41.6578041 16.553559 41.3533102 14.268309 41.0746041 12.176769 39.289298 10.539969 37.2123918 9.917919"/>
</svg>
