<svg xmlns="http://www.w3.org/2000/svg" width="144" height="27" viewBox="0 0 144 27">
  <g fill="#FFF">
    <path d="M28.1407229 10.2923633L28.1407229 8.04144578 30.7604819 8.04144578 30.7604819 5.94517146C30.7604819 4.17536608 31.2289157 2.80075996 32.1657831 1.83853568 33.1026506.876311399 34.4038554.378016682 36.086747.378016682 36.4337349.378016682 36.7980723.412381835 37.1450602.463929564 37.4920482.515477294 37.8910843.601390176 38.3248193.704485635L37.9604819 3.00695088C37.7696386 2.97258573 37.5440964 2.93822057 37.2838554 2.90385542 37.0236145 2.86949027 36.7460241 2.85230769 36.4684337 2.85230769 35.5662651 2.85230769 34.906988 3.11004634 34.473253 3.64270621 34.0395181 4.17536608 33.8139759 4.93139944 33.8139759 5.94517146L33.8139759 8.05862836 37.3185542 8.05862836 37.3185542 10.3095459 33.8139759 10.3095459 33.8139759 22.3373494 36.346988 22.7669138 36.346988 24.7085449 28.2274699 24.7085449 28.2274699 22.7669138 30.7604819 22.3373494 30.7604819 10.3095459 28.1407229 10.3095459 28.1407229 10.2923633zM39.6607229 10.2923633L39.6607229 8.04144578 42.2804819 8.04144578 42.2804819 5.94517146C42.2804819 4.17536608 42.7489157 2.80075996 43.6857831 1.83853568 44.6226506.876311399 45.9238554.378016682 47.606747.378016682 47.9537349.378016682 48.3180723.412381835 48.6650602.463929564 49.0293976.515477294 49.4110843.601390176 49.8448193.704485635L49.4804819 3.00695088C49.2896386 2.97258573 49.0640964 2.93822057 48.8038554 2.90385542 48.5436145 2.86949027 48.2660241 2.85230769 47.9884337 2.85230769 47.0862651 2.85230769 46.426988 3.11004634 45.993253 3.64270621 45.5595181 4.17536608 45.3339759 4.93139944 45.3339759 5.94517146L45.3339759 8.05862836 48.8385542 8.05862836 48.8385542 10.3095459 45.3339759 10.3095459 45.3339759 22.3373494 47.866988 22.7669138 47.866988 24.7085449 39.7474699 24.7085449 39.7474699 22.7669138 42.2804819 22.3373494 42.2804819 10.3095459 39.6607229 10.3095459 39.6607229 10.2923633zM58.2245783 25.0178313C55.8824096 25.0178313 54.0260241 24.2446154 52.6380723 22.6981835 51.2501205 21.1517516 50.573494 19.1585728 50.573494 16.6842817L50.573494 16.0141613C50.573494 13.6429657 51.2848193 11.6669694 52.7074699 10.103355 54.1301205 8.5397405 55.813012 7.74934198 57.7561446 7.74934198 60.0115663 7.74934198 61.7291566 8.41946247 62.8915663 9.77688601 64.0539759 11.1343095 64.6438554 12.9384801 64.6438554 15.1893976L64.6438554 17.079481 53.7484337 17.079481 53.6963855 17.1482113C53.7310843 18.7461909 54.1301205 20.0692493 54.9281928 21.1002039 55.7089157 22.1311585 56.8192771 22.6466358 58.2419277 22.6466358 59.2828916 22.6466358 60.1850602 22.4919926 60.9657831 22.1998888 61.746506 21.907785 62.4231325 21.5125857 62.9956627 20.9971084L64.1927711 22.9731047C63.5855422 23.5401297 62.8048193 24.0384245 61.8159036 24.4336237 60.7922892 24.8116404 59.6125301 25.0178313 58.2245783 25.0178313zM57.7561446 10.1205375C56.7325301 10.1205375 55.8650602 10.5501019 55.1363855 11.4092308 54.4077108 12.2683596 53.9739759 13.3336793 53.8004819 14.6395551L53.8351807 14.7082854 61.5903614 14.7082854 61.5903614 14.3130862C61.5903614 13.1274884 61.2780723 12.130899 60.6361446 11.3233179 59.9595181 10.5329194 59.0226506 10.1205375 57.7561446 10.1205375zM67.1595181 10.0002595L67.1595181 8.04144578 72.4163855 8.04144578 72.7113253 10.4641891C73.179759 9.60506024 73.7696386 8.95212234 74.4809639 8.47101019 75.1749398 7.98989805 75.973012 7.74934198 76.8751807 7.74934198 77.1180723 7.74934198 77.3609639 7.76652456 77.6212048 7.80088971 77.8814458 7.83525487 78.0722892 7.86962002 78.2110843 7.92116775L77.8120482 10.7391103 76.0771084 10.6531974C75.2616867 10.6531974 74.5850602 10.8422057 74.0472289 11.2202224 73.4920482 11.5982391 73.0756627 12.1137164 72.7807229 12.8010195L72.7807229 22.354532 75.3137349 22.7840964 75.3137349 24.7257275 67.1942169 24.7257275 67.1942169 22.7840964 69.7272289 22.354532 69.7272289 10.4298239 67.1595181 10.0002595zM86.0703614 4.03790547L86.0703614 8.05862836 89.2453012 8.05862836 89.2453012 10.3095459 86.0703614 10.3095459 86.0703614 20.4129008C86.0703614 21.1861168 86.226506 21.7359592 86.5561446 22.0624282 86.8857831 22.3717146 87.3195181 22.5435403 87.8573494 22.5435403 88.1349398 22.5435403 88.4298795 22.5263577 88.7595181 22.47481 89.0891566 22.4232623 89.3840964 22.3717146 89.6096386 22.3201668L90.0260241 24.3992586C89.7310843 24.5882669 89.3146988 24.7429101 88.7595181 24.8460056 88.2043373 24.949101 87.6491566 25.0178313 87.0766265 25.0178313 85.8274699 25.0178313 84.8385542 24.6398146 84.1098795 23.9009639 83.3812048 23.1621131 82.9995181 21.9936979 82.9995181 20.3957183L82.9995181 10.2923633 80.3450602 10.2923633 80.3450602 8.04144578 82.9995181 8.04144578 82.9995181 4.03790547 86.0703614 4.03790547zM99.2212048 25.0178313C96.8790361 25.0178313 95.0226506 24.2446154 93.6346988 22.6981835 92.246747 21.1517516 91.5701205 19.1585728 91.5701205 16.6842817L91.5701205 16.0141613C91.5701205 13.6429657 92.2814458 11.6669694 93.7040964 10.103355 95.126747 8.52255792 96.8096386 7.74934198 98.7527711 7.74934198 101.008193 7.74934198 102.725783 8.41946247 103.888193 9.77688601 105.050602 11.1343095 105.640482 12.9384801 105.640482 15.1893976L105.640482 17.079481 94.7277108 17.079481 94.6756627 17.1482113C94.7103614 18.7461909 95.1093976 20.0692493 95.9074699 21.1002039 96.6881928 22.1311585 97.7985542 22.6466358 99.2212048 22.6466358 100.262169 22.6466358 101.164337 22.4919926 101.94506 22.1998888 102.725783 21.907785 103.40241 21.5125857 103.97494 20.9971084L105.172048 22.9731047C104.564819 23.5401297 103.784096 24.0384245 102.795181 24.4336237 101.788916 24.8116404 100.609157 25.0178313 99.2212048 25.0178313zM98.7527711 10.1205375C97.7291566 10.1205375 96.8616867 10.5501019 96.133012 11.4092308 95.4043373 12.2683596 94.9706024 13.3336793 94.7971084 14.6395551L94.8318072 14.7082854 102.586988 14.7082854 102.586988 14.3130862C102.586988 13.1274884 102.274699 12.130899 101.632771 11.3233179 100.973494 10.5329194 100.019277 10.1205375 98.7527711 10.1205375z"/>
    <polygon points="111.574 24.691 108.52 24.691 108.52 21.581 111.574 21.581"/>
    <path d="M114.818313,22.7497312 L117.351325,22.3201668 L117.351325,10.4298239 L114.818313,10.0002595 L114.818313,8.04144578 L120.075181,8.04144578 L120.300723,10.5157368 C120.855904,9.63942539 121.567229,8.95212234 122.4,8.47101019 C123.25012,7.98989805 124.204337,7.73215941 125.28,7.73215941 C127.084337,7.73215941 128.489639,8.26481928 129.495904,9.31295644 C130.502169,10.3610936 130.987952,11.9934384 130.987952,14.1756256 L130.987952,22.3029842 L133.520964,22.7325487 L133.520964,24.6741798 L125.401446,24.6741798 L125.401446,22.7325487 L127.934458,22.3029842 L127.934458,14.2271733 C127.934458,12.7666543 127.639518,11.7185171 127.049639,11.0999444 C126.459759,10.4813716 125.57494,10.1720853 124.377831,10.1720853 C123.493012,10.1720853 122.712289,10.3782762 122.035663,10.8078406 C121.359036,11.2202224 120.821205,11.80443 120.404819,12.5260982 L120.404819,22.2858017 L122.937831,22.7153661 L122.937831,24.6569972 L114.818313,24.6569972 L114.818313,22.7497312 Z"/>
    <polygon points="135.707 2.646 135.707 .704 141.293 .704 141.293 22.32 143.827 22.75 143.827 24.691 135.707 24.691 135.707 22.75 138.24 22.32 138.24 3.076"/>
    <path d="M24.7228916 9.15831325L21.8081928 10.0002595C22.2072289 11.0312141 22.4501205 12.130899 22.4501205 13.2993142 22.4501205 14.4677294 22.2245783 15.5674143 21.8081928 16.5983689L24.7228916 17.4403151C25.2086747 16.1516219 25.4862651 14.7598332 25.4862651 13.2993142 25.4862651 11.8387952 25.2086747 10.4470065 24.7228916 9.15831325zM10.1320482 4.86266914C11.1383133 4.48465246 12.2139759 4.27846154 13.3416867 4.27846154 14.4693976 4.27846154 15.5624096 4.50183503 16.5513253 4.86266914L17.4014458 1.97599629C16.1349398 1.5292493 14.7643373 1.27151066 13.3243373 1.27151066 11.8843373 1.27151066 10.5310843 1.5292493 9.24722892 1.97599629L10.1320482 4.86266914zM16.5686747 21.7187766C15.5624096 22.0967933 14.486747 22.3029842 13.3590361 22.3029842 12.2313253 22.3029842 11.1383133 22.0796108 10.1493976 21.7187766L9.29927711 24.6054495C10.5657831 25.0521965 11.9363855 25.3099351 13.3763855 25.3099351 14.8163855 25.3099351 16.1696386 25.0521965 17.453494 24.6054495L16.5686747 21.7187766zM4.25060241 13.2993142C4.25060241 12.130899 4.47614458 11.0312141 4.89253012 10.0002595L1.97783133 9.15831325C1.49204819 10.4470065 1.21445783 11.8387952 1.21445783 13.2993142 1.21445783 14.7598332 1.49204819 16.1516219 1.97783133 17.4403151L4.89253012 16.5983689C4.47614458 15.5674143 4.25060241 14.4505468 4.25060241 13.2993142zM22.5626894 20.8512568L26.5596251 24.8481925 24.8912099 26.5166077 20.8862142 22.511612 18.7720482 24.6054495 16.3257831 16.3578128 24.653494 18.7805561 22.5626894 20.8512568zM5.77976817 22.5115707L1.77439261 26.5169462.105977375 24.848531 4.10329296 20.8512154 2.01253012 18.7805561 10.340241 16.3578128 7.8939759 24.6054495 5.77976817 22.5115707zM4.10806321 5.74268855L.105930535 1.74055587 1.77434577.07214064 5.78453842 4.0823333 7.8939759 1.99317887 10.340241 10.2408156 2.01253012 7.81807229 4.10806321 5.74268855zM20.880743 4.08159777L24.8905558.0717849607 26.5589711 1.74020019 22.5572182 5.74195303 24.653494 7.81807229 16.3257831 10.2408156 18.7720482 1.99317887 20.880743 4.08159777z"/>
  </g>
</svg>
