<svg xmlns="http://www.w3.org/2000/svg" width="208" height="32" viewBox="0 0 208 32">
  <path fill="#FFF" fill-rule="evenodd" d="M4.71701695 21.4794521L4.71701695 9.78060274.253830508 9.78060274.253830508 6.64547945 13.1145763 6.64547945 13.1145763 9.78060274 8.65138983 9.78060274 8.65138983 21.4794521 4.71701695 21.4794521zM26.82537 19.9519976L31.3551186 13.9888219 25.7708475 6.64547945 30.2974915 6.64547945 33.5549831 11.1903562 36.8547797 6.64547945 41.3602712 6.64547945 35.7548475 13.9888219 41.4660339 21.4794521 36.9182373 21.4794521 33.5549831 16.8083288 30.1705763 21.4794521 27.5441356 21.4794521 23.6943729 21.4794521 22.3617627 18.4074521 15.7621695 18.4074521 14.4295593 21.4794521 10.516339 21.4794521 17.4755254 6.64547945 20.5637966 6.64547945 26.82537 19.9519976zM17.0101695 15.5037808L21.1137627 15.5037808 19.0619661 10.7484932 17.0101695 15.5037808zM42.8903051 21.4794521L42.8903051 6.64547945 46.7823729 6.64547945 46.7823729 21.4794521 42.8903051 21.4794521zM88.0686102 21.4794521L86.736 18.4074521 80.1364068 18.4074521 78.8037966 21.4794521 74.8905763 21.4794521 81.8497627 6.64547945 84.9380339 6.64547945 91.9183729 21.4794521 88.0686102 21.4794521zM81.3844068 15.5037808L85.488 15.5037808 83.4362034 10.7484932 81.3844068 15.5037808zM92.8067797 21.4794521L92.8067797 6.64547945 96.6988475 6.64547945 96.6988475 21.4794521 92.8067797 21.4794521zM112.817085 21.4794521L108.544271 21.4794521 105.963661 16.7452055C105.63932 16.1981343 105.124614 15.9246027 104.419525 15.9246027L103.234983 15.9246027 103.234983 21.4794521 99.4063729 21.4794521 99.4063729 6.64547945 106.513627 6.64547945C108.318653 6.64547945 109.675928 7.03473583 110.585492 7.81326027 111.495055 8.59178471 111.949831 9.71747209 111.949831 11.1903562 111.949831 12.3125536 111.639596 13.2629002 111.019119 14.0414247 110.398641 14.8199491 109.524345 15.3424644 108.396203 15.6089863 109.256411 15.7913434 109.940336 16.34542 110.448 17.2712329L112.817085 21.4794521zM107.751051 12.6211507C108.124748 12.3546288 108.311593 11.9197838 108.311593 11.3166027 108.311593 10.6993942 108.124748 10.2540288 107.751051 9.98049315 107.377354 9.70695754 106.760411 9.57019178 105.900203 9.57019178L103.192678 9.57019178 103.192678 13.0209315 105.900203 13.0209315C106.760411 13.0209315 107.377354 12.8876726 107.751051 12.6211507zM114.36122 6.64547945L121.574237 6.64547945C123.224144 6.64547945 124.507385 7.06279035 125.424 7.89742466 126.340615 8.73205897 126.798915 9.89281448 126.798915 11.379726 126.798915 12.8526101 126.337089 14.0098588 125.413424 14.8515068 124.489758 15.6931549 123.210042 16.1139726 121.574237 16.1139726L118.253288 16.1139726 118.253288 21.4794521 114.36122 21.4794521 114.36122 6.64547945zM121.045424 13.2103014C121.764614 13.2103014 122.296947 13.0630152 122.642441 12.7684384 122.987934 12.4738615 123.160678 12.0179757 123.160678 11.4007671 123.160678 10.7835586 122.987934 10.3241659 122.642441 10.0225753 122.296947 9.72098479 121.764614 9.57019178 121.045424 9.57019178L118.253288 9.57019178 118.253288 13.2103014 121.045424 13.2103014zM131.801492 20.7324932C130.680401 20.1082709 129.816681 19.2245537 129.210305 18.0813151 128.603929 16.9380765 128.300746 15.5949666 128.300746 14.0519452 128.300746 12.5089238 128.603929 11.1658139 129.210305 10.0225753 129.816681 8.87933675 130.680401 7.99912637 131.801492 7.38191781 132.922582 6.76470924 134.244603 6.45610959 135.767593 6.45610959 137.290584 6.45610959 138.612605 6.76470924 139.733695 7.38191781 140.854785 7.99912637 141.71498 8.87933675 142.314305 10.0225753 142.91363 11.1658139 143.213288 12.5089238 143.213288 14.0519452 143.213288 15.5949666 142.910105 16.9380765 142.303729 18.0813151 141.697353 19.2245537 140.833633 20.1082709 139.712542 20.7324932 138.591452 21.3567154 137.276482 21.6688219 135.767593 21.6688219 134.244603 21.6688219 132.922582 21.3567154 131.801492 20.7324932zM138.411661 17.5132055C139.04624 16.7206536 139.363525 15.5669117 139.363525 14.0519452 139.363525 12.5369787 139.042715 11.3867437 138.401085 10.6012055 137.759454 9.81566731 136.881633 9.42290411 135.767593 9.42290411 134.639452 9.42290411 133.758105 9.81216049 133.123525 10.5906849 132.488946 11.3692094 132.171661 12.5229513 132.171661 14.0519452 132.171661 15.5809392 132.488946 16.7381879 133.123525 17.523726 133.758105 18.3092642 134.639452 18.7020274 135.767593 18.7020274 136.895734 18.7020274 137.777082 18.3057574 138.411661 17.5132055zM158.929627 21.4794521L154.656814 21.4794521 152.076203 16.7452055C151.751863 16.1981343 151.237156 15.9246027 150.532068 15.9246027L149.347525 15.9246027 149.347525 21.4794521 145.518915 21.4794521 145.518915 6.64547945 152.626169 6.64547945C154.431195 6.64547945 155.78847 7.03473583 156.698034 7.81326027 157.607598 8.59178471 158.062373 9.71747209 158.062373 11.1903562 158.062373 12.3125536 157.752139 13.2629002 157.131661 14.0414247 156.511183 14.8199491 155.636887 15.3424644 154.508746 15.6089863 155.368953 15.7913434 156.052879 16.34542 156.560542 17.2712329L158.929627 21.4794521zM153.863593 12.6211507C154.23729 12.3546288 154.424136 11.9197838 154.424136 11.3166027 154.424136 10.6993942 154.23729 10.2540288 153.863593 9.98049315 153.489896 9.70695754 152.872953 9.57019178 152.012746 9.57019178L149.30522 9.57019178 149.30522 13.0209315 152.012746 13.0209315C152.872953 13.0209315 153.489896 12.8876726 153.863593 12.6211507zM163.837017 21.4794521L163.837017 9.78060274 159.373831 9.78060274 159.373831 6.64547945 172.234576 6.64547945 172.234576 9.78060274 167.77139 9.78060274 167.77139 21.4794521 163.837017 21.4794521zM70.3001341 2.76104348C72.7429522 4.90086957 74.0338983 8.1533913 74.0338983 12.1676522 74.0338983 20.9113043 63.7965686 31.1568696 63.360945 31.5885217 63.0951828 31.8521739 62.7331659 32 62.3559322 32 61.9786985 32 61.6166816 31.8521739 61.3509194 31.5885217 60.9152958 31.1568696 50.6779661 20.9113043 50.6779661 12.1676522 50.6779661 8.1533913 51.9689122 4.90086957 54.4117304 2.76104348 56.4444042.980869565 59.2658716 0 62.3559322 0 65.4459928 0 68.2674602.980869565 70.3001341 2.76104348zM67.8423731 18.7747945C67.5838408 18.5176242 67.2606801 18.389041 66.8728816 18.389041L61.8800001 18.389041 64.9581358 15.1342464C65.8468408 14.1859312 66.5537547 13.1934297 67.0788985 12.1567121 67.6040424 11.1199946 67.8666104 10.1114202 67.8666104 9.13095865 67.8666104 8.13442396 67.648477 7.24237807 67.2122036 6.4547942 66.7759303 5.66721034 66.1538461 5.04840373 65.3459324 4.59835581 64.5380187 4.14830789 63.600853 3.9232873 62.5344069 3.9232873 61.7911264 3.9232873 61.0155409 4.10812564 60.2076272 4.47780786 59.3997135 4.84749008 58.6887602 5.3377135 58.0747458 5.94849282 57.7515803 6.26995563 57.5092099 6.55524958 57.3476271 6.80438325 57.1860444 7.05351692 57.1052543 7.29862863 57.1052543 7.53972573 57.1052543 7.87726168 57.254716 8.18264676 57.5536441 8.45589014 57.8525722 8.72913352 58.1797723 8.86575316 58.5352543 8.86575316 58.9876859 8.86575316 59.3593207 8.67287837 59.6501696 8.28712301 60.0379681 7.77278253 60.4701955 7.35890538 60.9468645 7.04547915 61.4235336 6.73205292 61.896156 6.57534215 62.3647459 6.57534215 63.0433934 6.57534215 63.6412405 6.84054499 64.1583053 7.37095861 64.67537 7.90137223 64.9338985 8.52821529 64.9338985 9.25150659 64.9338985 9.79799336 64.7601997 10.3967088 64.4127968 11.047671 64.0653939 11.6986332 63.5927715 12.3455674 62.9949154 12.988493L57.7111865 18.6060273C57.4203376 18.911417 57.2749153 19.2650208 57.2749153 19.6668493 57.2749153 20.0686778 57.3961005 20.3981722 57.6384746 20.6553425 57.8808487 20.9125127 58.2120883 21.0410959 58.6322034 21.0410959L66.8728816 21.0410959C67.2606801 21.0410959 67.5838408 20.9165309 67.8423731 20.6673973 68.1009055 20.4182636 68.2301698 20.1088603 68.2301698 19.7391781 68.2301698 19.3534227 68.1009055 19.0319647 67.8423731 18.7747945zM176.623729 20.9183562C175.831092 20.1632108 175.43478 19.1360065 175.43478 17.8367123 175.43478 16.9816213 175.627354 16.2264873 176.012508 15.5712877 176.397663 14.916088 176.939104 14.4108146 177.636847 14.0554521 178.334591 13.7000895 179.141171 13.522411 180.05661 13.522411 180.670625 13.522411 181.265093 13.6112503 181.840034 13.7889315 182.414975 13.9666128 182.88106 14.2053684 183.238305 14.5052055L182.484746 16.5041096C182.205648 16.282008 181.867945 16.1015532 181.471627 15.9627397 181.075309 15.8239262 180.704115 15.7545205 180.358034 15.7545205 179.755183 15.7545205 179.29468 15.9210942 178.976508 16.2542466 178.658337 16.5873989 178.499254 17.0926724 178.499254 17.7700822 178.499254 18.447492 178.658337 18.9583179 178.976508 19.3025753 179.29468 19.6468328 179.755183 19.8189589 180.358034 19.8189589 180.704115 19.8189589 181.075309 19.7495532 181.471627 19.6107397 181.867945 19.4719262 182.205648 19.285919 182.484746 19.0527123L183.238305 21.068274C182.858733 21.3792162 182.375901 21.620748 181.789797 21.7928767 181.203692 21.9650054 180.581314 22.0510685 179.922644 22.0510685 178.515993 22.0510685 177.416366 21.6735015 176.623729 20.9183562zM185.959492 21.5263562C185.272912 21.1765462 184.742635 20.6796014 184.368644 20.0355068 183.994653 19.3914123 183.807661 18.6362783 183.807661 17.7700822 183.807661 16.9038861 183.994653 16.1515283 184.368644 15.5129863 184.742635 14.8744443 185.270121 14.3830519 185.951119 14.0387945 186.632116 13.6945371 187.430323 13.522411 188.345763 13.522411 189.261202 13.522411 190.059409 13.6945371 190.740407 14.0387945 191.421405 14.3830519 191.948891 14.8744443 192.322881 15.5129863 192.696872 16.1515283 192.883864 16.9038861 192.883864 17.7700822 192.883864 18.6362783 192.696872 19.3914123 192.322881 20.0355068 191.948891 20.6796014 191.421405 21.1765462 190.740407 21.5263562 190.059409 21.8761661 189.261202 22.0510685 188.345763 22.0510685 187.441487 22.0510685 186.646071 21.8761661 185.959492 21.5263562zM189.93661 17.7700822C189.93661 16.3930525 189.406333 15.7045479 188.345763 15.7045479 187.285192 15.7045479 186.754915 16.3930525 186.754915 17.7700822 186.754915 19.1471119 187.285192 19.8356164 188.345763 19.8356164 189.406333 19.8356164 189.93661 19.1471119 189.93661 17.7700822zM206.891695 14.3886027C207.354997 14.9660668 207.586644 15.8544598 207.586644 17.0538082L207.586644 21.9178082 204.605898 21.9178082 204.605898 17.1370959C204.605898 16.6595775 204.533334 16.3153253 204.388203 16.1043288 204.243073 15.8933323 204.003053 15.7878356 203.668136 15.7878356 203.255071 15.7878356 202.939696 15.9321995 202.722 16.2209315 202.504304 16.5096635 202.395458 16.9205453 202.395458 17.453589L202.395458 21.9178082 199.414712 21.9178082 199.414712 17.1370959C199.414712 16.6595775 199.342148 16.3153253 199.197017 16.1043288 199.051886 15.8933323 198.811866 15.7878356 198.476949 15.7878356 198.063885 15.7878356 197.7513 15.9321995 197.539186 16.2209315 197.327072 16.5096635 197.221017 16.9205453 197.221017 17.453589L197.221017 21.9178082 194.240271 21.9178082 194.240271 13.7223014 197.137288 13.7223014 197.137288 14.7550685C197.684319 13.9332927 198.521599 13.522411 199.649153 13.522411 200.832526 13.522411 201.630732 14.0054746 202.043797 14.9716164 202.334058 14.5163082 202.716416 14.160951 203.190881 13.9055342 203.665347 13.6501174 204.187251 13.522411 204.75661 13.522411 205.716705 13.522411 206.428393 13.8111387 206.891695 14.3886027zM172.966102 21.9178082C172.114273 21.9178082 171.423729 21.2309026 171.423729 20.3835616 171.423729 19.5362207 172.114273 18.8493151 172.966102 18.8493151 173.817931 18.8493151 174.508475 19.5362207 174.508475 20.3835616 174.508475 21.2309026 173.817931 21.9178082 172.966102 21.9178082z"/>
</svg>
