<svg xmlns="http://www.w3.org/2000/svg" width="151" height="24" viewBox="0 0 151 24">
  <path fill="#FFF" d="M2.08243617 10.0765452L0 10.0765452 0 6.67278804 2.17471547 6.67278804 2.17471547 2 6.08735774 2 6.08735774 6.67606719 9.74776992 6.67606719 9.74776992 10.0765452 6.08735774 10.0765452 6.08735774 17.0053881C6.08735774 19.832015 8.16979391 20.2353504 9.27406952 20.2353504 9.5175903 20.2381323 9.76076608 20.2150646 10 20.1664882L10 23.8981604C9.5932776 23.9688396 9.18169031 24.0028445 8.76960935 23.999814 6.53029837 23.999814 2.08243617 23.2915177 2.08243617 17.5431686L2.08243617 10.0765452zM14.0153156 11.5192308C14.0431567 11.3198058 13.9767177 11.1187405 13.835921 10.9763267 13.6951243 10.8339129 13.496342 10.7667108 13.2991814 10.7948718L12 10.7948718 12 7.23076923 15.7707948 7.23076923C17.2347505 7.23076923 17.9889094 7.87179487 17.9889094 9.26923077L17.9889094 10.2564103C17.9908169 10.6079733 17.9685822 10.9592458 17.922366 11.3076923L17.9889094 11.3076923C18.7367309 8.90705128 20.7171904 7 23.2521785 7 23.5026349 7.00350299 23.7525326 7.02492398 24 7.06410256L24 11.1730769C23.6660567 11.1271019 23.3293627 11.104612 22.9923422 11.1057692 20.8693475 11.1046301 19.0134121 12.5537361 18.4768946 14.6314103 18.2353134 15.5198663 18.1148442 16.4375365 18.1188276 17.3589744L18.1188276 24 14.0153156 24 14.0153156 11.5192308zM35.1444769 12.8045977L35.6801157 12.8045977 35.6801157 12.6699507C35.6801157 10.2134647 34.7002887 9.30049261 32.5316048 9.30049261 31.7608076 9.30049261 30.2453418 9.50082102 30.2453418 10.4466338L30.2453418 11.3563218 26.2933728 11.3563218 26.2933728 9.53694581C26.2933728 6.33825944 30.7809805 6 32.5577336 6 38.2505286 6 39.9260328 8.99835796 39.9260328 12.8374384L39.9260328 19.2380952C39.90423 19.4402794 39.9744899 19.6415385 40.1171888 19.7856608 40.2598877 19.929783 40.4597312 20.0013215 40.6609031 19.9802956L42 19.9802956 42 23.592775 38.195005 23.592775C36.6207496 23.592775 36.016523 22.7159278 36.016523 21.7077176 36.016523 21.270936 36.0491839 20.9688013 36.0491839 20.9688013L35.9838621 20.9688013C35.9838621 20.9688013 34.677426 24 30.8267058 24 27.7794438 24 25.0000011 22.0788177 25.0000011 18.6436782 24.996735 13.2413793 32.3650342 12.8045977 35.1444769 12.8045977zM31.8620564 20.6502463C34.1483194 20.6502463 35.7487036 18.226601 35.7487036 16.137931L35.7487036 15.7241379 35.0105672 15.7241379C32.7994242 15.7241379 29.2818452 16.0262726 29.2818452 18.4170772 29.2818452 19.5730706 30.1212303 20.6502463 31.8620564 20.6502463zM43.2661938 11.2094001C43.1405977 10.8131102 42.7599246 10.5619621 42.3554228 10.6085212L42 10.6085212 42 7.00974398 44.3737166 7.00974398C45.7414598 7.00974398 46.3920105 7.44172717 46.814075 8.60775697L49.9398917 17.5267482C50.1999478 18.322326 50.4066995 19.1351269 50.5587082 19.9594956L50.62535 19.9594956C50.77636 19.1379631 50.9723632 18.3257665 51.2124323 17.5267482L54.338249 8.59801299C54.7603136 7.43198319 55.4457719 7 56.7786074 7L59 7 59 10.6085212 58.5969759 10.6085212C58.1924741 10.5619621 57.811801 10.8131102 57.686205 11.2094001L52.926078 24 48.0199739 24 43.2661938 11.2094001zM68.5406368 6C73.3676622 6 76 9.61709876 76 14.1614901 76 14.6678839 75.9002415 15.746437 75.9002415 15.746437L64.2832004 15.746437C64.6050021 18.7815117 66.7900356 20.3664586 69.332269 20.3664586 72.0386212 20.3664586 74.0498818 18.4428197 74.0498818 18.4428197L75.800483 21.4022642C73.9312618 23.0778862 71.5292118 24.0012423 69.0426474 23.9999987 63.4658241 23.9999987 60.0000199 19.886371 60.0000199 14.9934228 59.9903659 9.70917037 63.4883503 6 68.5406368 6zM71.7071654 12.7771278C71.6428051 10.7186697 70.2558398 9.30471296 68.5406368 9.30471296 66.3942195 9.30471296 64.8753155 10.6200216 64.4151391 12.7771278L71.7071654 12.7771278zM79.9843994 4.38907943C80.0115854 4.18486166 79.9465471 3.97899706 79.808672 3.83285234 79.6707969 3.68670762 79.4760083 3.61716123 79.2823713 3.64494444L78 3.64494444 78 0 81.8720749 0C83.375975 0 84.0561622.711208671 84.0561622 2.30484291L84.0561622 19.6207985C84.0327679 19.8241036 84.0976724 20.0276787 84.2327631 20.1747134 84.3678538 20.3217481 84.5586657 20.3964983 84.7519501 20.378104L86 20.378104 86 24 82.1591264 24C80.624025 24 79.975039 23.3250103 79.975039 21.6951571L79.9843994 4.38907943zM94.7468174 6.2462203C98.4587367 6.2462203 99.6655998 8.30669546 99.6655998 8.30669546L99.7340974 8.30669546C99.7340974 8.30669546 99.7014795 7.87580994 99.7014795 7.30885529L99.7014795 4.31857451C99.7301383 4.11699591 99.6617482 3.91375927 99.5168166 3.76980755 99.3718851 3.62585583 99.1672651 3.55792802 98.9643145 3.58639309L97.6269798 3.58639309 97.6269798 0 101.674864 0C103.247047 0 103.958118.699784017 103.958118 2.26781857L103.958118 19.3056156C103.936168 19.5056944 104.006748 19.7048663 104.150032 19.8471809 104.293315 19.9894954 104.493842 20.0595985 104.695283 20.037797L106 20.037797 106 23.6015119 102.08585 23.6015119C100.546284 23.6015119 99.9787318 22.8693305 99.9787318 21.87473L99.9787318 21.2429806 99.913496 21.2429806C99.913496 21.2429806 98.5076636 24 94.5935131 24 89.9780774 24 87.0000612 20.3779698 87.0000612 15.1263499 86.9837522 9.73542117 90.2292353 6.2462203 94.7468174 6.2462203zM99.7993333 15.0842333C99.7993333 12.4600432 98.4261188 9.86825054 95.5850979 9.86825054 93.2431312 9.86825054 91.3023649 11.7602592 91.3023649 15.1166307 91.3023649 18.3401728 93.0082822 20.4330454 95.5166003 20.4330454 97.7117863 20.4330454 99.7960715 18.8423326 99.7960715 15.0842333L99.7993333 15.0842333zM116.537642 6C121.366605 6 124 9.61709862 124 14.1614898 124 14.6678836 123.900201 15.7464367 123.900201 15.7464367L112.278497 15.7464367C112.600428 18.7815112 114.789558 20.3664581 117.332812 20.3664581 120.04025 20.3664581 122.055538 18.4428193 122.055538 18.4428193L123.806841 21.4022636C121.937024 23.0781479 119.533909 24.0015425 117.046293 23.9999981 111.467231 23.9999981 108.000035 19.8863704 108.000035 14.9934225 107.987158 9.70917023 111.486547 6 116.537642 6zM119.705442 12.7771275C119.641056 10.7186696 118.253534 9.30471283 116.537642 9.30471283 114.390363 9.30471283 112.874069 10.6200214 112.410488 12.7771275L119.705442 12.7771275zM136.145161 12.8045977L136.680492 12.8045977 136.680492 12.6699507C136.680492 10.2134647 135.701229 9.30049261 133.533794 9.30049261 132.763441 9.30049261 131.248848 9.50082102 131.248848 10.4466338L131.248848 11.3563218 127.299155 11.3563218 127.299155 9.53694581C127.299155 6.33825944 131.784178 6 133.559908 6 139.249424 6 140.923963 8.99835796 140.923963 12.8374384L140.923963 19.2380952C140.901997 19.4409119 140.972629 19.6428092 141.116019 19.7870712 141.259408 19.9313331 141.460084 20.0023954 141.661674 19.9802956L143 19.9802956 143 23.592775 139.190668 23.592775C137.61732 23.592775 137.016705 22.7159278 137.016705 21.7077176 137.016705 21.270936 137.049347 20.9688013 137.049347 20.9688013L136.980799 20.9688013C136.980799 20.9688013 135.675115 24 131.826613 24 128.781106 24 126 22.0788177 126 18.6436782 126 13.2413793 133.364055 12.8045977 136.145161 12.8045977zM132.864631 20.6502463C135.149578 20.6502463 136.745776 18.226601 136.745776 16.137931L136.745776 15.7241379 136.011329 15.7241379C133.801459 15.7241379 130.285906 16.0262726 130.285906 18.4170772 130.285906 19.5730706 131.121544 20.6502463 132.864631 20.6502463zM144.982853 4.39148936C145.010245 4.1865073 144.944877 3.97983921 144.806348 3.83345701 144.667819 3.68707481 144.472239 3.61800011 144.278254 3.64694578L143 3.64694578 143 0 146.869057 0C148.371785 0 149.051442.711599176 149.051442 2.30610844L149.051442 19.6315717C149.03063 19.8343942 149.097697 20.0362887 149.233913 20.180866 149.370128 20.3254433 149.560891 20.3972077 149.752923 20.3761153L151 20.3761153 151 24 147.155885 24C145.62198 24 144.9735 23.3246397 144.9735 21.6938916L144.982853 4.39148936z"/>
</svg>
