<svg xmlns="http://www.w3.org/2000/svg" width="32" height="32" viewBox="0 0 32 32">
  <g fill="none" fill-rule="evenodd">
    <rect width="32" height="32" fill="#FFF"/>
    <path fill="#0077B5" d="M9.87521974,9 C8.74066104,9 8,9.72764388 8,10.6837324 C8,11.6172942 8.71803658,12.3647212 9.83127608,12.3647212 L9.85245025,12.3647212 C11.0096334,12.3647212 11.72767,11.6172942 11.72767,10.6837324 C11.7078011,9.72764388 11.0096334,9 9.87521974,9 L9.87521974,9 Z M8.19549855,23.4373556 L11.509692,23.4373556 L11.509692,13.6959672 L8.19549855,13.6959672 L8.19549855,23.4373556 L8.19549855,23.4373556 Z M19.6504371,13.4675226 C17.889935,13.4675226 17.1025748,14.4123477 16.6621229,15.0765989 L16.6621229,15.1090895 L16.6393534,15.1090895 C16.6464598,15.0989813 16.6550165,15.0862739 16.6621229,15.0764545 L16.6621229,13.6959672 L13.3464792,13.6959672 C13.3904228,14.6097459 13.3464792,23.4375 13.3464792,23.4375 L16.6619779,23.4375 L16.6619779,17.9969938 C16.6619779,17.7064561 16.6818468,17.4146188 16.7724897,17.2072569 C17.0104816,16.6234378 17.5570944,16.0227237 18.4720798,16.0227237 C19.6716113,16.0227237 20.151801,16.9167192 20.151801,18.2268825 L20.151801,23.4373556 L23.46875,23.4373556 L23.46875,17.851725 C23.46875,14.8592733 21.8315222,13.4675226 19.6504371,13.4675226 L19.6504371,13.4675226 Z"/>
  </g>
</svg>
