<svg xmlns="http://www.w3.org/2000/svg" width="32" height="32" viewBox="0 0 32 32">
  <g fill="none" fill-rule="evenodd">
    <rect width="32" height="32" fill="#FFF"/>
    <path fill="#1DA1F2" d="M24.5,10.5932481 C23.8883495,10.8659663 23.2330097,11.0382093 22.5485437,11.1243308 C23.2475728,10.7080768 23.7864078,10.0334582 24.0485437,9.25836456 C23.3932039,9.6459114 22.6650485,9.91862955 21.8932039,10.076519 C21.2815534,9.41625401 20.3932039,9 19.4174757,9 C17.5533981,9 16.038835,10.5214802 16.038835,12.3874465 C16.038835,12.645811 16.0679612,12.9041756 16.1262136,13.1625401 C13.315534,13.0190043 10.8106796,11.6697671 9.15048544,9.61720423 C8.8592233,10.1195798 8.68446602,10.7080768 8.68446602,11.325281 C8.68446602,12.5022752 9.2815534,13.5357334 10.1990291,14.138584 C9.64563107,14.1242305 9.12135922,13.966341 8.65533981,13.72233 L8.65533981,13.7510372 C8.65533981,15.4016997 9.82038835,16.7652904 11.3786408,17.0810693 C11.0873786,17.1528373 10.7961165,17.195898 10.4902913,17.195898 C10.2718447,17.195898 10.0533981,17.1671908 9.84951456,17.1384837 C10.2718447,18.4733672 11.5242718,19.4494111 13.0097087,19.4781183 C11.8446602,20.3823943 10.3883495,20.9278306 8.80097087,20.9278306 C8.53883495,20.9278306 8.26213592,20.913477 8,20.8847698 C9.5,21.8464601 11.276699,22.40625 13.184466,22.40625 C19.4174757,22.40625 22.8252427,17.2533124 22.8252427,12.7749933 C22.8252427,12.6314574 22.8106796,12.4879216 22.8106796,12.3443857 C23.4660194,11.8707173 24.0485437,11.2678667 24.5,10.5932481 L24.5,10.5932481 L24.5,10.5932481 Z"/>
  </g>
</svg>
