<svg xmlns="http://www.w3.org/2000/svg" xmlns:xlink="http://www.w3.org/1999/xlink" width="128" height="60" viewBox="0 0 128 60">
  <defs>
    <polygon id="amberscript-a" points="10.988 .034 .002 .034 .002 17.996 10.988 17.996"/>
    <polygon id="amberscript-c" points="40.972 32.119 0 32.119 0 16.1 0 .08 40.972 .08"/>
  </defs>
  <g fill="none" fill-rule="evenodd" transform="translate(4 7)">
    <path fill="#62C8D5" d="M59.0389776 11.3143066L57.1319804 6.19108182C56.8844762 5.57315184 56.694505 4.99570565 56.5624404 4.45892728 56.4301891 4.93093157 56.2407782 5.50800972 55.9929004 6.19108182L54.061433 11.3143066 59.0389776 11.3143066zM61.3419815 17.681672L59.9798674 13.9488818 53.1201696 13.9488818 51.7582422 17.681672 48.6133501 17.681672 55.0766675.604501608 58.0235562.604501608 64.4622166 17.681672 61.3419815 17.681672zM81.2363233 17.681672L81.2363233 10.4851683C81.2363233 8.53671728 80.5212679 7.56221389 79.0913432 7.56221389 78.3515538 7.56221389 77.7722566 7.81232408 77.3530798 8.31143285 76.933903 8.81091215 76.7243147 9.55160884 76.7243147 10.534264L76.7243147 17.681672 73.8399171 17.681672 73.8399171 10.4851683C73.8399171 8.53671728 73.1248617 7.56221389 71.694751 7.56221389 70.9553336 7.56221389 70.3760364 7.81232408 69.9568596 8.31143285 69.5376828 8.81091215 69.3280944 9.55160884 69.3280944 10.534264L69.3280944 17.681672 66.4433249 17.681672 66.4433249 5.13058708 69.3280944 5.13058708 69.3280944 6.28498454C70.0511465 5.31900342 71.0784458 4.83601286 72.4099923 4.83601286 73.9548467 4.83601286 75.0561621 5.42553183 75.7135667 6.60438451 76.5188176 5.42553183 77.7845307 4.83601286 79.51052 4.83601286 80.9237074 4.83601286 82.0456655 5.22507315 82.8756504 6.00263793 83.7054494 6.78057324 84.1209068 8.00444575 84.1209068 9.674626L84.1209068 17.681672 81.2363233 17.681672z"/>
    <g transform="translate(86.864)">
      <mask id="amberscript-b" fill="#fff">
        <use xlink:href="#amberscript-a"/>
      </mask>
      <path fill="#62C8D5" d="M5.34668652,15.2554169 C6.23726499,15.2554169 6.91770278,14.9168737 7.38799988,14.2397871 C7.85792373,13.5630698 8.09307228,12.6288454 8.09307228,11.4376678 C8.09307228,10.1983115 7.85381796,9.25190397 7.37549595,8.59881449 C6.89698731,7.94664798 6.22084192,7.62010325 5.34668652,7.62010325 C4.25809804,7.62010325 3.44161002,8.02823802 2.89722246,8.84376919 L2.89722246,14.0563018 C3.42481369,14.855958 4.24130171,15.2554169 5.34668652,15.2554169 M5.69287744,17.9962515 C4.50537727,17.9962515 3.57336786,17.5801792 2.89722246,16.7484038 L2.89722246,17.7027488 L0.00246916904,17.7027488 L0.00246916904,1.33084055 L2.89722246,0.0337066528 L2.89722246,6.12748553 C3.606214,5.31176977 4.55501974,4.90381959 5.74251991,4.90381959 C7.3094304,4.90381959 8.57550005,5.49119401 9.54035561,6.66575826 C10.5053978,7.84032251 10.9878256,9.43095902 10.9878256,11.4376678 C10.9878256,13.5263358 10.5177151,15.1415232 9.57749415,16.2832299 C8.63727321,17.4254904 7.34208993,17.9962515 5.69287744,17.9962515" mask="url(#amberscript-b)"/>
    </g>
    <path fill="#62C8D5" d="M102.539529 10.1197576L108.092171 10.1197576C108.026382 9.21883489 107.748027 8.53443025 107.256736 8.06784128 106.765445 7.60069618 106.167223 7.36712363 105.463182 7.36712363 104.64387 7.36712363 103.968368 7.59272506 103.436307 8.0431864 102.903874 8.49383312 102.604948 9.18583814 102.539529 10.1197576M105.463182 17.9839228C103.677782 17.9839228 102.265066 17.3985085 101.225035 16.2267528 100.184818 15.0555533 99.6649874 13.4457565 99.6649874 11.3977331 99.6649874 9.36639342 100.188895 7.76475309 101.237451 6.59318285 102.285452 5.42179798 103.694276 4.83601286 105.463182 4.83601286 107.068448 4.83601286 108.382572 5.33596934 109.406666 6.33495542 110.430019 7.334683 110.942065 8.80118493 110.942065 10.7340905 110.942065 11.406075 110.909078 11.9959383 110.843844 12.5034952L102.514882 12.5034952C102.564177 13.3882903 102.871257 14.1012427 103.436307 14.6417963 104.001541 15.1823499 104.677043 15.4528121 105.463182 15.4528121 106.576787 15.4528121 107.461518 15.0186637 108.116819 14.1501817L109.934651 16.0178352C108.837169 17.3289928 107.346432 17.9839228 105.463182 17.9839228M113.22796 17.681672L113.22796 5.13058708 116.096541 5.13058708 116.096541 6.43245692C116.602902 5.36828439 117.461202 4.83601286 118.670885 4.83601286 119.553411 4.83601286 120.329598 5.12262061 121 5.69565084L120.583149 8.32366046C119.96194 7.88161386 119.250852 7.66059056 118.450068 7.66059056 117.79631 7.66059056 117.240385 7.88995087 116.783032 8.34811568 116.325125 8.80702155 116.096541 9.57624932 116.096541 10.6570959L116.096541 17.681672 113.22796 17.681672z"/>
    <path fill="#6D6D6D" d="M53.9767211 38.2347267C52.9954457 38.2347267 52.1612783 38.1406819 51.4747741 37.9535144 50.7877147 37.7661625 50.067718 37.485319 49.3158941 37.1098776L49.070529 33.1985376 49.4874276 33.1985376 50.7631042 36.0101071C51.3517214 36.4663164 51.9160982 36.7882814 52.4558645 36.9756333 52.9954457 37.1631696 53.5433538 37.2564768 54.0994037 37.2564768 56.2251613 37.2564768 57.2885952 36.2463254 57.2885952 34.2254695 57.2885952 33.1172166 56.9120356 32.3349855 56.1600266 31.878223 55.4074626 31.4223825 54.385478 30.8760009 53.0937028 30.2405533 51.9814179 29.6701995 51.127081 29.0913633 50.5299518 28.5045977 49.9328227 27.9180166 49.6347207 27.0788054 49.6347207 25.9867798 49.6347207 24.9109815 50.121195 23.9130007 51.0943286 22.9920996 52.0670921 22.0715674 53.1588374 21.6109325 54.3691943 21.6109325 55.1213883 21.6109325 55.8043767 21.7005516 56.4176045 21.8796054 57.0310173 22.0592125 57.6645996 22.3116581 58.3189066 22.63768L58.5640867 26.4514716 58.147003 26.4514716 57.0678406 23.7621602C56.1356011 22.9963409 55.1950348 22.6131546 54.2466968 22.6131546 53.3960607 22.6131546 52.7256551 22.869657 52.2351099 23.3832152 51.7443796 23.8964045 51.4990145 24.5364621 51.4990145 25.3020971 51.4990145 26.1662025 51.7688051 26.8425871 52.3085714 27.3312511 52.8483376 27.8202838 53.682505 28.3419556 54.8108885 28.8957133 56.2988078 29.6132195 57.3905531 30.2892353 58.0859393 30.9248673 58.7807704 31.5606836 59.1284635 32.50611 59.1284635 33.7607778 59.1284635 35.1625979 58.5640867 36.2584959 57.4357032 37.0486563 56.3073197 37.8395543 55.1541406 38.2347267 53.9767211 38.2347267M66.7992554 38.2347267C65.1458715 38.2347267 63.8606128 37.7379684 62.9431053 36.7438989 62.0254108 35.750198 61.5667506 34.4553086 61.5667506 32.8583091 61.5667506 31.0830665 62.1036 29.6208092 63.1787953 28.4719059 64.2532424 27.3235556 65.5923731 26.7491961 67.1960003 26.7491961 67.8570546 26.7491961 68.4812589 26.8511284 69.0682392 27.0549928 69.6550325 27.2586729 70.1056493 27.5067756 70.4199026 27.8002224 70.7833515 28.1587362 70.9653566 28.4355937 70.9653566 28.6309792 70.9653566 28.8103282 70.882491 28.965162 70.7173209 29.0951117L69.8740745 29.7795138 69.7255524 29.7795138 69.1054633 28.9485727C68.8078579 28.5576175 68.4606828 28.2361531 68.063938 27.9834423 67.6671932 27.7311002 67.1793523 27.6046526 66.6007895 27.6046526 65.5923731 27.6046526 64.7781203 27.991737 64.1582182 28.7653527 63.5383161 29.5393371 63.228178 30.6430806 63.228178 32.0763987 63.228178 33.3637307 63.5712379 34.4589952 64.2573576 35.363298 64.9431032 36.2672321 66.046918 36.7193835 67.5680537 36.7193835 68.79121 36.7193835 69.9154138 36.3612383 70.9406652 35.644395L71.0151134 35.644395 71.0151134 35.9129578C70.6344553 36.5649184 70.0809579 37.1147626 69.3534989 37.5626745 68.6258529 38.0104021 67.7745631 38.2347267 66.7992554 38.2347267M72.5883903 38.0836013L72.5883903 37.689395 74.1378265 37.0732736 74.1378265 28.8927042 72.5390428 28.055225 72.5390428 27.7840572 75.4167792 26.7491961 75.6136125 26.7491961 75.7855866 28.8927042 75.8594223 28.8927042C76.5972226 27.9238229 77.1752929 27.3244287 77.5934477 27.093964 78.011417 26.8642427 78.4334677 26.7491961 78.8601563 26.7491961 79.1549425 26.7491961 79.4335887 26.8148043 79.696095 26.9462063 80.105716 27.1274185 80.3110831 27.3156934 80.3110831 27.5128894 80.3110831 27.6610188 80.2864094 27.7840572 80.2372474 27.8823765L79.8437663 28.8683567 79.7207687 28.8683567 78.9829684 28.5477505C78.6878112 28.4330757 78.359632 28.3754595 77.9991729 28.3754595 77.1628632 28.3754595 76.4332257 28.8352739 75.8102603 29.7550884L75.8102603 37.0732736 77.6056918 37.689395 77.6056918 38.0836013 72.5883903 38.0836013zM83.6078009 23.5020226C83.2482778 23.5020226 82.9499384 23.3837298 82.7131523 23.1473286 82.4763661 22.9109274 82.3578806 22.6132576 82.3578806 22.2541345 82.3578806 21.422209 82.7745207 21.0064309 83.6078009 21.0064309 84.441081 21.0064309 84.8577211 21.422209 84.8577211 22.2541345 84.8577211 23.0860599 84.441081 23.5020226 83.6078009 23.5020226L83.6078009 23.5020226zM81.4268176 38.0836013L81.4268176 37.692183 82.970641 37.0804188 82.970641 28.957704 81.3778338 28.0036103 81.3778338 27.7587201 84.441081 26.8291708 84.6370165 26.8291708 84.6370165 37.0804188 86.2544081 37.692183 86.2544081 38.0836013 81.4268176 38.0836013zM94.1207794 28.0982543C93.1269042 28.0982543 92.2158675 28.4091057 91.3876694 29.0306235L91.3876694 36.2912246C92.2983312 36.9782433 93.366986 37.3216601 94.5930715 37.3216601 95.4707479 37.3216601 96.2367233 36.9619606 96.8911854 36.2425616 97.5452726 35.5229776 97.872691 34.3130624 97.872691 32.612076 97.872691 31.0420913 97.4957944 29.897677 96.742001 29.1777229 95.9882077 28.4581388 95.1146546 28.0982543 94.1207794 28.0982543L94.1207794 28.0982543zM88.1327891 43.6752412L88.1327891 43.2826062 89.6981003 42.6694148 89.6981003 28.8831542 88.0831234 28.0494062 88.0831234 27.7794466 90.9901568 26.7491961 91.1888194 26.7491961 91.3380038 28.2457237 91.4870007 28.2457237C92.6797259 27.2482237 93.9219294 26.7491961 95.2139858 26.7491961 96.4563767 26.7491961 97.4832374 27.2154733 98.2949427 28.1474725 99.1064607 29.0794716 99.5125945 30.3550726 99.5125945 31.9740905 99.5125945 33.9855582 98.9574637 35.5396303 97.8479519 36.6350115 96.7378778 37.7307628 95.3961557 38.2786384 93.8225981 38.2786384 92.9942125 38.2786384 92.1826946 38.1474517 91.3876694 37.8856334L91.3876694 42.6694148 93.1518307 43.2826062 93.1518307 43.6752412 88.1327891 43.6752412zM104.871023 38.2347267C104.162484 38.2347267 103.565045 38.0231415 103.07945 37.6005232 102.59311 37.1779048 102.350406 36.5841784 102.350406 35.819896L102.350406 28.0388977 100.274559 28.0388977 100.274559 27.8436874 102.473995 27.0144575 103.8331 24.3311897 104.030693 24.3311897 104.030693 27.0144575 107.292845 27.0144575 107.292845 28.0388977 104.030693 28.0388977 104.030693 35.5514589C104.030693 36.0068269 104.203867 36.3442593 104.549655 36.5637559 104.895816 36.7832525 105.332198 36.8929088 105.859548 36.8929088 106.468732 36.8929088 107.029076 36.7955796 107.540022 36.6003693L107.589421 36.6248396 107.589421 36.7955796C107.424449 37.1206848 107.11557 37.4419263 106.662597 37.7589361 106.209437 38.0759458 105.612557 38.2347267 104.871023 38.2347267"/>
    <path fill="#62C8D5" d="M33.070738,0.604501608 L7.9227784,0.604501608 C3.5470733,0.604501608 0,4.11449671 0,8.44423434 L0,21.4188814 L1.14074295,20.0994757 C1.43869263,19.7548741 1.89800844,19.5909625 2.34949817,19.6689542 C2.80117424,19.7465771 3.1777573,20.0539345 3.34080044,20.4778184 L5.0787471,24.996543 L5.39905699,24.2291637 C5.55483306,23.8559836 5.87886965,23.5770204 6.27371354,23.4757971 C6.6689301,23.3747582 7.08874288,23.4632595 7.4081211,23.7147504 L9.06203067,25.0182996 L11.6081123,8.8417523 C11.7007208,8.25377234 12.1892912,7.80573494 12.7885446,7.75871867 C13.3879843,7.71207115 13.941772,8.07806055 14.1266163,8.64428396 C14.2639452,9.06466474 16.9954302,17.4695146 17.791267,22.8944548 C17.9768567,22.7882533 18.1892786,22.7274087 18.4115763,22.7226149 C18.4212657,22.7222462 18.4311414,22.7222462 18.4408309,22.7222462 C18.9090907,22.7222462 19.341947,22.9718933 19.5722571,23.3769708 L19.9855481,24.103787 L20.8251737,22.8387728 C21.0633098,22.4801585 21.4667251,22.2627773 21.9003267,22.2592742 L21.9103888,22.2592742 C22.3402637,22.2592742 22.742561,22.4698333 22.9844238,22.8219944 L24.5731161,25.1353793 L27.745097,21.4732727 C28.0231089,21.1520871 28.4429217,20.9872536 28.8672065,21.0315042 C29.2920503,21.0759392 29.6675154,21.3241113 29.8715522,21.6954477 C30.3388804,22.5454281 31.5733499,24.875407 32.1519201,26.7638017 C32.5570124,26.3843527 33.0133469,25.9228558 33.4283149,25.4644932 C33.690302,25.1748361 34.0717297,25.019959 34.4634059,25.0385811 C34.8558275,25.0592314 35.2176901,25.2541184 35.4478138,25.5692197 L36.9489287,27.6250292 L40.9937028,27.9581994 L40.9937028,8.44423434 C40.9937028,4.11449671 37.4462568,0.604501608 33.070738,0.604501608"/>
    <g transform="translate(0 14.81)">
      <mask id="amberscript-d" fill="#fff">
        <use xlink:href="#amberscript-c"/>
      </mask>
      <path fill="#6D6D6D" d="M35.1835572,14.8427781 L34.2454532,13.5563506 C34.1497055,13.6501238 34.0509773,13.7451891 33.9505726,13.8398852 C32.6695279,15.047307 31.7383163,15.6662468 30.7672408,15.2575582 C30.5319696,15.1584319 29.7710175,14.747159 29.8552159,13.6183738 C29.8881874,13.142678 29.2868769,11.5612712 28.4480599,9.82868276 L25.4320071,13.3158261 C25.168794,13.6200351 24.7759304,13.7861687 24.3741253,13.76291 C23.9702711,13.7405743 23.6001336,13.5330919 23.3728725,13.2015632 L21.9224996,11.0863138 L20.9789935,12.5098938 C20.7303103,12.8853556 20.3001907,13.1072362 19.8495804,13.0893307 C19.3967347,13.0740095 18.9850568,12.8257321 18.7628253,12.4345799 L18.4973768,11.9668216 L17.8629086,13.2120849 C17.5922443,13.7435277 16.9888847,14.0218937 16.4045257,13.8838183 C15.8199803,13.7464812 15.4069985,13.2294367 15.4062534,12.6341248 L15.4034592,10.7808126 C15.4034592,10.7693679 15.4036454,10.7577385 15.4038317,10.7462938 C15.4636275,8.41913182 14.3234101,3.78308261 13.2845288,0.0803348046 L11.2809056,12.830347 C11.2095605,13.2831532 10.9007089,13.6641528 10.4698443,13.8308402 C10.0389796,13.9971583 9.55129961,13.9240595 9.18954465,13.6384944 L7.13823382,12.0194306 L6.2276992,14.2040869 C6.0268898,14.6856896 5.55299453,14.9993128 5.02805865,14.9993128 L5.00980325,14.9993128 C4.47778874,14.9919291 4.00407975,14.6633539 3.81481969,14.170491 L1.69141866,8.6413816 L0,10.6002808 L0,15.3917572 C0,19.7265509 3.54620452,23.2404602 7.92060809,23.2404602 L10.4137741,23.2404602 L10.4137741,32.1191913 L19.373636,23.2404602 L33.0609013,23.2404602 C37.306772,23.2404602 40.7719449,19.9297876 40.9718229,15.7710955 L36.1278085,15.3712674 C35.7502197,15.3400712 35.40523,15.1469871 35.1835572,14.8427781" mask="url(#amberscript-d)"/>
    </g>
  </g>
</svg>
