<?xml version="1.0" encoding="UTF-8"?>
<svg width="209px" height="60px" viewBox="0 0 209 60" version="1.1" xmlns="http://www.w3.org/2000/svg" xmlns:xlink="http://www.w3.org/1999/xlink">
    <!-- Generator: Sketch 46.2 (44496) - http://www.bohemiancoding.com/sketch -->
    <title>venture-logos/consulto</title>
    <desc>Created with Sketch.</desc>
    <defs>
        <path d="M23.3224368,15.4093846 C23.3224368,12.7767692 22.6020802,10.6735385 21.161367,9.09969231 C19.7206538,7.52584615 17.794948,6.73892308 15.3842496,6.73892308 C12.9735513,6.73892308 11.0478455,7.52584615 9.60713224,9.09969231 C8.16641902,10.6735385 7.44606241,12.7767692 7.44606241,15.4093846 C7.44606241,18.042 8.16641902,20.1452308 9.60713224,21.7190769 C11.0478455,23.2929231 12.9735513,24.0798462 15.3842496,24.0798462 C17.794948,24.0798462 19.7206538,23.2929231 21.161367,21.7190769 C22.6020802,20.1452308 23.3224368,18.042 23.3224368,15.4093846 Z M0,15.4093846 C0,10.9453846 1.49063893,7.26115385 4.47191679,4.35669231 C7.45319465,1.45223077 11.1049034,0 15.4270431,0 C19.7491828,0 23.386627,1.45223077 26.3393759,4.35669231 C29.2921248,7.26115385 30.7684993,10.9453846 30.7684993,15.4093846 C30.7684993,19.8733846 29.2849926,23.5647692 26.3179792,26.4835385 C23.3509658,29.4023077 19.7135215,30.8616923 15.4056464,30.8616923 C11.0977712,30.8616923 7.45319465,29.4023077 4.47191679,26.4835385 C1.49063893,23.5647692 0,19.8733846 0,15.4093846 Z M54.4677563,0.343384615 L61.7854383,0.343384615 L61.7854383,30.5612308 L54.4677563,30.5612308 L42.2288262,11.5463077 L42.2288262,30.5612308 L34.9111441,30.5612308 L34.9111441,0.343384615 L42.2288262,0.343384615 L54.4677563,19.3583077 L54.4677563,0.343384615 Z M75.5780089,6.52430769 C74.9931649,7.01076923 74.7007429,7.71184615 74.7007429,8.62753846 C74.7007429,9.54323077 74.9717682,10.2800769 75.5138187,10.8380769 C76.0558692,11.3960769 76.7619614,11.8253077 77.6320951,12.1257692 C78.5022288,12.4262308 79.472214,12.7123846 80.5420505,12.9842308 C81.6118871,13.2560769 82.6745914,13.5851538 83.7301634,13.9714615 C84.7857355,14.3577692 85.7485884,14.8370769 86.6187221,15.4093846 C87.4888559,15.9816923 88.194948,16.7900769 88.7369985,17.8345385 C89.279049,18.879 89.5500743,20.1309231 89.5500743,21.5903077 C89.5500743,24.1370769 88.515899,26.319 86.4475483,28.1360769 C84.3791976,29.9531538 81.6546805,30.8616923 78.273997,30.8616923 C74.8933135,30.8616923 72.1687964,30.0461538 70.1004458,28.4150769 C68.0320951,26.784 66.9979198,24.4661538 66.9979198,21.4615385 L74.7863299,21.4615385 C74.9860327,23.8652308 76.2127786,25.0670769 78.4665676,25.0670769 C79.5221397,25.0670769 80.3494799,24.7880769 80.9485884,24.2300769 C81.5476969,23.6720769 81.8472511,22.9638462 81.8472511,22.1053846 C81.8472511,21.2469231 81.5762259,20.5458462 81.0341753,20.0021538 C80.4921248,19.4584615 79.7860327,19.0292308 78.915899,18.7144615 C78.0457652,18.3996923 77.0757801,18.1063846 76.0059435,17.8345385 C74.936107,17.5626923 73.8734027,17.2264615 72.8178306,16.8258462 C71.7622585,16.4252308 70.7994056,15.9459231 69.9292719,15.3879231 C69.0591382,14.8299231 68.3530461,14.0286923 67.8109955,12.9842308 C67.268945,11.9397692 66.9979198,10.7021538 66.9979198,9.27138462 C66.9979198,6.46707692 68.0392273,4.22076923 70.1218425,2.53246154 C72.2044577,0.844153846 74.8647845,0 78.1028232,0 C81.3408618,0 83.9583952,0.736846154 85.9554235,2.21053846 C87.9524517,3.68423077 88.9937593,6.00923077 89.0793462,9.18553846 L81.1197623,9.18553846 C81.0056464,8.09815385 80.6561664,7.26115385 80.0713224,6.67453846 C79.4864785,6.08792308 78.7375929,5.79461538 77.8246657,5.79461538 C76.9117385,5.79461538 76.1628529,6.03784615 75.5780089,6.52430769 Z M94.6341753,18.414 L94.6341753,0.429230769 L101.951857,0.429230769 L101.951857,18.414 C101.951857,20.2167692 102.394056,21.6046154 103.278455,22.5775385 C104.162853,23.5504615 105.460921,24.0369231 107.17266,24.0369231 C108.884398,24.0369231 110.196731,23.5504615 111.109658,22.5775385 C112.022585,21.6046154 112.479049,20.2167692 112.479049,18.414 L112.479049,0.429230769 L119.796731,0.429230769 L119.796731,18.414 C119.796731,21.0752308 119.176226,23.3716154 117.935215,25.3031538 C116.694205,27.2346923 115.125111,28.644 113.227935,29.5310769 C111.330758,30.4181538 109.269539,30.8616923 107.044279,30.8616923 C103.563744,30.8616923 100.62526,29.7743077 98.2288262,27.5995385 C95.8323923,25.4247692 94.6341753,22.3629231 94.6341753,18.414 Z M125.479941,0.429230769 L132.797623,0.429230769 L132.797623,24.9812308 L141.91263,24.9812308 L141.91263,30.5612308 L125.479941,30.5612308 L125.479941,0.429230769 Z M143.359287,6.00923077 L143.359287,0.429230769 L167.066865,0.429230769 L167.066865,6.00923077 L158.85052,6.00923077 L158.85052,30.5612308 L151.532838,30.5612308 L151.532838,6.00923077 L143.359287,6.00923077 Z M192.435067,15.4093846 C192.435067,12.7767692 191.71471,10.6735385 190.273997,9.09969231 C188.833284,7.52584615 186.907578,6.73892308 184.49688,6.73892308 C182.086181,6.73892308 180.160475,7.52584615 178.719762,9.09969231 C177.279049,10.6735385 176.558692,12.7767692 176.558692,15.4093846 C176.558692,18.042 177.279049,20.1452308 178.719762,21.7190769 C180.160475,23.2929231 182.086181,24.0798462 184.49688,24.0798462 C186.907578,24.0798462 188.833284,23.2929231 190.273997,21.7190769 C191.71471,20.1452308 192.435067,18.042 192.435067,15.4093846 Z M169.11263,15.4093846 C169.11263,10.9453846 170.603269,7.26115385 173.584547,4.35669231 C176.565825,1.45223077 180.217533,0 184.539673,0 C188.861813,0 192.499257,1.45223077 195.452006,4.35669231 C198.404755,7.26115385 199.881129,10.9453846 199.881129,15.4093846 C199.881129,19.8733846 198.397623,23.5647692 195.430609,26.4835385 C192.463596,29.4023077 188.826152,30.8616923 184.518276,30.8616923 C180.210401,30.8616923 176.565825,29.4023077 173.584547,26.4835385 C170.603269,23.5647692 169.11263,19.8733846 169.11263,15.4093846 Z" id="path-1"></path>
        <path d="M22.3145164,30.5800982 C20.39677,31.3794643 18.2894272,31.8214286 16.0778216,31.8214286 C7.19834742,31.8214286 0,24.6979955 0,15.9107143 C0,7.12343304 7.19834742,0 16.0778216,0 C23.8288826,0 30.2990423,5.42791071 31.818216,12.6524063 L23.9248826,14.0283884 C23.0108545,10.6165714 19.8440563,8.10002679 16.0778216,8.10002679 C11.5973709,8.10002679 7.96514554,11.6616696 7.96514554,16.0553839 C7.96514554,18.1606071 8.79909859,20.0749018 10.1608263,21.4978795 L9.63665728,25.7744732 L13.4022911,23.5678929 C14.24,23.8547277 15.1403568,24.0107411 16.0778216,24.0107411 C19.977615,24.0107411 23.2347042,21.3124018 24.0135211,17.7158438 L31.8695962,18.9141563 C31.1118122,22.839683 28.8966009,26.2531205 25.8023662,28.5822723 L26.2613333,32.9544777 L22.3146667,30.5800982 L22.3145164,30.5800982 Z" id="path-3"></path>
        <path d="M20.3650633,13.3855714 C20.3650633,11.0987143 19.7360506,9.27171429 18.4780253,7.90457143 C17.22,6.53742857 15.538481,5.85385714 13.4334684,5.85385714 C11.3284557,5.85385714 9.64693671,6.53742857 8.38891139,7.90457143 C7.13088608,9.27171429 6.50187342,11.0987143 6.50187342,13.3855714 C6.50187342,15.6724286 7.13088608,17.4994286 8.38891139,18.8665714 C9.64693671,20.2337143 11.3284557,20.9172857 13.4334684,20.9172857 C15.538481,20.9172857 17.22,20.2337143 18.4780253,18.8665714 C19.7360506,17.4994286 20.3650633,15.6724286 20.3650633,13.3855714 Z M0,13.3855714 C0,9.50785714 1.30162025,6.3075 3.90486076,3.7845 C6.50810127,1.2615 9.69675949,0 13.4708354,0 C17.2449114,0 20.4211139,1.2615 22.999443,3.7845 C25.5777722,6.3075 26.8669367,9.50785714 26.8669367,13.3855714 C26.8669367,17.2632857 25.5715443,20.4698571 22.9807595,23.0052857 C20.3899747,25.5407143 17.2137722,26.8084286 13.4521519,26.8084286 C9.69053165,26.8084286 6.50810127,25.5407143 3.90486076,23.0052857 C1.30162025,20.4698571 0,17.2632857 0,13.3855714 Z M47.561038,0.298285714 L53.9508101,0.298285714 L53.9508101,26.5474286 L47.561038,26.5474286 L36.8740506,10.0298571 L36.8740506,26.5474286 L30.4842785,26.5474286 L30.4842785,0.298285714 L36.8740506,0.298285714 L47.561038,16.8158571 L47.561038,0.298285714 Z M65.9944304,5.66742857 C65.4837468,6.09 65.2284051,6.699 65.2284051,7.49442857 C65.2284051,8.28985714 65.4650633,8.92992857 65.9383797,9.41464286 C66.4116962,9.89935714 67.0282532,10.2722143 67.7880506,10.5332143 C68.5478481,10.7942143 69.3948354,11.0427857 70.3290127,11.2789286 C71.2631899,11.5150714 72.1911392,11.8009286 73.1128608,12.1365 C74.0345823,12.4720714 74.8753418,12.8884286 75.6351392,13.3855714 C76.3949367,13.8827143 77.0114937,14.5849286 77.4848101,15.4922143 C77.9581266,16.3995 78.1947848,17.487 78.1947848,18.7547143 C78.1947848,20.967 77.2917468,22.8623571 75.4856709,24.4407857 C73.6795949,26.0192143 71.300557,26.8084286 68.348557,26.8084286 C65.396557,26.8084286 63.017519,26.1 61.211443,24.6831429 C59.4053671,23.2662857 58.5023291,21.2528571 58.5023291,18.6428571 L65.3031392,18.6428571 C65.477519,20.7308571 66.5487089,21.7748571 68.5167089,21.7748571 C69.4384304,21.7748571 70.1608608,21.5325 70.684,21.0477857 C71.2071392,20.5630714 71.4687089,19.9478571 71.4687089,19.2021429 C71.4687089,18.4564286 71.2320506,17.8474286 70.7587342,17.3751429 C70.2854177,16.9028571 69.6688608,16.53 68.9090633,16.2565714 C68.1492658,15.9831429 67.3022785,15.7283571 66.3681013,15.4922143 C65.4339241,15.2560714 64.5059747,14.964 63.5842532,14.616 C62.6625316,14.268 61.8217722,13.8516429 61.0619747,13.3669286 C60.3021772,12.8822143 59.6856203,12.1862143 59.2123038,11.2789286 C58.7389873,10.3716429 58.5023291,9.29657143 58.5023291,8.05371429 C58.5023291,5.61771429 59.4115949,3.66642857 61.2301266,2.19985714 C63.0486582,0.733285714 65.3716456,0 68.1990886,0 C71.0265316,0 73.3121519,0.640071429 75.0559494,1.92021429 C76.7997468,3.20035714 77.7090127,5.22 77.7837468,7.97914286 L70.8334684,7.97914286 C70.7338228,7.03457143 70.4286582,6.3075 69.9179747,5.79792857 C69.4072911,5.28835714 68.7533671,5.03357143 67.9562025,5.03357143 C67.159038,5.03357143 66.5051139,5.24485714 65.9944304,5.66742857 Z M82.6342025,15.9955714 L82.6342025,0.372857143 L89.0239747,0.372857143 L89.0239747,15.9955714 C89.0239747,17.5615714 89.4101013,18.7671429 90.1823544,19.6122857 C90.9546076,20.4574286 92.0880759,20.88 93.5827595,20.88 C95.077443,20.88 96.2233671,20.4574286 97.0205316,19.6122857 C97.8176962,18.7671429 98.2162785,17.5615714 98.2162785,15.9955714 L98.2162785,0.372857143 L104.606051,0.372857143 L104.606051,15.9955714 C104.606051,18.3072857 104.064228,20.3020714 102.980582,21.9799286 C101.896937,23.6577857 100.52681,24.882 98.8702025,25.6525714 C97.2135949,26.4231429 95.4137468,26.8084286 93.4706582,26.8084286 C90.4314684,26.8084286 87.8655949,25.8638571 85.773038,23.9747143 C83.680481,22.0855714 82.6342025,19.4258571 82.6342025,15.9955714 Z M109.568608,0.372857143 L115.95838,0.372857143 L115.95838,21.7002857 L123.91757,21.7002857 L123.91757,26.5474286 L109.568608,26.5474286 L109.568608,0.372857143 Z M125.180785,5.22 L125.180785,0.372857143 L145.882152,0.372857143 L145.882152,5.22 L138.707671,5.22 L138.707671,26.5474286 L132.317899,26.5474286 L132.317899,5.22 L125.180785,5.22 Z M168.03357,13.3855714 C168.03357,11.0987143 167.404557,9.27171429 166.146532,7.90457143 C164.888506,6.53742857 163.206987,5.85385714 161.101975,5.85385714 C158.996962,5.85385714 157.315443,6.53742857 156.057418,7.90457143 C154.799392,9.27171429 154.17038,11.0987143 154.17038,13.3855714 C154.17038,15.6724286 154.799392,17.4994286 156.057418,18.8665714 C157.315443,20.2337143 158.996962,20.9172857 161.101975,20.9172857 C163.206987,20.9172857 164.888506,20.2337143 166.146532,18.8665714 C167.404557,17.4994286 168.03357,15.6724286 168.03357,13.3855714 Z M147.668506,13.3855714 C147.668506,9.50785714 148.970127,6.3075 151.573367,3.7845 C154.176608,1.2615 157.365266,0 161.139342,0 C164.913418,0 168.08962,1.2615 170.667949,3.7845 C173.246278,6.3075 174.535443,9.50785714 174.535443,13.3855714 C174.535443,17.2632857 173.240051,20.4698571 170.649266,23.0052857 C168.058481,25.5407143 164.882278,26.8084286 161.120658,26.8084286 C157.359038,26.8084286 154.176608,25.5407143 151.573367,23.0052857 C148.970127,20.4698571 147.668506,17.2632857 147.668506,13.3855714 Z" id="path-5"></path>
        <path d="M19.2714272,26.8734196 C17.6152089,27.5758929 15.79525,27.9642857 13.8852468,27.9642857 C6.21668987,27.9642857 0,21.7042991 0,13.9821429 C0,6.25998661 6.21668987,0 13.8852468,0 C20.5792753,0 26.1670823,4.76998214 27.4790823,11.1187812 L20.6621835,12.3279777 C19.8728038,9.32971429 17.1378703,7.11820536 13.8852468,7.11820536 C10.015807,7.11820536 6.87891772,10.2481339 6.87891772,14.1092768 C6.87891772,15.9593214 7.59914241,17.6415804 8.77516772,18.8920759 L8.32248101,22.6502946 L11.5745854,20.7111786 C12.2980538,20.9632455 13.0756266,21.1003482 13.8852468,21.1003482 C17.2532152,21.1003482 20.0661266,18.7290804 20.7387342,15.5684687 L27.5234557,16.6215313 C26.8690127,20.0712366 24.9558956,23.0709241 22.2836297,25.1177545 L22.6800063,28.9599955 L19.271557,26.8734196 L19.2714272,26.8734196 Z" id="path-7"></path>
    </defs>
    <g id="Asset-Templates" stroke="none" stroke-width="1" fill="none" fill-rule="evenodd">
        <g id="venture-logos/consulto">
            <g id="Consulto-Full_white@2x" transform="translate(0.000000, 14.000000)">
                <g id="Group-3" transform="translate(35.000000, 1.000000)">
                    <mask id="mask-2" fill="white">
                        <use xlink:href="#path-1"></use>
                    </mask>
                    <g id="Clip-2"></g>
                    <polygon id="Fill-1" fill="#FFFFFF" mask="url(#mask-2)" points="-0.0148588412 30.8628846 199.884101 30.8628846 199.884101 -0.00596153846 -0.0148588412 -0.00596153846"></polygon>
                </g>
                <path d="M58.3363069,16.4784423 C58.3363069,13.8340287 57.6155219,11.7213723 56.1739518,10.1404729 C54.7323818,8.55957348 52.8055308,7.76912378 50.3933988,7.76912378 C47.9812667,7.76912378 46.0544157,8.55957348 44.6128457,10.1404729 C43.1712756,11.7213723 42.4504906,13.8340287 42.4504906,16.4784423 C42.4504906,19.1228558 43.1712756,21.2355123 44.6128457,22.8164117 C46.0544157,24.3973111 47.9812667,25.1877608 50.3933988,25.1877608 C52.8055308,25.1877608 54.7323818,24.3973111 56.1739518,22.8164117 C57.6155219,21.2355123 58.3363069,19.1228558 58.3363069,16.4784423 Z M35,16.4784423 C35,11.9944367 36.4915254,8.29369495 39.4745763,5.37621697 C42.4576271,2.45873899 46.1115076,1 50.4362177,1 C54.7609277,1 58.4005352,2.45873899 61.3550401,5.37621697 C64.309545,8.29369495 65.7867975,11.9944367 65.7867975,16.4784423 C65.7867975,20.9624478 64.3024086,24.6703755 61.3336307,27.6022253 C58.3648528,30.5340751 54.7252453,32 50.4148082,32 C46.1043711,32 42.4576271,30.5340751 39.4745763,27.6022253 C36.4915254,24.6703755 35,20.9624478 35,16.4784423 Z M89.5001487,1.3449235 L96.8221826,1.3449235 L96.8221826,31.6981919 L89.5001487,31.6981919 L77.2539399,12.5980529 L77.2539399,31.6981919 L69.931906,31.6981919 L69.931906,1.3449235 L77.2539399,1.3449235 L89.5001487,20.4450626 L89.5001487,1.3449235 Z M110.622956,7.55354659 C110.037764,8.04218822 109.745168,8.74640705 109.745168,9.66620306 C109.745168,10.5859991 110.016354,11.3261474 110.558727,11.8866481 C111.1011,12.4471488 111.807612,12.8783032 112.678263,13.1801113 C113.548915,13.4819193 114.519477,13.7693556 115.589949,14.04242 C116.660422,14.3154845 117.723759,14.6460362 118.779958,15.0340751 C119.836158,15.422114 120.799584,15.9035698 121.670235,16.4784423 C122.540886,17.0533148 123.247398,17.8653222 123.789771,18.9144645 C124.332144,19.9636069 124.60333,21.2211405 124.60333,22.6870654 C124.60333,25.245248 123.56854,27.4369495 121.498959,29.2621697 C119.429379,31.0873899 116.703241,32 113.320547,32 C109.937853,32 107.211716,31.1808067 105.142135,29.54242 C103.072554,27.9040334 102.037764,25.5757997 102.037764,22.5577191 L109.830806,22.5577191 C110.030627,24.9721836 111.258103,26.1794159 113.513232,26.1794159 C114.569432,26.1794159 115.397264,25.8991655 115.996729,25.3386648 C116.596194,24.7781641 116.895926,24.0667594 116.895926,23.2044506 C116.895926,22.3421419 116.62474,21.637923 116.082367,21.0917942 C115.539994,20.5456653 114.833482,20.1145109 113.962831,19.798331 C113.09218,19.4821511 112.121618,19.187529 111.051145,18.9144645 C109.980672,18.6414001 108.917336,18.3036625 107.861136,17.9012517 C106.804936,17.498841 105.841511,17.0173853 104.970859,16.4568846 C104.100208,15.8963839 103.393696,15.0915624 102.851323,14.04242 C102.30895,12.9932777 102.037764,11.7501159 102.037764,10.3129346 C102.037764,7.49605934 103.079691,5.23968475 105.163544,3.54381085 C107.247398,1.84793695 109.909307,1 113.149271,1 C116.389236,1 119.008326,1.74014835 121.006542,3.22044506 C123.004758,4.70074177 124.046685,7.03616134 124.132322,10.2267038 L116.168005,10.2267038 C116.053821,9.13444599 115.704133,8.29369495 115.118941,7.70445063 C114.53375,7.11520631 113.784419,6.82058414 112.870949,6.82058414 C111.957478,6.82058414 111.208147,7.06490496 110.622956,7.55354659 Z M129.690455,19.4965229 L129.690455,1.43115438 L137.012489,1.43115438 L137.012489,19.4965229 C137.012489,21.3073713 137.454951,22.7014372 138.339875,23.6787204 C139.224799,24.6560037 140.52364,25.1446453 142.236396,25.1446453 C143.949153,25.1446453 145.262266,24.6560037 146.175736,23.6787204 C147.089206,22.7014372 147.545941,21.3073713 147.545941,19.4965229 L147.545941,1.43115438 L154.867975,1.43115438 L154.867975,19.4965229 C154.867975,22.1696801 154.247101,24.4763561 153.005352,26.4165508 C151.763604,28.3567455 150.193577,29.772369 148.295272,30.6634214 C146.396967,31.5544738 144.334523,32 142.107939,32 C138.625335,32 135.685103,30.9077422 133.287244,28.7232267 C130.889384,26.5387112 129.690455,23.4631433 129.690455,19.4965229 Z M160.554564,1.43115438 L167.876598,1.43115438 L167.876598,26.093185 L176.997026,26.093185 L176.997026,31.6981919 L160.554564,31.6981919 L160.554564,1.43115438 Z M178.444544,7.03616134 L178.444544,1.43115438 L202.166221,1.43115438 L202.166221,7.03616134 L193.94499,7.03616134 L193.94499,31.6981919 L186.622956,31.6981919 L186.622956,7.03616134 L178.444544,7.03616134 Z M227.549509,16.4784423 C227.549509,13.8340287 226.828724,11.7213723 225.387154,10.1404729 C223.945584,8.55957348 222.018733,7.76912378 219.606601,7.76912378 C217.194469,7.76912378 215.267618,8.55957348 213.826048,10.1404729 C212.384478,11.7213723 211.663693,13.8340287 211.663693,16.4784423 C211.663693,19.1228558 212.384478,21.2355123 213.826048,22.8164117 C215.267618,24.3973111 217.194469,25.1877608 219.606601,25.1877608 C222.018733,25.1877608 223.945584,24.3973111 225.387154,22.8164117 C226.828724,21.2355123 227.549509,19.1228558 227.549509,16.4784423 Z M204.213202,16.4784423 C204.213202,11.9944367 205.704728,8.29369495 208.687779,5.37621697 C211.67083,2.45873899 215.32471,1 219.64942,1 C223.97413,1 227.613738,2.45873899 230.568243,5.37621697 C233.522748,8.29369495 235,11.9944367 235,16.4784423 C235,20.9624478 233.515611,24.6703755 230.546833,27.6022253 C227.578055,30.5340751 223.938448,32 219.628011,32 C215.317574,32 211.67083,30.5340751 208.687779,27.6022253 C205.704728,24.6703755 204.213202,20.9624478 204.213202,16.4784423 Z" id="Stroke-4" stroke="#FFFFFF" stroke-width="0.600000009" stroke-linejoin="round"></path>
                <g id="Group-7">
                    <mask id="mask-4" fill="white">
                        <use xlink:href="#path-3"></use>
                    </mask>
                    <g id="Clip-6"></g>
                    <polygon id="Fill-5" fill="#FFFFFF" mask="url(#mask-4)" points="-0.0150234744 32.9705357 31.8768075 32.9705357 31.8768075 0 -0.0150234744 0"></polygon>
                </g>
            </g>
            <g id="Consulto-Full_colour@2x" transform="translate(2.000000, 15.000000)">
                <g id="Group-3" transform="translate(30.360759, 0.517857)">
                    <mask id="mask-6" fill="white">
                        <use xlink:href="#path-5"></use>
                    </mask>
                    <g id="Clip-2"></g>
                    <polygon id="Fill-1" fill="#858585" mask="url(#mask-6)" points="-0.0129746835 26.8094643 174.538038 26.8094643 174.538038 -0.00517857143 -0.0129746835 -0.00517857143"></polygon>
                </g>
                <path d="M50.7258228,13.9034286 C50.7258228,11.6165714 50.0968101,9.78957143 48.8387848,8.42242857 C47.5807595,7.05528571 45.8992405,6.37171429 43.7942278,6.37171429 C41.6892152,6.37171429 40.0076962,7.05528571 38.7496709,8.42242857 C37.4916456,9.78957143 36.8626329,11.6165714 36.8626329,13.9034286 C36.8626329,16.1902857 37.4916456,18.0172857 38.7496709,19.3844286 C40.0076962,20.7515714 41.6892152,21.4351429 43.7942278,21.4351429 C45.8992405,21.4351429 47.5807595,20.7515714 48.8387848,19.3844286 C50.0968101,18.0172857 50.7258228,16.1902857 50.7258228,13.9034286 Z M30.3607595,13.9034286 C30.3607595,10.0257143 31.6623797,6.82535714 34.2656203,4.30235714 C36.8688608,1.77935714 40.057519,0.517857143 43.8315949,0.517857143 C47.6056709,0.517857143 50.7818734,1.77935714 53.3602025,4.30235714 C55.9385316,6.82535714 57.2276962,10.0257143 57.2276962,13.9034286 C57.2276962,17.7811429 55.9323038,20.9877143 53.341519,23.5231429 C50.7507342,26.0585714 47.5745316,27.3262857 43.8129114,27.3262857 C40.0512911,27.3262857 36.8688608,26.0585714 34.2656203,23.5231429 C31.6623797,20.9877143 30.3607595,17.7811429 30.3607595,13.9034286 Z M77.9217975,0.816142857 L84.3115696,0.816142857 L84.3115696,27.0652857 L77.9217975,27.0652857 L67.2348101,10.5477143 L67.2348101,27.0652857 L60.845038,27.0652857 L60.845038,0.816142857 L67.2348101,0.816142857 L77.9217975,17.3337143 L77.9217975,0.816142857 Z M96.3551899,6.18528571 C95.8445063,6.60785714 95.5891646,7.21685714 95.5891646,8.01228571 C95.5891646,8.80771429 95.8258228,9.44778571 96.2991392,9.9325 C96.7724557,10.4172143 97.3890127,10.7900714 98.1488101,11.0510714 C98.9086076,11.3120714 99.7555949,11.5606429 100.689772,11.7967857 C101.623949,12.0329286 102.551899,12.3187857 103.47362,12.6543571 C104.395342,12.9899286 105.236101,13.4062857 105.995899,13.9034286 C106.755696,14.4005714 107.372253,15.1027857 107.84557,16.0100714 C108.318886,16.9173571 108.555544,18.0048571 108.555544,19.2725714 C108.555544,21.4848571 107.652506,23.3802143 105.84643,24.9586429 C104.040354,26.5370714 101.661316,27.3262857 98.7093165,27.3262857 C95.7573165,27.3262857 93.3782785,26.6178571 91.5722025,25.201 C89.7661266,23.7841429 88.8630886,21.7707143 88.8630886,19.1607143 L95.6638987,19.1607143 C95.8382785,21.2487143 96.9094684,22.2927143 98.8774684,22.2927143 C99.7991899,22.2927143 100.52162,22.0503571 101.044759,21.5656429 C101.567899,21.0809286 101.829468,20.4657143 101.829468,19.72 C101.829468,18.9742857 101.59281,18.3652857 101.119494,17.893 C100.646177,17.4207143 100.02962,17.0478571 99.2698228,16.7744286 C98.5100253,16.501 97.663038,16.2462143 96.7288608,16.0100714 C95.7946835,15.7739286 94.8667342,15.4818571 93.9450127,15.1338571 C93.0232911,14.7858571 92.1825316,14.3695 91.4227342,13.8847857 C90.6629367,13.4000714 90.0463797,12.7040714 89.5730633,11.7967857 C89.0997468,10.8895 88.8630886,9.81442857 88.8630886,8.57157143 C88.8630886,6.13557143 89.7723544,4.18428571 91.5908861,2.71771429 C93.4094177,1.25114286 95.7324051,0.517857143 98.5598481,0.517857143 C101.387291,0.517857143 103.672911,1.15792857 105.416709,2.43807143 C107.160506,3.71821429 108.069772,5.73785714 108.144506,8.497 L101.194228,8.497 C101.094582,7.55242857 100.789418,6.82535714 100.278734,6.31578571 C99.7680506,5.80621429 99.1141266,5.55142857 98.316962,5.55142857 C97.5197975,5.55142857 96.8658734,5.76271429 96.3551899,6.18528571 Z M112.994962,16.5134286 L112.994962,0.890714286 L119.384734,0.890714286 L119.384734,16.5134286 C119.384734,18.0794286 119.770861,19.285 120.543114,20.1301429 C121.315367,20.9752857 122.448835,21.3978571 123.943519,21.3978571 C125.438203,21.3978571 126.584127,20.9752857 127.381291,20.1301429 C128.178456,19.285 128.577038,18.0794286 128.577038,16.5134286 L128.577038,0.890714286 L134.96681,0.890714286 L134.96681,16.5134286 C134.96681,18.8251429 134.424987,20.8199286 133.341342,22.4977857 C132.257696,24.1756429 130.88757,25.3998571 129.230962,26.1704286 C127.574354,26.941 125.774506,27.3262857 123.831418,27.3262857 C120.792228,27.3262857 118.226354,26.3817143 116.133797,24.4925714 C114.041241,22.6034286 112.994962,19.9437143 112.994962,16.5134286 Z M139.929367,0.890714286 L146.319139,0.890714286 L146.319139,22.2181429 L154.278329,22.2181429 L154.278329,27.0652857 L139.929367,27.0652857 L139.929367,0.890714286 Z M155.541544,5.73785714 L155.541544,0.890714286 L176.242911,0.890714286 L176.242911,5.73785714 L169.06843,5.73785714 L169.06843,27.0652857 L162.678658,27.0652857 L162.678658,5.73785714 L155.541544,5.73785714 Z M198.394329,13.9034286 C198.394329,11.6165714 197.765316,9.78957143 196.507291,8.42242857 C195.249266,7.05528571 193.567747,6.37171429 191.462734,6.37171429 C189.357722,6.37171429 187.676203,7.05528571 186.418177,8.42242857 C185.160152,9.78957143 184.531139,11.6165714 184.531139,13.9034286 C184.531139,16.1902857 185.160152,18.0172857 186.418177,19.3844286 C187.676203,20.7515714 189.357722,21.4351429 191.462734,21.4351429 C193.567747,21.4351429 195.249266,20.7515714 196.507291,19.3844286 C197.765316,18.0172857 198.394329,16.1902857 198.394329,13.9034286 Z M178.029266,13.9034286 C178.029266,10.0257143 179.330886,6.82535714 181.934127,4.30235714 C184.537367,1.77935714 187.726025,0.517857143 191.500101,0.517857143 C195.274177,0.517857143 198.45038,1.77935714 201.028709,4.30235714 C203.607038,6.82535714 204.896203,10.0257143 204.896203,13.9034286 C204.896203,17.7811429 203.60081,20.9877143 201.010025,23.5231429 C198.419241,26.0585714 195.243038,27.3262857 191.481418,27.3262857 C187.719797,27.3262857 184.537367,26.0585714 181.934127,23.5231429 C179.330886,20.9877143 178.029266,17.7811429 178.029266,13.9034286 Z" id="Stroke-4" stroke="#858585" stroke-width="0.779999971" stroke-linejoin="round"></path>
                <g id="Group-7">
                    <mask id="mask-8" fill="white">
                        <use xlink:href="#path-7"></use>
                    </mask>
                    <g id="Clip-6"></g>
                    <polygon id="Fill-5" fill="#3EBBCF" mask="url(#mask-8)" points="-0.0129746835 28.9741071 27.5296835 28.9741071 27.5296835 0 -0.0129746835 0"></polygon>
                </g>
            </g>
        </g>
    </g>
</svg>