<svg xmlns="http://www.w3.org/2000/svg" width="214" height="60" viewBox="0 0 214 60">
  <defs>
    <linearGradient id="dealroom-a" x1="105.6%" x2="34.688%" y1="133.915%" y2="42.567%">
      <stop offset="0%" stop-color="#FFF"/>
      <stop offset="100%"/>
    </linearGradient>
  </defs>
  <g fill="none" fill-rule="evenodd" transform="translate(1 13)">
    <path fill="#5A84A3" fill-rule="nonzero" d="M33.5070009,28.0320007 C33.5070009,31.2440008 30.9520008,33.7990009 27.7400007,33.7990009 L5.91300015,33.7990009 C2.70100007,33.7990009 0.146000004,31.2440008 0.146000004,28.0320007 L0.146000004,6.20500016 C0.146000004,2.99300008 2.70100007,0.438000011 5.91300015,0.438000011 L27.7400007,0.438000011 C30.9520008,0.438000011 33.5070009,2.99300008 33.5070009,6.20500016 L33.5070009,28.0320007 Z"/>
    <path fill="url(#dealroom-a)" fill-rule="nonzero" d="M19.6370005,9.78200026 L15.3300004,9.78200026 L15.3300004,12.7750003 L15.3300004,15.4760004 L14.4540004,13.9430004 L11.6800003,21.5350006 L9.41700025,18.2500005 L5.18300014,25.4770007 L8.97900023,33.7990009 L27.7400007,33.7990009 C30.9520008,33.7990009 33.5070009,31.2440008 33.5070009,28.0320007 L33.5070009,23.0680006 L27.8130007,13.5780004 L19.6370005,9.78200026 Z" opacity=".4"/>
    <g transform="translate(5.11 9.49)">
      <g transform="translate(13.87)">
        <path d="M1.75200005,3.7230001 L0.511000013,3.7230001 L0.511000013,12.5560003 L1.46000004,12.5560003 C2.77400007,12.5560003 3.7230001,12.1910003 4.30700011,11.4610003 C4.89100013,10.7310003 5.18300014,9.56300025 5.18300014,8.03000021 C5.18300014,6.57000017 4.89100013,5.54800014 4.30700011,4.81800013 C3.7230001,4.08800011 2.84700007,3.7230001 1.75200005,3.7230001 Z"/>
        <path fill="#91C1E0" fill-rule="nonzero" d="M7.66499964,2.18999978 C6.27799961,0.875999744 4.37999956,0.291999729 1.82499949,0.291999729 L0.583999458,0.291999729 L0.583999458,15.9870001 L1.45999948,15.9870001 C4.08799955,15.9870001 6.0589996,15.2570001 7.51899964,13.8700001 C8.97899968,12.483 9.7089997,10.439 9.7089997,7.81099993 C9.7089997,5.32899986 8.97899968,3.43099981 7.66499964,2.18999978 Z M4.37999956,11.315 C3.79599954,12.045 2.84699952,12.41 1.53299948,12.41 L0.583999458,12.41 L0.583999458,3.64999982 L1.82499949,3.64999982 C2.99299952,3.64999982 3.86899954,4.01499983 4.37999956,4.67199984 C4.96399957,5.40199986 5.25599958,6.42399989 5.25599958,7.88399993 C5.32899958,9.41699997 5.03699957,10.585 4.37999956,11.315 Z"/>
      </g>
      <g fill-rule="nonzero" transform="translate(10.22)">
        <rect width="4.234" height="15.695" y=".292" fill="#DAF1FB"/>
        <rect width="4.234" height="15.695" y=".292" opacity=".5"/>
      </g>
      <g fill-rule="nonzero" transform="translate(5.11 4.38)">
        <rect width="4.234" height="11.534" y=".073" fill="#DAF1FB"/>
        <rect width="4.234" height="11.534" y=".073" opacity=".5"/>
      </g>
      <g fill-rule="nonzero" transform="translate(0 8.76)">
        <rect width="4.234" height="7.227" x=".073" fill="#DAF1FB"/>
        <rect width="4.234" height="7.227" x=".073" opacity=".5"/>
      </g>
    </g>
    <g fill="#5A84A3" fill-rule="nonzero" transform="translate(48.18 2.92)">
      <path d="M.438000011 15.6950004C.438000011 14.3080004.657000017 13.1400003 1.02200003 12.0450003 1.38700004 10.9500003 1.97100005 10.0010003 2.62800007 9.27100024 3.28500009 8.54100022 4.0150001 7.95700021 4.89100013 7.5190002 5.76700015 7.08100019 6.64300017 6.93500018 7.5190002 6.93500018 8.46800022 6.93500018 9.27100024 7.08100019 9.92800026 7.44600019 10.5850003 7.8110002 11.2420003 8.24900022 11.8990003 8.76000023L11.7530003 6.05900016 11.7530003 0 15.6950004 0 15.6950004 24.0900006 12.4830003 24.0900006 12.1910003 22.2650006 12.0450003 22.2650006C11.4610003 22.8490006 10.7310003 23.4330006 9.92800026 23.7980006 9.12500024 24.2360006 8.24900022 24.4550006 7.37300019 24.4550006 5.25600014 24.4550006 3.57700009 23.6520006 2.33600006 22.1190006 1.02200003 20.6590005.438000011 18.4690005.438000011 15.6950004zM4.52600012 15.6950004C4.52600012 17.5200005 4.81800013 18.9070005 5.47500014 19.8560005 6.13200016 20.8050005 7.08100019 21.2430006 8.32200022 21.2430006 9.56300025 21.2430006 10.7310003 20.5860005 11.8260003 19.3450005L11.8260003 11.5340003C11.2420003 11.0230003 10.6580003 10.6580003 10.0740003 10.4390003 9.49000025 10.2200003 8.97900023 10.1470003 8.39500022 10.1470003 7.30000019 10.1470003 6.35100017 10.6580003 5.62100015 11.6070003 4.89100013 12.5560003 4.52600012 13.9430004 4.52600012 15.6950004zM17.8850005 15.6950004C17.8850005 14.3080004 18.1040005 13.1400003 18.5420005 12.0450003 18.9800005 10.9500003 19.5640005 10.0010003 20.2940005 9.27100024 21.0240005 8.54100022 21.8270006 7.95700021 22.7760006 7.5190002 23.7250006 7.08100019 24.6740006 6.93500018 25.6230007 6.93500018 26.7910007 6.93500018 27.7400007 7.15400019 28.6160007 7.5190002 29.4920008 7.88400021 30.2220008 8.46800022 30.8060008 9.12500024 31.3900008 9.85500026 31.8280008 10.6580003 32.1200008 11.6800003 32.4120008 12.6290003 32.5580009 13.7240004 32.5580009 14.8920004 32.5580009 15.6950004 32.4850008 16.2790004 32.4120008 16.7170004L21.7540006 16.7170004C21.9000006 18.2500005 22.4840006 19.4180005 23.3600006 20.2210005 24.2360006 21.0240005 25.3310007 21.4620006 26.7180007 21.4620006 27.4480007 21.4620006 28.1050007 21.3890006 28.7620008 21.1700006 29.4190008 20.9510005 30.0030008 20.6590005 30.5870008 20.2940005L31.9010008 22.7760006C31.0980008 23.2870006 30.2220008 23.7250006 29.2730008 24.0900006 28.3240007 24.4550006 27.3020007 24.6010006 26.2070007 24.6010006 25.0390007 24.6010006 23.9440006 24.3820006 22.9950006 24.0170006 21.9730006 23.6520006 21.0970006 23.0680006 20.3670005 22.2650006 19.6370005 21.5350006 19.0530005 20.5860005 18.6150005 19.4910005 18.1040005 18.3230005 17.8850005 17.0820004 17.8850005 15.6950004zM29.1270008 14.2350004C29.1270008 12.9210003 28.8350008 11.8260003 28.3240007 11.0960003 27.7400007 10.3660003 26.9370007 10.0010003 25.7690007 10.0010003 24.7470006 10.0010003 23.8710006 10.3660003 23.1410006 11.0960003 22.4110006 11.8260003 21.9000006 12.8480003 21.7540006 14.3080004L29.1270008 14.3080004 29.1270008 14.2350004zM33.4340009 19.5640005C33.4340009 17.7390005 34.2370009 16.3520004 35.7700009 15.4030004 37.303001 14.4540004 39.858001 13.7240004 43.2890011 13.3590003 43.2890011 12.9210003 43.2160011 12.4830003 43.1430011 12.1180003 42.9970011 11.7530003 42.8510011 11.3880003 42.6320011 11.0960003 42.4130011 10.8040003 42.1210011 10.5850003 41.6830011 10.3660003 41.3180011 10.2200003 40.8070011 10.0740003 40.2960011 10.0740003 39.420001 10.0740003 38.617001 10.2200003 37.887001 10.5850003 37.084001 10.8770003 36.3540009 11.3150003 35.6240009 11.7530003L34.1640009 9.12500024C35.1130009 8.54100022 36.1350009 8.03000021 37.303001 7.5920002 38.471001 7.15400019 39.712001 6.93500018 41.0260011 6.93500018 43.1430011 6.93500018 44.6760012 7.5190002 45.6980012 8.76000023 46.7200012 10.0010003 47.2310012 11.7530003 47.2310012 14.1620004L47.2310012 24.0900006 44.0190012 24.0900006 43.7270011 22.2650006 43.6540011 22.2650006C42.9240011 22.9220006 42.1210011 23.4330006 41.2450011 23.8710006 40.3690011 24.3090006 39.493001 24.5280006 38.471001 24.5280006 37.011001 24.5280006 35.7700009 24.0900006 34.8940009 23.2140006 33.8720009 22.2650006 33.4340009 21.0240005 33.4340009 19.5640005zM37.230001 19.2720005C37.230001 20.0020005 37.449001 20.5860005 37.887001 20.8780005 38.325001 21.2430006 38.909001 21.3890006 39.639001 21.3890006 40.2960011 21.3890006 40.9530011 21.2430006 41.5370011 20.8780005 42.1210011 20.5860005 42.7050011 20.0750005 43.2890011 19.4910005L43.2890011 15.7680004C42.1210011 15.9140004 41.1720011 16.0600004 40.4420011 16.2790004 39.639001 16.4980004 39.055001 16.7900004 38.617001 17.0820004 38.179001 17.3740005 37.814001 17.6660005 37.595001 18.0310005 37.376001 18.4690005 37.230001 18.8340005 37.230001 19.2720005zM50.2970013 0L54.2390014 0 54.2390014 20.0020005C54.2390014 20.5130005 54.3120014 20.8050005 54.5310014 21.0240005 54.6770014 21.2430006 54.8960014 21.3160006 55.1150014 21.3160006 55.1880014 21.3160006 55.2610014 21.3160006 55.4070014 21.3160006 55.4800014 21.3160006 55.6260015 21.3160006 55.7720015 21.2430006L56.2830015 24.1630006C55.7720015 24.3820006 55.0420014 24.5280006 54.2390014 24.5280006 52.8520014 24.5280006 51.8300014 24.0900006 51.2460013 23.2870006 50.6620013 22.4110006 50.3700013 21.3160006 50.3700013 19.8560005L50.3700013 0 50.2970013 0zM57.8160015 7.30000019L61.0280016 7.30000019 61.3200016 10.2930003 61.4660016 10.2930003C62.0500016 9.19800024 62.7800016 8.39500022 63.5830017 7.8110002 64.4590017 7.22700019 65.2620017 6.93500018 66.1380017 6.93500018 66.9410017 6.93500018 67.5980018 7.08100019 68.0360018 7.30000019L67.3790018 10.7310003C67.0870018 10.6580003 66.7950017 10.5850003 66.5760017 10.5120003 66.3570017 10.4390003 65.9920017 10.4390003 65.6270017 10.4390003 64.9700017 10.4390003 64.2400017 10.7310003 63.5830017 11.2420003 62.8530016 11.7530003 62.1960016 12.6290003 61.6850016 13.9430004L61.6850016 24.1630006 57.7430015 24.1630006 57.7430015 7.30000019 57.8160015 7.30000019zM67.3790018 15.6950004C67.3790018 14.3080004 67.5980018 13.0670003 68.0360018 11.9720003 68.4740018 10.8770003 69.0580018 9.92800026 69.7880018 9.19800024 70.5180018 8.46800022 71.3940019 7.88400021 72.3430019 7.44600019 73.2920019 7.08100019 74.3140019 6.86200018 75.336002 6.86200018 76.358002 6.86200018 77.380002 7.08100019 78.329002 7.44600019 79.2780021 7.8110002 80.1540021 8.39500022 80.8840021 9.19800024 81.6140021 9.92800026 82.1980021 10.8770003 82.6360022 11.9720003 83.0740022 13.0670003 83.2930022 14.3080004 83.2930022 15.6950004 83.2930022 17.0820004 83.0740022 18.3230005 82.6360022 19.4180005 82.1980021 20.5130005 81.6140021 21.4620006 80.8840021 22.1920006 80.1540021 22.9220006 79.2780021 23.5060006 78.329002 23.8710006 77.380002 24.2360006 76.358002 24.4550006 75.336002 24.4550006 74.3140019 24.4550006 73.2920019 24.2360006 72.3430019 23.8710006 71.3940019 23.5060006 70.5180018 22.9220006 69.7880018 22.1920006 69.0580018 21.4620006 68.4740018 20.5130005 68.0360018 19.4180005 67.5980018 18.3230005 67.3790018 17.0820004 67.3790018 15.6950004zM71.3940019 15.6950004C71.3940019 17.3740005 71.7590019 18.6880005 72.4160019 19.7100005 73.0730019 20.7320005 74.0950019 21.2430006 75.263002 21.2430006 76.504002 21.2430006 77.453002 20.7320005 78.183002 19.7100005 78.9130021 18.6880005 79.2050021 17.3740005 79.2050021 15.6950004 79.2050021 14.0160004 78.8400021 12.6290003 78.183002 11.6070003 77.453002 10.5850003 76.504002 10.0740003 75.263002 10.0740003 74.0220019 10.0740003 73.0730019 10.5850003 72.4160019 11.6070003 71.7590019 12.6290003 71.3940019 14.0160004 71.3940019 15.6950004zM84.3880022 15.6950004C84.3880022 14.3080004 84.6070022 13.0670003 85.0450022 11.9720003 85.4830022 10.8770003 86.0670022 9.92800026 86.7970023 9.19800024 87.5270023 8.46800022 88.4030023 7.88400021 89.3520023 7.44600019 90.3010024 7.08100019 91.3230024 6.86200018 92.3450024 6.86200018 93.3670024 6.86200018 94.3890025 7.08100019 95.3380025 7.44600019 96.2870025 7.8110002 97.1630025 8.39500022 97.8930026 9.19800024 98.6230026 9.92800026 99.2070026 10.8770003 99.6450026 11.9720003 100.083003 13.0670003 100.302003 14.3080004 100.302003 15.6950004 100.302003 17.0820004 100.083003 18.3230005 99.6450026 19.4180005 99.2070026 20.5130005 98.6230026 21.4620006 97.8930026 22.1920006 97.1630025 22.9220006 96.2870025 23.5060006 95.3380025 23.8710006 94.3890025 24.2360006 93.3670024 24.4550006 92.3450024 24.4550006 91.3230024 24.4550006 90.3010024 24.2360006 89.3520023 23.8710006 88.4030023 23.5060006 87.5270023 22.9220006 86.7970023 22.1920006 86.0670022 21.4620006 85.4830022 20.5130005 85.0450022 19.4180005 84.6070022 18.3230005 84.3880022 17.0820004 84.3880022 15.6950004zM88.4030023 15.6950004C88.4030023 17.3740005 88.7680023 18.6880005 89.4250023 19.7100005 90.0820024 20.7320005 91.1040024 21.2430006 92.2720024 21.2430006 93.5130024 21.2430006 94.4620025 20.7320005 95.1920025 19.7100005 95.9220025 18.6880005 96.2140025 17.3740005 96.2140025 15.6950004 96.2140025 14.0160004 95.8490025 12.6290003 95.1920025 11.6070003 94.4620025 10.5850003 93.5130024 10.0740003 92.2720024 10.0740003 91.0310024 10.0740003 90.0820024 10.5850003 89.4250023 11.6070003 88.7680023 12.6290003 88.4030023 14.0160004 88.4030023 15.6950004zM102.492003 7.30000019L105.704003 7.30000019 105.996003 9.56300025 106.142003 9.56300025C106.872003 8.83300023 107.602003 8.17600021 108.478003 7.6650002 109.281003 7.15400019 110.230003 6.86200018 111.325003 6.86200018 112.566003 6.86200018 113.515003 7.15400019 114.245003 7.6650002 114.975003 8.17600021 115.559003 8.90600023 115.924003 9.85500026 116.727003 8.97900023 117.530003 8.24900022 118.406003 7.7380002 119.282003 7.15400019 120.231003 6.86200018 121.326003 6.86200018 123.078003 6.86200018 124.392003 7.44600019 125.268003 8.61400023 126.144003 9.78200026 126.509003 11.3880003 126.509003 13.5050004L126.509003 24.0900006 122.567003 24.0900006 122.567003 14.0890004C122.567003 12.7020003 122.348003 11.7530003 121.910003 11.1690003 121.472003 10.5850003 120.815003 10.2930003 120.012003 10.2930003 118.990003 10.2930003 117.822003 10.9500003 116.508003 12.3370003L116.508003 24.0170006 112.566003 24.0170006 112.566003 14.0890004C112.566003 12.7020003 112.347003 11.7530003 111.909003 11.1690003 111.471003 10.5850003 110.814003 10.2930003 109.938003 10.2930003 108.916003 10.2930003 107.748003 10.9500003 106.434003 12.3370003L106.434003 24.0170006 102.492003 24.0170006 102.492003 7.30000019zM129.283003 22.9220006C129.283003 22.4110006 129.429003 22.0460006 129.721003 21.7540006 130.013003 21.4620006 130.378003 21.3160006 130.743003 21.3160006 131.108003 21.3160006 131.473003 21.4620006 131.765003 21.7540006 132.057003 22.0460006 132.203003 22.4110006 132.203003 22.9220006 132.203003 23.4330006 132.057003 23.7980006 131.765003 24.0170006 131.473003 24.3090006 131.181003 24.4550006 130.743003 24.4550006 130.378003 24.4550006 130.013003 24.3090006 129.721003 24.0170006 129.502003 23.7980006 129.283003 23.4330006 129.283003 22.9220006zM134.174004 15.9140004C134.174004 14.5270004 134.393004 13.3590003 134.758004 12.2640003 135.196004 11.1690003 135.707004 10.2930003 136.364004 9.56300025 137.021004 8.83300023 137.824004 8.24900022 138.700004 7.88400021 139.576004 7.5190002 140.525004 7.30000019 141.547004 7.30000019 142.715004 7.30000019 143.664004 7.5190002 144.394004 7.88400021 145.124004 8.32200022 145.781004 8.76000023 146.365004 9.27100024L145.489004 10.2930003C144.978004 9.78200026 144.394004 9.34400024 143.737004 9.05200024 143.080004 8.68700023 142.350004 8.54100022 141.620004 8.54100022 140.744004 8.54100022 140.014004 8.68700023 139.284004 9.05200024 138.554004 9.41700025 137.970004 9.92800026 137.386004 10.5850003 136.875004 11.2420003 136.437004 11.9720003 136.145004 12.9210003 135.853004 13.7970004 135.707004 14.8190004 135.707004 15.9140004 135.707004 17.0090004 135.853004 17.9580005 136.145004 18.8340005 136.437004 19.7100005 136.802004 20.5130005 137.313004 21.0970006 137.824004 21.7540006 138.481004 22.1920006 139.211004 22.5570006 139.941004 22.9220006 140.744004 23.0680006 141.620004 23.0680006 142.496004 23.0680006 143.299004 22.9220006 144.029004 22.5570006 144.759004 22.1920006 145.416004 21.7540006 146.000004 21.2430006L146.803004 22.2650006C146.073004 22.9220006 145.343004 23.4330006 144.467004 23.7980006 143.591004 24.2360006 142.642004 24.3820006 141.620004 24.3820006 140.525004 24.3820006 139.576004 24.1630006 138.700004 23.7980006 137.824004 23.4330006 137.021004 22.8490006 136.364004 22.1190006 135.707004 21.3890006 135.196004 20.5130005 134.831004 19.4180005 134.393004 18.4690005 134.174004 17.3010005 134.174004 15.9140004zM147.241004 15.9140004C147.241004 14.5270004 147.460004 13.3590003 147.825004 12.2640003 148.190004 11.1690003 148.774004 10.2930003 149.431004 9.56300025 150.088004 8.83300023 150.891004 8.24900022 151.767004 7.88400021 152.643004 7.5190002 153.592004 7.30000019 154.541004 7.30000019 155.490004 7.30000019 156.439004 7.5190002 157.388004 7.88400021 158.264004 8.24900022 159.067004 8.83300023 159.724004 9.56300025 160.381004 10.2930003 160.892004 11.1690003 161.330004 12.2640003 161.695004 13.3590003 161.914004 14.6000004 161.914004 15.9140004 161.914004 17.3010005 161.695004 18.4690005 161.330004 19.5640005 160.965004 20.5860005 160.381004 21.5350006 159.724004 22.2650006 159.067004 22.9950006 158.264004 23.5790006 157.388004 23.9440006 156.512004 24.3090006 155.563004 24.5280006 154.541004 24.5280006 153.592004 24.5280006 152.643004 24.3090006 151.767004 23.9440006 150.891004 23.5790006 150.088004 22.9950006 149.431004 22.2650006 148.774004 21.5350006 148.190004 20.6590005 147.825004 19.5640005 147.387004 18.4690005 147.241004 17.3010005 147.241004 15.9140004zM148.774004 15.9140004C148.774004 17.0090004 148.920004 17.9580005 149.212004 18.8340005 149.504004 19.7100005 149.942004 20.5130005 150.453004 21.0970006 150.964004 21.7540006 151.548004 22.1920006 152.278004 22.5570006 153.008004 22.9220006 153.738004 23.0680006 154.541004 23.0680006 155.344004 23.0680006 156.147004 22.9220006 156.877004 22.5570006 157.607004 22.1920006 158.191004 21.6810006 158.702004 21.0970006 159.213004 20.4400005 159.651004 19.7100005 159.943004 18.8340005 160.235004 17.9580005 160.381004 16.9360004 160.381004 15.9140004 160.381004 14.8190004 160.235004 13.8700004 159.943004 12.9210003 159.651004 12.0450003 159.213004 11.2420003 158.702004 10.5850003 158.191004 9.92800026 157.607004 9.41700025 156.877004 9.05200024 156.147004 8.68700023 155.417004 8.54100022 154.541004 8.54100022 153.738004 8.54100022 152.935004 8.68700023 152.278004 9.05200024 151.548004 9.41700025 150.964004 9.92800026 150.453004 10.5850003 149.942004 11.2420003 149.504004 11.9720003 149.212004 12.9210003 148.920004 13.8700004 148.774004 14.8190004 148.774004 15.9140004z"/>
    </g>
  </g>
</svg>
