<?xml version="1.0" encoding="UTF-8"?>
<svg width="230px" height="60px" viewBox="0 0 230 60" version="1.1" xmlns="http://www.w3.org/2000/svg" xmlns:xlink="http://www.w3.org/1999/xlink">
    <!-- Generator: Sketch 46.2 (44496) - http://www.bohemiancoding.com/sketch -->
    <title>euroknaller</title>
    <desc>Created with Sketch.</desc>
    <defs>
        <path d="M0.222871046,18.4982968 C0.222871046,12.5364964 3.28734793,9.02627737 8.46909976,9.02627737 C13.4836983,9.02627737 16.7710462,13.0379562 16.2138686,20.7270073 L6.57469586,20.7270073 C7.07615572,22.7328467 8.413382,23.5128954 10.6420925,23.5128954 C12.3136253,23.5128954 13.6508516,23.2900243 15.1552311,22.7328467 L15.1552311,27.0231144 C13.7065693,27.6360097 11.9793187,27.9703163 9.69489051,27.9703163 C3.67737226,27.9703163 0.222871046,24.4600973 0.222871046,18.4982968 Z M10.6420925,16.9939173 C10.5863747,14.9323601 10.0291971,13.8180049 8.63625304,13.8180049 C7.18759124,13.8180049 6.46326034,14.9323601 6.29610706,16.9939173 L10.6420925,16.9939173 Z M34.4892944,27.4688564 L28.973236,27.4688564 L28.973236,25.8530414 C27.9145985,27.1345499 26.4659367,28.0260341 24.1815085,28.0260341 C21.5627737,28.0260341 18.8326034,26.1316302 18.8326034,22.3985401 L18.8326034,9.58345499 L24.9615572,9.58345499 L24.9615572,20.8941606 C24.9615572,21.8970803 25.463017,22.3428224 26.3545012,22.3428224 C27.3017032,22.3428224 27.9145985,21.7856448 28.3603406,21.0613139 L28.3603406,9.52773723 L34.4892944,9.52773723 L34.4892944,27.4688564 Z M37.8323601,9.52773723 L43.3484185,9.52773723 L43.3484185,12.0350365 C44.2956204,10.0291971 46.1343066,8.91484185 48.8087591,9.1377129 L48.8087591,15.3781022 C46.5800487,15.0995134 44.9085158,15.7681265 43.9055961,17.8296837 L43.9055961,27.4131387 L37.7766423,27.4131387 L37.7766423,9.52773723 L37.8323601,9.52773723 Z M67.0284672,18.4982968 C67.0284672,24.3486618 64.019708,27.9703163 58.6708029,27.9703163 C53.3218978,27.9703163 50.2574209,24.3486618 50.2574209,18.4982968 C50.2574209,12.6479319 53.26618,9.02627737 58.6708029,9.02627737 C64.019708,9.02627737 67.0284672,12.5922141 67.0284672,18.4982968 Z M56.4420925,18.4982968 C56.4420925,21.3956204 57.0549878,22.7328467 58.6708029,22.7328467 C60.286618,22.7328467 60.8995134,21.3956204 60.8995134,18.4982968 C60.8995134,15.6009732 60.286618,14.263747 58.6708029,14.263747 C56.9992701,14.2080292 56.4420925,15.6009732 56.4420925,18.4982968 Z M69.8143552,1.33722628 L75.8875912,1.33722628 L75.8875912,15.9352798 L77.2805353,15.9352798 L80.0107056,9.52773723 L86.8082725,9.52773723 L82.2394161,18.4425791 L86.9754258,27.4688564 L80.1778589,27.4688564 L77.2248175,21.1727494 L75.8875912,21.1727494 L75.8875912,27.4688564 L69.8143552,27.4688564 L69.8143552,1.33722628 Z M88.7026764,9.52773723 L94.2187348,9.52773723 L94.2187348,11.1435523 C95.2773723,9.91776156 96.7817518,9.02627737 99.0104623,9.02627737 C101.684915,9.02627737 104.359367,10.8649635 104.359367,14.5980535 L104.359367,27.4131387 L98.2304136,27.4131387 L98.2304136,16.1581509 C98.2304136,15.1552311 97.7289538,14.7094891 96.8374696,14.7094891 C95.8902676,14.7094891 95.2773723,15.2666667 94.8316302,15.9909976 L94.8316302,27.4688564 L88.7026764,27.4688564 L88.7026764,9.52773723 Z M123.749148,23.2343066 L123.749148,27.3574209 C122.801946,27.6360097 121.96618,27.7474453 120.851825,27.7474453 C119.403163,27.7474453 118.065937,27.3574209 117.285888,26.4659367 C116.00438,27.5245742 114.332847,27.9703163 112.549878,27.9703163 C109.485401,27.9703163 106.810949,26.1873479 106.810949,22.3428224 C106.810949,18.6097324 109.541119,16.6596107 113.49708,16.6596107 C114.444282,16.6596107 115.112895,16.7153285 116.171533,16.9939173 L116.171533,16.2138686 C116.171533,14.9323601 115.447202,14.0408759 113.385645,14.0408759 C111.435523,14.0408759 109.373966,14.5423358 107.925304,15.0995134 L107.925304,10.0849148 C109.76399,9.47201946 112.159854,9.02627737 114.054258,9.02627737 C119.068856,9.02627737 122.189051,10.9206813 122.189051,16.6038929 L122.189051,22.1756691 C122.189051,23.0114355 122.579075,23.2900243 123.191971,23.2900243 C123.359124,23.2900243 123.581995,23.2900243 123.749148,23.2343066 Z M116.171533,23.4571776 L116.171533,20.336983 C115.725791,20.2255474 115.335766,20.1698297 114.890024,20.1698297 C113.49708,20.1698297 112.661314,20.7270073 112.661314,22.2313869 C112.661314,23.6243309 113.441363,24.1257908 114.332847,24.1257908 C115.057178,24.1257908 115.614355,23.9586375 116.171533,23.4571776 Z M125.866423,27.4131387 L131.995377,27.4131387 L131.995377,0.167153285 L125.866423,0.167153285 L125.866423,27.4131387 Z M135.394161,27.4131387 L141.523114,27.4131387 L141.523114,0.167153285 L135.394161,0.167153285 L135.394161,27.4131387 Z M144.197567,18.4982968 C144.197567,12.5364964 147.262044,9.02627737 152.443796,9.02627737 C157.458394,9.02627737 160.745742,13.0379562 160.188564,20.7270073 L150.549392,20.7270073 C151.050852,22.7328467 152.388078,23.5128954 154.616788,23.5128954 C156.288321,23.5128954 157.625547,23.2900243 159.129927,22.7328467 L159.129927,27.0231144 C157.681265,27.6360097 155.954015,27.9703163 153.669586,27.9703163 C147.652068,27.9703163 144.197567,24.4600973 144.197567,18.4982968 Z M154.616788,16.9939173 C154.561071,14.9323601 154.003893,13.8180049 152.610949,13.8180049 C151.162287,13.8180049 150.437956,14.9323601 150.270803,16.9939173 L154.616788,16.9939173 Z M162.863017,9.52773723 L168.379075,9.52773723 L168.379075,12.0350365 C169.326277,10.0291971 171.164964,8.91484185 173.895134,9.1377129 L173.895134,15.3781022 C171.666423,15.0995134 169.994891,15.7681265 168.991971,17.8296837 L168.991971,27.4131387 L162.863017,27.4131387 L162.863017,9.52773723 Z" id="path-1"></path>
        <path d="M17.5510949,26.1316302 C18.1639903,26.7445255 18.1639903,27.803163 17.5510949,28.4160584 L4.45742092,41.6211679 C3.84452555,42.2340633 2.78588808,42.2340633 2.1729927,41.6211679 C1.56009732,41.0082725 1.56009732,39.949635 2.1729927,39.3367397 L4.79172749,36.6622871 C2.00583942,32.8734793 0.390024331,28.2489051 0.334306569,23.2343066 C0.222871046,10.5863747 10.4749392,0.167153285 23.1785888,0.111435523 C26.410219,0.111435523 29.3632603,0.668613139 32.1491484,1.83868613 L32.2605839,1.89440389 C32.9291971,2.1729927 32.7620438,2.56301703 32.3163017,2.8973236 L30.2547445,4.01167883 C29.5861314,4.23454988 29.4746959,4.51313869 28.4160584,4.17883212 L28.1931873,4.12311436 C26.5773723,3.73309002 24.9058394,3.51021898 23.1785888,3.51021898 C12.3136253,3.56593674 3.56593674,12.4250608 3.6216545,23.2900243 C3.67737226,27.3574209 4.95888078,31.2019465 7.13187348,34.3221411 L15.2666667,26.1316302 C15.879562,25.5187348 16.9381995,25.5187348 17.5510949,26.1316302 Z" id="path-3"></path>
        <path d="M40.2282238,0.835766423 C41.3982968,3.6216545 42.0111922,6.57469586 41.9554745,9.80632603 C42.06691,22.4542579 31.8148418,32.8734793 19.1111922,32.9291971 C14.1523114,32.9849148 9.58345499,31.4248175 5.7946472,28.750365 L2.84160584,31.7034063 C2.22871046,32.3163017 1.17007299,32.3163017 0.557177616,31.7034063 C-0.0557177616,31.0905109 -0.0557177616,30.0318735 0.557177616,29.4189781 L13.7065693,16.2695864 C14.3194647,15.656691 15.3781022,15.656691 15.9909976,16.2695864 C16.6038929,16.8824818 16.6038929,17.9411192 15.9909976,18.5540146 L8.24622871,26.3545012 C11.3664234,28.4160584 15.1552311,29.5861314 19.16691,29.5861314 C29.9761557,29.5304136 38.7238443,20.6155718 38.6681265,9.80632603 C38.6681265,8.07907543 38.4452555,6.40754258 37.9995134,4.79172749 L37.9437956,4.56885645 C37.6094891,3.51021898 37.8880779,3.45450122 38.1109489,2.73017032 L39.1695864,0.668613139 C39.5038929,0.222871046 39.8939173,0.0557177616 40.1725061,0.7243309 L40.2282238,0.835766423 Z" id="path-5"></path>
        <path d="M31.6476886,0.557177616 C31.7591241,1.4486618 31.8705596,2.34014599 31.8705596,3.28734793 C31.7591241,6.12895377 30.9233577,8.80340633 29.7532847,11.3664234 C27.5245742,16.1581509 24.4600973,20.2812652 20.559854,23.7914842 C20.336983,24.0143552 20.1698297,24.292944 20.1141119,24.5715328 C19.7798054,26.1873479 19.4454988,27.8588808 19.1111922,29.4746959 C19.0554745,29.7532847 18.8883212,30.0875912 18.6654501,30.3104623 C17.7739659,31.1462287 16.8824818,32.0377129 15.9909976,32.8734793 C15.9909976,32.5391727 15.9909976,32.2605839 15.9352798,31.9819951 C15.4895377,28.0260341 13.7065693,24.5715328 11.0321168,22.0085158 C8.30194647,19.5569343 4.79172749,18.0525547 0.891484185,17.8854015 L0,17.8854015 C0.780048662,16.9381995 1.56009732,15.9909976 2.39586375,15.0437956 C2.56301703,14.8209246 2.8973236,14.6537713 3.17591241,14.5423358 C4.79172749,14.0408759 6.40754258,13.6508516 8.02335766,13.2051095 C8.30194647,13.1493917 8.58053528,12.9265207 8.74768856,12.7036496 C12.0350365,8.58053528 15.9352798,5.23746959 20.559854,2.73017032 C23.0114355,1.39294404 25.6301703,0.445742092 28.4717762,0.111435523 C29.3632603,2.09901541e-15 30.2547445,2.09901541e-15 31.2019465,0.0557177616 C31.313382,0.0557177616 31.4248175,0.111435523 31.4805353,0.111435523 L31.536253,0.167153285 C31.536253,0.222871046 31.5919708,0.222871046 31.5919708,0.278588808 C31.5919708,0.390024331 31.6476886,0.445742092 31.6476886,0.557177616 Z M18.3868613,17.6068127 C20.336983,17.6068127 21.9527981,16.0467153 21.9527981,14.0965937 C21.9527981,12.146472 20.3927007,10.5306569 18.4425791,10.5306569 C16.4924574,10.5306569 14.8766423,12.0907543 14.8766423,14.0408759 C14.8766423,15.9909976 16.4367397,17.6068127 18.3868613,17.6068127 Z" id="path-7"></path>
    </defs>
    <g id="v2" stroke="none" stroke-width="1" fill="none" fill-rule="evenodd">
        <g id="euroknaller">
            <g id="euroknaller-logo" transform="translate(1.000000, 5.000000)">
                <g id="Group-3" transform="translate(54.603406, 6.686131)">
                    <mask id="mask-2" fill="white">
                        <use xlink:href="#path-1"></use>
                    </mask>
                    <g id="Clip-2"></g>
                    <polygon id="Fill-1" fill="#004FB2" mask="url(#mask-2)" points="0.189440389 28.0371776 173.895134 28.0371776 173.895134 0.156009732 0.189440389 0.156009732"></polygon>
                </g>
                <g id="Group-12">
                    <mask id="mask-4" fill="white">
                        <use xlink:href="#path-3"></use>
                    </mask>
                    <g id="Clip-11"></g>
                    <polygon id="Fill-10" fill="#FBD900" mask="url(#mask-4)" points="0.300875912 42.1449148 32.7286131 42.1449148 32.7286131 0.0891484185 0.300875912 0.0891484185"></polygon>
                </g>
                <path d="M17.5510949,26.1316302 C16.9381995,25.5187348 15.879562,25.5187348 15.2666667,26.1316302 L7.13187348,34.3221411 C4.95888078,31.2019465 3.67737226,27.3574209 3.6216545,23.2900243 C3.56593674,12.4250608 12.3136253,3.56593674 23.1785888,3.51021898 C24.9058394,3.51021898 26.5773723,3.73309002 28.1931873,4.12311436 L28.4160584,4.17883212 C29.4746959,4.51313869 29.5861314,4.23454988 30.2547445,4.01167883 L32.3163017,2.8973236 C32.7620438,2.56301703 32.9291971,2.1729927 32.2605839,1.89440389 L32.1491484,1.83868613 C29.3632603,0.668613139 26.410219,0.111435523 23.1785888,0.111435523 C10.4749392,0.167153285 0.222871046,10.5863747 0.334306569,23.2343066 C0.390024331,28.2489051 2.00583942,32.8734793 4.79172749,36.6622871 L2.1729927,39.3367397 C1.56009732,39.949635 1.56009732,41.0082725 2.1729927,41.6211679 C2.78588808,42.2340633 3.84452555,42.2340633 4.45742092,41.6211679 L17.5510949,28.4160584 C18.1639903,27.803163 18.1639903,26.7445255 17.5510949,26.1316302 Z" id="Stroke-13" stroke="#FBD900"></path>
                <g id="Group-17" transform="translate(7.243309, 15.600973)">
                    <mask id="mask-6" fill="white">
                        <use xlink:href="#path-5"></use>
                    </mask>
                    <g id="Clip-16"></g>
                    <polygon id="Fill-15" fill="#FBD900" mask="url(#mask-6)" points="0.0780048662 32.9626277 42.0000487 32.9626277 42.0000487 0.267445255 0.0780048662 0.267445255"></polygon>
                </g>
                <path d="M47.4715328,16.4367397 L47.4158151,16.3253041 C47.1372263,15.656691 46.7472019,15.8238443 46.4128954,16.2695864 L45.3542579,18.3311436 C45.1313869,19.0554745 44.8527981,19.1111922 45.1871046,20.1698297 L45.2428224,20.3927007 C45.6885645,22.0085158 45.9114355,23.6800487 45.9114355,25.4072993 C45.9671533,36.216545 37.2194647,45.1313869 26.410219,45.1871046 C22.3985401,45.1871046 18.6097324,44.0170316 15.4895377,41.9554745 L23.2343066,34.1549878 C23.8472019,33.5420925 23.8472019,32.483455 23.2343066,31.8705596 C22.6214112,31.2576642 21.5627737,31.2576642 20.9498783,31.8705596 L7.80048662,45.0199513 C7.18759124,45.6328467 7.18759124,46.6914842 7.80048662,47.3043796 C8.413382,47.9172749 9.47201946,47.9172749 10.0849148,47.3043796 L13.0379562,44.3513382 C16.826764,47.0257908 21.3956204,48.5858881 26.3545012,48.5301703 C39.0581509,48.4744526 49.310219,38.0552311 49.1987835,25.4072993 C49.2545012,22.1756691 48.6416058,19.2226277 47.4715328,16.4367397 Z" id="Stroke-18" stroke="#FBD900"></path>
                <g id="Group-21" transform="translate(15.043796, 1.671533)">
                    <mask id="mask-8" fill="white">
                        <use xlink:href="#path-7"></use>
                    </mask>
                    <g id="Clip-20"></g>
                    <polygon id="Fill-19" fill="#004FB2" mask="url(#mask-8)" points="-0.0334306569 32.9180535 31.9262774 32.9180535 31.9262774 -0.0445742092 -0.0334306569 -0.0445742092"></polygon>
                </g>
            </g>
        </g>
    </g>
</svg>