<?xml version="1.0" encoding="UTF-8"?>
<svg width="222px" height="60px" viewBox="0 0 222 60" version="1.1" xmlns="http://www.w3.org/2000/svg" xmlns:xlink="http://www.w3.org/1999/xlink">
    <!-- Generator: Sketch 46.2 (44496) - http://www.bohemiancoding.com/sketch -->
    <title>venture-logos/fashiolista</title>
    <desc>Created with Sketch.</desc>
    <defs>
        <polygon id="path-1" points="0 0 6.60913706 0 6.60913706 1.93752632 2.21736548 1.93752632 2.21736548 6.29668421 6.04405584 6.29668421 6.04405584 8.23310526 2.21736548 8.23310526 2.21736548 14.3684211 0 14.3684211"></polygon>
    </defs>
    <g id="Asset-Templates" stroke="none" stroke-width="1" fill="none" fill-rule="evenodd">
        <g id="venture-logos/fashiolista">
            <g id="fashiolista-logo" transform="translate(1.000000, 9.000000)">
                <g id="Group-3" transform="translate(56.177665, 8.842105)" fill="#000000">
                    <path d="M0.273177665,0.539368421 L8.97961421,0.539368421 L8.97961421,3.29810526 L3.19441624,3.29810526 L3.19441624,9.50526316 L8.23498477,9.50526316 L8.23498477,12.264 L3.19441624,12.264 L3.19441624,21 L0.273177665,21 L0.273177665,0.539368421 Z M18.8955228,6.43042105 L18.8382437,6.43042105 L17.406264,13.8445263 L20.3275025,13.8445263 L18.8955228,6.43042105 Z M17.6640203,0.539368421 L20.0983858,0.539368421 L24.6520812,21 L21.7308426,21 L20.8716548,16.6032632 L16.8907513,16.6032632 L16.0315635,21 L13.1103249,21 L17.6640203,0.539368421 Z M40.5250254,6.43042105 L37.6037868,6.43042105 L37.6037868,5.76947368 C37.6037868,5.09857895 37.446269,4.51942105 37.1312335,4.03089474 C36.816198,3.54236842 36.2863655,3.29810526 35.541736,3.29810526 C35.1407817,3.29810526 34.8114264,3.37436842 34.5536701,3.528 C34.2959137,3.68163158 34.0954365,3.87726316 33.9522386,4.11710526 C33.8090406,4.35694737 33.708802,4.63436842 33.6515228,4.95047368 C33.5942437,5.26657895 33.5656041,5.59705263 33.5656041,5.94189474 C33.5656041,6.34421053 33.5799239,6.68463158 33.6085635,6.96205263 C33.637203,7.23947368 33.708802,7.47931579 33.8233604,7.68047368 C33.9379188,7.88163158 34.1053503,8.05847368 34.3245533,8.21210526 C34.5437563,8.36573684 34.8444721,8.51826316 35.2267005,8.67189474 L37.4605888,9.56273684 C38.1093858,9.81142105 38.6348122,10.1043158 39.0357665,10.4392105 C39.4367208,10.7741053 39.7473503,11.1675789 39.9665533,11.6174211 C40.1857563,12.0672632 40.3344619,12.5845263 40.410467,13.1692105 C40.4864721,13.7538947 40.5250254,14.4192632 40.5250254,15.1664211 C40.5250254,16.0285263 40.4391066,16.8287368 40.267269,17.5659474 C40.0954315,18.3031579 39.8134416,18.9353684 39.422401,19.4625789 C39.0313604,19.9897895 38.5103401,20.4064737 37.8615431,20.7126316 C37.2127462,21.0187895 36.4196497,21.1724211 35.4844569,21.1724211 C34.7783807,21.1724211 34.1196701,21.0475263 33.5083249,20.7988421 C32.8969797,20.5501579 32.3726548,20.2097368 31.9331472,19.7786842 C31.4936396,19.3476316 31.1455584,18.8347895 30.887802,18.2412632 C30.6300457,17.6477368 30.5011675,17.0055789 30.5011675,16.3158947 L30.5011675,15.2238947 L33.4224061,15.2238947 L33.4224061,16.1434737 C33.4224061,16.6795263 33.5799239,17.1636316 33.8949594,17.5946842 C34.2099949,18.0257368 34.7398274,18.2412632 35.4844569,18.2412632 C35.9812437,18.2412632 36.3678782,18.1694211 36.6443604,18.0257368 C36.9208426,17.8820526 37.1312335,17.6808947 37.2744315,17.4222632 C37.4176294,17.1636316 37.5079543,16.8431053 37.5465076,16.4595789 C37.5850609,16.0760526 37.6037868,15.6549474 37.6037868,15.1951579 C37.6037868,14.6591053 37.5850609,14.2181053 37.5465076,13.8732632 C37.5079543,13.5284211 37.4275431,13.251 37.3030711,13.0398947 C37.178599,12.8287895 37.0067614,12.6563684 36.7875584,12.5226316 C36.5683553,12.3888947 36.2764518,12.2452105 35.9140508,12.0915789 L33.8233604,11.2294737 C32.5632183,10.7122105 31.7183503,10.0269474 31.2887563,9.17478947 C30.8591624,8.32263158 30.6443655,7.25384211 30.6443655,5.97063158 C30.6443655,5.20468421 30.7490102,4.47631579 30.959401,3.78663158 C31.1697919,3.09694737 31.4793198,2.50342105 31.8901878,2.00494737 C32.3010558,1.50647368 32.8209746,1.10968421 33.4510457,0.812368421 C34.0811168,0.515052632 34.8158325,0.366947368 35.6562944,0.366947368 C36.382198,0.366947368 37.0453147,0.500684211 37.6467462,0.769263158 C38.2481777,1.03784211 38.7636904,1.39152632 39.1932843,1.83252632 C39.6228782,2.27352632 39.9522335,2.76647368 40.1813503,3.31247368 C40.410467,3.85847368 40.5250254,4.41884211 40.5250254,4.99357895 L40.5250254,6.43042105 Z M47.691533,0.539368421 L50.6127716,0.539368421 L50.6127716,9.30410526 L54.2213604,9.30410526 L54.2213604,0.539368421 L57.142599,0.539368421 L57.142599,21 L54.2213604,21 L54.2213604,11.8904211 L50.6127716,11.8904211 L50.6127716,21 L47.691533,21 L47.691533,0.539368421 Z M64.9678173,21 L67.8890558,21 L67.8890558,0.539368421 L64.9678173,0.539368421 L64.9678173,21 Z M75.5424365,5.36715789 C75.5424365,4.54373684 75.6856345,3.81536842 75.9720305,3.18315789 C76.2584264,2.55094737 76.6351472,2.02926316 77.1032944,1.617 C77.5714416,1.20473684 78.0957665,0.894157895 78.6784721,0.683052632 C79.2611777,0.471947368 79.8482893,0.366947368 80.4398071,0.366947368 C81.0313249,0.366947368 81.6184365,0.471947368 82.2011421,0.683052632 C82.7838477,0.894157895 83.3081726,1.20473684 83.7763198,1.617 C84.244467,2.02926316 84.6211878,2.55094737 84.9075838,3.18315789 C85.1939797,3.81536842 85.3371777,4.54373684 85.3371777,5.36715789 L85.3371777,16.1722105 C85.3371777,17.0155263 85.1939797,17.7483158 84.9075838,18.3705789 C84.6211878,18.9928421 84.244467,19.5101053 83.7763198,19.9223684 C83.3081726,20.3346316 82.7838477,20.6452105 82.2011421,20.8563158 C81.6184365,21.0674211 81.0313249,21.1724211 80.4398071,21.1724211 C79.8482893,21.1724211 79.2611777,21.0674211 78.6784721,20.8563158 C78.0957665,20.6452105 77.5714416,20.3346316 77.1032944,19.9223684 C76.6351472,19.5101053 76.2584264,18.9928421 75.9720305,18.3705789 C75.6856345,17.7483158 75.5424365,17.0155263 75.5424365,16.1722105 L75.5424365,5.36715789 Z M78.4636751,16.1722105 C78.4636751,16.8806842 78.6597462,17.4034737 79.0507868,17.7383684 C79.4418274,18.0732632 79.9055685,18.2412632 80.4398071,18.2412632 C80.9740457,18.2412632 81.4377868,18.0732632 81.8288274,17.7383684 C82.219868,17.4034737 82.4159391,16.8806842 82.4159391,16.1722105 L82.4159391,5.36715789 C82.4159391,4.65868421 82.219868,4.13589474 81.8288274,3.801 C81.4377868,3.46610526 80.9740457,3.29810526 80.4398071,3.29810526 C79.9055685,3.29810526 79.4418274,3.46610526 79.0507868,3.801 C78.6597462,4.13589474 78.4636751,4.65868421 78.4636751,5.36715789 L78.4636751,16.1722105 Z M92.9046396,0.539368421 L95.8258782,0.539368421 L95.8258782,18.0688421 L101.611076,18.0688421 L101.611076,21 L92.9046396,21 L92.9046396,0.539368421 Z M108.577107,21 L111.498345,21 L111.498345,0.539368421 L108.577107,0.539368421 L108.577107,21 Z M128.774629,6.43042105 L125.853391,6.43042105 L125.853391,5.76947368 C125.853391,5.09857895 125.695873,4.51942105 125.380838,4.03089474 C125.065802,3.54236842 124.53597,3.29810526 123.79134,3.29810526 C123.390386,3.29810526 123.06103,3.37436842 122.803274,3.528 C122.545518,3.68163158 122.345041,3.87726316 122.201843,4.11710526 C122.058645,4.35694737 121.958406,4.63436842 121.901127,4.95047368 C121.843848,5.26657895 121.815208,5.59705263 121.815208,5.94189474 C121.815208,6.34421053 121.829528,6.68463158 121.858168,6.96205263 C121.886807,7.23947368 121.958406,7.47931579 122.072964,7.68047368 C122.187523,7.88163158 122.354954,8.05847368 122.574157,8.21210526 C122.79336,8.36573684 123.094076,8.51826316 123.476305,8.67189474 L125.710193,9.56273684 C126.35899,9.81142105 126.884416,10.1043158 127.285371,10.4392105 C127.686325,10.7741053 127.996954,11.1675789 128.216157,11.6174211 C128.43536,12.0672632 128.584066,12.5845263 128.660071,13.1692105 C128.736076,13.7538947 128.774629,14.4192632 128.774629,15.1664211 C128.774629,16.0285263 128.688711,16.8287368 128.516873,17.5659474 C128.345036,18.3031579 128.063046,18.9353684 127.672005,19.4625789 C127.280964,19.9897895 126.759944,20.4064737 126.111147,20.7126316 C125.46235,21.0187895 124.669254,21.1724211 123.734061,21.1724211 C123.027985,21.1724211 122.369274,21.0475263 121.757929,20.7988421 C121.146584,20.5501579 120.622259,20.2097368 120.182751,19.7786842 C119.743244,19.3476316 119.395162,18.8347895 119.137406,18.2412632 C118.87965,17.6477368 118.750772,17.0055789 118.750772,16.3158947 L118.750772,15.2238947 L121.67201,15.2238947 L121.67201,16.1434737 C121.67201,16.6795263 121.829528,17.1636316 122.144563,17.5946842 C122.459599,18.0257368 122.989431,18.2412632 123.734061,18.2412632 C124.230848,18.2412632 124.617482,18.1694211 124.893964,18.0257368 C125.170447,17.8820526 125.380838,17.6808947 125.524036,17.4222632 C125.667234,17.1636316 125.757558,16.8431053 125.796112,16.4595789 C125.834665,16.0760526 125.853391,15.6549474 125.853391,15.1951579 C125.853391,14.6591053 125.834665,14.2181053 125.796112,13.8732632 C125.757558,13.5284211 125.677147,13.251 125.552675,13.0398947 C125.428203,12.8287895 125.256365,12.6563684 125.037162,12.5226316 C124.817959,12.3888947 124.526056,12.2452105 124.163655,12.0915789 L122.072964,11.2294737 C120.812822,10.7122105 119.967954,10.0269474 119.53836,9.17478947 C119.108766,8.32263158 118.89397,7.25384211 118.89397,5.97063158 C118.89397,5.20468421 118.998614,4.47631579 119.209005,3.78663158 C119.419396,3.09694737 119.728924,2.50342105 120.139792,2.00494737 C120.55066,1.50647368 121.070579,1.10968421 121.70065,0.812368421 C122.330721,0.515052632 123.065437,0.366947368 123.905898,0.366947368 C124.631802,0.366947368 125.294919,0.500684211 125.89635,0.769263158 C126.497782,1.03784211 127.013294,1.39152632 127.442888,1.83252632 C127.872482,2.27352632 128.201838,2.76647368 128.430954,3.31247368 C128.660071,3.85847368 128.774629,4.41884211 128.774629,4.99357895 L128.774629,6.43042105 Z M137.85999,3.29810526 L134.480518,3.29810526 L134.480518,0.539368421 L144.160701,0.539368421 L144.160701,3.29810526 L140.781228,3.29810526 L140.781228,21 L137.85999,21 L137.85999,3.29810526 Z M154.907157,6.43042105 L154.849878,6.43042105 L153.417898,13.8445263 L156.339137,13.8445263 L154.907157,6.43042105 Z M153.675655,0.539368421 L156.11002,0.539368421 L160.663716,21 L157.742477,21 L156.883289,16.6032632 L152.902386,16.6032632 L152.043198,21 L149.121959,21 L153.675655,0.539368421 Z" id="Clip-2"></path>
                </g>
                <g id="Group-7" transform="translate(2.203046, 0.000000)">
                    <polyline id="Fill-4" fill="#000000" points="20.928934 0.679736842 41.1804315 21 20.928934 41.3202632 0.677436548 21 20.928934 0.679736842"></polyline>
                    <polygon id="Stroke-6" stroke="#000000" stroke-width="2" points="20.928934 0.679736842 41.1804315 21 20.928934 41.3202632 0.677436548 21"></polygon>
                </g>
                <g id="Group-11">
                    <polyline id="Fill-8" fill="#FFFFFF" points="20.928934 0.679736842 41.1804315 21 20.928934 41.3202632 0.677436548 21 20.928934 0.679736842"></polyline>
                    <polygon id="Stroke-10" stroke="#000000" stroke-width="2" points="20.928934 0.679736842 41.1804315 21 20.928934 41.3202632 0.677436548 21"></polygon>
                </g>
                <g id="Group-14" transform="translate(18.725888, 14.368421)">
                    <mask id="mask-2" fill="white">
                        <use xlink:href="#path-1"></use>
                    </mask>
                    <g id="Clip-13"></g>
                    <polygon id="Fill-12" fill="#000000" mask="url(#mask-2)" points="-0.0881218274 14.3684211 6.65319797 14.3684211 6.65319797 -0.0884210526 -0.0881218274 -0.0884210526"></polygon>
                </g>
            </g>
        </g>
    </g>
</svg>