<?xml version="1.0" encoding="UTF-8"?>
<svg width="231px" height="60px" viewBox="0 0 231 60" version="1.1" xmlns="http://www.w3.org/2000/svg" xmlns:xlink="http://www.w3.org/1999/xlink">
    <!-- Generator: Sketch 46.2 (44496) - http://www.bohemiancoding.com/sketch -->
    <title>hellospecial</title>
    <desc>Created with Sketch.</desc>
    <defs>
        <linearGradient x1="0.198021147%" y1="50.5979517%" x2="99.9858895%" y2="50.5979517%" id="linearGradient-1">
            <stop stop-color="#F29629" offset="3%"></stop>
            <stop stop-color="#E63D7E" offset="45%"></stop>
            <stop stop-color="#BF9AC7" offset="99%"></stop>
        </linearGradient>
    </defs>
    <g id="v2" stroke="none" stroke-width="1" fill="none" fill-rule="evenodd">
        <g id="hellospecial" fill-rule="nonzero" fill="url(#linearGradient-1)">
            <g id="hellospecial-logo" transform="translate(0.000000, 5.000000)">
                <path d="M230.479437,19.8826291 C230.262535,19.8826291 229.660031,20.9791862 228.671925,23.1723005 C227.843849,25.0626416 226.831574,26.8668146 225.649765,28.5586854 C224.637559,29.9613146 223.845869,30.6843192 223.274695,30.7276995 C222.901143,30.7276995 222.715571,29.6913928 222.717981,27.6187793 C222.720391,25.5461659 222.771002,23.1096401 222.869812,20.3092019 C225.53288,14.8818466 226.858388,9.97746479 226.846338,5.59605634 C226.83738,4.94297054 226.699797,4.29805299 226.441455,3.69816901 C226.270013,3.11393947 225.734451,2.71226841 225.125587,2.71126761 C222.53,2.71126761 220.877934,5.391205 220.16939,10.7510798 C219.509469,15.479177 219.09199,20.2379536 218.918592,25.0087324 C218.305083,26.2449214 217.596834,27.431782 216.800188,28.5586854 C215.791596,29.9576995 214.992676,30.6734742 214.425117,30.7060094 C214.222676,30.7060094 214.121455,30.2505164 214.121455,29.3395305 C214.121455,24.6207199 214.273286,21.873302 214.576948,21.097277 C214.884951,20.4225999 215.097857,19.708452 215.209577,18.9752582 C215.35142,18.3251798 215.444465,17.665407 215.487934,17.0014554 C215.487934,15.7217371 215.242113,15.0782629 214.76493,15.0782629 C214.287746,15.0782629 213.680423,15.3421596 212.993568,15.862723 C212.452567,16.2416326 211.966038,16.6928879 211.547559,17.2038967 C210.20036,15.7868075 208.985712,15.0782629 207.903615,15.0782629 C205.409249,15.0782629 203.395681,16.1242097 201.862911,18.2161033 C200.570854,19.9590393 199.793135,22.0292022 199.617981,24.1917371 C198.900956,25.7170977 198.054344,27.1781079 197.087465,28.5586854 C196.077668,29.9613146 195.283568,30.6843192 194.705164,30.7276995 C194.502723,30.7276995 194.401502,30.2722066 194.401502,29.3612207 C194.401502,24.64241 194.620814,21.7262911 195.059437,20.6128638 C195.365933,19.937905 195.577609,19.2238004 195.688451,18.4908451 C195.832141,17.8410994 195.925206,17.181185 195.966808,16.5170423 C195.966808,15.2373239 195.724601,14.5938498 195.243803,14.5938498 C194.763005,14.5938498 194.06892,14.9553521 193.194085,15.707277 C192.615975,16.1531128 192.08971,16.6624014 191.625164,17.2255869 C191.455258,17.4967136 191.263662,19.3223005 191.043146,22.7131925 C191.01061,23.1903756 190.98169,23.6458685 190.956385,24.0832864 C190.240494,25.436031 189.41597,26.7284287 188.490939,27.9477465 C187.886867,28.7595113 187.130508,29.4458832 186.264085,29.9685446 C185.428192,30.4543302 184.476154,30.7042089 183.509437,30.6915493 C182.48277,30.6915493 181.611549,30.1601408 180.90662,29.0973239 C180.20169,28.034507 179.843803,26.646338 179.843803,24.9255869 C179.877288,23.0442476 180.341011,21.1955411 181.199437,19.5211268 C182.110423,17.6485446 183.19493,16.7122535 184.452958,16.7122535 C184.812475,16.7075535 185.151993,16.8773123 185.363944,17.1677465 C185.596671,17.4538698 185.724265,17.8111347 185.725446,18.1799531 L185.324178,20.7574648 C185.324178,21.400939 185.609765,21.719061 186.184554,21.719061 C186.882025,21.7069638 187.526924,21.3458202 187.90169,20.7574648 C188.383693,20.1164006 188.624695,19.1391393 188.624695,17.8256808 C188.607055,17.0709692 188.24808,16.3649836 187.648638,15.9061033 C186.929132,15.3199531 186.015545,15.025747 185.089202,15.0818779 C182.618924,15.0386324 180.270458,16.1526828 178.741221,18.0931925 C177.536213,19.5392019 176.769828,21.4563693 176.442066,23.8446948 C175.708859,25.2779211 174.852492,26.6447212 173.882629,27.9296714 C173.279826,28.7412688 172.52468,29.4276538 171.65939,29.9504695 C170.830463,30.4339753 169.88601,30.6838305 168.926432,30.6734742 C167.914225,30.6734742 167.03216,30.1926761 166.273005,29.2274648 C165.504088,28.2442861 165.038064,27.0585017 164.931831,25.8148826 C167.19819,25.8116008 169.397881,25.0478193 171.178592,23.6458685 C172.880063,22.2817997 173.730798,20.5947887 173.730798,18.5848357 C173.774575,17.6073748 173.365088,16.664355 172.620986,16.0290141 C171.819525,15.3863719 170.813368,15.0539807 169.786808,15.092723 C167.445411,15.0317425 165.212247,16.077994 163.760563,17.9160563 C162.208513,19.8030986 161.433693,22.5842566 161.436103,26.2595305 C161.418126,28.0294517 162.007625,29.7520152 163.106244,31.1398122 C164.165664,32.5477792 165.846025,33.3494936 167.606948,33.2871362 C170.87493,33.2871362 173.622347,31.4796244 175.849202,27.8646009 C175.993803,27.6235994 176.131174,27.3922379 176.261315,27.1705164 C176.33716,28.6406339 176.8536,30.053917 177.743474,31.2265728 C178.738811,32.5930516 180.19687,33.2750861 182.117653,33.2726761 C184.541952,33.3196642 186.860594,32.2816446 188.440329,30.4421127 C189.174794,29.629905 189.842148,28.7594435 190.435822,27.8392958 C190.547887,27.6621596 190.667183,27.4777934 190.797324,27.260892 C190.750329,28.3453991 190.725023,29.26 190.725023,29.9360094 C190.725023,31.3820188 190.844319,32.2315493 191.086526,32.4665258 C191.76133,33.0063693 192.756667,33.2750861 194.072535,33.2726761 C195.626995,33.2726761 197.487528,31.2072927 199.654131,27.0765258 C199.822833,28.956338 200.304836,30.3902974 201.100141,31.3784038 C202.112347,32.643662 203.29205,33.2750861 204.639249,33.2726761 C205.93414,33.2990044 207.164538,32.7086281 207.954225,31.6820657 C208.809781,30.6192488 209.677387,28.9924883 210.557042,26.801784 C210.488357,28.4213146 210.455822,29.6938028 210.455822,30.6698592 C210.455822,31.6459155 210.571502,32.2315493 210.817324,32.4773709 C211.489718,33.0172144 212.48385,33.2859312 213.799718,33.2835211 C215.245728,33.2835211 216.968889,31.4760094 218.969202,27.8609859 C219.017402,30.5963537 219.182488,32.1339437 219.46446,32.4737559 C219.793232,32.7410615 220.183304,32.9224327 220.599577,33.0015493 C221.265554,33.1939518 221.956128,33.2877335 222.649296,33.2799061 C224.471268,33.2799061 226.713787,30.4481377 229.376854,24.7846009 C230.352911,22.7312676 230.840939,21.2274178 230.840939,20.2838967 C230.808404,20.023615 230.699953,19.8826291 230.479437,19.8826291 Z M225.194272,4.41032864 C225.465399,4.41032864 225.599155,4.94896714 225.599155,6.02624413 C225.599155,8.72787166 224.723114,12.3862754 222.971033,17.0014554 C223.440986,8.60978092 224.182066,4.41394366 225.194272,4.41394366 L225.194272,4.41032864 Z M166.233239,19.1596244 C167.043005,17.5208138 168.037136,16.7026134 169.215634,16.7050235 C170.19651,16.7050235 170.685743,17.4641784 170.683333,18.9824883 C170.737693,20.3504014 170.235577,21.6819871 169.291549,22.6734272 C168.366103,23.6181534 166.908044,24.2580125 164.917371,24.5930047 C164.960184,22.7083271 165.409013,20.8550577 166.233239,19.1596244 L166.233239,19.1596244 Z M211.059531,20.8767606 C211.00892,21.5346948 210.96554,21.9974178 210.933005,22.2685446 C208.763991,27.8332707 207.128795,30.6144288 206.027418,30.6120188 C205.116432,30.6120188 204.382582,30.0095149 203.825869,28.804507 C203.269155,27.5994992 202.990798,26.0498592 202.990798,24.1555869 C202.953704,22.3796097 203.515238,20.6428023 204.585023,19.2246948 C205.64784,17.8244758 206.650407,17.1243662 207.592723,17.1243662 C208.313741,17.1729728 209.006523,17.4235268 209.591831,17.8473709 C210.23953,18.2263644 210.786372,18.755846 211.186056,19.3909859 C211.153521,19.7199531 211.117371,20.2152113 211.063146,20.8731455 L211.059531,20.8767606 Z M193.537512,11.4776995 C194.440876,11.5145097 195.299739,11.0843955 195.811362,10.3389671 C196.361714,9.54654528 196.645347,8.59941596 196.621127,7.63492958 C196.621127,6.5889828 196.165634,6.06721439 195.254648,6.06962441 C194.629894,6.11192651 194.03199,6.33975957 193.537512,6.72394366 C192.962402,7.05055225 192.599282,7.65346879 192.579531,8.31455399 C192.579531,10.4329577 192.901268,11.4921596 193.541127,11.4921596 L193.537512,11.4776995 Z M123.857934,20.1392958 C123.857934,19.8356338 123.720563,19.6838028 123.453052,19.6838028 C123.307724,19.7006202 123.16872,19.7527467 123.048169,19.8356338 L122.440845,20.1971362 L121.251502,20.9201408 C120.358389,21.3940071 119.418196,21.7732345 118.446244,22.0516432 C118.410094,19.8247887 117.83651,18.017277 116.725493,16.629108 C115.614476,15.240939 114.409468,14.5504695 113.110469,14.5576995 C111.910032,14.5284473 110.731386,14.8816613 109.744883,15.5662911 C107.655399,15.5662911 105.945493,16.5616275 104.615164,18.5523005 C103.322051,20.4160238 102.624966,22.6282913 102.616056,24.8966667 C102.616056,24.9219718 102.616056,24.947277 102.616056,24.9725822 C102.003501,26.2208145 101.295251,27.4197628 100.497653,28.5586854 C99.4878561,29.9589045 98.696166,30.6746792 98.1225822,30.7060094 C97.7490299,30.7060094 97.5634584,29.6697026 97.5658685,27.5970892 C97.5682787,25.5244758 97.618889,23.0891549 97.7176995,20.2911268 C100.380767,14.8613615 101.706275,9.95577465 101.694225,5.5743662 C101.685267,4.92128039 101.547685,4.27636285 101.289343,3.67647887 C101.118941,3.09152784 100.582739,2.68937649 99.9734742,2.68957746 C97.3778873,2.68957746 95.7270265,5.36951485 95.020892,10.7293897 C94.3590897,15.4524278 93.9416011,20.2064877 93.7700939,24.9725822 C93.1528792,26.2197796 92.4423124,27.4185595 91.6444601,28.5586854 C90.6322535,29.9589045 89.8393585,30.6746792 89.2657746,30.7060094 C88.8922223,30.7060094 88.7066509,29.6697026 88.709061,27.5970892 C88.7114712,25.5244758 88.7620815,23.0891549 88.860892,20.2911268 C91.5239594,14.8613615 92.8494678,9.95577465 92.8374178,5.5743662 C92.8280188,4.92169959 92.6917313,4.27709554 92.4361502,3.67647887 C92.2647074,3.09224933 91.729146,2.69057827 91.1202817,2.68957746 C88.5246948,2.68957746 86.8726291,5.36951485 86.1640845,10.7293897 C85.46277,16.1519249 85.0578873,20.5911737 84.9385915,24.1049765 C84.2379226,25.4359254 83.4303231,26.7077739 82.5237559,27.9079812 C81.9196844,28.719746 81.1633246,29.4061179 80.2969014,29.9287793 C79.46924,30.4121578 78.5259809,30.6620277 77.5675587,30.651784 C76.5553521,30.651784 75.6696714,30.1697809 74.9105164,29.2057746 C74.1440718,28.2201299 73.6795026,27.0335957 73.5729577,25.7895775 C75.8355109,25.7916752 78.0335348,25.0356669 79.8161033,23.6422535 C81.5199842,22.2757746 82.3719249,20.5815336 82.3719249,18.5595305 C82.4159139,17.5812616 82.0048453,16.6376727 81.2584977,16.0037089 C80.4615242,15.3697644 79.4636128,15.0426854 78.4460094,15.0818779 C76.1053724,15.0263649 73.8752767,16.076452 72.4269953,17.9160563 C71.0870265,19.5500469 70.3266667,21.8528169 70.1459155,24.8243662 C69.5044516,26.1250611 68.7623173,27.3736355 67.9262911,28.5586854 C66.9140845,29.9589045 66.1223944,30.6746792 65.5512207,30.7060094 C65.3451643,30.7060094 65.2475587,30.344507 65.2475587,29.567277 C65.2475587,28.7900469 65.4066197,26.9897653 65.7283568,24.1085915 C65.998428,21.9345675 66.1588971,19.7483272 66.2091549,17.558169 C66.2187478,16.8705551 65.9106238,16.2169591 65.3740845,15.7868075 C64.8508825,15.3222777 64.1758589,15.0651258 63.4761972,15.0638028 C62.7531925,15.0638028 61.9687324,15.555446 61.0758216,16.5315023 C59.8573027,17.9662011 58.7685238,19.5062179 57.8223005,21.1334272 C56.5425822,23.2229108 55.8340376,24.3869484 55.7002817,24.5713146 C55.7002817,22.785493 55.7002817,21.4696244 55.750892,20.6273239 C56.7630986,19.2801252 57.75723,17.3412676 58.7332864,14.8107512 C59.7196972,12.2172216 60.2137621,9.46247259 60.1901408,6.68779343 C60.2270459,5.69889884 60.0545778,4.7133663 59.6840376,3.79577465 C59.3478404,3.07276995 59.0080282,2.68234742 58.671831,2.68234742 C57.8787028,2.70256877 57.1151534,2.98762719 56.5028169,3.49211268 C53.4348669,5.85151801 51.900892,11.3463537 51.900892,19.9766197 L51.900892,22.9120188 C51.900892,24.0567762 51.8081063,25.7678873 51.6225352,28.0453521 C51.434554,30.3192019 51.3441784,31.6603756 51.3441784,32.0218779 C51.3441784,32.3833803 51.7056808,32.7123474 52.4539906,32.9328638 C53.2103913,33.1528211 53.9943348,33.2635957 54.7820657,33.261831 C55.3207042,33.261831 55.591831,32.7882629 55.591831,31.8447418 L55.5412207,30.2758216 C55.5479511,29.1570158 55.6495354,28.0407952 55.8448826,26.9391549 C55.9461033,26.2980908 56.8221439,24.8231612 58.4730047,22.5143662 C60.1238655,20.2055712 61.1433022,19.0511737 61.5313146,19.0511737 C61.9217371,19.0511737 62.1133333,19.6078873 62.1133333,20.7176995 C62.1133333,21.8275117 62.0229577,23.5084977 61.8349765,25.7498122 C61.6469953,27.9911268 61.5566197,29.6106573 61.5566197,30.6047887 C61.5566197,31.5989202 61.6759155,32.2170892 61.9181221,32.4520657 C62.5929266,32.9919092 63.5882629,33.261831 64.9041315,33.261831 C66.3899061,33.261831 68.1576526,31.3350235 70.2146009,27.5537089 C70.4259544,28.8530855 70.9646413,30.077261 71.7799061,31.110892 C72.8378666,32.5231243 74.5168248,33.3322607 76.2806103,33.2799061 C79.5485915,33.2799061 82.2960094,31.4723944 84.5228638,27.8573709 C84.6710798,27.6151643 84.7976056,27.3910329 84.9349765,27.1596714 C84.9638967,30.3155869 85.1265728,32.0905634 85.4338498,32.4592958 C85.7640128,32.7272823 86.1551156,32.9097971 86.5725822,32.9907042 C87.2376507,33.1815513 87.9268043,33.2753054 88.6186854,33.269061 C90.0646948,33.269061 91.7999061,31.4290141 93.791784,27.8212207 C93.8351643,30.5614085 93.9978404,32.1194836 94.2834272,32.4592958 C94.6135902,32.7272823 95.0046931,32.9097971 95.4221596,32.9907042 C96.0872281,33.1815513 96.7763818,33.2753054 97.4682629,33.269061 C98.9865728,33.269061 100.7977,31.2735681 102.890798,27.3440376 C103.130752,28.5633818 103.604612,29.7247061 104.286197,30.7638498 C105.394805,32.4339906 106.99626,33.269061 109.090563,33.269061 C111.953662,33.269061 114.161236,32.3918153 115.713286,30.6373239 C117.265336,28.8828326 118.159452,26.5933177 118.395634,23.7687793 C119.774809,23.2527654 121.083026,22.5640385 122.289014,21.719061 C123.332551,20.9767762 123.855524,20.4501878 123.857934,20.1392958 Z M100.038545,4.41394366 C100.306056,4.41394366 100.443427,4.95258216 100.443427,6.02985915 C100.443427,8.73148669 99.5661814,12.3898904 97.8116901,17.0050704 C98.2840533,8.61098592 99.026338,4.41394366 100.038545,4.41394366 Z M91.1889671,4.41394366 C91.4564789,4.41394366 91.5938498,4.95258216 91.5938498,6.02985915 C91.5938498,8.73148669 90.7166039,12.3898904 88.9621127,17.0050704 C89.4344759,8.61098592 90.1767606,4.41394366 91.1889671,4.41394366 L91.1889671,4.41394366 Z M74.9032864,19.1596244 C75.7130516,17.5208138 76.708388,16.7026134 77.8892958,16.7050235 C78.8653521,16.7050235 79.3569953,17.4641784 79.3569953,18.9824883 C79.4113548,20.3504014 78.9092389,21.6819871 77.9652113,22.6734272 C77.0349453,23.6181534 75.5768856,24.2580125 73.5910329,24.5930047 C73.6326045,22.7085805 74.0802034,20.8553004 74.9032864,19.1596244 L74.9032864,19.1596244 Z M56.4992019,11.2897183 C57.0703756,7.54696402 57.6596244,5.67679185 58.2669484,5.67920188 C58.6284507,5.67920188 58.823662,6.40220657 58.823662,7.80122066 C58.823662,10.5992488 57.8295305,14.0720814 55.8412676,18.2197183 C55.9689983,15.5879812 56.1883099,13.2779812 56.4992019,11.2897183 Z M113.743099,29.1660094 C113.027888,30.3456068 111.734795,31.0508044 110.355822,31.0132864 C108.909812,31.0132864 107.846995,30.2806416 107.167371,28.8153521 C106.49556,27.3642718 106.150047,25.7835498 106.155164,24.184507 C106.155164,20.8104851 106.878169,18.5523005 108.324178,17.4099531 C107.931684,18.322367 107.741747,19.3090522 107.767465,20.3019718 C107.767465,21.410579 108.307308,22.4300157 109.386995,23.3602817 C110.485548,24.293435 111.890138,24.7878094 113.330986,24.7484507 L115.138498,24.6508451 C115.06758,26.2505413 114.587106,27.8052344 113.743099,29.1660094 Z M114.596244,22.7746479 C113.481339,22.78758 112.404263,22.3707307 111.588545,21.6106103 C110.731338,20.8399631 110.258887,19.7296348 110.297981,18.5776056 C110.299499,18.0160682 110.458565,17.4662254 110.757089,16.9906103 C111.013709,16.535187 111.499699,16.2574785 112.022347,16.2676056 C113.099624,16.2676056 113.884085,16.94241 114.375728,18.2920188 C114.879168,19.7354017 115.160728,21.2468065 115.210798,22.7746479 L114.596244,22.7746479 Z M141.022066,19.9910798 C140.131089,18.8525651 139.025784,17.8995463 137.768545,17.1858216 C136.508106,16.4628169 135.244053,15.7892175 133.976385,15.1650235 C132.808274,14.6033363 131.720217,13.888501 130.740939,13.0393897 C129.899899,12.3589525 129.407801,11.3376153 129.399765,10.2558216 C129.399765,9.19541472 129.897434,8.18441315 130.89277,7.2228169 C131.821066,6.28661714 133.088215,5.76515669 134.406573,5.77680751 C136.734648,5.77680751 137.964961,6.68779343 138.097512,8.50976526 L137.84446,9.82201878 C137.876995,10.3317371 138.242113,10.5847887 138.928967,10.5847887 C139.588042,10.6092075 140.214885,10.2991854 140.595493,9.76056338 C141.016086,9.17141483 141.229652,8.45952717 141.202817,7.73615023 C141.166667,6.35521127 140.474992,5.32733961 139.127793,4.65253521 C137.728223,3.96535605 136.186107,3.618535 134.627089,3.64032864 C132.269361,3.6094729 129.961108,4.31737117 128.026056,5.66474178 C126.098044,7.01435054 125.134038,8.82186227 125.134038,11.087277 C125.132637,12.3669864 125.621654,13.5985861 126.500516,14.5287793 C127.440849,15.5661 128.549322,16.43748 129.779343,17.1062911 C131.075931,17.8148357 132.365289,18.5149452 133.647418,19.2066197 C134.873205,19.8536021 135.983542,20.6988747 136.933474,21.708216 C137.802135,22.5820774 138.292853,23.7621382 138.299953,24.9942723 C138.328425,26.7539242 137.609882,28.4432241 136.322535,29.6431925 C135.044497,30.9036839 133.312966,31.5968175 131.518169,31.566385 C129.645587,31.566385 128.199577,31.110892 127.180141,30.1999061 C126.160704,29.2889202 125.629296,28.2779186 125.585915,27.1669014 C125.585915,26.188435 126.159499,25.6992019 127.306667,25.6992019 C127.910376,25.6992019 128.217653,25.4461502 128.217653,24.9400469 C128.122648,24.4434571 127.830503,24.0065449 127.407887,23.7290141 C126.9777,23.4287094 126.464809,23.2695364 125.940188,23.2735211 C124.559249,23.2735211 123.497637,23.710939 122.755352,24.5857746 C122.037605,25.3950816 121.641467,26.4394442 121.641925,27.5211737 C121.641925,29.5431768 122.551706,31.0518466 124.371268,32.0471831 C126.190829,33.0425195 128.467089,33.5389828 131.200047,33.5365728 C133.950705,33.5258908 136.623581,32.6226692 138.816901,30.9626761 C141.178717,29.2467449 142.35842,26.8873396 142.356009,23.8844601 C142.370671,22.4716467 141.901198,21.0963955 141.025681,19.9874648 L141.022066,19.9910798 Z M46.4277465,39.3169953 C45.5312207,40.2243662 44.0779812,40.2569014 42.9103286,39.3712207 C41.4643192,38.2867136 40.0544601,37.2022066 38.6265258,36.1176995 L36.8190141,34.7439906 L26.1257746,26.5487324 L25.6015962,26.1619249 C25.3196244,26.5668075 25.0304225,26.9753052 24.7448357,27.3765728 L23.0674648,29.7516432 L21.7805164,28.8478873 L12.9815493,22.6625822 L19.6042723,13.238216 C19.7620632,13.5583791 19.9999079,13.8323362 20.2947418,14.0335211 C23.3747418,16.2025352 26.4607668,18.3715493 29.5528169,20.5405634 L27.6585446,23.2446009 C27.763962,23.3392168 27.875027,23.4273445 27.9911268,23.5084977 L39.4652113,30.9012207 C44.6541079,21.293418 41.551886,9.30966996 32.3528449,3.42645969 C23.1538038,-2.45675056 10.973933,-0.246604238 4.42843965,8.4935924 C-2.11705372,17.2337891 -0.811015876,29.5434708 7.42275138,36.715611 C15.6565187,43.8877515 28.0289928,43.4929327 35.7887324,35.8104225 L36.0056338,35.9730986 L38.0083568,37.5022535 C39.5989671,38.7205164 41.1823474,39.9423944 42.7801878,41.1498122 C44.0815962,42.1367136 45.7011268,42.1005634 46.7024883,41.0919718 C47.7580751,40.0074648 47.9171362,38.7132864 47.2881221,37.5890141 C47.2141648,38.2484714 46.9094115,38.8605389 46.4277465,39.3169953 Z M20.4501878,9.09178404 C20.7389527,8.33276738 21.4786381,7.84158142 22.2902347,7.8699061 C22.6213783,8.01076969 22.94264,8.17381603 23.251831,8.35793427 C26.5222222,10.6426291 29.7889984,12.932144 33.0521596,15.2264789 C33.7968545,15.7506573 34.0932864,16.473662 33.88723,17.2111268 C33.7363883,17.8375064 33.2455882,18.3255099 32.6183568,18.47277 C32.5137446,18.4947035 32.4071211,18.5056081 32.3002347,18.5053052 C31.8831752,18.4999263 31.476511,18.3744126 31.1289671,18.1438028 C27.7862754,15.8301878 24.4568388,13.4984977 21.1406573,11.1487324 C20.9975391,11.0456626 20.8686898,10.9241067 20.7574648,10.78723 C20.3458669,10.3240971 20.2273038,9.66990835 20.4501878,9.09178404 Z M22.6734272,33.258216 C22.3799902,33.9935839 21.6572427,34.4662608 20.8659155,34.4403286 C20.5440097,34.3205737 20.2331477,34.173005 19.9368545,33.9992958 C16.635133,31.6953208 13.3382316,29.3817058 10.0461502,27.0584507 C9.12793427,26.4113615 8.92549296,25.3666197 9.51474178,24.5279343 C9.9165455,23.9470429 10.6397544,23.680902 11.3222535,23.86277 C11.6021133,23.9243183 11.8673231,24.0397337 12.1030986,24.2025822 C14.9951174,26.2294053 17.8871362,28.2610485 20.7791549,30.2975117 L21.9540376,31.1217371 C22.7312676,31.6784507 22.9843192,32.4665258 22.6734272,33.258216 Z M154.325352,15.0818779 C152.922723,15.0818779 151.736995,15.7578873 150.757324,17.1062911 C149.777653,18.4546948 148.805211,20.4610329 147.82554,23.1253052 C147.86238,22.2418228 147.963872,21.3622247 148.129202,20.4935681 C148.814569,19.300472 149.180631,17.950774 149.192019,16.5748826 C149.192019,15.244554 148.953427,14.5757746 148.469014,14.5757746 C147.984601,14.5757746 147.355587,14.937277 146.545822,15.6132864 C145.914885,16.1333001 145.323968,16.7000484 144.778075,17.3087324 C144.708185,17.3762128 144.632269,19.2982003 144.550329,23.0746948 C144.468388,26.8511894 144.308122,30.3228169 144.069531,33.4895775 C142.652441,38.950673 141.943897,43.4188421 141.943897,46.8940845 C141.95231,47.4087706 142.037603,47.9193088 142.196948,48.4087793 C142.366854,48.9474178 142.645211,49.2185446 143.032019,49.2185446 C143.418826,49.2185446 144.02615,48.8570423 144.839531,48.1340376 C145.652911,47.4110329 146.108404,46.8976995 146.180704,46.5940376 C146.918169,43.2200158 147.288106,38.3144289 147.290516,31.877277 C148.405662,32.7492407 149.769081,33.2442238 151.183897,33.2907512 C153.678263,33.2907512 155.693036,32.2460094 157.228216,30.1565258 C158.760225,28.0701572 159.567672,25.5399032 159.527371,22.951784 C159.527371,20.2356964 159.005603,18.2462285 157.962066,16.9833803 C156.918529,15.7205321 155.706291,15.086698 154.325352,15.0818779 Z M154.549484,29.419061 C153.508357,30.7855399 152.497355,31.4687793 151.516479,31.4687793 C149.730657,31.4687793 148.365383,30.9964163 147.420657,30.0516901 C147.420657,29.5118466 147.454397,28.7707668 147.521878,27.8284507 C149.577621,21.1189671 151.415258,17.7642254 153.034789,17.7642254 C153.977105,17.7642254 154.727825,18.3667293 155.286948,19.5717371 C155.846072,20.7767449 156.123224,22.3794053 156.118404,24.3797183 C156.176838,26.1881127 155.624121,27.9634307 154.549484,29.419061 Z" id="Shape"></path>
            </g>
        </g>
    </g>
</svg>