<?xml version="1.0" encoding="UTF-8"?>
<svg width="206px" height="60px" viewBox="0 0 206 60" version="1.1" xmlns="http://www.w3.org/2000/svg" xmlns:xlink="http://www.w3.org/1999/xlink">
    <!-- Generator: Sketch 46.2 (44496) - http://www.bohemiancoding.com/sketch -->
    <title>offerte</title>
    <desc>Created with Sketch.</desc>
    <defs></defs>
    <g id="v2" stroke="none" stroke-width="1" fill="none" fill-rule="evenodd">
        <g id="offerte" fill-rule="nonzero">
            <g id="offerte-logo" transform="translate(0.000000, 11.000000)">
                <g id="Group" transform="translate(40.207229, 0.496386)" fill="#494645">
                    <path d="M0.0496385542,14.3703614 L0.0496385542,11.1190361 L3.7973494,11.1190361 L3.7973494,8.09108434 C3.7973494,5.5346988 4.46746988,3.54915663 5.80771084,2.15927711 C7.14795181,0.76939759 9.00939759,0.0496385542 11.4168675,0.0496385542 C11.913253,0.0496385542 12.4344578,0.0992771084 12.9308434,0.17373494 C13.4272289,0.248192771 13.9980723,0.372289157 14.6185542,0.521204819 L14.0973494,3.84698795 C13.8243373,3.7973494 13.5016867,3.74771084 13.1293976,3.69807229 C12.7571084,3.64843373 12.36,3.62361446 11.9628916,3.62361446 C10.6722892,3.62361446 9.72915663,3.99590361 9.1086747,4.7653012 C8.48819277,5.5346988 8.16554217,6.62674699 8.16554217,8.09108434 L8.16554217,11.1438554 L13.1790361,11.1438554 L13.1790361,14.3951807 L8.16554217,14.3951807 L8.16554217,31.7686747 L11.7891566,32.3891566 L11.7891566,35.1937349 L0.17373494,35.1937349 L0.17373494,32.3891566 L3.7973494,31.7686747 L3.7973494,14.3951807 L0.0496385542,14.3951807 L0.0496385542,14.3703614 Z" id="Shape"></path>
                    <path d="M16.5296386,14.3703614 L16.5296386,11.1190361 L20.2773494,11.1190361 L20.2773494,8.09108434 C20.2773494,5.5346988 20.9474699,3.54915663 22.2877108,2.15927711 C23.6279518,0.76939759 25.4893976,0.0496385542 27.8968675,0.0496385542 C28.393253,0.0496385542 28.9144578,0.0992771084 29.4108434,0.17373494 C29.9320482,0.248192771 30.4780723,0.372289157 31.0985542,0.521204819 L30.5773494,3.84698795 C30.3043373,3.7973494 29.9816867,3.74771084 29.6093976,3.69807229 C29.2371084,3.64843373 28.84,3.62361446 28.4428916,3.62361446 C27.1522892,3.62361446 26.2091566,3.99590361 25.5886747,4.7653012 C24.9681928,5.5346988 24.6455422,6.62674699 24.6455422,8.09108434 L24.6455422,11.1438554 L29.6590361,11.1438554 L29.6590361,14.3951807 L24.6455422,14.3951807 L24.6455422,31.7686747 L28.2691566,32.3891566 L28.2691566,35.1937349 L16.6537349,35.1937349 L16.6537349,32.3891566 L20.2773494,31.7686747 L20.2773494,14.3951807 L16.5296386,14.3951807 L16.5296386,14.3703614 Z" id="Shape"></path>
                    <path d="M43.0862651,35.6404819 C39.7356627,35.6404819 37.08,34.5236145 35.0944578,32.2898795 C33.1089157,30.0561446 32.1409639,27.1771084 32.1409639,23.6031325 L32.1409639,22.6351807 C32.1409639,19.2101205 33.1585542,16.3559036 35.1937349,14.0973494 C37.2289157,11.8387952 39.6363855,10.6971084 42.4161446,10.6971084 C45.6426506,10.6971084 48.099759,11.6650602 49.7626506,13.6257831 C51.4255422,15.586506 52.2693976,18.1925301 52.2693976,21.4438554 L52.2693976,24.1739759 L36.6828916,24.1739759 L36.6084337,24.273253 C36.6580723,26.5814458 37.2289157,28.4925301 38.3706024,29.9816867 C39.4874699,31.4708434 41.0759036,32.2154217 43.1110843,32.2154217 C44.600241,32.2154217 45.8908434,31.9920482 47.0077108,31.5701205 C48.1245783,31.1481928 49.0925301,30.5773494 49.9115663,29.8327711 L51.6240964,32.686988 C50.7554217,33.5060241 49.6385542,34.2257831 48.2238554,34.7966265 C46.7595181,35.3426506 45.0718072,35.6404819 43.0862651,35.6404819 Z M42.4161446,14.1221687 C40.9518072,14.1221687 39.7108434,14.7426506 38.6684337,15.9836145 C37.6260241,17.2245783 37.0055422,18.7633735 36.7573494,20.6496386 L36.806988,20.7489157 L47.9012048,20.7489157 L47.9012048,20.1780723 C47.9012048,18.4655422 47.4544578,17.0260241 46.5361446,15.8595181 C45.5681928,14.7178313 44.2279518,14.1221687 42.4161446,14.1221687 Z" id="Shape"></path>
                    <path d="M55.8681928,13.9484337 L55.8681928,11.1190361 L63.3884337,11.1190361 L63.8103614,14.6185542 C64.4804819,13.3775904 65.3243373,12.4344578 66.3419277,11.7395181 C67.3346988,11.0445783 68.4763855,10.6971084 69.766988,10.6971084 C70.1144578,10.6971084 70.4619277,10.7219277 70.8342169,10.7715663 C71.206506,10.8212048 71.4795181,10.8708434 71.6780723,10.9453012 L71.1072289,15.0156627 L68.6253012,14.8915663 C67.4587952,14.8915663 66.4908434,15.1645783 65.7214458,15.7106024 C64.9272289,16.2566265 64.3315663,17.0012048 63.9096386,17.9939759 L63.9096386,31.793494 L67.533253,32.4139759 L67.533253,35.2185542 L55.9178313,35.2185542 L55.9178313,32.4139759 L59.5414458,31.793494 L59.5414458,14.5689157 L55.8681928,13.9484337 Z" id="Shape"></path>
                    <path d="M82.9212048,5.33614458 L82.9212048,11.1438554 L87.4631325,11.1438554 L87.4631325,14.3951807 L82.9212048,14.3951807 L82.9212048,28.9889157 C82.9212048,30.1057831 83.1445783,30.9 83.6161446,31.3715663 C84.0877108,31.8183133 84.7081928,32.066506 85.4775904,32.066506 C85.8746988,32.066506 86.2966265,32.0416867 86.7681928,31.9672289 C87.239759,31.8927711 87.6616867,31.8183133 87.9843373,31.7438554 L88.58,34.746988 C88.1580723,35.02 87.5624096,35.2433735 86.7681928,35.3922892 C85.9739759,35.5412048 85.179759,35.6404819 84.3607229,35.6404819 C82.5737349,35.6404819 81.1590361,35.0944578 80.1166265,34.0272289 C79.0742169,32.96 78.5281928,31.2722892 78.5281928,28.9640964 L78.5281928,14.3703614 L74.7308434,14.3703614 L74.7308434,11.1190361 L78.5281928,11.1190361 L78.5281928,5.33614458 L82.9212048,5.33614458 Z" id="Shape"></path>
                    <path d="M101.734217,35.6404819 C98.3836145,35.6404819 95.7279518,34.5236145 93.7424096,32.2898795 C91.7568675,30.0561446 90.7889157,27.1771084 90.7889157,23.6031325 L90.7889157,22.6351807 C90.7889157,19.2101205 91.806506,16.3559036 93.8416867,14.0973494 C95.8768675,11.8139759 98.2843373,10.6971084 101.064096,10.6971084 C104.290602,10.6971084 106.747711,11.6650602 108.410602,13.6257831 C110.073494,15.586506 110.917349,18.1925301 110.917349,21.4438554 L110.917349,24.1739759 L95.3060241,24.1739759 L95.2315663,24.273253 C95.2812048,26.5814458 95.8520482,28.4925301 96.9937349,29.9816867 C98.1106024,31.4708434 99.6990361,32.2154217 101.734217,32.2154217 C103.223373,32.2154217 104.513976,31.9920482 105.630843,31.5701205 C106.747711,31.1481928 107.715663,30.5773494 108.534699,29.8327711 L110.247229,32.686988 C109.378554,33.5060241 108.261687,34.2257831 106.846988,34.7966265 C105.40747,35.3426506 103.719759,35.6404819 101.734217,35.6404819 Z M101.064096,14.1221687 C99.599759,14.1221687 98.3587952,14.7426506 97.3163855,15.9836145 C96.2739759,17.2245783 95.653494,18.7633735 95.4053012,20.6496386 L95.4549398,20.7489157 L106.549157,20.7489157 L106.549157,20.1780723 C106.549157,18.4655422 106.10241,17.0260241 105.184096,15.8595181 C104.240964,14.7178313 102.875904,14.1221687 101.064096,14.1221687 Z" id="Shape"></path>
                    <polygon id="Shape" opacity="0.5" points="119.405542 35.1689157 115.037349 35.1689157 115.037349 30.6766265 119.405542 30.6766265"></polygon>
                    <path d="M124.046747,32.3643373 L127.670361,31.7438554 L127.670361,14.5689157 L124.046747,13.9484337 L124.046747,11.1190361 L131.566988,11.1190361 L131.889639,14.693012 C132.683855,13.4272289 133.701446,12.4344578 134.892771,11.7395181 C136.108916,11.0445783 137.473976,10.6722892 139.012771,10.6722892 C141.593976,10.6722892 143.604337,11.4416867 145.043855,12.9556627 C146.483373,14.4696386 147.178313,16.8274699 147.178313,19.9795181 L147.178313,31.7190361 L150.801928,32.3395181 L150.801928,35.1440964 L139.186506,35.1440964 L139.186506,32.3395181 L142.81012,31.7190361 L142.81012,20.0539759 C142.81012,17.9443373 142.388193,16.4303614 141.544337,15.5368675 C140.700482,14.6433735 139.434699,14.1966265 137.722169,14.1966265 C136.456386,14.1966265 135.339518,14.4944578 134.371566,15.1149398 C133.403614,15.7106024 132.634217,16.5544578 132.038554,17.5968675 L132.038554,31.6942169 L135.662169,32.3146988 L135.662169,35.1192771 L124.046747,35.1192771 L124.046747,32.3643373 L124.046747,32.3643373 Z" id="Shape" opacity="0.5"></path>
                    <polygon id="Shape" opacity="0.5" points="153.929157 3.32578313 153.929157 0.521204819 161.920964 0.521204819 161.920964 31.7438554 165.544578 32.3643373 165.544578 35.1689157 153.929157 35.1689157 153.929157 32.3643373 157.552771 31.7438554 157.552771 3.94626506"></polygon>
                </g>
                <g id="Group">
                    <g id="Shape" transform="translate(1.737349, 1.737349)" fill="#494645">
                        <path d="M33.6301205,11.4913253 L29.4604819,12.7074699 C30.0313253,14.1966265 30.3787952,15.7850602 30.3787952,17.4727711 C30.3787952,19.1604819 30.0561446,20.7489157 29.4604819,22.2380723 L33.6301205,23.4542169 C34.3250602,21.5927711 34.7221687,19.5824096 34.7221687,17.4727711 C34.7221687,15.3631325 34.3250602,13.3527711 33.6301205,11.4913253 Z"></path>
                        <path d="M12.7571084,5.28650602 C14.1966265,4.74048193 15.7354217,4.4426506 17.3486747,4.4426506 C18.9619277,4.4426506 20.5255422,4.7653012 21.940241,5.28650602 L23.1563855,1.11686747 C21.3445783,0.471566265 19.3838554,0.0992771084 17.3238554,0.0992771084 C15.2638554,0.0992771084 13.3279518,0.471566265 11.4913253,1.11686747 L12.7571084,5.28650602 Z"></path>
                        <path d="M21.9650602,29.6342169 C20.5255422,30.180241 18.986747,30.4780723 17.373494,30.4780723 C15.760241,30.4780723 14.1966265,30.1554217 12.7819277,29.6342169 L11.5657831,33.8038554 C13.3775904,34.4491566 15.3383133,34.8214458 17.3983133,34.8214458 C19.4583133,34.8214458 21.3942169,34.4491566 23.2308434,33.8038554 L21.9650602,29.6342169 Z"></path>
                        <path d="M4.34337349,17.4727711 C4.34337349,15.7850602 4.6660241,14.1966265 5.26168675,12.7074699 L1.09204819,11.4913253 C0.397108434,13.3527711 0,15.3631325 0,17.4727711 C0,19.5824096 0.397108434,21.5927711 1.09204819,23.4542169 L5.26168675,22.2380723 C4.6660241,20.7489157 4.34337349,19.1356627 4.34337349,17.4727711 Z"></path>
                    </g>
                    <g>
                        <g transform="translate(23.330120, 23.578313)" fill="#AEC64C">
                            <polygon id="Shape" points="3.52433735 11.9628916 0.0248192771 0.0496385542 11.9380723 3.54915663"></polygon>
                            <rect id="Rectangle-path" transform="translate(10.195207, 10.210366) rotate(-45.000000) translate(-10.195207, -10.210366) " x="8.50751215" y="5.53197756" width="3.37538932" height="9.35677775"></rect>
                        </g>
                        <g transform="translate(0.000000, 23.578313)" fill="#AD5C9B">
                            <polygon id="Shape" points="2.87903614 3.54915663 14.7922892 0.0496385542 11.2927711 11.9628916"></polygon>
                            <rect id="Rectangle-path" transform="translate(4.621299, 10.210855) rotate(45.000000) translate(-4.621299, -10.210855) " x="2.93360385" y="5.5324665" width="3.37538932" height="9.35677775"></rect>
                        </g>
                        <g fill="#84B6E5">
                            <polygon id="Shape" points="11.2927711 2.87903614 14.7922892 14.7922892 2.87903614 11.2927711"></polygon>
                            <rect id="Rectangle-path" transform="translate(4.621232, 4.617290) rotate(135.000000) translate(-4.621232, -4.617290) " x="2.93353684" y="-0.0610986731" width="3.37538932" height="9.35677775"></rect>
                        </g>
                        <g transform="translate(23.330120, 0.000000)" fill="#EABD4C">
                            <polygon id="Shape" points="11.9380723 11.2927711 0.0248192771 14.7922892 3.52433735 2.87903614"></polygon>
                            <rect id="Rectangle-path" transform="translate(10.194271, 4.616776) rotate(-135.000000) translate(-10.194271, -4.616776) " x="8.50657646" y="-0.0616124322" width="3.37538932" height="9.35677775"></rect>
                        </g>
                    </g>
                </g>
            </g>
        </g>
    </g>
</svg>