<?xml version="1.0" encoding="UTF-8"?>
<svg width="260px" height="60px" viewBox="0 0 260 60" version="1.1" xmlns="http://www.w3.org/2000/svg" xmlns:xlink="http://www.w3.org/1999/xlink">
    <!-- Generator: Sketch 46.2 (44496) - http://www.bohemiancoding.com/sketch -->
    <title>taxi2airport</title>
    <desc>Created with Sketch.</desc>
    <defs></defs>
    <g id="v2" stroke="none" stroke-width="1" fill="none" fill-rule="evenodd">
        <g id="taxi2airport">
            <g id="Logos/Full/T2A-color" transform="translate(0.000000, 10.000000)">
                <path d="M5.89627119,26.8493151 L5.89627119,12.2257534 L0.317288136,12.2257534 L0.317288136,8.30684932 L16.3932203,8.30684932 L16.3932203,12.2257534 L10.8142373,12.2257534 L10.8142373,26.8493151 L5.89627119,26.8493151 Z M33.5317125,24.939997 L39.1938983,17.4860274 L32.2135593,8.30684932 L37.8718644,8.30684932 L41.9437288,13.9879452 L46.0684746,8.30684932 L51.700339,8.30684932 L44.6935593,17.4860274 L51.8325424,26.8493151 L46.1477966,26.8493151 L41.9437288,21.010411 L37.7132203,26.8493151 L33.2557627,26.8493151 L29.6179661,26.8493151 L27.9522034,23.0093151 L19.7027119,23.0093151 L18.0369492,26.8493151 L13.1454237,26.8493151 L21.8444068,8.30684932 L25.7047458,8.30684932 L33.5317125,24.939997 Z M21.2627119,19.379726 L26.3922034,19.379726 L23.8274576,13.4356164 L21.2627119,19.379726 Z M53.6128814,26.8493151 L53.6128814,8.30684932 L58.4779661,8.30684932 L58.4779661,26.8493151 L53.6128814,26.8493151 Z" id="TAXI" fill="#2E2929"></path>
                <path d="M110.085763,26.8493151 L108.42,23.0093151 L100.170508,23.0093151 L98.5047458,26.8493151 L93.6132203,26.8493151 L102.312203,8.30684932 L106.172542,8.30684932 L114.897966,26.8493151 L110.085763,26.8493151 Z M101.730508,19.379726 L106.86,19.379726 L104.295254,13.4356164 L101.730508,19.379726 Z M116.008475,26.8493151 L116.008475,8.30684932 L120.873559,8.30684932 L120.873559,26.8493151 L116.008475,26.8493151 Z M141.021356,26.8493151 L135.680339,26.8493151 L132.454576,20.9315068 C132.049151,20.2476678 131.405767,19.9057534 130.524407,19.9057534 L129.043729,19.9057534 L129.043729,26.8493151 L124.257966,26.8493151 L124.257966,8.30684932 L133.142034,8.30684932 C135.398316,8.30684932 137.09491,8.79341979 138.231864,9.76657534 C139.368819,10.7397309 139.937288,12.1468401 139.937288,13.9879452 C139.937288,15.3906919 139.549495,16.5786253 138.773898,17.5517808 C137.998301,18.5249364 136.905431,19.1780805 135.495254,19.5112329 C136.570514,19.7391792 137.425421,20.431775 138.06,21.5890411 L141.021356,26.8493151 Z M134.688814,15.7764384 C135.155935,15.443286 135.389492,14.8997298 135.389492,14.1457534 C135.389492,13.3742427 135.155935,12.817536 134.688814,12.4756164 C134.221693,12.1336969 133.450514,11.9627397 132.375254,11.9627397 L128.990847,11.9627397 L128.990847,16.2761644 L132.375254,16.2761644 C133.450514,16.2761644 134.221693,16.1095907 134.688814,15.7764384 Z M142.951525,8.30684932 L151.967797,8.30684932 C154.03018,8.30684932 155.634232,8.82848793 156.78,9.87178082 C157.925768,10.9150737 158.498644,12.3660181 158.498644,14.2246575 C158.498644,16.0657626 157.921362,17.5123235 156.76678,18.5643836 C155.612198,19.6164436 154.012553,20.1424658 151.967797,20.1424658 L147.81661,20.1424658 L147.81661,26.8493151 L142.951525,26.8493151 L142.951525,8.30684932 Z M151.30678,16.5128767 C152.205767,16.5128767 152.871184,16.328769 153.303051,15.9605479 C153.734917,15.5923269 153.950847,15.0224696 153.950847,14.2509589 C153.950847,13.4794482 153.734917,12.9052074 153.303051,12.5282192 C152.871184,12.151231 152.205767,11.9627397 151.30678,11.9627397 L147.81661,11.9627397 L147.81661,16.5128767 L151.30678,16.5128767 Z M164.751864,25.9156164 C163.350501,25.1353386 162.270851,24.0306921 161.512881,22.6016438 C160.754911,21.1725956 160.375932,19.4937083 160.375932,17.5649315 C160.375932,15.6361547 160.754911,13.9572674 161.512881,12.5282192 C162.270851,11.0991709 163.350501,9.99890797 164.751864,9.22739726 C166.153227,8.45588655 167.805753,8.07013699 169.709492,8.07013699 C171.61323,8.07013699 173.265756,8.45588655 174.667119,9.22739726 C176.068482,9.99890797 177.143725,11.0991709 177.892881,12.5282192 C178.642038,13.9572674 179.01661,15.6361547 179.01661,17.5649315 C179.01661,19.4937083 178.637631,21.1725956 177.879661,22.6016438 C177.121691,24.0306921 176.042041,25.1353386 174.640678,25.9156164 C173.239315,26.6958943 171.595603,27.0860274 169.709492,27.0860274 C167.805753,27.0860274 166.153227,26.6958943 164.751864,25.9156164 Z M173.014576,21.8915068 C173.807801,20.900817 174.204407,19.4586396 174.204407,17.5649315 C174.204407,15.6712234 173.803394,14.2334296 173.001356,13.2515068 C172.199318,12.2695841 171.102041,11.7786301 169.709492,11.7786301 C168.299315,11.7786301 167.197631,12.2652006 166.404407,13.2383562 C165.611182,14.2115117 165.214576,15.6536891 165.214576,17.5649315 C165.214576,19.4761739 165.611182,20.9227348 166.404407,21.9046575 C167.197631,22.8865803 168.299315,23.3775342 169.709492,23.3775342 C171.119668,23.3775342 172.221352,22.8821967 173.014576,21.8915068 Z M198.662034,26.8493151 L193.321017,26.8493151 L190.095254,20.9315068 C189.689828,20.2476678 189.046445,19.9057534 188.165085,19.9057534 L186.684407,19.9057534 L186.684407,26.8493151 L181.898644,26.8493151 L181.898644,8.30684932 L190.782712,8.30684932 C193.038994,8.30684932 194.735588,8.79341979 195.872542,9.76657534 C197.009497,10.7397309 197.577966,12.1468401 197.577966,13.9879452 C197.577966,15.3906919 197.190173,16.5786253 196.414576,17.5517808 C195.638979,18.5249364 194.546109,19.1780805 193.135932,19.5112329 C194.211192,19.7391792 195.066099,20.431775 195.700678,21.5890411 L198.662034,26.8493151 Z M192.329492,15.7764384 C192.796613,15.443286 193.030169,14.8997298 193.030169,14.1457534 C193.030169,13.3742427 192.796613,12.817536 192.329492,12.4756164 C191.862371,12.1336969 191.091192,11.9627397 190.015932,11.9627397 L186.631525,11.9627397 L186.631525,16.2761644 L190.015932,16.2761644 C191.091192,16.2761644 191.862371,16.1095907 192.329492,15.7764384 Z M204.796271,26.8493151 L204.796271,12.2257534 L199.217288,12.2257534 L199.217288,8.30684932 L215.29322,8.30684932 L215.29322,12.2257534 L209.714237,12.2257534 L209.714237,26.8493151 L204.796271,26.8493151 Z" id="AIRPORT" fill="#2E2929"></path>
                <path d="M87.8751676,3.45130435 C85.3343252,1.22608696 81.807491,0 77.9449153,0 C74.0823395,0 70.5555053,1.22608696 68.0146629,3.45130435 C64.9611402,6.12608696 63.3474576,10.1917391 63.3474576,15.2095652 C63.3474576,26.1391304 76.1441198,38.946087 76.6886492,39.4856522 C77.020852,39.8152174 77.4733731,40 77.9449153,40 C78.4164574,40 78.8689786,39.8152174 79.2011813,39.4856522 C79.7457107,38.946087 92.5423729,26.1391304 92.5423729,15.2095652 C92.5423729,10.1917391 90.9286903,6.12608696 87.8751676,3.45130435" id="Combined-Shape" fill="#F05146"></path>
                <path d="M84.8029664,23.4684931 C85.1261319,23.7899559 85.2877122,24.1917784 85.2877122,24.6739726 C85.2877122,25.1360753 85.1261319,25.5228295 84.8029664,25.8342466 C84.479801,26.1456637 84.0758502,26.3013699 83.591102,26.3013699 L73.2902543,26.3013699 C72.7651104,26.3013699 72.3510609,26.1406409 72.0480933,25.8191781 C71.7451256,25.4977153 71.5936441,25.0858472 71.5936441,24.5835616 C71.5936441,24.081276 71.775422,23.6392713 72.1389831,23.2575342 L78.7436443,16.2356162 C79.4909644,15.4319592 80.0817424,14.6232915 80.515996,13.8095888 C80.9502496,12.9958861 81.1673731,12.2474917 81.1673731,11.5643832 C81.1673731,10.6602691 80.8442125,9.87671529 80.1978816,9.21369826 C79.5515506,8.55068123 78.8042417,8.21917769 77.9559324,8.21917769 C77.370195,8.21917769 76.779417,8.41506615 76.1835806,8.80684894 C75.5877443,9.19863173 75.0474602,9.71597816 74.562712,10.3589038 C74.1991508,10.841098 73.7346074,11.0821915 73.1690679,11.0821915 C72.7247154,11.0821915 72.3157152,10.9114169 71.9420551,10.5698627 C71.5683951,10.2283084 71.3815678,9.8465771 71.3815678,9.42465717 C71.3815678,9.12328579 71.4825555,8.81689616 71.6845339,8.50547907 C71.8865124,8.19406198 72.1894754,7.83744453 72.5934323,7.43561603 C73.3609502,6.67214188 74.2496419,6.0593626 75.259534,5.59725983 C76.2694261,5.13515705 77.2389079,4.90410913 78.1680087,4.90410913 C79.5010662,4.90410913 80.6725234,5.18538486 81.6824155,5.74794476 C82.6923076,6.31050466 83.4699128,7.08401293 84.0152545,8.06849276 C84.5605963,9.05297259 84.833263,10.16803 84.833263,11.4136983 C84.833263,12.6392752 84.505053,13.8999933 83.8486232,15.1958902 C83.1921933,16.4917871 82.308551,17.732414 81.1976697,18.9178081 L77.3500002,22.9863013 L83.591102,22.9863013 C84.0758502,22.9863013 84.479801,23.1470303 84.8029664,23.4684931 Z" id="2" fill="#FFFFFF"></path>
                <path d="M220.779661,26.1479452 C219.788865,25.2040135 219.293475,23.9200081 219.293475,22.2958904 C219.293475,21.2270266 219.534193,20.2831091 220.015636,19.4641096 C220.497079,18.6451101 221.17388,18.0135182 222.046059,17.5693151 C222.918239,17.1251119 223.926463,16.9030137 225.070763,16.9030137 C225.838281,16.9030137 226.581366,17.0140628 227.300042,17.2361644 C228.018718,17.458266 228.601325,17.7567105 229.047881,18.1315068 L228.105932,20.630137 C227.75706,20.35251 227.334932,20.1269415 226.839534,19.9534247 C226.344136,19.7799078 225.880143,19.6931507 225.447542,19.6931507 C224.693979,19.6931507 224.118349,19.9013678 223.720636,20.3178082 C223.322922,20.7342487 223.124068,21.3658405 223.124068,22.2126027 C223.124068,23.059365 223.322922,23.6978974 223.720636,24.1282192 C224.118349,24.558541 224.693979,24.7736986 225.447542,24.7736986 C225.880143,24.7736986 226.344136,24.6869415 226.839534,24.5134247 C227.334932,24.3399078 227.75706,24.1073987 228.105932,23.8158904 L229.047881,26.3353425 C228.573416,26.7240202 227.969877,27.025935 227.237246,27.2410959 C226.504615,27.4562568 225.726643,27.5638356 224.903305,27.5638356 C223.144991,27.5638356 221.770457,27.0918769 220.779661,26.1479452 Z M232.449364,26.9079452 C231.59114,26.4706827 230.928293,25.8495017 230.460805,25.0443836 C229.993317,24.2392654 229.759576,23.2953479 229.759576,22.2126027 C229.759576,21.1298576 229.993317,20.1894104 230.460805,19.3912329 C230.928293,18.5930554 231.587651,17.9788149 232.438898,17.5484932 C233.290145,17.1181714 234.287904,16.9030137 235.432203,16.9030137 C236.576503,16.9030137 237.574261,17.1181714 238.425508,17.5484932 C239.276756,17.9788149 239.936113,18.5930554 240.403602,19.3912329 C240.87109,20.1894104 241.104831,21.1298576 241.104831,22.2126027 C241.104831,23.2953479 240.87109,24.2392654 240.403602,25.0443836 C239.936113,25.8495017 239.276756,26.4706827 238.425508,26.9079452 C237.574261,27.3452077 236.576503,27.5638356 235.432203,27.5638356 C234.301859,27.5638356 233.307589,27.3452077 232.449364,26.9079452 Z M237.420763,22.2126027 C237.420763,20.4913156 236.757916,19.6306849 235.432203,19.6306849 C234.106491,19.6306849 233.443644,20.4913156 233.443644,22.2126027 C233.443644,23.9338899 234.106491,24.7945205 235.432203,24.7945205 C236.757916,24.7945205 237.420763,23.9338899 237.420763,22.2126027 Z M258.614619,17.9857534 C259.193746,18.7075835 259.483305,19.8180747 259.483305,21.3172603 L259.483305,27.3972603 L255.757373,27.3972603 L255.757373,21.4213699 C255.757373,20.8244719 255.666668,20.3941566 255.485254,20.130411 C255.303841,19.8666653 255.003816,19.7347945 254.585169,19.7347945 C254.068839,19.7347945 253.67462,19.9152493 253.4025,20.2761644 C253.13038,20.6370794 252.994322,21.1506816 252.994322,21.8169863 L252.994322,27.3972603 L249.26839,27.3972603 L249.26839,21.4213699 C249.26839,20.8244719 249.177685,20.3941566 248.996271,20.130411 C248.814858,19.8666653 248.514833,19.7347945 248.096186,19.7347945 C247.579856,19.7347945 247.189126,19.9152493 246.923983,20.2761644 C246.65884,20.6370794 246.526271,21.1506816 246.526271,21.8169863 L246.526271,27.3972603 L242.800339,27.3972603 L242.800339,17.1528767 L246.42161,17.1528767 L246.42161,18.4438356 C247.105399,17.4166159 248.151999,16.9030137 249.561441,16.9030137 C251.040657,16.9030137 252.038415,17.5068433 252.554746,18.7145205 C252.917572,18.1453853 253.39552,17.7011888 253.988602,17.3819178 C254.581684,17.0626468 255.234064,16.9030137 255.945763,16.9030137 C257.145882,16.9030137 258.035491,17.2639233 258.614619,17.9857534 Z M216.207627,27.3972603 C215.142841,27.3972603 214.279661,26.5386283 214.279661,25.4794521 C214.279661,24.4202758 215.142841,23.5616438 216.207627,23.5616438 C217.272413,23.5616438 218.135593,24.4202758 218.135593,25.4794521 C218.135593,26.5386283 217.272413,27.3972603 216.207627,27.3972603 Z" id="com" fill="#F05146"></path>
            </g>
        </g>
    </g>
</svg>