<?xml version="1.0" encoding="UTF-8"?>
<svg width="214px" height="60px" viewBox="0 0 214 60" version="1.1" xmlns="http://www.w3.org/2000/svg" xmlns:xlink="http://www.w3.org/1999/xlink">
    <!-- Generator: Sketch 46.2 (44496) - http://www.bohemiancoding.com/sketch -->
    <title>venture-logos/traveldeal</title>
    <desc>Created with Sketch.</desc>
    <defs>
        <linearGradient x1="50.0067367%" y1="0.136637972%" x2="50.0067367%" y2="99.9848357%" id="linearGradient-1">
            <stop stop-color="#69C6B8" offset="0%"></stop>
            <stop stop-color="#1A93A5" offset="100%"></stop>
        </linearGradient>
        <linearGradient x1="49.9966629%" y1="-0.0521920668%" x2="49.9966629%" y2="163.387265%" id="linearGradient-2">
            <stop stop-color="#F8DF31" offset="10%"></stop>
            <stop stop-color="#F3A234" offset="100%"></stop>
        </linearGradient>
    </defs>
    <g id="Asset-Templates" stroke="none" stroke-width="1" fill="none" fill-rule="evenodd">
        <g id="venture-logos/traveldeal" fill-rule="nonzero">
            <g id="logo-traveldeal" transform="translate(1.000000, 9.000000)">
                <path d="M73.3109944,19.2869841 L71.3292997,19.2869841 L71.3292997,16.2388889 L73.3988095,16.2388889 L73.3988095,12.0543651 L77.1221709,12.0543651 L77.1221709,16.2418254 L80.6055042,16.2418254 L80.6055042,19.2869841 L77.1221709,19.2869841 L77.1221709,25.4918254 C77.1221709,28.0230952 79.1038655,28.3842857 80.1547199,28.3842857 C80.3864599,28.386777 80.6178717,28.3661196 80.8455322,28.322619 L80.8455322,31.6643651 C80.4584857,31.727659 80.0668097,31.7581107 79.6746639,31.7553968 C77.5436835,31.7553968 73.3109944,31.1211111 73.3109944,25.9734127 L73.3109944,19.2869841 Z" id="Shape" fill="#003740"></path>
                <path d="M84.04493,20.1679365 C84.0706487,19.9852252 84.0092746,19.8010111 83.8792113,19.670533 C83.7491481,19.5400548 83.5655197,19.4784849 83.3833894,19.5042857 L82.1832493,19.5042857 L82.1832493,16.2388889 L85.6665826,16.2388889 C87.0189356,16.2388889 87.7156022,16.8261905 87.7156022,18.1065079 L87.7156022,19.0109524 C87.7173643,19.3330511 87.6968247,19.6548836 87.6541317,19.974127 L87.7156022,19.974127 C88.4064146,17.7746825 90.2358964,16.0274603 92.5776331,16.0274603 C92.8089963,16.0306697 93.0398433,16.0502954 93.2684454,16.0861905 L93.2684454,19.8507937 C92.9599598,19.8086718 92.6489332,19.7880668 92.337605,19.789127 C90.376454,19.7880833 88.6620033,21.1157404 88.1663866,23.0192857 C87.943222,23.8332807 87.8319366,24.6740414 87.8356162,25.518254 L87.8356162,31.6026984 L84.04493,31.6026984 L84.04493,20.1679365 Z" id="Shape" fill="#003740"></path>
                <path d="M102.819804,21.9621429 L103.29986,21.9621429 L103.29986,21.841746 C103.29986,19.6452381 102.421709,18.8288889 100.478067,18.8288889 C99.7872549,18.8288889 98.4290476,19.0080159 98.4290476,19.8537302 L98.4290476,20.6671429 L94.8871709,20.6671429 L94.8871709,19.0403175 C94.8871709,16.1801587 98.9091036,15.8776984 100.501485,15.8776984 C105.603543,15.8776984 107.105182,18.5587302 107.105182,21.9915079 L107.105182,27.7147619 C107.085642,27.8955483 107.148611,28.0755074 107.276502,28.2043767 C107.404393,28.3332461 107.583499,28.3972134 107.763796,28.3784127 L108.963936,28.3784127 L108.963936,31.6085714 L105.553782,31.6085714 C104.142885,31.6085714 103.601359,30.8245238 103.601359,29.9230159 C103.601359,29.5324603 103.63063,29.2623016 103.63063,29.2623016 L103.572087,29.2623016 C103.572087,29.2623016 102.401218,31.9726984 98.950084,31.9726984 C96.2190336,31.9726984 93.7280112,30.2548413 93.7280112,27.183254 C93.725084,22.3526984 100.328782,21.9621429 102.819804,21.9621429 Z M99.8779972,28.9774603 C101.927017,28.9774603 103.361331,26.8103175 103.361331,24.9426984 L103.361331,24.5726984 L102.69979,24.5726984 C100.718095,24.5726984 97.5655322,24.8428571 97.5655322,26.9806349 C97.5655322,28.0142857 98.3178151,28.9774603 99.8779972,28.9774603 Z" id="Shape" fill="#003740"></path>
                <path d="M110.474356,20.0357937 C110.358506,19.6775084 110.007371,19.4504457 109.634258,19.4925397 L109.306415,19.4925397 L109.306415,16.2388889 L111.495938,16.2388889 C112.757549,16.2388889 113.357619,16.6294444 113.746933,17.6836508 L116.630196,25.7473016 C116.870073,26.4665827 117.060781,27.2014352 117.200994,27.946746 L117.262465,27.946746 C117.401757,27.2039993 117.582551,26.4696933 117.803992,25.7473016 L120.687255,17.6748413 C121.076569,16.6206349 121.708838,16.2300794 122.938249,16.2300794 L124.987269,16.2300794 L124.987269,19.4925397 L124.615518,19.4925397 C124.242404,19.4504457 123.89127,19.6775084 123.77542,20.0357937 L119.384664,31.5997619 L114.859258,31.5997619 L110.474356,20.0357937 Z" id="Shape" fill="#003740"></path>
                <path d="M133.443866,15.8776984 C137.834622,15.8776984 140.229048,19.1078571 140.229048,23.1661111 C140.229048,23.6183333 140.138305,24.5815079 140.138305,24.5815079 L129.571218,24.5815079 C129.863936,27.2919048 131.851485,28.7073016 134.16395,28.7073016 C136.6257,28.7073016 138.455182,26.9894444 138.455182,26.9894444 L140.047563,29.6323016 C138.347283,31.1286735 136.162332,31.9532533 133.900504,31.9521429 C128.827717,31.9521429 125.675154,28.2785714 125.675154,23.9090476 C125.666373,19.1900794 128.848207,15.8776984 133.443866,15.8776984 Z M136.324202,21.9298413 C136.265658,20.0915873 135.004048,18.8288889 133.443866,18.8288889 C131.491443,18.8288889 130.109818,20.0034921 129.691232,21.9298413 L136.324202,21.9298413 Z" id="Shape" fill="#003740"></path>
                <path d="M143.530896,14.1304762 C143.556401,13.9483462 143.495385,13.7647475 143.366036,13.6344095 C143.236688,13.5040716 143.053945,13.4420472 142.872283,13.4668254 L141.669216,13.4668254 L141.669216,10.2161111 L145.301835,10.2161111 C146.712731,10.2161111 147.350854,10.8503968 147.350854,12.2716667 L147.350854,27.7147619 C147.328907,27.8960779 147.389797,28.0776348 147.516534,28.2087665 C147.64327,28.3398982 147.822282,28.4065635 148.003613,28.3901587 L149.174482,28.3901587 L149.174482,31.6203175 L145.571134,31.6203175 C144.130966,31.6203175 143.522115,31.0183333 143.522115,29.5647619 L143.530896,14.1304762 Z" id="Shape" fill="#003740"></path>
                <path d="M157.490574,15.8776984 C160.821695,15.8776984 161.904748,17.7453175 161.904748,17.7453175 L161.966218,17.7453175 C161.966218,17.7453175 161.936947,17.3547619 161.936947,16.840873 L161.936947,14.1304762 C161.962666,13.9477649 161.901291,13.7635508 161.771228,13.6330727 C161.641165,13.5025945 161.457536,13.4410246 161.275406,13.4668254 L160.075266,13.4668254 L160.075266,10.2161111 L163.707885,10.2161111 C165.118782,10.2161111 165.756905,10.8503968 165.756905,12.2716667 L165.756905,27.7147619 C165.737207,27.8961138 165.800546,28.0766437 165.92913,28.2056379 C166.057714,28.3346321 166.23767,28.3981736 166.418445,28.3784127 L167.589314,28.3784127 L167.589314,31.6085714 L164.076709,31.6085714 C162.695084,31.6085714 162.185756,30.9449206 162.185756,30.0434127 L162.185756,29.4707937 L162.127213,29.4707937 C162.127213,29.4707937 160.865602,31.9697619 157.352997,31.9697619 C153.21105,31.9697619 150.538543,28.686746 150.538543,23.9266667 C150.523908,19.0403175 153.436443,15.8776984 157.490574,15.8776984 Z M162.024762,23.8884921 C162.024762,21.5099206 160.792423,19.1607143 158.242857,19.1607143 C156.141148,19.1607143 154.399482,20.8756349 154.399482,23.9178571 C154.399482,26.8396825 155.930392,28.7366667 158.181387,28.7366667 C160.151373,28.7366667 162.021835,27.2948413 162.021835,23.8884921 L162.024762,23.8884921 Z" id="Shape" fill="#003740"></path>
                <path d="M176.672325,15.8776984 C181.063081,15.8776984 183.457507,19.1078571 183.457507,23.1661111 C183.457507,23.6183333 183.366765,24.5815079 183.366765,24.5815079 L172.799678,24.5815079 C173.092395,27.2919048 175.082871,28.7073016 177.395336,28.7073016 C179.857087,28.7073016 181.689496,26.9894444 181.689496,26.9894444 L183.281877,29.6323016 C181.581737,31.1289078 179.396694,31.9535221 177.134818,31.9521429 C172.062031,31.9521429 168.909468,28.2785714 168.909468,23.9090476 C168.897759,19.1900794 172.079594,15.8776984 176.672325,15.8776984 Z M179.552661,21.9298413 C179.494118,20.0915873 178.232507,18.8288889 176.672325,18.8288889 C174.719902,18.8288889 173.341204,20.0034921 172.919692,21.9298413 L179.552661,21.9298413 Z" id="Shape" fill="#003740"></path>
                <path d="M194.446106,21.9621429 L194.926162,21.9621429 L194.926162,21.841746 C194.926162,19.6452381 194.048011,18.8288889 192.10437,18.8288889 C191.413557,18.8288889 190.05535,19.0080159 190.05535,19.8537302 L190.05535,20.6671429 L186.513473,20.6671429 L186.513473,19.0403175 C186.513473,16.1801587 190.535406,15.8776984 192.127787,15.8776984 C197.229846,15.8776984 198.731485,18.5587302 198.731485,21.9915079 L198.731485,27.7147619 C198.711787,27.8961138 198.775126,28.0766437 198.90371,28.2056379 C199.032294,28.3346321 199.21225,28.3981736 199.393025,28.3784127 L200.593165,28.3784127 L200.593165,31.6085714 L197.177157,31.6085714 C195.766261,31.6085714 195.227661,30.8245238 195.227661,29.9230159 C195.227661,29.5324603 195.256933,29.2623016 195.256933,29.2623016 L195.195462,29.2623016 C195.195462,29.2623016 194.024594,31.9726984 190.573459,31.9726984 C187.842409,31.9726984 185.348459,30.2548413 185.348459,27.183254 C185.348459,22.3526984 191.952157,21.9621429 194.446106,21.9621429 Z M191.5043,28.9774603 C193.553319,28.9774603 194.984706,26.8103175 194.984706,24.9426984 L194.984706,24.5726984 L194.326092,24.5726984 C192.344398,24.5726984 189.191835,24.8428571 189.191835,26.9806349 C189.191835,28.0142857 189.94119,28.9774603 191.5043,28.9774603 Z" id="Shape" fill="#003740"></path>
                <path d="M203.271527,14.1304762 C203.297245,13.9477649 203.235871,13.7635508 203.105808,13.6330727 C202.975745,13.5025945 202.792116,13.4410246 202.609986,13.4668254 L201.409846,13.4668254 L201.409846,10.2161111 L205.042465,10.2161111 C206.453361,10.2161111 207.091485,10.8503968 207.091485,12.2716667 L207.091485,27.7147619 C207.071944,27.8955483 207.134913,28.0755074 207.262805,28.2043767 C207.390696,28.3332461 207.569802,28.3972134 207.750098,28.3784127 L208.920966,28.3784127 L208.920966,31.6085714 L205.311765,31.6085714 C203.871597,31.6085714 203.262745,31.0065873 203.262745,29.5530159 L203.271527,14.1304762 Z" id="Shape" fill="#003740"></path>
                <path d="M16.3570308,28.495873 C16.3570308,28.6603175 16.3833754,28.8218254 16.395084,28.9892063 C16.6409664,31.9257143 18.7543838,35.8195238 21.9801261,36.2394444 C32.3306022,36.9177778 44.1797899,37.011746 54.1790056,36.2394444 C57.2905882,35.6844444 59.5123109,31.9315873 59.7494118,28.9774603 C59.769902,28.7073016 59.7903922,28.4518254 59.8079552,28.1875397 C53.6023529,31.3589683 46.0121989,33.2236508 37.7956303,33.2236508 C29.8307983,33.2236508 22.4484734,31.4734921 16.3570308,28.495873 Z" id="Shape" fill="url(#linearGradient-1)"></path>
                <path d="M49.7326331,27.2361111 C49.7326331,27.2361111 48.9188796,27.4622222 47.4757843,27.7411905 C46.7527731,27.8880159 45.8716947,28.0348413 44.8588936,28.1757937 C43.8460924,28.316746 42.6927871,28.4694444 41.4341036,28.5575397 C40.1754202,28.6456349 38.7996499,28.7454762 37.3536275,28.7836508 C35.907605,28.8218254 34.3679132,28.7836508 32.7784594,28.7102381 C31.9851961,28.675 31.1802241,28.6015873 30.3606162,28.5399206 C29.5410084,28.478254 28.7184734,28.3784127 27.890084,28.2462698 C27.0616947,28.114127 26.2245238,28.0054762 25.3902801,27.8410317 C24.5560364,27.6765873 23.7188655,27.5150794 22.8846218,27.3271429 C22.0503782,27.1392063 21.2278431,26.9072222 20.3935994,26.7163492 C19.5593557,26.5254762 18.7543838,26.2465079 17.9377031,26.0145238 C17.1210224,25.7825397 16.3306863,25.4918254 15.554986,25.1923016 C14.7792857,24.8927778 14.0182213,24.5726984 13.2864286,24.2261905 C12.5546359,23.8796825 11.8433333,23.5214286 11.1759384,23.113254 C10.5085434,22.7050794 9.84992997,22.3233333 9.23522409,21.9092857 C8.62051821,21.4952381 8.04093838,21.0576984 7.47892157,20.6495238 C6.91690476,20.2413492 6.41343137,19.783254 5.92166667,19.3662698 C5.42990196,18.9492857 4.98204482,18.517619 4.55760504,18.1094444 C4.13316527,17.7012698 3.72921569,17.3224603 3.38673669,16.9348413 C2.69592437,16.1419841 2.08707283,15.4665873 1.63043417,14.8792857 C0.752282913,13.6665079 0.281008403,12.95 0.281008403,12.95 L0.512254902,12.7297619 C0.512254902,12.7297619 1.23819328,13.1937302 2.41784314,14.0511905 C2.71056022,14.2743651 3.05596639,14.4828571 3.41893557,14.7295238 L4.58980392,15.528254 C5.00546218,15.8219048 5.46795518,16.083254 5.93630252,16.3886508 C6.40464986,16.6940476 6.89056022,17.0229365 7.42623249,17.3224603 L9.05959384,18.297381 C9.64502801,18.6174603 10.2304622,18.9346032 10.8334594,19.2840476 L12.7273389,20.2707143 L14.7236695,21.2603175 C15.3939916,21.6097619 16.1052941,21.9034127 16.7990336,22.2616667 L18.9592857,23.2395238 C19.6998599,23.5331746 20.4462885,23.847381 21.2073529,24.1204762 L22.3606583,24.5169048 C22.7509477,24.6519841 23.1412372,24.7743386 23.5315266,24.8839683 C24.3160084,25.1130159 25.097563,25.345 25.8908263,25.53 C26.6840896,25.715 27.4744258,25.905873 28.2647619,26.073254 C29.055098,26.2406349 29.8454342,26.3669048 30.6240616,26.5196032 C31.4026891,26.6723016 32.1813165,26.7750794 32.9453081,26.8661111 C34.4762185,27.0716667 35.9661485,27.1979365 37.3828992,27.2977778 C38.7996499,27.397619 40.1432213,27.4416667 41.3872689,27.4446032 C43.8753641,27.4680952 45.9478011,27.3212698 47.3967507,27.200873 C48.8457003,27.0804762 49.6682353,26.9424603 49.6682353,26.9424603 L49.7326331,27.2361111 Z" id="Shape" fill="#003740"></path>
                <path d="M59.7494118,12.7033333 C59.5064566,9.7668254 57.7560084,6.04333333 54.1614426,5.90825397 C52.009972,5.76436508 49.7706863,5.64396825 47.4787115,5.54706349 L47.4787115,4.89809524 C47.4770967,2.20011037 45.2973054,0.0133659571 42.6078992,0.0117460317 L33.5336695,0.0117460317 C30.8465498,0.016602657 28.670321,2.20240032 28.6687115,4.89809524 L28.6687115,5.48539683 C26.3884454,5.57936508 24.1462325,5.71444444 21.9830532,5.89650794 C18.81,6.24595238 16.6438936,10.1221429 16.3980112,13.0792063 C16.2926331,14.3947619 16.2106723,15.5869841 16.1492017,16.7146032 C22.0913585,20.355873 29.5995518,22.5171429 37.7956303,22.5171429 C46.2405182,22.5171429 53.979958,20.2061111 60.0070028,16.3680952 C59.942605,15.2287302 59.8606443,14.0188889 59.7494118,12.7033333 Z M35.5709804,15.892381 L29.482465,15.892381 L29.482465,13.6547619 L35.5709804,13.6547619 L35.5709804,15.892381 Z M31.5607563,5.4002381 L31.5607563,4.89809524 C31.5623684,3.80405853 32.4460386,2.91756958 33.5365966,2.91595238 L42.6108263,2.91595238 C43.7013844,2.91756958 44.5850546,3.80405853 44.5866667,4.89809524 L44.5866667,5.45896825 C40.2954342,5.31507937 35.8812605,5.2915873 31.5607563,5.4002381 L31.5607563,5.4002381 Z M43.8548739,17.6073016 C42.2955875,17.6056798 41.032544,16.3368546 41.0330829,14.7725936 C41.0336218,13.2083326 42.2975392,11.9403836 43.8568264,11.939843 C45.4161136,11.9393023 46.6809043,13.2063747 46.682521,14.7706349 C46.6857594,16.3345186 45.4254895,17.6053796 43.8665826,17.6102381 L43.8548739,17.6073016 Z" id="Shape" fill="url(#linearGradient-2)"></path>
                <polygon id="Shape" fill="#003740" points="54.3078011 28.5634127 55.0454482 28.5634127 56.0143417 24.6138095 54.1438796 25.7972222"></polygon>
                <polygon id="Shape" fill="#003740" points="51.1610924 21.7007937 50.7922689 22.3409524 53.0988796 23.865 53.2071849 23.8092063 54.904944 22.7902381"></polygon>
                <polygon id="Shape" fill="#003740" points="57.7530812 21.5187302 51.7816527 25.1071429 50.6985994 25.0102381 52.4695378 26.2905556 59.3952241 22.1119048"></polygon>
            </g>
        </g>
    </g>
</svg>