<?xml version="1.0" encoding="UTF-8"?>
<svg width="318px" height="60px" viewBox="0 0 318 60" version="1.1" xmlns="http://www.w3.org/2000/svg" xmlns:xlink="http://www.w3.org/1999/xlink">
    <!-- Generator: Sketch 46.2 (44496) - http://www.bohemiancoding.com/sketch -->
    <title>venturebuilders</title>
    <desc>Created with Sketch.</desc>
    <defs>
        <polygon id="path-1" points="0.346691729 22.9718367 39.5950647 22.9718367 39.5950647 11.6814184 39.5950647 0.391 0.346691729 0.391 0.346691729 22.9718367"></polygon>
    </defs>
    <g id="v2" stroke="none" stroke-width="1" fill="none" fill-rule="evenodd">
        <g id="venturebuilders">
            <g id="Logo/Wordmark/Color" transform="translate(0.000000, 18.000000)">
                <polyline id="Fill-25" fill="#60BFBF" points="11.0544451 14.8068367 16.7253654 0.890897959 22.1093684 0.890897959 13.1570707 22.7493469 8.95181955 22.7493469 0 0.890897959 5.38400301 0.890897959 11.0544451 14.8068367"></polyline>
                <polyline id="Fill-26" fill="#60BFBF" points="40.809203 0.890897959 40.809203 5.23789796 29.7227188 5.23789796 29.7227188 9.74120408 39.6945293 9.74120408 39.6945293 13.8999796 29.7227188 13.8999796 29.7227188 18.4342653 41.1597203 18.4342653 41.1597203 22.7493469 24.7533113 22.7493469 24.7533113 0.890897959 40.809203 0.890897959"></polyline>
                <polyline id="Fill-27" fill="#60BFBF" points="61.1664632 0.890897959 66.1358707 0.890897959 66.1358707 22.7493469 61.1664632 22.7493469 50.5576962 9.05308163 50.5576962 22.7493469 45.5878105 22.7493469 45.5878105 0.890897959 50.239218 0.890897959 61.1664632 14.9631429 61.1664632 0.890897959"></polyline>
                <polyline id="Fill-28" fill="#60BFBF" points="81.0450496 5.11257143 81.0450496 22.7493469 76.0751639 22.7493469 76.0751639 5.11257143 69.7672872 5.11257143 69.7672872 0.890897959 87.3529263 0.890897959 87.3529263 5.11257143 81.0450496 5.11257143"></polyline>
                <path d="M96.8781023,17.1049592 C97.7063368,18.1164898 98.8214887,18.621551 100.22308,18.621551 C101.625149,18.621551 102.734562,18.1164898 103.552277,17.1049592 C104.369513,16.0943673 104.778848,14.7129592 104.778848,12.9616735 L104.778848,0.890897959 L109.748734,0.890897959 L109.748734,13.1179796 C109.748734,16.2872857 108.856421,18.7205918 107.072752,20.4202449 C105.288605,22.1194286 103.005221,22.968551 100.22308,22.968551 C97.4404602,22.968551 95.1522947,22.1137959 93.3576271,20.4042857 C91.5629594,18.6952449 90.6658647,16.2661633 90.6658647,13.1179796 L90.6658647,0.890897959 L95.6357504,0.890897959 L95.6357504,12.9616735 C95.6357504,14.7129592 96.0498677,16.0943673 96.8781023,17.1049592" id="Fill-29" fill="#60BFBF"></path>
                <path d="M126.983377,10.7414694 C127.599293,10.1993265 127.907251,9.33940816 127.907251,8.1612449 C127.907251,6.9844898 127.588773,6.17620408 126.951338,5.73779592 C126.314382,5.30032653 125.19923,5.08159184 123.606361,5.08159184 L119.878827,5.08159184 L119.878827,11.554449 L123.5112,11.554449 C125.20975,11.554449 126.366983,11.2840816 126.983377,10.7414694 Z M132.972776,8.1457551 C132.972776,11.6483265 131.560186,13.9103061 128.735486,14.9316939 L134.374367,22.7493469 L128.257768,22.7493469 L123.319922,15.7761224 L119.878827,15.7761224 L119.878827,22.7493469 L114.90942,22.7493469 L114.90942,0.890897959 L123.351483,0.890897959 C126.81314,0.890897959 129.282063,1.46495918 130.758731,2.61073469 C132.234442,3.75744898 132.972776,5.60261224 132.972776,8.1457551 L132.972776,8.1457551 Z" id="Fill-30" fill="#60BFBF"></path>
                <polyline id="Fill-31" fill="#60BFBF" points="154.125753 0.890897959 154.125753 5.23789796 143.039269 5.23789796 143.039269 9.74120408 153.01108 9.74120408 153.01108 13.8999796 143.039269 13.8999796 143.039269 18.4342653 154.476271 18.4342653 154.476271 22.7493469 138.069383 22.7493469 138.069383 0.890897959 154.125753 0.890897959"></polyline>
                <path d="M163.873768,18.621551 L167.282824,18.621551 C168.704977,18.621551 169.772788,18.4497551 170.484343,18.1056939 C171.19542,17.7616327 171.551675,17.0847755 171.551675,16.0732449 C171.551675,15.0621837 171.173901,14.3956531 170.420743,14.0717755 C169.666629,13.7488367 168.461576,13.5873673 166.805107,13.5873673 L163.873768,13.5873673 L163.873768,18.621551 Z M163.873768,9.74120408 L166.23175,9.74120408 C167.611823,9.74120408 168.636595,9.59522449 169.305591,9.30279592 C169.975065,9.01130612 170.309323,8.38044898 170.309323,7.41116327 C170.309323,6.44140816 170.000887,5.80069388 169.384971,5.48808163 C168.769056,5.175 167.728502,5.01869388 166.263311,5.01869388 L163.873768,5.01869388 L163.873768,9.74120408 Z M168.652376,22.7493469 L158.904361,22.7493469 L158.904361,0.890897959 L167.569263,0.890897959 C169.077492,0.890897959 170.377705,1.06832653 171.472295,1.42271429 C172.565928,1.77757143 173.388424,2.25681633 173.941218,2.86091837 C174.939212,3.98697959 175.43797,5.25902041 175.43797,6.67610204 C175.43797,8.38608163 174.875612,9.65765306 173.74994,10.4912857 C173.367383,10.7832449 173.101985,10.9658367 172.953266,11.0385918 C172.804547,11.1118163 172.539149,11.2315102 172.157071,11.3981429 C173.537143,11.6905714 174.636514,12.3003061 175.454229,13.2273469 C176.271943,14.1553265 176.6808,15.3072041 176.6808,16.6829796 C176.6808,18.2052041 176.149525,19.5495306 175.087931,20.716898 C173.856099,22.0724898 171.711392,22.7493469 168.652376,22.7493469 L168.652376,22.7493469 Z" id="Fill-32" fill="#9D9E9D"></path>
                <path d="M186.747771,17.1049592 C187.576006,18.1164898 188.691158,18.621551 190.092749,18.621551 C191.494818,18.621551 192.604232,18.1164898 193.421946,17.1049592 C194.23966,16.0943673 194.648517,14.7129592 194.648517,12.9616735 L194.648517,0.890897959 L199.618403,0.890897959 L199.618403,13.1179796 C199.618403,16.2872857 198.726568,18.7205918 196.942421,20.4202449 C195.158274,22.1194286 192.87489,22.968551 190.092749,22.968551 C187.310608,22.968551 185.021964,22.1137959 183.227774,20.4042857 C181.432629,18.6952449 180.535534,16.2661633 180.535534,13.1179796 L180.535534,0.890897959 L185.50542,0.890897959 L185.50542,12.9616735 C185.50542,14.7129592 185.919537,16.0943673 186.747771,17.1049592" id="Fill-33" fill="#9D9E9D"></path>
                <polygon id="Fill-34" fill="#9D9E9D" points="204.779089 22.7493469 209.748496 22.7493469 209.748496 0.890897959 204.779089 0.890897959"></polygon>
                <polyline id="Fill-35" fill="#9D9E9D" points="215.22766 22.7493469 215.22766 0.890897959 220.197546 0.890897959 220.197546 18.4028163 229.691639 18.4028163 229.691639 22.7493469 215.22766 22.7493469"></polyline>
                <path d="M246.687663,16.7454082 C247.908496,15.6198163 248.51963,13.9835306 248.51963,11.8356122 C248.51963,9.68910204 247.908496,8.03685714 246.687663,6.87934694 C245.465874,5.72230612 243.591826,5.14402041 241.064562,5.14402041 L238.292941,5.14402041 L238.292941,18.4342653 L241.447119,18.4342653 C243.719504,18.4342653 245.465874,17.8714694 246.687663,16.7454082 Z M250.335338,3.75228571 C252.458526,5.65987755 253.521077,8.31332653 253.521077,11.7107551 C253.521077,15.1091224 252.485783,17.7987143 250.415197,19.7785918 C248.343654,21.7594082 245.184695,22.7493469 240.936884,22.7493469 L233.323056,22.7493469 L233.323056,0.890897959 L241.191762,0.890897959 C245.163176,0.890897959 248.211194,1.84469388 250.335338,3.75228571 L250.335338,3.75228571 Z" id="Fill-36" fill="#9D9E9D"></path>
                <polyline id="Fill-37" fill="#9D9E9D" points="273.878337 0.890897959 273.878337 5.23789796 262.790896 5.23789796 262.790896 9.74120408 272.763185 9.74120408 272.763185 13.8999796 262.790896 13.8999796 262.790896 18.4342653 274.228376 18.4342653 274.228376 22.7493469 257.821489 22.7493469 257.821489 0.890897959 273.878337 0.890897959"></polyline>
                <g id="Group-41" stroke-width="1" transform="translate(278.309774, 0.000000)">
                    <mask id="mask-2" fill="white">
                        <use xlink:href="#path-1"></use>
                    </mask>
                    <g id="Clip-39"></g>
                    <path d="M12.4206496,10.7414694 C13.0365654,10.1993265 13.3450015,9.33940816 13.3450015,8.1612449 C13.3450015,6.9844898 13.0260451,6.17620408 12.3890887,5.73779592 C11.7521323,5.30032653 10.6369805,5.08159184 9.04411128,5.08159184 L5.31657744,5.08159184 L5.31657744,11.554449 L8.94799398,11.554449 C10.6470226,11.554449 11.8047338,11.2840816 12.4206496,10.7414694 Z M18.4105263,8.1457551 C18.4105263,11.6483265 16.9969805,13.9103061 14.1727579,14.9316939 L19.8116391,22.7493469 L13.6950406,22.7493469 L8.75719398,15.7761224 L5.31657744,15.7761224 L5.31657744,22.7493469 L0.346691729,22.7493469 L0.346691729,0.890897959 L8.78875489,0.890897959 C12.2508902,0.890897959 14.7198135,1.46495918 16.196003,2.61073469 C17.6721925,3.75744898 18.4105263,5.60261224 18.4105263,8.1457551 L18.4105263,8.1457551 Z" id="Fill-38" fill="#9D9E9D" mask="url(#mask-2)"></path>
                    <path d="M28.7156391,5.25338776 C28.2379218,5.63922449 27.9988241,6.14991837 27.9988241,6.78593878 C27.9988241,7.42195918 28.2910015,7.92702041 28.8748782,8.30206122 C29.4587549,8.67757143 30.8072662,9.12067347 32.9208902,9.63136735 C35.0340361,10.1425306 36.6747248,10.9085714 37.8429564,11.9299592 C39.0107098,12.9513469 39.5950647,14.4421224 39.5950647,16.4013469 C39.5950647,18.3615102 38.8466887,19.9508571 37.3489805,21.1703265 C35.8517504,22.3897959 33.881585,23 31.4399188,23 C27.9141835,23 24.7384872,21.7176327 21.9142647,19.1533673 L24.8766857,15.5888367 C27.2767489,17.6522653 29.4960541,18.6839796 31.5350797,18.6839796 C32.4479549,18.6839796 33.1647699,18.4915306 33.6855248,18.1056939 C34.2058015,17.7203265 34.466418,17.1988367 34.466418,16.5421633 C34.466418,15.8854898 34.1900211,15.3644694 33.6377053,14.9786327 C33.0853895,14.5927959 31.9917564,14.2022653 30.3563278,13.806102 C27.7649865,13.202 25.8694195,12.4143673 24.6696271,11.4450816 C23.4698346,10.4757959 22.8701774,8.95404082 22.8701774,6.87934694 C22.8701774,4.80559184 23.6290737,3.20544898 25.1473444,2.07938776 C26.665615,0.953795918 28.561182,0.391 30.8340451,0.391 C32.3202767,0.391 33.8074647,0.641183673 35.2941744,1.14108163 C36.7808842,1.64191837 38.0763158,2.35022449 39.1809474,3.26787755 L36.6642045,6.83240816 C34.7313383,5.39420408 32.7348722,4.67510204 30.674806,4.67510204 C29.8470496,4.67510204 29.1933564,4.86802041 28.7156391,5.25338776" id="Fill-40" fill="#9D9E9D" mask="url(#mask-2)"></path>
                </g>
            </g>
        </g>
    </g>
</svg>