<svg viewBox="0 0 483 411" xmlns="http://www.w3.org/2000/svg" xmlns:xlink="http://www.w3.org/1999/xlink"><title>about-image</title><defs><path d="M239.5 353c97.478 0 176.5-79.022 176.5-176.5S336.978 0 239.5 0 63 79.022 63 176.5 142.022 353 239.5 353z" id="a"/><mask id="b" x="0" y="0" width="353" height="353" fill="#fff"><use xlink:href="#a"/></mask></defs><g transform="translate(1)" fill="none" fill-rule="evenodd"><use stroke="#E6E6E6" mask="url(#b)" stroke-width="4" stroke-dasharray="12" fill-rule="nonzero" xlink:href="#a"/><text font-family="Oswald-Regular, Oswald" font-size="24" letter-spacing="1" fill="#404040"><tspan x="168.184" y="182">WE BELIEVE IN…</tspan></text><g transform="translate(0 33)"><circle stroke="#404040" fill="#FFF" fill-rule="nonzero" cx="65" cy="65" r="65"/><text font-family="Oswald-Medium, Oswald" font-size="12" font-weight="400" letter-spacing="1.5" fill="#404040"><tspan x="35.488" y="32">FOUNDER</tspan> <tspan x="89.584" y="32">S</tspan></text><g transform="translate(34 50)" stroke="#099" stroke-width="2"><path d="M19 5L62 5 62 43 21 43"/><path d="M21 39h38"/><path d="M26 36L26 31 22 31 22 36"/><path d="M42 36L42 24 38 24 38 36"/><path d="M50 36L50 18 46 18 46 36"/><path d="M58 36L58 13 54 13 54 36"/><path d="M34 36L34 28 30 28 30 36"/><path d="M11 59V38m5-33a5 5 0 0 1-5 5 5 5 0 0 1-5-5 5 5 0 0 1 5-5 5 5 0 0 1 5 5zM4 59V35H0V21a7 7 0 0 1 7-7h27v6H18v39m-7-42v2m0 2v2"/></g></g><g transform="translate(351 33)"><circle stroke="#404040" fill="#FFF" fill-rule="nonzero" cx="65" cy="65" r="65"/><text font-family="Oswald-Medium, Oswald" font-size="12" font-weight="400" letter-spacing="1.5" fill="#404040"><tspan x="38.498" y="32">SUPPOR</tspan> <tspan x="86.354" y="32">T</tspan></text><g transform="translate(34 46)" stroke="#099" stroke-width="2"><path d="M34 5a5 5 0 0 1-5 5 5 5 0 0 1-5-5 5 5 0 0 1 5-5 5 5 0 0 1 5 5zm14 58V45m4-33a4 4 0 1 1-8 0 4 4 0 0 1 8 0z"/><path d="M39 42L42 42 42 63"/><path d="M54 63V42h4V25a5 5 0 0 0-5-5H43m5 1v5m-38-5v2m0 1v2m0 37V45"/><path d="M19 42L16 42 16 63"/><path d="M4 63V42H0V25a5 5 0 0 1 5-5h10m-1-8a4 4 0 1 1-8 0 4 4 0 0 1 8 0zm8 51V38h-4V20a6 6 0 0 1 6-6h10a6 6 0 0 1 6 6v18h-4v25m-7-22v22"/><path d="M29 15v2" stroke-linejoin="round"/></g></g><g transform="translate(167 280)"><circle stroke="#404040" fill="#FFF" fill-rule="nonzero" cx="65" cy="65" r="65"/><text font-family="Oswald-Medium, Oswald" font-size="12" font-weight="400" letter-spacing="1.5" fill="#404040"><tspan x="35.864" y="35">AI &amp; DAT</tspan> <tspan x="87.872" y="35">A</tspan></text><g transform="translate(34 47)" stroke="#099" stroke-linejoin="round" stroke-width="2"><path d="M16 54a8 8 0 1 1-16 0 8 8 0 0 1 16 0zm0-23a8 8 0 1 1-16 0 8 8 0 0 1 16 0zm23-12a8 8 0 1 1-16 0 8 8 0 0 1 16 0zm23 12a8 8 0 1 1-16 0 8 8 0 0 1 16 0zM39 43a8 8 0 1 1-16 0 8 8 0 0 1 16 0zM16 8A8 8 0 1 1 0 8a8 8 0 0 1 16 0z"/><path d="M31 43L8 31 31 19"/><path d="M31 43L8 8 31 19 54 31 31 43 8 54 31 19"/></g></g></g></svg>