<svg viewBox="0 0 483 411" xmlns="http://www.w3.org/2000/svg" xmlns:xlink="http://www.w3.org/1999/xlink"><title>about-image</title><defs><path d="M239.5 353c97.478 0 176.5-79.022 176.5-176.5S336.978 0 239.5 0 63 79.022 63 176.5 142.022 353 239.5 353z" id="a"/><mask id="b" x="0" y="0" width="353" height="353" fill="#fff"><use xlink:href="#a"/></mask></defs><g transform="translate(1)" fill="none" fill-rule="evenodd"><use stroke="#E6E6E6" mask="url(#b)" stroke-width="4" stroke-dasharray="12" fill-rule="nonzero" xlink:href="#a"/><text font-family="Oswald-Regular, Oswald" font-size="24" letter-spacing="1" fill="#404040"><tspan x="168.184" y="182">WE BELIEVE IN…</tspan></text><g transform="translate(0 33)"><circle stroke="#404040" fill="#FFF" fill-rule="nonzero" cx="65" cy="65" r="65"/><text font-family="Oswald-Medium, Oswald" font-size="12" font-weight="400" letter-spacing="1.5" fill="#404040"><tspan x="35.488" y="32">FOUNDER</tspan> <tspan x="89.584" y="32">S</tspan></text><g stroke="#099" stroke-width="2"><path d="M53 55h43v38H55m0-4h38"/><path d="M60 86v-5h-4v5m20 0V74h-4v12m12 0V68h-4v18m12 0V63h-4v23m-20 0v-8h-4v8"/><path d="M45 109V88m5-33a5 5 0 0 1-5 5 5 5 0 0 1-5-5 5 5 0 0 1 5-5 5 5 0 0 1 5 5zm-12 54V85h-4V71a7 7 0 0 1 7-7h27v6H52v39m-7-42v2m0 2v2"/></g></g><g transform="translate(351 33)"><circle stroke="#404040" fill="#FFF" fill-rule="nonzero" cx="65" cy="65" r="65"/><text font-family="Oswald-Medium, Oswald" font-size="12" font-weight="400" letter-spacing="1.5" fill="#404040"><tspan x="38.498" y="32">SUPPOR</tspan> <tspan x="86.354" y="32">T</tspan></text><g stroke="#099" stroke-width="2"><path d="M68 51a5 5 0 0 1-5 5 5 5 0 0 1-5-5 5 5 0 0 1 5-5 5 5 0 0 1 5 5zm14 58V91m4-33a4 4 0 1 1-8 0 4 4 0 0 1 8 0zM73 88h3v21m12 0V88h4V71a5 5 0 0 0-5-5H77m5 1v5m-38-5v2m0 1v2m0 37V91m9-3h-3v21"/><path d="M38 109V88h-4V71a5 5 0 0 1 5-5h10m-1-8a4 4 0 1 1-8 0 4 4 0 0 1 8 0zm8 51V84h-4V66a6 6 0 0 1 6-6h10a6 6 0 0 1 6 6v18h-4v25m-7-22v22"/><path d="M63 61v2" stroke-linejoin="round"/></g></g><g transform="translate(167 280)"><circle stroke="#404040" fill="#FFF" fill-rule="nonzero" cx="65" cy="65" r="65"/><text font-family="Oswald-Medium, Oswald" font-size="12" font-weight="400" letter-spacing="1.5" fill="#404040"><tspan x="35.864" y="35">AI &amp; DAT</tspan> <tspan x="87.872" y="35">A</tspan></text><g stroke="#099" stroke-linejoin="round" stroke-width="2"><path d="M50 101a8 8 0 1 1-16 0 8 8 0 0 1 16 0zm0-23a8 8 0 1 1-16 0 8 8 0 0 1 16 0zm23-12a8 8 0 1 1-16 0 8 8 0 0 1 16 0zm23 12a8 8 0 1 1-16 0 8 8 0 0 1 16 0zM73 90a8 8 0 1 1-16 0 8 8 0 0 1 16 0zM50 55a8 8 0 1 1-16 0 8 8 0 0 1 16 0z"/><path d="M65 90L42 78l23-12"/><path d="M65 90L42 55l23 11 23 12-23 12-23 11 23-35"/></g></g></g></svg>